<?xml version="1.0" encoding="utf-8"?>
<svg xmlns="http://www.w3.org/2000/svg" version="1" viewBox="0 0 208 139">
	<title>Rough sketch map of landing place and first camp at Cape Valentine, Elephant Island.</title>
	<path d="M8376 6156c-4-3-7-41-7-84 0-61 3-76 15-76 12 0 16 12 16 49l0 50 52-57c28-32 55-55 59-50 4 4 8 42 7 84 0 62-4 76-18 79-14 3-17-4-16-36 1-23 2-45 1-49-1-11-46 42-63 74-12 23-33 30-46 16zM3895 6062c-9-10-22-33-30-50l-13-31-22 39c-27 46-38 45-54-4-15-45-28-46-42-3-13 39-34 63-45 53-7-7 44-140 61-159 5-6 19 14 31 45l23 55 14-39c7-21 20-46 29-55 15-14 17-14 23 5 4 11 16 44 27 74 12 30 20 62 18 72-3 16-5 16-20-2zM4192 6073c-7-3-13-18-13-34 0-23-5-28-28-29-53-3-73-61-35-98 24-24 86-29 103-8 5 7 9 43 8 81-4 104-3 100-35 88zm-13-120c0-25-28-39-44-23-16 17-2 45 23 45 14 0 21-7 21-22zM5009 6049c0-17-5-34-12-38-7-4-7-11 0-19 5-7 13-30 17-52 10-54 37-52 37 3 0 30 4 42 15 42 9 0 16 7 16 16 0 8-6 16-14 16-8 0-18 14-21 31-9 42-38 43-38 1zM5203 6069c-12-18 5-32 32-25 34 8 33-5-6-68-37-59-39-75-12-75 13 0 25 13 34 34 7 19 24 51 36 71 43 71 42 74-21 74-31 0-60-5-63-11zM5387 5996c0-48 4-86 11-90 17-11 20-2 22 56 1 58 9 60 39 11l19-31 22 37c28 47 46 48 44 3-4-63 0-81 16-81 12 0 16 16 16 83 0 46-5 86-10 90-16 9-39-4-54-32-18-33-31-32-68 6-49 51-57 43-57-52zM5639 6064c0-9 4-16 10-16 6 0 11 7 11 16 0 8-5 16-11 16-6 0-10-8-10-16zM5714 6000c2-55 8-83 17-86 10-4 13 14 10 77-2 55-7 83-16 86-11 4-13-14-11-77zM3439 6062c-14-5-4-166 10-166 6 0 12 12 14 27 3 22 9 27 39 27 19 1 40 4 46 8 16 10 14 75-3 89-14 12-87 22-106 15zm72-31c21-8 22-45 2-52-25-10-57 14-51 37 6 22 20 26 49 15zM4037 6055c-11-28 0-157 13-162 10-3 14 17 14 80 0 78-14 118-27 82zM4545 6062c-3-5-3-45-1-88l4-80 48 2c34 2 53 8 63 22 29 39-10 104-57 93-18-4-23 0-26 23-3 27-23 45-31 28zm85-92c14-17 6-37-15-37-23 0-38 25-24 40 16 16 24 15 39-3zM2618 6047c-7-7-36-20-65-29-29-10-53-22-54-28-1-6 18-16 43-23 24-7 52-20 62-29 25-23 35-20 29 11l-5 27 69-7c272-25 264-25 264 0 0 13-128 26-273 27-52 0-64 3-50 11 21 12 25 52 5 52-8 0-19-6-25-12zM2993 6049c0-5 14-12 31-15 31-6 32-7 32-75 0-56 3-68 16-68 14 0 16 11 13 65-3 60-1 67 20 76 41 18 27 27-44 27-38 0-68-5-68-10zM5814 6016c-11-7-18-24-18-47 0-47 40-77 79-59 35 15 34 37 0 29-33-9-34 7-3 28 19 13 22 20 12 35-13 23-44 29-70 14zm35-36c-8-9-18-16-22-16-5 0-7 7-3 16 3 8 13 16 22 16 13 0 13-3 3-16zM5949 6013c-15-11-17-18-8-35 8-15 8-25 0-33-20-19 11-46 48-42 27 3 33 8 33 29 0 17-9 30-24 38-37 19-42 28-10 20 22-6 29-4 29 10 0 9-5 17-10 17-5 0-16 2-24 5-8 3-23-1-34-9zM3955 6009c-4-3-7-29-7-57 0-38 4-51 16-51 12 0 16 13 16 52 0 49-10 71-25 56zM4410 6001c0-9 6-16 13-16 7 0 5-5-5-11-22-13-24-45-4-61 8-7 33-13 55-15 40-2 41-2 44 38 4 52-20 81-68 81-24 0-35-5-35-16zm74-63c0-17-10-20-36-10-22 9-11 26 15 26 11 0 21-8 21-16zM4712 6005c-13-7-18-24-18-52 0-34 4-44 25-54 57-26 103 19 80 79-14 37-51 48-87 27zm53-33c21-20 14-39-14-39-27 0-31 7-20 35 8 20 17 21 34 4zM4848 6010c-10-10-9-80 1-94 4-7 30-15 57-19l50-8 0 64c0 48-4 64-15 64-10 0-16-14-18-40-3-31-8-39-25-39-15 0-22 8-24 31-4 35-15 52-26 41zM5630 5961c4-69 23-67 27 3 3 42 0 53-13 53-14 0-17-11-14-56zM3158 5995c-43-26-11-115 41-115 42 0 72 64 47 102-11 18-66 26-88 13zm59-27c13-32 7-46-20-46-31 0-45 25-26 47 17 21 38 20 46-1zM8453 5940c0-13-10-49-21-81-27-71-27-93-2-120 18-19 21-48 27-274 4-138 9-271 10-294l1-42-86-3c-48-1-87-7-87-13 0-19 38-29 97-26 58 4 61 3 61-21 0-14 4-28 10-31 6-4 11-55 11-117 0-84 3-110 13-106 9 3 12 38 9 138-3 105-1 137 10 143 8 5 41 6 74 3 41-4 61-2 67 7 12 20-13 29-81 26-38-1-64 3-66 10-2 6-7 139-11 295-6 283-6 284 17 314 23 29 23 30 4 78-10 27-24 69-30 93-12 48-27 60-27 21zM3581 5917c0-9 7-16 15-16 9 0 16 7 16 16 0 8-7 16-16 16-8 0-15-8-15-16zM541 5189c-12-12-4-21 29-33 18-7 43-17 55-22 36-16 144-44 205-52 59-9 94-17 183-47 29-9 76-24 105-33 62-20 118-45 228-100 49-25 121-50 179-63 166-36 393-136 551-243 68-46 113-67 210-97 68-21 136-42 150-47 14-5 52-15 84-22 32-8 121-34 199-59 77-25 149-45 160-45 16 0 19-9 19-63 0-35 5-63 11-63 5 0 10 12 10 26 0 28 20 48 22 22 3-33 4-38 15-40 6-2 12 12 13 31 3 24-2 36-17 44-11 6-22 8-25 5-3-2-8 5-11 17-5 19-1 21 38 21 24 0 67-7 96-14 43-11 48-15 29-20-24-6-31-39-17-75 9-23 25-10 25 19 0 14 7 27 16 31 10 4 16-1 16-14 0-24 26-53 47-53 9 0 16 7 16 16 0 8-6 16-13 16-7-1-2 7 11 16 21 15 36 16 120 5 53-6 113-13 133-14l36-2-60-31c-33-16-77-43-98-60-21-16-44-30-51-30-8 0-21-3-29-6-11-4-20 5-28 29-12 31-14 33-22 14-5-12-9-35-10-53-1-32-33-81-98-152-20-21-44-54-54-73-17-33-17-36 3-56 29-29 203-47 286-30 32 7 77 12 99 12 42 0 206 52 261 83 18 10 54 21 78 25 26 3 62 18 83 34l38 29-8-41c-4-22-10-53-12-67-13-79-27-129-40-150-14-21-21-49-48-202-67-381-73-463-58-777 10-198 10-171 0-315-4-69-21-176-42-267-42-182-57-336-68-721-10-380-5-709 15-912 9-93 17-220 17-284 2-124 11-182 26-149 11 26-1 346-18 485-14 121-17 846-4 1108 12 246 46 492 80 572 5 12 12 66 16 121 7 102 8 176 3 562-2 168 1 240 14 304 9 46 23 124 29 174 7 49 17 105 22 126 5 20 12 53 15 73 4 20 16 56 28 79 11 23 32 103 45 178 13 75 37 166 52 202 41 98 38 120-22 150-74 37-177 51-368 52-200 1-360 20-438 53-33 14-128 31-171 32-40 0-173 30-317 73-44 12-111 32-150 43-236 65-298 90-399 161-68 48-253 143-277 143-8 0-39 11-70 24-31 14-102 35-158 48-56 12-118 30-137 40-143 74-208 102-332 143-78 26-195 57-261 70-66 13-132 30-147 38-15 8-34 14-41 14-8 0-32 9-55 20-22 11-44 17-47 14zm3242-962c76-15 136-38 148-57 3-5-6-40-21-79-35-91-102-153-163-153-23 0-64-12-93-27-78-39-137-57-190-57-26 0-52-5-57-10-15-14-102-24-215-26-109-1-158 8-157 28 0 7 39 59 87 117 74 89 93 106 140 123 29 11 66 33 82 48 15 15 63 45 106 66 70 35 88 39 166 40 49 1 124-5 167-13zM5061 4988c-150-10-307-43-404-84-12-5-35-12-53-16-17-4-60-20-94-37-35-16-99-40-142-52-134-39-168-52-201-77-28-20-31-28-26-60 4-20 10-62 13-92 7-60 6-58 103-121 84-54 92-58 162-69 37-6 89-22 115-36 90-45 175-94 225-129 104-74 166-100 250-106 72-5 106-12 162-35 12-5 33-11 48-14 28-6 117-29 241-61 143-38 163-44 173-51 17-11 89-30 179-47 54-10 141-16 247-15 141 0 166 3 194 20 17 11 53 32 79 46 68 37 100 71 109 116 9 50-11 83-88 144-32 25-71 60-86 78-16 17-65 56-111 86-126 83-138 94-158 151-13 39-31 64-65 91-26 21-69 60-95 86-72 72-181 158-201 158-10 0-31 11-48 24-42 35-71 49-103 49-15 0-73 12-129 26-132 33-163 36-296 27zm308-62c50-12 103-22 116-22 25 0 86-27 95-42 3-5 29-21 58-36 51-26 141-102 204-172 17-19 37-34 43-34 21 0 74-67 89-110 17-52 46-85 98-112 48-24 150-101 185-139l25-27-33-54c-32-51-40-72-27-72 9 0 61 64 70 85 4 12 13 17 23 13 23-9 21-13-20-75-36-56-34-83 5-45 20 20 42 28 42 16 0-3-7-17-16-31-11-15-13-27-6-31 6-4 19 6 29 21 15 23 16 33 5 60-17 46 1 59 34 25 30-29 34-55 16-93-11-25-30-39-134-101l-56-34-170-1c-216-1-251 6-582 113-24 8-53 15-64 15-20 0-55 9-229 64-54 17-121 30-152 30-43 0-73 9-129 38-40 20-82 44-92 54-21 19-153 94-231 131-52 24-59 33-37 43 7 3 32 13 55 23l42 18-31-33c-17-18-25-32-19-32 20 0 118 67 118 81 0 10-5 11-20 3-16-9-21-8-21 0 0 17-62 4-85-16-9-9-22-16-29-16-6 0-18-9-25-20-14-19-18-20-92-6-55 11-89 24-115 45-21 17-54 39-74 49-21 10-39 20-41 22-2 2-7 31-12 64-4 34-11 68-14 77-8 18 64 71 109 80 54 11 207 61 262 86 32 15 74 30 95 34 20 5 69 18 110 31 73 22 145 38 236 51 94 15 295 5 392-18z" transform="matrix(.02286 0 0 -.02286 -9.6 140.88)"/>
	<path d="M4884 4865c-1-7-11-10-24-6-21 5-22 3-15-35 11-59 27-70 28-20 1 23 3 32 6 21 16-75 15-74 25-57 6 11 4 34-5 63-8 26-15 41-15 34zM4918 4831c11-68 29-92 21-27-4 29-11 57-17 63-7 7-8-5-4-36zM4996 4867c-9-10 2-124 14-136 5-6 9 5 8 26 0 53-14 118-22 110zM5065 4803c11-103 29-114 25-16-2 56-7 79-17 83-13 4-14-8-8-67zM4814 4822c8-41 13-51 21-43 9 9-7 83-18 83-6 0-7-16-3-40zM4954 4812c5-64 23-85 23-27 0 24-3 51-6 60-13 32-20 16-17-33zM5029 4799c9-87 22-92 22-7 0 50-4 70-14 70-10 0-12-16-8-63zM5114 4786c0-44 4-84 10-87 14-9 14 131 0 152-7 11-10-9-10-65zM5146 4791c2-75 12-128 23-112 10 16-4 172-15 172-5 0-8-27-8-60zM4645 4824c-4-9 2-32 13-52 10-20 15-39 11-44-5-4-13 0-19 10-11 20-40 25-40 7 0-41 42-63 88-45 24 9 20 52-6 77l-23 22 26 0c33 0 44 9 29 27-17 20-72 18-79-2zM5187 4757c0-51 4-84 11-84 6 0 10 32 9 84-1 46-6 84-11 84-5 0-9-38-9-84zM5228 4838c0-1-3-39-6-84-3-54-1-81 6-81 6 0 12 5 12 12 0 7 6 4 14-7 12-17 15-10 27 67 13 81 11 109-7 91-5-4-11-34-15-67l-6-60-1 60c-1 33-7 63-12 66-6 4-11 5-12 3zM5308 4820c-4-6-9-45-12-87-3-53-1-70 6-55 8 18 10 17 10-11 1-24 4-28 12-15 8 13 10 13 10 0 0-31 19 6 41 79 25 85 25 89 13 89-5 0-17-32-28-71-11-39-21-65-23-59-2 7 3 37 12 68 16 54 14 80-5 51-5-9-10-25-10-37 0-11-5-28-11-36-9-12-10-1-5 39 6 53 3 66-10 45z" transform="matrix(.02286 0 0 -.02286 -9.6 140.88)"/>
	<path d="M4578 4804c0-9 2-16 4-16 3 0 12-3 21-6 25-10 21 14-4 27-17 9-21 8-21-5zM4767 4796c-5-13-12-40-15-60-3-21-7-42-9-48-1-5 6-12 16-14 14-2 19 4 19 25 0 19 6 30 21 33 22 6 28 29 10 40-6 4-10 16-10 27 0 28-20 26-32-3zM4526 4791c0-13 53-48 61-40 4 4-4 16-18 27-26 21-44 26-43 13zM5384 4720c-15-46-25-86-22-89 8-8 23 22 41 82 27 92 12 98-19 7zM5431 4743c-32-85-36-102-25-102 5 0 12 8 15 18 3 10 15 43 27 73 12 31 18 58 12 61-5 3-18-19-29-50zM5481 4762c-5-14-20-48-31-73-12-26-21-52-21-59 0-16 43-8 53 11 26 47 53 117 48 123-4 3-19-21-34-54-15-33-30-58-33-55-4 4 28 84 46 114 2 4-1 10-7 14-6 3-15-6-21-21zM4463 4774c0-7 103-70 115-70 23 0 4 26-38 50-35 20-77 31-77 20zM4400 4751c0-12 131-65 135-55 4 12-20 28-72 47-39 14-63 17-63 8zM4841 4736c-12-12-21-28-21-35 0-26 32-60 58-60 27 0 35 16 12 24-8 4-5 11 11 23 31 23 30 46-3 58-35 14-33 14-57-10zM5520 4682c-18-40-26-72-23-87 4-15-2-42-16-69-25-49-19-75 11-47 19 17 21 16 33-12l13-31 4 32c2 17 10 35 19 40 26 15 16 31-17 26-17-3-31-4-31-2 0 1 4 16 10 31 9 22 8 31-2 37-10 7-6 25 20 77 22 43 29 69 21 69-7 0-26-29-42-64z" transform="matrix(.02286 0 0 -.02286 -9.6 140.88)"/>
	<path d="M5560 4684c-29-58-31-64-18-64 11 0 59 104 51 112-3 3-18-18-33-48zM4330 4716c4-6 24-13 46-17 22-4 47-11 55-17 11-8-10-9-71-5-56 4-86 3-86-4 0-6 21-11 47-11 26 0 47-5 47-10 0-6-13-11-29-11-16-1-43-8-60-16-30-14-28-14 34-8 70 6 93-10 31-22-82-17-91-20-91-30 0-6 12-8 28-4 16 4 46 9 66 12 67 11 126 29 126 38 0 5-4 9-9 9-6 0-9 12-8 26 1 20 6 25 20 20 31-9 21 24-11 36-42 16-142 26-135 14zM4953 4714c-38-23-12-104 33-104 24 0 31 26 9 34-8 2-4 9 11 17 31 16 31 49 0 57-30 8-31 8-53-4zM5026 4629c-14-42-24-80-21-85 7-12 35 12 35 31 0 12 7 14 26 9 30-7 69 24 69 55 0 23-27 49-59 59-20 6-26-2-50-69zm72 9c0-28-21-26-25 2-2 17 1 23 11 20 7-3 14-13 14-22zM5583 4656c-27-45-40-94-19-72 11 12 47 76 57 102 13 35-9 18-38-30zM5609 4624c-19-33-32-62-28-65 8-8 19 6 51 64 30 54 32 60 20 60-5 0-24-27-43-59zM4527 4650c-5-14-12-47-16-75-6-40-5-49 8-49 8 0 17 10 19 23 3 20 10 24 43 24 36 0 39-3 39-29 0-38 42-67 73-50 25 13 19 34-7 24-11-4-14-2-9 6 4 6 14 12 22 12 20 0 20 36 0 52-9 8-28 11-42 8-20-3-26 0-26 13 0 24-30 49-66 59-24 5-30 3-38-18zm72-35c0-17-37-22-46-7-8 13 4 23 27 23 10 0 19-8 19-16zM5202 4645c-3-11-11-31-16-44-20-51 0-61 34-18 12 15 26 24 32 20 6-4 15 0 20 8 15 23 11 30-15 30-13 0-29 6-36 12-9 10-14 8-19-8zM5645 4615c-16-26-28-52-25-59 3-10 71 84 71 100 0 18-19 1-46-41zM5682 4593c-37-41-45-71-11-40 32 28 65 78 53 78-5 0-24-17-42-38zM5282 4600c-35-66 29-119 69-58 14 21 15 32 6 52-15 32-59 35-75 6zm55-44c-7-7-20-9-29-6-14 5-15 11-5 29 11 21 13 21 29 6 13-13 14-20 5-29zM5709 4570c-43-45-35-65 8-23 20 19 37 39 37 44 0 16-17 8-45-21zM5389 4582c-18-8-16-72 2-88 18-14 50-11 56 7 2 7-7 14-21 16-31 4-32 35-1 35 31 0 43 14 24 26-16 11-39 12-60 4zM4368 4561c-70-22-77-25-70-32 9-9 175 30 175 40 0 13-51 9-105-8zM5739 4547c-16-17-28-35-26-42 3-6 18 6 34 26 37 47 32 58-8 16zM4729 4526c-14-53-6-62 23-24 13 16 27 26 30 22 14-13-7-59-32-70-31-15-119-95-119-109 0-6 31 12 70 39l71 50-39-41c-56-59-49-76 10-28 28 22 54 44 58 50 13 17 9 26-8 20-10-4-15 0-15 11 0 9 6 17 15 17 16 0 37 58 29 80-4 12-36 24-66 24-10 0-20-15-27-41z" transform="matrix(.02286 0 0 -.02286 -9.6 140.88)"/>
	<path d="M4864 4539c-18-12-23-26-23-61 0-39-7-52-53-101-29-31-52-63-52-72 0-9 23 8 53 39 29 31 57 56 63 56 16 0 11-32-7-39-21-8-68-78-61-89 8-13 98 87 98 109 0 10 6 19 12 19 6 0 10 11 8 25-2 14 5 35 16 47 17 19 18 26 7 53-15 36-26 38-61 14zM5767 4533c-33-34-30-55 3-22 15 15 26 32 24 37-2 6-14-1-27-15zM4382 4522c-39-14-69-38-47-38 30 0 113 24 127 38 13 12 11 14-16 13-17 0-46-6-64-13zM4953 4507c-3-4-8-20-11-35-8-33 10-59 48-68 24-6 29-3 29 14 0 12 4 23 9 25 5 2 13 14 17 27 10 34-19 32-35-2-17-38-33-33-33 10 0 34-13 49-24 29zM5093 4503c0-7-7-20-15-29-20-22-26-76-10-82 8-3 18 14 25 41 7 25 16 50 21 57 6 6 7 14 3 18-11 11-24 8-24-5zM5597 4474c0-47-20-60-69-47-22 5-28 3-24-8 3-8 22-16 43-17 29-3 51 5 91 31 29 19 53 38 53 42 0 18-20 17-37-2-22-25-36-18-36 16 0 14-5 26-11 26-6 0-10-19-10-41zM5823 4505c-7-11 0-15 19-12 6 1 4-5-4-14-18-22-4-35 16-15 14 14 14 18-4 34-13 12-23 14-27 7zM4415 4473c-34-18-51-30-36-27 62 11 109 27 124 42 28 28-16 21-88-15zM4484 4457c-38-19-61-36-52-36 27-1 150 48 154 61 7 21-33 12-102-25zM5771 4485c-5-7-6-16-2-20 9-9 19 5 14 20-3 11-6 11-12 0zM5124 4436c-13-35-13-57 0-57 6 0 11 4 11 9 0 15 32 44 42 38 5-3 6-23 2-44-7-45 9-41 29 7 16 38 4 56-45 67-24 6-30 3-39-20zM5313 4436c0-8 5-15 11-15 5 0 10 7 10 15 0 9-5 16-10 16-6 0-11-7-11-16zM5733 4411c-12-24-17-44-11-48 6-3 20 13 32 36 12 24 17 44 11 48-6 3-20-13-32-36zM5866 4384c-30-62-34-79-18-79 5 0 22 27 37 60 31 68 32 70 19 74-5 1-22-23-38-55zM5790 4416c-4-8-1-24 5-36 17-32 14-38-9-17-21 18-21 18-21-3 0-23 33-41 53-28 7 4 9 20 6 37-4 17-1 31 6 33 16 5 0 29-19 29-9 0-18-7-21-15zM5282 4371c-16-45-16-50 1-50 14 0 42 73 33 83-13 12-20 5-34-33zM4897 4355c-44-48-77-99-70-106 8-9 119 108 119 126 0 23-15 17-49-20zM5345 4363c-21-55-5-83 19-32 12 28 20 31 42 17 11-7 12-14 2-32-7-12-10-28-8-35 3-7 13 5 24 27 17 34 17 41 4 54-8 8-28 18-44 22-24 6-30 3-39-21zM4964 4356c-29-21-88-111-80-119 10-10 116 108 112 124-3 14-7 13-32-5zM5518 4319c-14-32-26-63-26-68 0-17 19-9 35 14 17 24 23 18 30-33 1-14 9-27 17-30 12-4 13 3 8 33-6 31-4 38 13 43 25 8 35 42 19 63-7 8-25 20-41 26-27 10-29 8-55-48zm79-5c0-12-29-11-37 2-12 18 5 33 22 20 8-7 15-17 15-22zM5998 4323c-26-61-31-102-7-57 9 16 23 29 31 29 9 0 16 10 17 26 1 14 2 32 3 38 0 7-4 14-10 16-6 2-21-22-34-52zM5914 4355c-33-41-15-103 25-88 19 8 19 9 1 22-17 13-17 14 8 20 31 8 35 33 6 48-25 14-27 14-40-2zM5006 4331c-35-32-84-108-79-121 5-15 115 115 111 132-3 12-10 10-32-11zM5057 4320c-27-26-94-131-88-137 3-3 17 10 30 28 14 18 44 53 66 79 28 32 35 47 24 47-9 0-23-8-32-17zM5112 4315c-22-13-85-113-80-128 2-7 13 1 24 17 12 16 34 45 51 65 32 38 34 62 5 46zM5138 4284c-30-37-51-82-42-91 4-4 8-5 10-3 2 3 18 29 36 60 36 59 33 81-4 34zM5274 4297c-8-2-13-13-13-24 0-10-5-22-10-25-5-3-11-19-14-35-3-16-9-37-13-47-4-11-3-18 3-18 9 0 70 146 63 152-2 1-9 0-16-3zM5179 4281c-17-20-48-102-41-109 5-5 70 99 70 115 0 12-17 9-29-6zM5215 4259c-10-22-17-47-17-54 0-8-5-17-11-21-13-8-14-26-2-26 14 0 57 102 52 123-3 13-9 7-22-22zM5305 4282c-6-8-16-39-22-69-14-67-14-65-4-65 9 0 48 136 41 143-2 2-9-2-15-9zM5623 4261c-6-18-8-40-7-64 2-23 56-25 76-2 21 26 0 72-35 77-17 2-31-3-34-11zm58-35c0-11-8-16-23-14-34 5-38 30-5 30 18 0 28-6 28-16zM6086 4250c-3-13-6-32-6-42 0-16 3-17 21-8 17 10 21 8 21-10 0-12 2-21 5-21 16 0 58 35 58 49 0 13-3 14-16 3-13-11-16-9-16 10 0 18-4 22-21 16-15-4-21-2-21 10 0 25-18 20-25-7zM5331 4249c-3-8-9-38-13-66-8-56 2-58 16-2 5 19 12 45 16 58 8 26-10 34-19 10zM5362 4238c-3-8-8-37-12-66-6-49-6-50 8-19 19 42 30 100 19 100-5 0-12-7-15-15zM5404 4234c-3-10-8-32-12-50-3-17-9-40-12-50-3-10-1-18 4-18 5 0 15 20 21 45 6 24 15 55 19 68 4 14 3 24-4 24-6 0-13-9-16-19zM5429 4178c-22-102-10-114 15-16 19 71 19 70 6 70-5 0-14-24-21-54zM5723 4216c-7-8-11-28-9-44 3-26 8-30 40-30 33 0 37 3 40 31 6 47-43 77-71 43zm47-37c0-23-31-19-35 4-3 14 1 18 15 15 11-2 20-11 20-19zM5828 4169c-23-47-28-63-17-63 9 0 18 4 22 10 12 19 25 11 28-18 4-37 23-34 28 5 2 16 8 32 14 35 19 12-2 32-25 24-19-5-21-3-14 13 33 80 6 75-36-6zM5474 4190c-18-43-28-109-15-101 6 4 12 15 12 26 0 10 5 23 11 29 6 6 9 25 7 42l-4 30-11-26z" transform="matrix(.02286 0 0 -.02286 -9.6 140.88)"/>
	<path d="M6187 4171c-10-22-19-41-20-43-2-3-36 10-75 28-73 34-96 40-96 25 0-11 92-51 137-59 42-8 53-1 76 43 20 40 21 46 7 46-6 0-19-18-29-40zM5509 4184c-10-24-21-120-14-120 3 0 10 20 16 44 6 25 14 55 18 68 8 27-10 34-20 8zM5542 4169c-5-15-8-46-8-69 0-33 2-38 11-23 6 10 9 41 7 68-2 41-4 45-10 24zM5573 4103c-4-55-2-69 8-58 12 11 18 113 7 113-6 0-12-25-15-55zM5617 4134c0-13-3-42-6-65-5-32-4-39 5-31 18 16 29 120 13 120-6 0-12-11-12-24zM6027 4130c38-30 192-77 206-64 5 6-23 17-122 50-115 37-114 37-84 14zM5649 4079c0-37 4-56 11-52 5 3 10 30 10 58 0 29-5 52-10 52-6 0-11-26-11-58zM5923 4122c-7-8-11-31-10-50 3-30 8-35 35-38 29-2 30-1 14 12-17 13-17 15 7 26 29 13 34 33 14 52-17 17-45 16-60-2zM5690 4122c-7-7-2-101 5-108 9-9 12 15 7 64-3 28-9 48-12 44zM5718 4088c19-75 24-83 22-31-1 32-7 54-15 57-10 3-12-4-7-26zM5754 4087c0-26 22-100 28-94 8 8-9 113-19 113-5 0-9-9-9-19zM5797 4061c0-19 5-44 10-55 6-16 9-9 9 28 1 27-4 52-9 56-7 4-11-8-10-29zM6007 4058c-26-44-28-57-7-57 8 0 17 10 20 22 5 19 11 21 38 16 24-5 32-3 32 9 0 9-6 16-12 16-7 0-21 7-30 16-17 15-20 13-41-22zM5835 4057c-3-5 0-21 6-35 9-22 12-23 15-9 5 21-12 58-21 44zM6172 4041c25-11 51-19 58-17 18 7-51 40-79 39-19-1-14-6 21-22zM5880 4028c0-9 5-19 11-22 5-4 10 0 10 9 0 9-5 19-10 22-6 4-11 0-11-9zM6094 4011c-7-33-33-48-67-37-27 9-50-4-30-17 23-14 89-10 135 8 50 20 57 40 10 30-30-6-32-5-25 20 4 18 2 28-5 28-7 0-15-15-18-32zM952 4825c-15-38-28-73-28-78 0-13 60-43 84-43 29 0 39 21 47 96 7 64 6 71-14 82-45 24-59 14-89-57zm85 24c18-18 16-26-7-32-27-7-47 7-40 28 8 20 30 22 47 4zm-35-57c21-8 22-45 1-53-26-10-49 16-36 40 12 22 12 22 35 13zM1092 4752c-19-36-6-75 29-87 31-11 55-7 55 8 0 6-9 10-21 10-12 0-21 5-21 11 0 5 6 10 14 10 8 0 22 8 31 18 14 16 14 22 3 37-21 28-73 24-90-7zm63-11c0-3-9-10-21-16-17-9-21-8-21 5 0 9 9 16 21 16 12 0 21-2 21-5zM420 4735c0-14 72-45 147-63 32-8 59-15 60-15 2-1-9-44-23-95-28-101-32-125-17-116 9 6 20 45 44 156 7 35 18 59 24 57 7-3 37-13 68-23 30-10 85-37 120-59 85-54 254-135 279-135 11 0 63-15 115-32 53-17 106-31 117-31 12 0 30-5 40-10 10-6 58-27 108-49 134-58 133-58 190-106 31-27 63-45 79-45 14 0 38-7 54-15 15-8 45-17 65-21 25-4 56-24 90-56 29-28 79-64 113-80 36-19 76-51 102-81 67-80 118-96 357-114 67-5 141-17 168-27 25-10 70-23 99-30 29-6 55-12 57-14 2-2-4-15-13-29-10-14-17-40-17-56 0-16-5-34-10-40-22-23-87-164-101-219-8-33-16-101-16-151 0-50-5-126-10-169-8-62-7-90 7-142 16-63 36-217 36-289 4-775 4-766-6-898-9-114 0-155 60-286 12-26 4-155-13-213-6-20-10-62-10-93 0-35-12-92-31-148-69-206-64-303 36-775 3-14 10-21 17-17 14 8 10 38-34 272-48 251-46 368 6 504 18 45 32 108 37 163 4 49 14 127 21 174 14 91 17 78-50 261-12 33-13 67-8 153 8 121 8 116 3 514-2 162 1 297 7 323 7 32 6 59-4 99-8 31-13 78-12 106 1 27-8 86-20 130-20 71-22 90-12 170 6 50 9 122 6 160-5 75 21 184 57 243 11 19 24 46 28 61 4 14 15 34 24 44 8 10 16 36 17 58 1 34 4 39 23 36 22-3 104 34 115 52 11 17-7 32-23 19-12-10-14-6-14 25 0 20-5 49-11 64-16 43-97 115-145 129-51 16-199 17-259 3-23-5-44-5-47 0-3 5-19 12-35 16-16 4-33 15-38 24-6 10-12 15-15 12-9-8 13-86 30-109 18-24 35-13 19 13-10 16-5 18 43 19 29 1 95 5 145 9 76 7 100 5 142-10 61-23 114-71 140-126 24-51 27-84 5-55-20 27-27 22-27-19 0-20-4-36-9-36-5 0-7 11-4 26 5 24 2 26-33 26-20 0-62 11-93 24-77 34-167 53-216 47-45-6-247 24-280 42-12 6-43 35-70 64-27 29-68 62-92 74-33 17-43 29-43 48 0 17 6 27 16 27 8 0 16 6 16 14 0 8-11 14-27 14-22 0-26-5-26-30 0-16-3-30-7-30-4 0-29 21-57 47-28 26-57 48-64 48-8 0-32 5-54 11l-39 11 23 18c15 12 20 24 14 33-6 11-11 10-22-5-12-17-14-16-25 5-16 29-4 63 23 63 12 0 19 6 16 13-6 18-37 23-55 8-19-16-20-85-3-103 10-10 5-12-21-12-25 0-44 10-73 38-34 35-82 60-268 144-33 15-70 28-82 28-12 0-31 5-43 11-11 6-64 22-117 36-133 34-204 62-280 111-101 65-188 102-292 125-53 12-120 30-149 42-62 24-63 25-63 10zM1246 4729c-15-16-6-25 25-25 17 0 31-5 31-10 0-6-7-8-15-5-22 9-58-14-58-38 0-20 47-52 77-52 20 0 38 32 38 67 0 41-73 88-98 63zm56-88c0-17-4-19-23-12-34 13-36 33-4 33 20 0 27-5 27-21zM1544 4659c-4-13-16-42-26-64-9-22-16-47-16-55 0-25 19-16 36 17 11 20 25 32 39 32 20 0 21-5 15-48-8-62 16-65 36-4 17 51 6 76-35 81-25 3-27 7-22 34 8 37-13 43-27 7zM1403 4659c-11-8-19-29-20-50-2-29 3-38 26-49 27-14 61-9 61 9 0 5-11 9-25 9-36 0-54 25-32 46 20 20 21 20 47 6 16-8 21-7 21 5 0 15-30 38-50 38-5 0-18-7-28-14z" transform="matrix(.02286 0 0 -.02286 -9.6 140.88)"/>
	<path d="M652 4586c-7-25-17-59-23-77-5-18-9-44-9-58 2-30 35 70 45 136 9 56 3 56-13-1zM694 4587c-14-40-15-61-2-61 9 0 26 83 18 91-2 2-9-11-16-30zM714 4510c-33-104-38-133-22-115 21 23 75 215 60 215-3 0-20-45-38-100zM784 4581c-8-14-60-182-59-195 0-23 20 18 37 77 9 31 20 71 26 88 9 30 7 48-4 30zM790 4481c-33-84-46-140-23-101 19 33 72 188 65 188-5 0-24-39-42-87zM826 4460c-40-90-45-108-28-97 11 7 31 49 58 123 30 83 12 66-30-26zM858 4440c-23-45-39-88-37-94 6-17 31 25 60 98 37 92 22 89-23-4zM663 4471c-16-45-15-62 2-29 22 42 28 63 18 63-5 0-14-15-20-34zM888 4411c-26-53-42-95-37-95 13 0 99 177 90 185-3 3-27-37-53-90zM926 4398c-40-68-59-123-34-98 15 15 87 164 81 169-2 3-24-29-47-71zM963 4382c-22-38-38-75-36-81 2-7 15 10 28 36 13 25 33 59 44 75 21 30 24 40 12 40-5 0-26-32-48-70zM1013 4399c-51-80-67-114-58-120 5-3 28 32 52 79 47 89 50 111 6 41zM1052 4407c-20-24-66-135-62-147 3-7 15 11 28 40 21 47 41 92 50 113 6 12-4 9-16-6zM1081 4393c-40-102-60-161-52-161 4 0 13 12 19 28 6 16 21 57 34 90 13 33 20 64 17 67-4 4-12-7-18-24zM1117 4383c-4-11-18-48-32-82-26-66-31-96-14-85 12 7 66 174 58 181-3 3-8-3-12-14zM1135 4318c-13-45-26-90-29-100-3-10-1-18 5-18 11 0 23 35 49 144 20 85 1 66-25-26zM1172 4300c-16-49-31-97-34-105-10-25 12-18 25 8 14 30 47 176 41 182-2 3-17-36-32-85zM1224 4342c-4-23-17-69-29-102-24-66-21-109 4-50 20 47 44 161 38 180-3 7-9-5-13-28zM1246 4270c-46-149-44-140-26-125 9 7 21 33 27 58 45 182 44 216-1 67zM1287 4262c-16-48-34-97-39-107-7-13-6-18 6-18 10 0 20 17 27 45 6 24 19 67 28 94 9 28 14 56 12 62-3 7-18-27-34-76zM598 4323c-53-41-46-122 12-143 36-12 62-6 62 16 0 10-12 15-37 15-30 0-37 4-43 26-4 18-1 33 12 47 19 22 68 29 68 11 0-6 7-11 16-11 21 0 20 14-4 35-22 20-63 22-86 4zM1349 4292c-11-25-30-70-44-100-25-57-32-99-14-81 13 14 88 215 82 221-3 3-13-15-24-40zM1400 4309c-3-11-22-55-42-97-35-78-44-113-25-102 14 9 88 205 81 213-4 3-10-3-14-14zM6867 4316c-21-5-27-14-29-43-6-62 78-156 162-182 13-4 62-26 109-49 149-73 238-90 433-81 83 3 95 7 120 32 26 26 27 29 10 47-10 11-17 36-17 57 0 43-16 60-121 129-70 47-76 49-126 42-75-10-97-9-168 5-35 7-108 16-163 21-55 5-119 13-142 18-23 6-54 7-68 4zm102-41c11-6 58-10 104-10 46 1 100-4 120-11 45-15 171-20 215-9 24 6 40 2 67-16 20-13 53-34 74-47 20-13 42-27 49-32 20-14 35-51 28-74-3-13 1-30 8-39 21-26-4-42-67-43-30-1-86-5-125-9-88-10-145 4-346 90-119 50-154 69-188 106-50 54-62 90-37 109 19 13 56 8 98-15zM2331 4258c0-33 5-58 11-58 13 0 11 103-2 111-5 3-9-21-9-53zM2562 4258c0-32 5-58 11-58 5 0 10 26 10 58 0 32-5 58-10 58-6 0-11-26-11-58zM2650 4297c-12-20-7-97 6-97 5 0 11 18 15 39 8 53 8 77-1 77-5 0-14-9-20-19zM2712 4309c-16-7-19-109-3-109 6 0 11 11 11 25 0 13 3 28 7 32 9 9 12 59 3 58-3-1-11-4-18-6zM3000 4283c-19-11-24-47-10-70 12-17 57-21 63-5 2 8-5 13-19 13-23 0-23 0-4 21 16 19 17 24 4 36-11 11-20 12-34 5zM1440 4173c-26-60-44-113-41-116 7-7 51 85 71 148 7 23 17 47 22 52 12 12 12 27 2 27-5 0-29-50-54-111zM1969 4274c-4-6 1-11 11-11 14 0 12-4-7-20-21-17-23-22-10-37 8-10 26-16 42-14 51 6 36 92-17 92-7 0-16-5-19-10zm38-55c-5-6-16-7-23-3-9 6-9 10 2 16 17 11 35 0 21-13zM2137 4275c-10-10-6-75 5-75 6 0 11 12 11 26 0 15 4 27 10 27 6 0 11-10 11-21 0-11 4-23 10-27 6-4 11 8 11 30 0 30-5 37-27 41-14 3-28 3-31-1zM2205 4280c0-2 5-19 12-37 10-30 9-38-11-65-22-30-22-30-1-30 19 0 21-7 21-58 0-32 5-58 11-58 5 0 10 14 10 31 0 16 6 33 13 36 11 5 11 8 0 13-7 3-13 12-13 20 0 7-5 16-12 18-7 2-1 24 17 59 28 56 29 86 1 49-13-19-14-19-21 3-6 19-27 34-27 19zM2380 4277c-11-11-8-77 3-77 5 0 11 12 13 27 2 14 8 26 14 26 6 0 12-12 14-26 1-15 8-27 14-27 6 0 8 7 4 17-3 9-6 28-6 42 0 19-6 25-24 25-14 0-28-3-32-7zM2490 4261c-6-14-6-32 0-43 11-21 62-25 62-4 0 8-11 14-24 13-14 0-24 5-24 15 0 10 10 15 24 15 30-1 25 21-6 25-16 2-26-4-32-21zM2606 4247c0-20 4-39 10-42 5-4 9 10 9 31 0 20-4 39-9 42-6 3-10-11-10-31zM2797 4267c4-9 9-28 13-42 7-27 20-33 29-12 4 10 8 9 16-2 13-20 18-15 27 36 6 35 5 39-8 28-13-10-17-10-21 1-3 11-8 10-22-1-11-10-17-10-17-3 0 7-5 12-12 12-6 0-8-8-5-17zM720 4215c-16-31-27-61-23-64 10-10 38 18 38 38 0 10 9 31 21 45 24 31 26 40 8 39-7 0-27-26-44-58zM1523 4253c-13-25-14-35-2-28 9 6 24 49 17 49-3 0-9-10-15-21zM1890 4232c0-24 5-42 11-42 5 0 10 11 10 26 0 15 7 29 16 33 25 9 18 25-11 25-23 0-26-5-26-42z" transform="matrix(.02286 0 0 -.02286 -9.6 140.88)"/>
	<path d="M2048 4243c0-29 19-58 22-33 1 6 2 17 2 23 3 26 28 21 28-6 0-15 5-27 11-27 5 0 10 9 10 20 0 38-12 54-43 54-27 0-30-4-30-31zM804 4243c-4-7-5-16-2-19 10-10 20 4 15 19-4 11-6 11-13 0zM1391 4173c-20-45-36-90-33-98 3-17 48 69 69 135 21 66 2 46-36-37zM1529 4166c-49-91-72-154-50-140 12 7 75 136 75 154 0 6 7 24 16 42 9 17 14 31 11 31-3 0-26-39-52-87zM853 4208c-22-27-54-106-48-116 4-6 16 6 29 26 12 20 28 35 35 32 8-3 11 2 7 12-10 25 5 42 23 27 20-17 32-4 15 16-16 19-47 21-61 3zM4191 4208c-7-7-12-16-12-21 0-5-12-28-28-52l-27-44 28-24c48-42 101-28 121 32 15 46 1 84-39 105-23 12-34 13-43 4zm62-69c0-28-31-65-53-65-30 0-32 12-10 61 18 40 22 44 41 34 12-7 22-20 22-30zM1476 4157c-31-67-45-120-30-111 14 8 70 154 62 161-3 4-18-19-32-50zM1550 4115c-27-52-48-100-46-107 5-13 52 70 84 149 32 77 15 58-38-42zM764 4164c-12-24-14-39-7-43 13-8 12-9 28 30 26 59 6 70-21 13zM1634 4182c-3-10-18-38-32-61-37-57-72-132-65-138 8-9 52 67 120 209 2 4-1 8-6 8-6 0-13-8-17-18zM922 4145c-13-20-40-87-40-99 0-2 5-3 10-3 6 0 18 14 27 31 9 18 21 29 28 25 7-4 8 1 4 15-8 26 10 40 31 22 19-15 31-6 22 16-9 26-64 21-82-7zM1660 4124c-12-25-37-68-54-97-33-58-43-100-14-63 23 28 103 193 97 199-3 3-16-15-29-39zM2986 4154c-10-25 1-104 14-109 10-3 14 13 14 60 0 59-14 84-28 49zM3120 4150c-12-22-3-107 10-107 5 0 10 14 10 31 0 17 5 32 12 32 10 0 10 2 0 12-17 17-16 30 3 30 9 0 16 4 16 10 0 18-41 11-51-8zM1707 4113c-46-79-91-168-87-172 6-5 54 74 89 147 28 59 27 74-2 25zM1703 4023c-56-114-63-134-43-122 22 14 120 239 103 235-3 0-29-51-60-113zM1750 4006c-34-66-60-126-57-133 3-8 22 20 43 61 37 74 82 184 78 188-2 2-30-51-64-116zM3041 4120c-3-4-6-23-6-42 0-31 3-35 25-35 30 0 46 19 27 31-9 5-9 10-2 15 17 10 3 38-18 38-10 0-22-4-26-7zM2132 4104c0-6 7-8 18-4 13 5 11 0-6-16-25-23-25-23-4-44 29-29 65-17 65 22 0 16-6 34-13 41-15 16-60 17-60 1zm52-39c0-13-12-23-23-16-10 6-1 25 13 25 6 0 10-4 10-9zM2287 4109c-9-16-3-67 7-67 14 0 20 53 8 66-6 5-13 6-15 1zM2342 4101c-20-24-4-58 27-58 29 0 44 26 28 51-14 23-39 26-55 7zm42-33c0-8-5-15-10-15-11 0-23 27-15 35 10 10 25-3 25-20zM2426 4078c0-25 4-36 13-33 7 3 13 11 13 19 0 7 6 15 13 18 8 3 13-6 13-23 0-16 5-25 11-22 14 9 13 51-3 66-7 7-23 13-36 13-21 0-24-5-24-38zM2526 4103c-11-33 0-66 23-69 18-3 24 2 24 18 0 11-5 24-11 27-5 3-7 13-4 22 4 9 0 15-11 15-9 0-19-6-21-13zM2619 4099c5-11 11-28 13-37 8-27 56-17 73 15 9 17 11 30 4 34-6 3-10 1-10-6 0-7-10-9-24-5-66 19-64 19-56-1zM2732 4099c-17-30-3-56 31-56 16 0 30 4 30 10 0 6-5 11-12 11-8 0-8 4 1 15 7 8 10 20 6 26-10 17-45 13-56-6zM2810 4109c-9-10-8-54 1-59 5-3 19 11 31 31l24 35-24 0c-14 0-28-3-32-7zM2881 4101c-12-31 1-53 32-57 26-3 29-1 19 11-7 8-9 25-6 38 5 18 1 23-17 23-12 0-25-7-28-15zM994 4088c-14-14-7-55 11-65 10-6 15-14 11-18-4-4-17 1-29 11-24 22-41 13-25-13 6-10 26-20 44-22 29-2 34 1 34 21 0 13-9 32-19 44-18 20-17 21 6 15 19-5 23-2 21 11-4 18-40 30-54 16zM1800 4009c-54-91-78-140-78-159 0-20 17 6 65 98 86 167 92 194 13 61zM1856 4023c-22-38-54-94-72-125-18-30-31-63-29-73 3-13 15 2 38 44 48 87 110 217 106 221-2 2-21-28-43-67zM4303 4088c-23-6-32-49-17-82 9-19 20-26 42-26 32 0 40 17 12 28-15 6-14 8 6 15 25 10 40 38 26 51-13 12-48 19-69 14zM1867 3955c-39-60-73-122-77-139-5-27-4-29 8-12 36 52 79 123 103 170 14 29 32 61 41 71 8 10 10 18 5 18-5 0-41-49-80-108zM4408 4035c-45-12-21-113 26-106 28 4 37 29 11 30-15 0-12 4 10 16 35 19 38 52 5 61-13 3-26 6-29 5-3 0-13-3-23-6zM1150 3963c-8-52-2-68 18-48 22 22 42 14 35-14-3-14-2-28 3-31 12-8 93 63 83 73-4 5-17 1-27-9-28-25-33-22-33 16 0 26-3 31-13 21-21-21-40-14-40 14 0 44-18 29-26-22zM1988 3966c-12-19-43-67-70-107-47-73-75-142-51-127 7 4 13 11 13 17 0 5 13 29 30 54 37 56 108 188 104 193-2 2-14-12-26-30zM4501 3943c-29-61-35-89-18-89 5 0 17 10 26 23 13 18 19 20 29 10 18-18 45-15 65 7 23 25 22 74-1 81-10 3-27 10-37 16-30 16-34 12-64-48zm98 1c0-8-8-21-17-28-14-12-19-12-31 5-8 11-12 24-9 29 9 14 57 10 57-6zM1886 3894c-68-103-94-167-42-104 17 20 38 51 48 68 82 143 79 164-6 36zM1049 3958c-10-19-8-22 8-19 10 2 21 12 23 22 4 26-16 23-31-3zM2033 3946c-11-19-43-65-70-103-52-72-89-147-72-147 5 0 10 5 10 11 0 6 17 36 39 66 59 79 120 184 116 197-2 5-12-5-23-24zM4158 3974c0-12 29-35 36-29 14 14 5 35-15 35-12 0-21-3-21-6zM1344 3953c0-8 5-15 11-15 5 0 10 7 10 15 0 9-5 16-10 16-6 0-11-7-11-16zM1400 3930c-4-10-14-27-22-37-9-10-13-18-8-18 4 0 0-12-9-26-9-15-17-34-17-42 0-27 21-19 32 12 6 16 17 34 25 40 18 14 32 89 17 89-7 0-15-8-18-18zM2045 3877c-21-33-58-88-81-122-23-33-42-68-42-77 0-9 14 4 32 30 57 82 104 155 104 162 0 3 10 20 22 37 12 17 18 31 13 31-5 0-26-28-48-61zM4221 3922c7-9 17-16 22-16 5 0 10 7 10 16 0 9-10 16-23 16-18 0-20-3-9-16zM4630 3915c-17-32 15-95 46-91 28 4 35 27 10 32-15 4-14 7 11 19 44 21 35 56-16 60-31 3-41-1-51-20zM1298 3878c-27-56-4-71 24-16 26 51 26 55 8 55-7 0-22-18-32-39zM4275 3888c5-26 30-29 30-4 0 13-7 22-17 22-9 0-15-7-13-18zM4756 3879c-29-77-19-104 21-55 11 13 30 24 43 24 30 0 40 24 13 33-10 3-27 10-37 15-26 14-28 13-40-17zM1447 3852c-14-24-30-53-37-66-20-34 7-36 31-2 11 15 25 28 30 28 13 0 12-40-1-48-14-8-14-47 1-47 12 0 41 63 41 90 0 9-9 19-20 22-17 5-19 10-11 31 12 33 12 36 0 36-6 0-21-20-34-44zM2083 3835c-16-22-46-58-67-81-49-54-76-97-65-104 10-6 107 113 146 181 32 54 24 57-14 4zM4321 3864c-9-14 21-25 42-17 21 8 10 28-16 28-11 0-23-5-26-11zM4967 3854c-27-27-29-95-3-119 27-24 73-33 92-18 25 21 19 28-27 36-47 7-60 25-42 57 16 31 52 39 69 16 11-16 17-17 27-7 11 10 9 17-6 34-25 28-83 28-110 1zM2138 3812c-21-28-58-68-80-89-41-37-82-100-65-100 15 0 144 149 184 212 30 48 3 32-39-23zM4395 3856c-13-13-4-23 33-33 51-15 69-14 64 1-5 13-88 41-97 32zM5134 3806c-5-15-13-39-16-53-4-14-11-28-16-31-15-10-11-47 6-47 8 0 18 11 22 24 8 26 23 39 45 39 11 0 13-10 8-40-9-56 4-63 26-16 21 46 13 72-29 88-22 8-24 13-14 25 13 16 6 38-11 38-6 0-15-13-21-27zM2118 3717c-56-57-102-110-102-116 0-18 98 67 148 130 25 30 52 63 60 73 9 10 11 18 6 18-5 0-55-47-112-105zM4517 3810c3-8 13-16 24-18 12-2 17 2 14 11-3 7-13 15-24 17-12 3-17-1-14-10zM2203 3730c-37-39-90-91-117-116-48-44-69-80-29-52 62 44 245 239 224 239-5 0-40-32-78-71zM2294 3756c-23-24-81-81-129-127-48-46-85-85-82-87 14-14 161 122 238 220 36 47 19 43-27-6zM4580 3789c3-8 16-16 29-18 16-2 22 1 19 11-2 7-15 15-28 17-17 3-23-1-20-10zM2300 3698c-44-45-108-105-142-135-35-29-60-57-57-61 13-13 145 105 264 235 70 76 16 44-65-39zM2387 3704c-46-42-120-107-164-144-80-69-97-90-63-77 36 13 327 281 317 291-3 3-43-29-90-70zM2568 3766c-12-7-84-59-161-117-77-58-163-122-192-142-52-37-67-57-34-45 31 11 150 97 246 178 50 42 95 77 100 77 11 1 70 52 65 57-2 2-13-2-24-8zM4654 3767c7-20 40-23 40-4 0 10-9 17-22 17-13 0-20-5-18-13zM1581 3742c-8-20-8-98 0-98 12 0 87 42 94 52 9 15-26 26-40 12-20-20-28-14-28 20 0 33-15 42-26 14zM2599 3712c-41-26-100-62-131-80-32-19-67-41-77-50-10-8-43-31-73-51-31-19-71-45-91-58-20-12-30-24-23-27 7-2 18 1 25 6 7 6 46 28 86 50 41 22 100 59 132 81 31 23 96 67 144 99 48 31 87 62 87 67 0 13 4 15-79-37zM4717 3735c2-7 16-14 29-16 14-2 31-11 37-20 11-15 37-11 37 6 0 8-78 44-96 44-6 0-9-6-7-14zM2631 3664c-68-40-126-73-128-73-2 0-33-18-69-40-37-22-102-59-145-81-43-23-71-43-61-45 23-4 136 53 297 151 75 46 149 89 163 97 40 20 79 52 73 59-3 3-62-28-130-68zM5264 3723c3-8-1-21-10-28-9-7-14-25-12-40 2-21 11-28 42-36 51-12 71 4 71 55 0 48-15 64-61 64-27 0-34-4-30-15zm49-64c0-17-2-18-25-9-24 9-21 25 4 25 12 0 21-7 21-16zM2762 3677c-76-40-230-124-273-149-98-57-198-111-215-116-11-3-22-11-24-18-6-15 7-11 100 30 37 17 69 31 72 31 3 0 51 27 107 60 56 33 106 63 112 66 44 22 185 108 190 117 12 19-1 15-69-21zM5392 3706c-11-17-19-104-9-104 5 0 15 14 22 32 8 23 18 31 31 28 15-2 18-11 15-42-4-48 12-51 30-8 18 44 2 77-46 91-21 7-40 8-43 3zM4822 3651c-16-24-47-56-68-70-39-25-52-53-26-53 8 0 20 6 27 13 19 19-9-55-54-145-44-89-55-120-40-120 13 0 96 161 117 226 8 25 15 35 19 26 5-17 22-31 37-31 5 0 6 20 3 46-7 52 7 106 30 115 20 8 20 24 0 31-10 4-26-9-45-38zM5523 3665c-9-17-14-54-12-87 2-31 20-21 33 18 8 25 19 37 32 37 17 0 21-8 21-42 0-23 4-42 9-42 15 0 25 80 13 103-15 27-83 36-96 13zM5792 3630c-3-30-9-68-13-84-5-22-3-28 10-28 19 0 24 15 33 107 6 49 4 61-8 61-10 0-17-18-22-56zM1659 3655c-17-33-13-73 10-85 27-14 32-13 32 5 0 9-6 16-13 16-10 0-9 3 1 9 8 5 23 7 33 5 25-7 33 21 14 48-19 28-62 29-77 2zm58-11c3-6-4-11-16-11-12 0-19 5-16 11 4 5 11 10 16 10 5 0 12-5 16-10zM3009 3655c-60-34-45-50 56-60 81-8 143 7 143 33 0 11-12 26-26 33-38 19-136 16-173-6zm157-28c-21-16-66-19-120-8-57 11-24 25 60 24 73 0 79-2 60-16zM4893 3639c0-9 7-16 17-16 9 0 14 5 12 12-6 19-29 23-29 4zM5666 3627c-24-24-21-60 7-87 28-25 50-29 68-10 20 19 15 32-8 24-28-8-27 3 3 35 23 24 23 25 3 40-27 19-53 18-73-2zM2798 3623c-16-15-339-177-414-208-38-15-83-36-100-47l-32-20 37 7c20 4 57 16 81 27 25 11 49 20 55 20 6 0 28 10 50 23 63 35 169 92 258 138 44 23 81 48 81 56 0 17-3 17-16 4zM6423 3626c-4-4-7-18-7-31 0-20-6-25-27-25-14 0-35-9-46-20-41-41 7-115 65-100 31 8 39 29 39 117 0 61-7 77-24 59zm-14-104c9-24-1-36-31-36-26 0-30 7-19 36 8 21 42 21 50 0zM1746 3588c-32-47-32-71 0-41 30 28 34 28 65 4 22-18 23-21 10-52-12-29-19-34-51-34-20 0-39 5-43 11-3 5-11 10-16 10-6 0-2-12 8-28 16-25 22-27 72-21 59 6 120 32 120 51 0 7-11 9-30 5-27-5-29-4-25 25 5 30-15 63-38 63-6 0-16 9-22 21-16 28-23 26-50-14zM4935 3598c0-18 44-59 64-59 18 0 41 19 41 34 0 5-11 7-24 4-17-4-30 0-42 14-20 24-39 27-39 7zM5956 3546l3-55 39-3c43-4 44-2 55 64 9 53-21 55-31 2-11-59-47-43-47 22 0 14-5 26-12 26-6 0-9-22-7-56zM6097 3584c-15-15-5-45 22-65 19-15 23-22 12-22-8 0-21 5-28 12-18 18-29 2-13-18 21-25 67-16 72 13 2 18-4 27-24 34-31 12-36 24-9 21 32-3 37 0 24 16-14 17-44 21-56 9zM3014 3566c-46-17-48-41-6-50 86-18 201-3 192 24-11 34-122 49-186 26zm135-16c21-13-73-27-112-17-26 7-27 9-8 16 29 12 102 12 120 1zM5073 3571c-19-12-6-32 20-32 25 0 38 20 19 32-8 5-17 9-19 9-3 0-12-4-20-9zM6222 3564c-20-20-21-36-4-72 9-21 20-27 47-27 24 0 35 5 35 16 0 10-10 16-29 16l-29 0 29 24c35 29 37 44 5 53-33 9-36 8-54-10zm36-24c0-6-7-12-16-16-16-6-21 5-8 18 10 10 24 9 24-2zM5152 3563c-17-17-5-35 25-35 33 0 39 9 18 29-14 14-32 17-43 6zM6584 3512c-15-54-11-63 38-73 23-5 37-2 49 10 37 37 8 111-44 111-25 0-30-7-43-48zm57 16c4-6-1-10-10-10-9 0-16 4-16 10 0 6 4 11 10 11 5 0 13-5 16-11zm6-47c-1-16-24-13-30 3-3 9 2 13 13 11 10-2 17-8 17-14zM6725 3545c-20-15-20-16 5-50 15-21 18-29 7-20-24 20-43 1-24-25 24-33 90-20 91 17 0 4-13 19-28 34-26 24-27 26-6 20 26-7 31 6 11 26-17 16-31 16-56-2zM5223 3516c-8-13 13-30 40-30 25 0 24 18-2 31-25 14-29 14-38-1zM2683 3492c-45-20-325-135-389-159-19-7-19-8-2-12 26-6 188 51 320 114 59 28 113 51 118 51 6 0 11 7 11 16 0 8-2 15-3 15-2 0-26-12-55-25zM5292 3476c0-12 7-21 16-21 17 0 18 1 9 25-9 23-25 21-25-4zM5576 3461c0-19-3-50-7-68-5-26-3-33 11-33 9 0 19 7 22 16 3 8 7 23 10 31 4 13 10 14 32 4 19-9 26-19 23-39-1-18 3-28 15-30 18-4 30 40 30 110 0 37-20 46-28 13-9-34-66-24-66 12 0 13-8 20-21 20-17 0-21-7-21-36zM3017 3474c-60-17-55-39 13-59 53-16 72-16 123-2 47 13 50 35 8 57-34 18-92 19-144 4zm107-24c19-15 17-16-28-16-61-1-91 9-70 22 22 14 76 10 98-6zM5339 3454c-11-17 12-35 32-27 15 5 15 10 5 22-15 19-28 20-37 5zM2620 3400c-79-33-184-69-282-97-41-12-58-22-51-29 13-13 90 9 265 77 73 28 138 51 145 51 13 0 16 17 4 24-4 3-41-9-81-26zM5404 3427c-4-4-7-13-7-20 0-18 53-30 67-16 8 8 5 13-12 18-13 3-23 10-23 15 0 11-15 12-25 3zM5765 3422c0-6 10-14 23-18 22-6 21-7-8-12-64-12-34-74 37-74 32 0 41 4 46 24 9 35 9 38-21 66-29 26-77 35-77 14zm63-68c0-8-7-15-15-15-17 0-41 25-32 34 10 10 47-5 47-19zM6059 3414c0-11-3-41-7-67l-6-47 45-7c37-6 48-4 59 11 7 10 14 24 14 31 0 20-45 58-61 52-8-4-13 4-13 21 0 16-6 26-16 26-8 0-15-9-15-20zm70-71c7-18-18-40-31-26-10 10 1 43 14 43 6 0 13-8 17-17zM1941 3400c0-8 0-18 1-23 1-5-2-17-6-26-5-14-8-12-14 9-4 14-14 26-22 26-25 0-23-32 4-64 26-30 26-30 48-10 12 11 22 32 22 47 0 21 3 24 10 12 5-9 13-12 18-8 4 5 3 17-3 26-14 22-56 30-58 11zM5911 3401c-11-64-9-104 4-104 9 0 20 14 26 32 9 23 18 31 38 31 17 0 27 6 27 16 0 9-10 16-24 16-13 0-34 3-47 6-13 4-24 5-24 3zM2040 3361c-19-9-34-22-34-29 0-7-15-18-32-26-17-8-33-20-36-27-9-24 17-27 47-4 17 12 40 22 52 22 11 0 21 6 21 12 0 7 8 21 18 32 25 29 4 41-36 20zM5477 3374c-9-9 14-35 32-35 7 0 14 5 14 10 0 13-37 33-46 25zM6210 3355c-22-33-16-59 18-78 39-22 83 0 83 42 0 60-69 85-101 36zm68-15c16-30-14-53-38-29-14 13-15 19-3 33 17 21 28 20 41-4zM6357 3356c-8-19 3-87 14-94 4-3 27-7 50-9 41-3 42-3 51 41 11 52 3 79-19 70-11-4-16-20-16-43 0-50-35-45-42 7-6 39-28 55-38 28zM6537 3361c-10-15-10-91-1-106 7-11 12-9 23 6 8 10 14 27 14 37 0 13 10 20 34 22 49 5 47 35-3 35-20 0-42 4-49 8-6 4-15 3-18-2zM3158 3352l-39-4 0-56c0-70 12-81 85-77l56 3 3 50c2 27-2 59-8 71-11 21-17 22-97 13zm74-68l3-39-42 0c-37 0-44 3-49 26-11 44 1 59 45 56 38-4 40-6 43-43zM2590 3323c-22-8-71-22-110-31-63-15-128-32-169-44-9-2-11-8-5-13 5-6 38-3 78 6 37 9 80 18 94 21 14 3 55 17 91 31 36 14 74 25 86 25 12 0 24 5 28 11 9 15-45 11-93-6zM5536 3316c2-7 13-17 24-23 11-7 29-22 39-35 20-24 50-32 50-14 0 5-14 18-32 29-17 10-29 24-27 31 3 6-5 15-18 18-33 9-41 8-36-6zM2012 3250c-15-14-27-32-27-39 0-22 26-50 45-50 23 0 22 28-1 34-10 3 1 4 24 4 36-2 42 2 45 22 4 29-15 55-40 55-10 0-30-12-46-26zm62-16c3-6-1-10-10-10-9 0-16 4-16 10 0 6 4 11 9 11 6 0 13-5 17-11zM2623 3271c-7-7-101-25-193-37-76-10-138-28-128-38 7-7 162 14 244 33 35 8 79 17 97 21 19 4 32 11 29 16-7 11-40 14-49 5zM6657 3259c0-18 23-15 29 5 2 6-3 12-12 12-10 0-17-7-17-17zM641 3240c-10-12-10-24 0-54 8-26 9-41 2-49-15-14-35 0-32 21 4 23-19 28-27 7-8-22 31-67 57-67 33 0 46 28 33 70-14 47-6 63 20 39 19-17 20-17 20 2 0 42-48 61-73 31zM2582 3208c-3-3-50-10-105-16-142-16-172-22-155-33 16-10 86-4 228 19 128 20 162 33 90 34-29 1-56-1-58-4zM5653 3197c3-9 7-19 7-22 0-2 7-4 16-4 23 0 14 36-10 40-15 3-18 0-13-14zM4472 3187c-1-3-3-10-4-16-2-6-3-15-4-20-1-6-14-12-30-13-42-5-64-53-40-88 18-28 41-32 84-15 26 9 28 14 26 70-2 34-5 67-8 74-4 13-22 18-24 8zm1-106c0-23-31-31-50-12-13 14-14 20-3 33 16 19 53 4 53-21zM4557 3176c0-8 5-15 11-15 5 0 10 7 10 15 0 9-5 16-10 16-6 0-11-7-11-16zM5009 3118c0-65 2-74 18-71 12 2 19 15 22 37 5 56 44 39 44-19 0-11 4-20 10-20 15 0 13 77-2 92-7 7-24 13-37 13-17 0-24 6-24 21 0 12-7 21-16 21-12 0-15-15-15-74zM3974 3111c4-39 13-75 20-79 19-12 55-9 68 6 15 18 5 28-26 28-22 0-25 5-25 41 0 52-9 75-29 75-13 0-14-12-8-71zM4835 3160c-3-11-13-20-21-20-34 0-9-104 27-113 34-9 24-27-11-20-33 6-40-2-19-23 34-34 105 8 83 49-6 11-17 23-25 26-8 3-7 6 5 6 26 1 31 29 12 69-21 43-42 54-51 26zm34-55c-6-19-35-21-43-3-4 12 1 17 21 17 17 0 25-5 22-14zM2054 3152c-21-24-22-69-1-86 13-11 16-9 16 9 0 26 0 26 37 10 22-10 29-10 37 3 36 56-43 114-89 64zm65-33c3-8-1-12-9-9-8 2-16 11-19 18-2 8 2 12 10 10 7-3 16-11 18-19zM2473 3143c-153-17-179-23-149-34 17-6 94 0 293 26 64 8 84 26 26 24-18-1-95-8-170-16zM5267 3144c-11-27-7-73 6-86 10-10 15-5 24 21 7 22 19 35 36 39 41 10 40 33-1 30-20-1-41 1-47 5-7 4-15 0-18-9zM706 3103c-25-51-15-65 14-21 29 44 81 29 57-16-7-12-10-30-8-40 3-13 8-9 22 16 27 51 22 72-18 91-20 9-38 17-40 17-2 0-15-21-27-47zM4664 3142c-26-3-34-8-29-20 3-9 6-30 6-46 0-17 5-31 11-31 5 0 10 11 10 24 0 27 18 50 39 50 7 0 14-10 14-21 0-27 10-53 22-53 13 0 11 60-2 85-6 11-16 19-23 18-8-1-29-3-48-6zM5154 3124c-9-20-9-33 0-53 10-23 18-27 46-24 24 2 35 9 38 23 3 15-1 18-13 14-22-9-22 2 1 26 15 18 16 22 3 30-29 18-63 11-75-16zm39-15c-4-6-12-11-18-11-7 0-7 6 2 16 14 17 27 13 16-5zM5383 3143c-12-12-8-72 6-85 23-24 82-9 82 21 0 4-8 8-18 8-16 0-16 1 0 19 13 15 14 22 5 32-14 13-63 17-75 5zM5691 3142c0-5 7-18 15-29 12-16 18-18 28-8 10 10 10 16-1 29-14 17-42 22-42 8zM3164 3128c-30-11-53-105-36-149 21-54 89-59 116-8 18 34 14 121-7 139-27 23-47 28-73 18zm65-62c11-51-3-94-34-101-33-9-45 8-45 65 0 48 14 68 49 68 17 0 25-9 30-32zM4105 3137c-17-67 5-113 54-113 50 0 68 57 31 95-17 16-82 30-85 18zm62-59c10-7 11-11 2-17-16-10-46 2-37 15 8 13 16 14 35 2zM4246 3130c-2-3-4-28-4-56 0-37 4-50 13-47 7 2 15 16 16 31 4 32 30 58 44 44 5-5 11-21 13-35 2-14 9-28 16-30 16-5 18 37 3 76-9 24-15 27-53 24-24-1-45-5-48-7zM4557 3087c0-29 5-52 11-52 5 0 10 23 10 52 0 29-5 53-10 53-6 0-11-24-11-53zM2550 3093c-2-2-32-5-67-6-99-3-162-12-162-22 0-15 129-11 245 6 58 9 107 18 110 21 3 3-23 6-58 6-35 0-65-3-68-5zM5723 3051c0-29 17-45 33-29 7 7 7 18-1 32-16 30-32 28-32-3zM832 3053c-21-20-15-64 11-83 28-20 63-10 81 22 25 47-54 100-92 61zm69-47c3-19-2-24-22-24-26 0-45 25-33 44 12 19 52 4 55-20zM519 3041c-4-9-3-21 1-28 4-6-3-19-15-27-43-31-28-64 50-106 31-17 30-17 36 8 4 14-2 30-14 42-27 27-26 52 1 52 32 0 24 24-17 50-30 20-37 21-42 9zm27-101c0-12-5-21-10-21-6 0-11 2-11 4 0 3-3 12-6 21-5 11-1 17 10 17 10 0 17-9 17-21zM2059 3039c-60-14-81-28-70-45 5-8 16-8 34-1 33 13 56 6 56-15 0-29 29-42 62-28 37 15 42 26 35 71-6 40-20 42-117 18zm94-40c0-20-34-31-44-15-14 23-10 30 17 30 16 0 27-7 27-15zM2504 3042c-57-5-126-16-152-25-45-14-42-14 63-8 186 12 252 20 255 31 3 14-40 15-166 2zM963 3018c-9-9-10-120-1-120 3 0 13 7 21 16 23 23 36 19 36-11 0-15 6-26 13-26 19 0 66 50 56 60-5 5-14 0-22-10-19-26-35-23-29 7 5 28-14 46-32 28-20-19-27-13-30 26-2 21-7 34-12 30zM2444 2982c-109-7-135-13-120-28 10-10 325 16 337 28 11 12-38 12-217 0zM3273 2974c-11-12-18-37-18-63 0-35 5-47 26-61 33-21 58-13 58 19-1 23-1 23-16 4-12-17-18-18-31-7-20 17-21 67-2 83 10 8 17 8 26-1 17-17 30 0 16 21-16 26-39 27-59 5zM4405 2876c-32-65-56-120-53-123 8-8 9-7 73 115 33 64 54 115 48 119-5 3-36-47-68-111zM5740 2986c-9-10-9-59 1-74 15-23 34 2 31 38-3 35-17 51-32 36zM4647 2883c-49-101-67-168-29-106 31 51 95 205 85 205-5 0-30-45-56-99z" transform="matrix(.02286 0 0 -.02286 -9.6 140.88)"/>
	<path d="M3360 2937l-26-10 26-8c14-5 20-9 13-9-8-1-13-16-13-38 0-30 5-38 26-43 14-4 30-3 36 0 24 15 6 103-22 113-7 3-26 1-40-5zm42-60c0-12-4-21-10-21-14 0-24 19-16 32 11 17 26 11 26-11zM3444 2891c0-31 5-56 11-56 5 0 10 16 10 36 0 20 5 39 11 43 5 3 10-5 10-20 0-14 3-34 8-45 6-15 9-12 13 17 7 47 32 56 32 11 0-19 4-30 10-26 12 7 14 57 2 76-4 7-30 14-58 17l-49 4 0-57zM4302 2944c-4-4-7-21-7-37 0-25 4-30 26-30 14 0 26-5 26-12 0-7-10-9-27-4-22 5-27 3-24-12 5-25 54-31 71-9 17 20 7 48-20 55-28 7-27 24 1 24 30 0 19 25-13 29-14 2-29 0-33-4zM4748 2896c2-30 8-55 14-53 16 4 13 100-3 105-11 4-13-9-11-52zM4811 2938c-7-7-12-27-12-45 0-51 36-72 88-52 34 13 12 68-28 68-10 0-18 5-18 11 0 7 9 10 21 6 13-3 21 0 21 10 0 18-54 20-72 2zm55-60c4-6 2-13-3-16-5-3-13 1-16 10-6 17 9 22 19 6zM729 2914c-52-52-26-142 41-142 36 0 60 42 39 68-22 26-34 19-27-15 6-25 4-32-9-32-44 0-49 91-6 113 23 12 28 10 49-14 21-24 25-25 31-9 9 23-31 57-66 57-14 0-38-12-52-26zM2520 2930c-20-4-60-5-89-3-29 2-65 0-79-6-24-9-22-11 25-18 29-4 81-3 122 4 40 7 94 12 120 12 26 0 48 5 48 11 0 11-89 11-147 0zM3570 2860c0-59 3-78 13-75 7 3 12 15 10 28-3 17 1 22 15 20 27-5 49 44 36 80-8 21-18 27-42 27l-32 0 0-80zm53 22c0-16-5-24-11-21-6 4-10 16-10 27 0 11 4 21 10 21 6 0 11-13 11-27zM4221 2882c0-44 4-57 16-57 12 0 16 13 16 57 0 45-4 58-16 58-12 0-16-13-16-58zM4507 2905c-19-19-34-38-34-42 0-4 17-7 37-7 22 0 35-5 34-12-2-6 3-14 10-16 8-3 14 2 14 11 0 10 7 17 15 17 9 0 16 7 16 16 0 8-7 16-16 16-10 0-15 9-15 26 0 36-21 33-61-9zM2397 2879c-31-2-55-7-55-12 0-18 124-18 231 0l110 19-116-2c-63-1-140-3-170-5zM1239 2851c-14-15-21-26-17-26 4 0 0-11-9-24-18-25-22-60-7-60 6 0 15 14 21 31 6 17 16 32 22 32 6 0 16 12 22 26 8 22 13 25 30 16 22-12 34-5 25 16-9 24-60 18-87-11zM3129 2857c-26-49 4-116 51-116 59 0 97 81 56 119-27 24-93 23-107-3zm99-28c9-25-13-57-40-57-32 0-52 24-43 52 8 27 73 31 83 5zM5756 2855c2-13 10-26 17-28 10-3 13 3 11 19-2 13-10 26-18 29-9 3-13-3-10-20zM2087 2839c-9-19-9-32-1-44 16-26 59-22 72 6 13 30 26 31 18 1-4-16-1-21 8-18 25 9 38 39 25 59-17 27-49 22-65-11-7-16-18-28-24-28-13 0-12 18 1 26 16 10 12 37-5 37-9 0-22-13-29-28zM882 2811c-14-24-31-50-39-58-18-18-18-56 0-49 13 5 92 130 92 145 0 4-7 7-14 7-8 0-25-20-39-45zM2342 2826c0-17 52-24 156-22 129 2 202 10 194 22-7 12-350 12-350 0zM5774 2796c-1-5 0-58 1-118 2-104 10-137 33-137 14 0 3 213-11 240-13 23-21 28-23 15zM1308 2754c-29-42-35-70-14-64 17 6 61 91 50 98-5 3-21-12-36-34zM2331 2772c0-7 65-10 184-10 106 0 184 4 184 9 0 6-79 10-184 11-119 1-184-3-184-10zM956 2758c0-8-12-20-27-26-33-15-33-44 0-79 47-51 90-28 90 48 0 22-8 43-20 54-23 21-43 22-43 3zm18-51c14-14 18-50 5-50-5 0-19 7-32 16-19 13-21 20-12 32 15 18 23 18 39 2zM1377 2716c-12-13-22-34-22-47 0-26 45-60 63-49 9 6 8 11-4 17-26 15-21 27 14 34 37 7 44 41 11 59-29 15-36 14-62-14zm51-16c0-13-31-24-43-17-5 4-7 11-4 16 8 13 47 13 47 1zM2100 2718c-24-26-27-51-8-70 20-20 27-15 31 22 2 26 9 35 27 37 20 3 24-1 24-29 0-21 5-32 14-32 22 0 26 32 10 66-18 36-66 39-98 6zM2331 2721c0-6 9-13 19-17 28-8 297-3 322 6 15 6 8 8-26 9-26 1-107 4-181 7-90 4-134 3-134-5zM1523 2709c0-5-15-34-33-64-22-38-28-58-21-65 13-14 11-16 52 60 37 70 39 80 17 80-8 0-15-5-15-11zM1057 2669c-22-24-22-32-1-74 12-25 23-33 39-31 32 5 34 26 3 34-20 5-27 13-27 32 0 36 21 44 41 17 10-13 21-20 25-15 11 11 9 21-9 40-22 21-50 20-71-3zM2334 2664c8-25 365-21 365 4 0 5-84 9-185 9-139 0-183-3-180-13zM3140 2657c-6-11-11-27-11-35 0-21 45-60 70-60 44 0 75 72 43 103-21 21-90 16-102-8zm82-10c8-5 12-18 10-29-5-25-58-33-67-9-15 37 20 61 57 38zM1225 2652c-6-17 2-29 15-21 12 8 12 36 0 36-5 0-12-7-15-15zM1648 2614c-11-20-13-21-30-6-10 10-26 17-34 17-25 0-51-35-51-67 0-23 8-32 38-44 37-16 67-8 67 18 0 6 12 26 26 45 15 19 27 40 27 46 0 21-31 14-43-9zm-36-52c0-21-6-27-29-30-30-3-36 10-22 45 10 28 51 16 51-15zM2615 2625c-32-5-108-9-168-10-108-2-110-3-74-18 30-13 54-14 157-4 67 6 135 12 152 14 37 3 51 29 15 27-14-1-51-5-82-9zM1201 2617c-15-10-46-71-46-91 0-22 17-21 25 2 4 10 14 31 23 47 18 32 17 54-2 42zM2082 2597c-9-23 7-35 45-35 32 0 37-4 43-32 4-22 11-31 23-28 10 2 16 10 14 19-2 8-5 29-6 46-1 30-4 32-58 37-39 4-57 2-61-7zM8495 2600c0-9 2-17 4-17 3 0 32-7 66-16 33-9 84-21 113-26 251-45 282-53 226-62-28-5-38-12-40-30-4-24 7-30 25-15 10 9 79 31 114 36 33 5 28 22-15 55-23 18-44 40-48 50-3 10-15 19-26 19-28 0-26-36 3-56l24-17-29 0c-15-1-49 6-73 14-25 8-62 18-82 22-20 4-56 11-79 17-23 5-65 13-94 19-29 5-61 13-71 17-13 5-18 2-18-10zM1252 2560c-7-7-13-33-13-58 0-39 4-47 27-56 35-13 36-13 36 5 0 8-7 17-16 21-23 8-9 27 21 27 13 0 30 8 38 17 28 34-61 76-93 44zm54-15c23-9 21-25-2-25-10 0-24-6-31-12-18-19-27-4-13 22 12 23 20 25 46 15zM2337 2563c-3-5 9-12 27-15 71-15 335-3 335 15 0 11-355 11-362 0zM1684 2536c-4-10-1-29 6-44 15-35 3-47-18-17-18 28-34 31-34 8 0-24 39-57 67-57 33 0 43 27 22 60-20 29-13 43 11 24 21-18 34-5 19 18-15 25-65 30-73 8zM2314 2508c-2-4 15-10 38-14 51-9 357 4 357 15 0 10-389 8-395-1zM5785 2491c0-16-3-46-6-68-5-30-3-39 8-39 21 0 40 57 33 100-7 44-34 49-35 7zM1377 2452c-28-56-20-82 12-40 13 16 22 32 21 37-5 13 10 9 30-9 20-18 41-12 41 12 0 10-12 16-32 16-21 0-31 5-31 15 0 29-18 16-41-31zM3143 2460c4-22 7-48 7-59 0-16 8-18 60-15l61 3 0 52 0 53-67 3-67 3 6-40zm107-19c0-29-4-32-40-35-38-3-39-2-39 35 0 38 1 38 39 35 36-3 40-6 40-35zM2090 2454c-10-20-10-31-1-48 15-29 32-29 32 1 1 23 1 23 24-5 21-25 27-27 43-16 13 10 18 25 15 50-3 35-5 37-51 40-42 3-50 0-62-22zM2502 2460c-144-3-171-6-171-19 0-14 19-15 134-9 74 3 148 8 165 10 18 1 45 3 61 4 16 0 29 5 29 11 0 6-11 9-24 8-13-1-101-4-194-5zM1512 2393c0-12 5-31 11-43 17-31 1-38-21-8-24 30-40 20-24-15 14-32 63-45 85-23 13 13 13 18-3 43-20 31-15 47 9 27 10-9 17-9 22-1 11 18-16 42-49 42-23 0-30-5-30-22zM2368 2405c-105-11-24-22 153-22 165 0 200 3 187 15-7 7-283 12-340 7zM8169 2384c0-16 7-21 26-21 18 0 27-7 27-19 1-10 2-37 3-59 3-68 28-60 28 8 0 48 4 60 21 70 12 6 21 18 21 26 0 12-15 16-63 16-56 0-63-3-63-21zM8495 2384c-30-30-29-98 1-126 26-24 61-28 80-9 21 21 15 28-26 31-38 4-40 6-40 41 0 31 4 37 27 39 48 6 56 12 41 29-18 22-59 19-83-5zM9457 2397c-4-3-7-39-7-78 0-57 3-72 16-72 12 0 16 15 16 73 0 67-9 94-25 77zM8610 2315c0-45 4-78 11-78 6 0 10 33 10 78 0 46-4 79-10 79-7 0-11-33-11-79zM2121 2349c-29-14-40-64-21-91 9-14 12-14 20-2 5 8 7 24 4 37-4 17 1 14 26-14 27-32 34-35 48-23 25 21 22 51-8 81-30 29-33 30-69 12zm58-40c11-18-1-22-16-5-8 10-9 17-2 17 6 0 14-6 18-12zM2356 2351c-30-6-30-6 13-18 50-15 351-14 351 0 0 5-6 11-14 14-21 7-317 11-350 4zM5746 2349c-20-26-23-49-7-49 18 0 47 24 47 40 0 16-30 22-40 9zM8328 2345c-25-11-35-56-17-84 30-45 89-26 89 29 0 46-33 70-72 55zm41-57c0-21-26-28-38-9-8 14 15 43 28 36 5-4 10-15 10-27zM8672 2349c-1-1-3-24-5-51-6-61 12-79 61-65 30 8 35 15 37 47 3 30-2 42-20 55-20 14-69 24-73 14zm58-70c4-5 1-13-5-16-15-10-44 3-36 15 8 14 33 14 41 1zM8841 2341c0-6-11-8-27-4-26 7-27 6-24-43 4-51 30-82 30-35 0 37 16 55 41 48 18-4 22-1 22 20 0 18-6 25-21 25-12 0-21-5-21-11zM8914 2325c-15-41-12-55 17-74 20-13 32-15 44-8 24 15 28 36 7 36-17 0-17 1 2 21 19 22 19 23-1 37-31 23-57 18-69-12zM9033 2335c-2-7-3-33-1-58l4-46 19 45c23 53 35 57 40 11 5-51 30-51 30 0 0 23-6 46-14 52-17 14-72 11-78-4zM9170 2325c-16-25-16-31-3-56 21-36 84-46 84-13 0 15-9 22-29 24-39 5-39 34 0 39 37 4 32 26-6 31-20 2-32-4-46-25zM9290 2325c-16-35 7-82 42-87 27-3 45 27 24 40-9 6-8 10 5 15 10 4 16 15 14 30-3 18-12 25-38 27-28 3-36-1-47-25zM2352 2291c0-5 29-13 65-16 87-9 308-9 299 0-5 5-28 9-52 9-24 1-104 5-178 10-84 4-134 4-134-3zM5700 2255c-8-77 38-171 58-119 8 22-15 135-29 145-21 14-26 9-29-26zM3908 2266c-23-23-13-51 24-73 34-20 54-59 24-48-50 18-60 19-60 3 0-9 12-22 26-27 36-14 43-13 62 6 26 26 20 56-15 76-17 10-31 24-31 31-1 16 17 17 26 1 10-15 26 10 19 29-7 18-58 19-75 2zM4031 2274c-6-6 8-143 16-150 10-11 27 10 27 34 0 19 6 26 21 26 15 0 22-10 27-37 4-21 12-36 19-34 19 7 20 49 1 78-14 22-23 26-47 21-28-6-31-3-33 27-4 30-19 47-31 35zM4462 2274c-3-2-3-38-1-79 2-55 7-74 18-74 11 0 15 16 15 62 0 78-12 111-32 91zM4867 2265c-17-47-2-144 22-144 10 0 15 12 15 36 0 20 4 39 10 43 7 4 5 12-5 22-9 9-16 25-16 36 0 23-19 28-26 7zM9513 2263c0-8 5-18 11-21 5-4 10 3 10 15 0 12-5 22-10 22-6 0-11-7-11-16zM3175 2260c-7-4-14-20-16-34-3-20-11-27-33-30-16-1-28-9-28-18 0-12 17-15 78-15 62 0 79 3 79 15 0 9-13 16-34 18-22 3-35 10-38 22-2 15 4 19 34 19 27 0 38 4 38 15 0 17-57 23-80 8zM2363 2240c0-21 84-35 213-35 73 0 133 4 133 9 0 5-56 12-123 16-68 4-146 10-174 14-29 3-49 2-49-4zM2096 2209c-16-42 0-88 32-88 7 0 22 15 32 34l18 34 4-29c3-25 6-28 19-17 19 16 19 56-1 72-18 15-58-3-58-26 0-9-5-15-12-15-7 0-9 10-5 26 8 30-18 38-29 9zM4197 2207c-25-27-22-50 9-74 47-37 103 2 83 58-13 38-65 47-92 16zm64-41c-2-10-13-19-24-19-12 0-23 9-25 19-2 13 4 18 25 18 21 0 27-5 24-18zM4326 2200c0-12 7-15 25-10 14 3 28 1 32-5 5-7-3-11-19-11-29 0-44-28-26-49 12-15 48-19 76-8 23 9 22 60-2 81-25 23-86 24-86 2zm74-56c0-9-7-12-17-8-9 3-19 6-22 6-2 0-2 4 1 9 9 14 38 10 38-7zM4586 2210c-7-8 19-62 39-78 11-10 16-7 22 11l7 23 19-25c21-28 20-29 44 24 19 43 13 59-13 35-16-15-19-15-31 0-12 14-15 14-28-3-14-17-15-17-26 0-11 19-22 23-33 13zM4757 2197c0-11-6-25-13-32-28-28 56-66 91-40 17 12 17 18 6 52-11 34-16 39-49 39-27 0-35-5-35-19zm58-63c-3-3-16-1-30 5l-23 11 26 11c20 8 27 7 30-5 2-9 1-18-3-22zM4939 2188c-4-16-2-36 3-45 14-21 82-30 74-10-2 8-13 13-24 11-18-2-17 0 5 19 31 27 22 53-19 53-26 0-33-6-39-28zM5040 2166c0-33 4-45 16-45 10 0 16 11 16 32 0 26 4 31 26 31 16 0 26 6 26 15 0 11-12 15-42 14l-42-2 0-45zM2331 2185c0-13 115-30 255-39 80-5 113-3 113 5 0 7-11 12-24 12-13 0-95 7-181 16-87 8-159 15-160 15-2 0-3-4-3-9zM3155 2139c-4-10-18-18-32-18-16 0-25-6-25-16 0-10 7-16 18-15 10 1 23 1 29 0 6-2 33-3 60-4 41-1 50 1 50 17 0 14-9 18-36 18-24 0-40 6-47 18-10 18-10 18-17 0zM2342 2132c0-6 11-11 25-11 14 0 37-4 50-9 39-14 301-25 278-11-10 6-26 8-35 5-9-3-52 1-96 9-116 22-222 30-222 17zM4545 2090c-2-6-2-41 0-79 2-47 8-68 17-68 7 0 17 10 20 23 7 24 7 23 32-7 31-38 49-27 25 15-15 27-15 31 0 46 16 16 15 17-3 17-11 0-28-8-39-17-18-17-19-16-19 31 0 35-4 49-15 49-8 0-16-5-18-10zM5744 2085c-15-18-11-50 6-55 7-3 14 4 17 14 3 11 9 28 13 38 10 23-18 25-36 3zM2331 2085c0-14 186-46 307-53 44-3 61 0 61 10 0 10-21 14-75 14-41 1-89 5-107 11-38 11-186 25-186 18zM3098 2042c0-9 4-14 10-10 6 3 11 11 11 16 0 6-5 10-11 10-6 0-10-7-10-16zM3157 2051c-17-17-3-24 46-24 39 0 52 3 52 15 0 12-12 16-46 16-25 0-48-3-52-7zM4717 2041c-23-10-14-45 16-61l29-17-31 3c-38 3-47-19-11-28 31-8 68 9 68 31 0 8-13 22-29 30-22 12-24 16-9 17 10 0 17 6 14 13-4 15-27 20-47 12zM2095 2026c-10-15-1-23 28-26 13-1 28-3 32-4 5 0 13-13 19-28 14-38 40-17 36 30-2 33-4 34-55 37-31 2-56-2-60-9zM2345 2030c15-15 138-35 249-40l120-5-78 15c-44 8-99 15-123 15-24 1-47 6-51 12-3 5-33 10-65 10-33 0-56-3-52-7zM3889 2022c3-9 1-19-4-22-19-12-11-56 12-69 17-9 32-9 63 2 22 7 41 15 41 17 0 16-25 45-38 45-18 0-19 12-2 29 9 10 2 13-33 13-35 0-44-3-39-15zm59-58c0-6-9-11-21-11-12 0-21 5-21 11 0 5 9 10 21 10 12 0 21-5 21-10zM4106 1983c0-38 3-51 15-51 10 0 16 10 16 24 0 35 14 50 42 47 17-2 27 3 29 15 3 15-5 18-49 17l-53-2 0-50zM4248 2020c-21-56 14-98 72-84 21 5 27 13 27 37 0 53-9 64-52 64-27 0-42-6-47-17zm76-28c4-21-26-36-42-20-16 16-1 46 20 42 10-2 20-12 22-22zM4412 2024c-7-7-12-25-12-41 0-37 29-55 67-41 37 14 34 32-4 32-21 0-32 5-32 16 0 10 10 16 26 16 17 0 27 5 27 15 0 20-53 22-72 3zM3161 2001c0-8 10-18 22-22l23-8-25-19c-24-19-24-21-7-31 25-15 23-29-5-33-12-2-25-10-27-18-6-16 29-12 87 10l31 12-23 19c-29 23-30 28-3 35 32 8 25 22-22 47-51 27-51 27-51 8zM2321 1996c0-26 152-54 281-52l112 2-78 9c-44 5-126 19-184 30-119 23-131 24-131 11zM5719 1998c-10-9-9-45 1-45 13 0 34 24 34 39 0 14-23 19-35 6zM2327 1945c-11-18 87-35 240-41 81-4 145-4 141 0-3 3-76 14-162 22-87 9-170 19-185 23-15 3-30 1-34-4zM5685 1928c-4-10-4-24-1-33 4-9 0-15-8-15-8 0-20-16-27-35-7-18-21-51-32-73-16-32-18-49-10-103 10-72 16-83 34-64 22 22 12 98-15 119-18 14-20 19-8 19 22 0 52 33 52 56 0 10 9 31 21 47 24 34 32 87 13 94-7 2-16-3-19-12zM2103 1919c2-8 23-13 55-13 31 0 52 5 55 13 3 9-12 13-55 13-43 0-59-4-55-13zM2237 1916c0-8 4-15 10-15 6 0 11 7 11 15 0 9-5 16-11 16-6 0-10-7-10-16zM5274 1909c-17-21-25-69-13-77 6-3 7-11 4-17-11-17 5-61 22-61 11 0 16 11 16 42 0 30 4 42 15 42 20 0 21 17 1 28-8 5-19 19-24 33-8 19-12 21-21 10zM4967 1886c0-22-6-27-27-27-28 0-68-33-68-57 0-37 89-69 117-41 15 15 7 142-9 147-9 3-13-5-13-22zm0-79c0-21-27-37-43-27-6 4-10 15-10 27 0 14 7 20 26 20 19 0 27-6 27-20zM2327 1892c-15-7-6-11 37-21 68-14 353-28 341-16-4 5-73 14-152 21-79 7-157 15-175 18-17 3-40 2-51-2zM2104 1864c-20-53 36-80 63-30 15 28 18 29 21 4 3-22 22-10 22 13 0 33-40 37-63 5l-17-24 6 24c6 17 3 24-9 24-10 0-20-7-23-16zM3356 1872c-13-13-6-63 10-77 15-12 19-11 32 6 8 11 15 23 15 28 0 5 4 9 10 9 7 0 8-12 4-28-9-37 18-29 32 9 21 60-28 83-66 32l-21-29 6 29c5 27-6 37-22 21zM4652 1806c0-39 3-52 15-52 8 0 16 12 18 28 2 18 13 34 29 42 22 10 23 13 9 19-10 4-23 4-28 1-6-4-14-2-17 4-15 25-26 7-26-42zM4761 1832c-16-24-16-28 0-53 13-19 25-26 45-24 15 2 30 10 32 19 4 10 0 12-12 8-25-10-21 8 6 27 21 13 22 17 10 32-22 26-61 22-81-9zM5124 1848c0-6 13-11 29-11l29 0-34-15c-63-27-35-72 41-67 44 4 45 4 43 40-1 21-9 42-20 50-22 16-88 18-88 3zm74-58c0-8-10-15-21-15-21 0-28 11-14 24 12 13 35 7 35-9zM3881 1841c-12-12-7-51 10-75 13-18 25-23 50-21 29 3 33 7 35 35 1 17-1 40-4 50-8 32-24 20-24-19 0-25-5-36-15-36-9 0-18 14-22 36-7 36-15 44-30 30zM4015 1836c-8-14 7-93 18-93 5 0 10 11 10 24 0 33 16 54 35 46 10-4 17-19 17-38 0-18 5-32 11-32 15 0 13 94-3 96-7 0-29 2-48 4-18 1-36-2-40-7zM4166 1837c-21-12-24-43-8-74 8-14 22-20 48-20 29 0 36 4 36 22 0 17-4 20-22 14-14-4-26-2-31 7-12 19-3 31 23 31 27 0 20 25-8 28-11 2-28-2-38-8zM4408 1842c-8-8 27-83 43-93 9-6 64 66 64 83 0 15-28 3-41-17l-14-23-22 29c-13 16-26 25-30 21zM4550 1824c-15-34-6-60 25-72 21-7 31-6 44 6 14 15 13 17-10 17l-26 0 25 21c21 17 23 23 12 36-20 24-58 20-70-8zm38-13c-7-9-15-14-18-11-7 7 8 27 20 27 7 0 7-6-2-16zM2321 1829c0-15 38-21 219-34 111-8 164-9 172-1 14 15-16 20-145 27-57 3-137 9-176 12-44 4-70 3-70-4zM4282 1812c-10-22-9-30 7-48 39-42 94-18 88 39-3 26-9 30-43 33-34 2-41-1-52-24zm74-20c2-12-4-17-19-17-12 0-21 6-21 13 0 33 34 36 40 4zM3227 1785l-6-43-23 22c-36 33-58 28-58-14 0-40 15-59 49-59 37 0 69 38 63 75-2 20 1 33 10 37 17 6 8 24-13 24-9 0-17-16-22-42zm-41-48c4-10 1-15-6-13-16 6-25 30-11 30 6 0 13-8 17-17zM2100 1779c0-13 11-15 54-13 78 5 82 30 5 30-46 0-59-4-59-17zM2237 1786c0-6 4-13 10-17 6-3 11 1 11 10 0 9-5 17-11 17-6 0-10-5-10-10zM2310 1775c0-6 14-11 31-11 17 0 44-5 60-11 32-12 286-20 293-9 5 8-64 18-184 25-50 4-115 8-145 11-33 3-55 1-55-5zM3354 1738c-13-19-14-30-5-47 14-25 60-39 84-25 19 12 29 98 12 98-7 0-11-12-11-28l0-27-22 27c-27 35-36 35-58 2zm43-27c11-18-1-22-16-5-8 10-9 16-2 16 6 0 14-5 18-11zM2128 1735c-41-6-29-28 17-32 22-2 39-8 39-13 0-11-8-15-55-25-51-11-33-28 26-25l55 3 2 50c1 55 0 55-84 42zM2331 1715c0-19 114-35 245-35 74 0 132 4 129 9-3 5-78 12-166 16-89 4-171 10-184 13-13 4-24 2-24-3zM4923 1694c-3-23-10-30-32-33-37-4-54-27-46-60 8-32 48-50 83-37 23 8 24 14 20 76-5 72-20 103-25 54zm-4-82c0-32-41-28-45 3-3 21 0 24 21 21 16-2 24-10 24-24zM3880 1699c-10-25-1-150 10-150 14 0 20 142 6 155-7 8-12 6-16-5zM4494 1693c0-11-6-26-13-33-11-11-11-15 0-19 7-3 13-23 13-47 0-29 4-40 13-37 7 2 13 19 13 38 0 18 7 38 16 43 13 8 12 12-3 29-10 11-18 25-18 32 0 7-5 13-10 13-6 0-11-9-11-19zM4695 1679c-12-26-12-34-2-41 9-5 11-19 6-40-4-19-2-34 5-39 18-11 25 3 23 43-2 25 2 38 13 43 20 7 22 25 2 25-8 0-14 7-13 17 2 30-19 25-34-8zM4788 1696c0-9 5-16 11-16 5 0 10 7 10 16 0 8-5 16-10 16-6 0-11-8-11-16zM4785 1662c-4-3-7-27-7-52 0-33 4-45 15-45 12 0 16 12 16 52 0 49-7 63-24 45zM5004 1653c-21-21-21-46 0-76 19-27 44-29 73-8 20 15 20 15-5 26-19 7-21 10-8 11 12 0 18 9 18 26 0 38-48 51-78 21zM5138 1652c-6-16 13-38 43-49 6-2 8-7 4-12-3-4-16-1-28 7-26 16-43 3-22-17 44-42 118-8 78 36-9 10-13 26-9 35 5 14 0 18-27 18-21 0-35-7-39-18zM3079 1646c3-9 32-14 85-16 67-3 81-1 81 13 0 13-16 16-85 16-64 0-84-3-81-13zM3944 1642c-14-36-7-67 19-79 57-26 107 19 79 71-11 19-22 25-53 25-26 0-41-6-45-17zm76-28c1-10-4-21-14-24-21-9-48 14-40 34 8 21 49 13 54-10zM4064 1643c0-9 7-34 16-55l17-39 15 29c20 37 31 36 46-6l13-34 24 53c30 63 30 68 11 68-8 0-18-10-22-21-6-21-7-21-27 2-20 24-20 24-36 3-16-19-17-20-27-2-13 22-30 24-30 2zM4249 1643c-12-29-8-54 12-78 14-18 25-21 47-16 31 8 39 36 10 37-17 0-17 1 1 15 11 8 18 23 16 34-5 26-77 33-86 8zM4384 1649c-9-14 5-42 21-42 8 0 17-5 21-11 4-8-3-9-20-5-21 6-27 3-27-9 0-19 43-34 68-24 28 11 19 56-13 68-19 6-22 11-11 11 10 1 19 6 19 12 0 13-50 13-58 0zM2338 1641c-12-19 66-28 214-25 162 4 225 21 77 22-52 0-138 3-190 7-61 4-97 3-101-4zM3381 1628c-21-5-26-14-26-40 0-40-29-47-47-13-15 27-50 27-59-1l-6-22-26 24c-23 22-28 23-67 10-23-8-42-19-42-24 0-5 12-23 28-39 24-25 32-28 59-21 17 5 35 8 40 7 5-1 15 9 23 23 7 14 17 24 23 22 11-2 11-5 0-34-8-20 20-27 32-8 3 6 37 11 74 11 53 0 68 3 68 15 0 9-10 16-22 16-30 0-65 20-57 32 3 6 20 10 37 10 26 0 51 16 40 26-11 9-49 13-72 6zm-178-78c0-18-26-40-36-31-15 16-6 46 15 46 11 0 21-7 21-15zM2152 1601c-7-9-20-15-30-13-9 2-17-3-18-10-1-8-2-18-3-24 0-6-6-10-12-10-7 0-9 11-5 31 6 25 4 32-10 32-19 0-39-45-30-69 8-21 53-31 71-16 11 9 21 9 36 1 30-15 37-14 68 13 30 26 37 50 13 50-8 0-17 7-20 15-8 21-43 21-60 0zm35-36c-3-12-10-21-15-21-5 0-9 9-9 21 0 11 7 21 15 21 9 0 13-8 9-21zM2641 1584c-18-5-92-7-171-3-93 5-139 4-139-4 0-17 118-26 253-18 96 6 125 11 125 22 0 17-22 18-68 3zM5618 1550c0-14-6-28-14-31-10-3-10-9 1-28 13-21 13-23-2-18-21 8-55-23-70-63-11-27-5-76 12-108 4-9 14-31 22-50 7-19 20-34 27-34 7 0 13-10 13-23 0-22 0-22 21-3l22 20-24 12c-13 7-26 12-29 10-3-2-6 15-7 38-1 23-8 48-14 56-7 8-10 24-6 36 4 14 1 22-12 25-16 3-15 6 7 17 40 20 84 90 84 132 0 26-5 37-16 37-9 0-15-10-15-25zM2641 1528c-39-8-109-11-181-8-80 4-118 2-118-6 0-15 143-27 223-19 82 9 165 29 165 40 0 10-8 10-89-7zM3417 1472c5-21 2-34-9-43-21-18-37-6-37 26 0 16-7 26-16 26-10 0-16-10-16-27 0-44 18-68 52-68 53 0 79 46 53 95-17 31-34 25-27-9zM2672 1479c-27-8-107-13-292-18-23-1-37-6-33-12 16-27 404 4 404 32 0 12-37 11-79-2zM3158 1467c-21-16-30-97-11-96 8 1 33 2 56 3 50 2 53 25 4 33-44 8-48 42-5 42 21 0 32 5 32 16 0 19-52 21-76 2zM2683 1433c-32-9-106-15-187-15-128 0-171-11-101-25 65-13 174-7 269 16 54 13 98 27 98 32 0 11-17 9-79-8zM2158 1419c-28-5-43-13-46-25-2-15 5-18 38-18 22 0 46-6 53-13 9-9 13-8 19 5 3 10 18 18 31 18 16 0 26 6 26 16 0 8-9 16-19 16-10 0-28 2-39 4-12 2-40 0-63-3z" transform="matrix(.02286 0 0 -.02286 -9.6 140.88)"/>
	<path d="M2683 1395 c-68 -16 -177 -27 -246 -24 -66 3 -87 -10 -34 -21 66 -15 158 -9 262 15 59 15 107 30 107 34 0 10 -35 8 -89 -4z" transform="matrix(.02286 0 0 -.02286 -9.6 140.88)"/>
	<path d="M2704 1354c-136-28-175-32-247-26-65 6-76 4-65-7 22-22 233-18 314 6 36 11 66 24 66 29 0 10-9 10-68-2zM3362 1349c-28-20-34-89-7-89 8 0 16 5 16 12 0 7 9 3 22-8 21-19 22-19 42 5 51 63-6 126-73 80zm57-55c-12-11-20 7-11 26 7 18 8 18 12 0 3-11 2-22-1-26zM2125 1327c-13-19-15-32-8-43 28-45 99-33 99 16 0 58-60 76-91 27zm64-25c0-9-8-17-18-19-13-2-18 3-18 19 0 16 5 21 18 19 10-2 18-10 18-19zM3137 1338c-4-4-4-13-1-21 8-21 94-20 102 0 3 9 2 18-2 20-12 7-93 7-99 1zM3077 1317c0-10 7-15 17-13 26 5 30 30 4 30-13 0-21-7-21-17zM2651 1290c-34-5-112-7-173-4-110 5-110 5-63-11 26-9 81-17 122-17 80-2 235 22 235 36 0 10-35 9-121-4zM3141 1255c-4-6-7-20-7-32 0-15-8-22-29-24-17-2-28-10-28-19 0-12 15-15 80-12 87 3 115 22 51 33-47 9-51 38-5 38 20 0 31 5 31 15 0 18-81 19-93 1zM2384 1240c38-24 117-32 245-25 73 3 133 10 133 15 0 5-65 8-145 7-79 0-168 2-197 6-37 6-47 5-36-3zM3346 1222c-14-15-7-64 12-81 44-40 105 1 91 60-10 38-39 37-31-1l7-29-27 29c-27 29-39 34-52 22zm39-51c3-9 2-16-3-16-5 0-12 7-15 16-4 8-2 16 3 16 5 0 11-8 15-16zM2384 1188c0-13 72-34 119-36 90-2 238 6 238 13 0 5-68 11-150 14-82 4-163 10-179 14-17 4-28 2-28-5zM2121 1166c-25-26-26-41-5-72 17-24 51-31 63-12 3 5 22 10 40 10 40 0 60 16 60 50 0 27-6 30-82 39-46 5-58 3-76-15zm61-40c-5-27-40-30-40-3 0 15 7 22 22 22 15 0 20-6 18-19zm65 2c0-9-6-15-12-13-20 7-23 30-5 30 10 0 17-8 17-17zM5652 1179c-24-9-15-24 52-90 36-36 79-83 95-105 17-22 39-39 50-39 26 0 26 12 0 29-12 7-21 18-21 25 0 6-10 21-21 34-92 101-144 151-155 146zM2373 1137c0-21 85-34 214-34 73 0 133 4 133 9 0 4-63 12-140 15-76 4-154 10-173 13-19 4-34 2-34-3zM3178 1123c-14-20-16-20-22-3-6 16-8 16-24 1-14-14-15-23-5-44 14-32 52-26 66 11 13 36 23 31 14-8-9-41 17-37 31 4 18 50-30 81-60 39zM3352 1090c-7-7-13-26-13-42 0-26-4-29-32-29-22 0-31-5-28-14 2-8 31-14 79-16l76-3 0 46c0 50-14 71-48 71-12 0-27-6-34-13zm44-25c21-8 21-32 1-40-16-6-42 27-30 39 8 8 8 8 29 1zM2366 1084c17-27 117-46 222-43 147 5 134 23-21 31-69 4-144 10-167 15-28 6-39 5-34-3zM2153 1053c-41-21-53-55-27-76 26-22 104-20 130 4 32 28 29 67-4 80-38 14-57 13-99-8zm94-40c0-8-16-18-36-21-59-11-83 17-30 34 35 12 66 6 66-13zM2415 996c44-15 79-19 150-17 50 1 91 5 91 9 1 5-239 31-278 30-11-1 5-10 37-22zM3219 988c-4-6-2-13 4-17 13-7 32 2 32 17 0 12-28 12-36 0zM2342 962c0-3 17-13 38-22 37-16 267-24 253-10-4 4-53 11-110 16-56 6-120 13-142 16-22 4-39 3-39 0zM3125 949c-3-4-6-18-6-31 0-18-7-25-29-27-18-2-29-10-29-19 0-13 14-16 66-16 36 0 76 4 89 10 21 8 19 10-19 15-28 4-43 12-45 25-3 14 4 18 34 18 26 0 38 5 38 16 0 11-13 16-46 16-25 0-49-4-53-7zM2139 920c-19-15-23-35-12-63 11-27 121-23 146 4 16 17 17 26 7 47-10 23-18 26-67 26-30 0-64-6-74-14zm113-33c0-6-20-12-44-13-42-3-55 5-38 22 12 12 82 4 82-9zM5871 917c2-10 13-21 23-23 14-2 18 2 16 16-2 10-13 21-23 23-14 2-18-2-16-16zM2342 906c0-5 22-17 49-27 56-20 240-26 229-7-4 5-31 10-61 10-30 1-76 5-102 11-97 21-115 23-115 13zM3349 893c-12-7-17-30-18-89l-2-79 53 0c62 0 68 22 9 31-23 3-37 12-40 24-2 14 4 18 34 18 50 0 55 14 11 30-45 16-42 37 5 42 20 2 32 8 30 15-5 16-60 21-82 8zM5933 857c0-8 6-20 14-27 8-6 18-23 21-38 4-14 14-25 22-25 12 0 14 8 9 33-9 46-66 95-66 57zM2321 851c0-14 59-31 136-37 38-4 84-9 102-12 19-3 35 0 35 5 0 6-32 13-71 17-39 4-99 14-132 22-73 18-70 18-70 5zM3123 792c-10-39 7-62 49-66 24-2 39 3 48 15 19 26 18 67-2 74-22 9-32-3-18-20 17-20-1-41-30-37-19 2-24 9-22 26 5 34-17 40-25 8zM2121 783c0-12 12-16 47-16 25 0 49-5 53-12 5-7 12-7 22 2 11 10 15 9 15-5 0-9 7-17 16-17 12 0 15 8 13 29-3 28-5 29-85 32-67 2-81 0-81-13zM2336 779c34-31 233-50 224-21-3 7-28 13-56 15-29 1-81 6-115 9-39 4-59 3-53-3zM2321 736c0-4 12-12 28-19 34-16 192-18 192-3 0 6-25 11-55 11-30 1-80 5-110 9-31 4-55 5-55 2zM5997 732c-7-9-7-19-1-29 9-13 11-13 20 1 22 33 6 57-19 28zM2142 698c0-11 11-15 37-15 25 0 37-5 37-16 0-20 17-21 28-2 4 8 17 17 27 21 41 15 15 28-55 28-59 0-74-3-74-16zM3332 683c3-17 2-34-4-37-22-14-8-25 38-28 61-5 86 17 34 30-24 7-36 17-38 32-2 12-11 25-20 28-13 5-15 1-10-25zM2314 684c8-12 36-18 135-27 79-8 79 10 0 19-33 4-79 10-101 13-28 5-39 3-34-5zM3166 684c-36-7-47-23-47-66 0-49 20-55 21-6l1 34 10-33c23-81 91-44 81 44-3 30-20 37-66 27zm39-54c-7-29-22-37-30-16-7 18 14 50 28 42 4-3 6-15 2-26zM2305 653c-14-14 38-31 110-37 82-6 76-3-44 27-33 9-63 13-66 10zM2300 590c0-11 21-17 107-28 28-4 50-3 50 3 0 5-27 12-60 15-34 3-69 9-79 13-10 5-18 3-18-3zM3331 575c-21-20-15-64 11-83 28-20 63-10 81 23 26 48-53 100-92 60zm65-28c9-14-5-43-20-43-19 0-40 28-32 42 8 13 44 14 52 1zM2305 547c-8-14 4-18 71-27 29-4 50-3 50 3 0 6-18 12-40 15-22 3-47 8-57 12-9 4-20 3-24-3zM3125 529c-3-4-6-23-6-43 0-27 5-37 23-44 49-18 90 17 77 66-8 32-34 32-29 0 2-18 0-17-18 4-21 24-34 29-47 17zM2323 501c2-7 18-14 34-16 27-3 29-2 17 13-17 20-57 22-51 3zM3318 462c-9-5-24-12-34-15-10-3-18-13-18-22 0-10 7-16 18-14 10 2 23 1 29-3 21-11 110 3 110 18 0 10-12 15-33 15-18 0-38 7-45 15-7 9-17 11-27 6zM3113 396c-17-5-37-12-44-14-9-2-13-23-13-56l0-53 78 0 79 0 0 62c0 77-20 89-100 61zm69-49c0-21-6-32-16-32-20 0-29 17-21 42 10 33 37 26 37-10zm-69-11c4-6-1-14-10-17-20-8-31 1-22 16 9 14 24 15 32 1zM3364 370c-6-4-20-23-30-41-22-38-37-36-37 3 0 41-26 24-29-20-3-29 1-40 18-49 30-16 62-4 70 26 3 14 12 30 20 37 22 18 30-7 11-34-21-30-21-50-1-50 20 0 48 40 48 70 0 13-10 33-21 45-23 23-31 25-49 13z" transform="matrix(.02286 0 0 -.02286 -9.6 140.88)"/>
</svg>
