<?xml version="1.0" encoding="utf-8"?>
<svg xmlns="http://www.w3.org/2000/svg" version="1" viewBox="0 0 412 150">
	<title>Diagram showing the pressure from the ice on the ship.</title>
	<path d="M12553 6805 c-4 -7 -16 -11 -26 -11 -11 0 -27 -8 -36 -16 -8 -9 -23 -16 -32 -16 -9 0 -22 -12 -27 -26 -5 -15 -15 -26 -21 -26 -6 0 -10 -7 -10 -14 0 -7 -13 -19 -29 -26 -41 -18 -90 -48 -103 -62 -5 -6 -45 -31 -87 -56 -43 -24 -94 -62 -114 -85 -21 -23 -43 -41 -49 -41 -7 -1 -24 -15 -38 -32 -14 -17 -30 -31 -36 -31 -5 0 -25 -12 -44 -26 -19 -15 -40 -26 -46 -26 -6 0 -11 -5 -11 -10 0 -5 -14 -13 -31 -17 -18 -4 -32 -11 -32 -15 0 -5 -31 -25 -69 -44 -62 -31 -151 -106 -151 -127 0 -13 -34 -43 -87 -76 -33 -21 -52 -41 -56 -60 -5 -24 -47 -61 -93 -81 -12 -5 -23 -13 -63 -48 -16 -15 -38 -26 -48 -26 -10 0 -21 -8 -25 -16 -3 -9 -11 -16 -18 -16 -6 0 -38 -26 -70 -58 -32 -32 -82 -71 -112 -87 -35 -19 -59 -41 -71 -66 -10 -20 -36 -53 -58 -74 l-40 -38 -81 5 c-71 5 -81 8 -81 25 0 14 7 20 25 20 41 0 59 11 59 38 0 22 -5 25 -42 25 -35 0 -42 4 -42 21 0 19 7 21 63 21 60 0 63 1 63 26 0 26 -1 27 -95 27 l-95 0 3 -124 3 -123 76 0 c97 1 99 -14 9 -57 -37 -17 -71 -37 -74 -43 -4 -6 -16 -10 -27 -10 -11 0 -24 -7 -28 -15 -5 -8 -35 -20 -66 -27 -32 -8 -63 -17 -69 -22 -6 -4 -39 -13 -73 -20 -35 -7 -71 -17 -80 -22 -10 -5 -48 -12 -84 -16 -37 -4 -72 -11 -79 -16 -6 -5 -72 -14 -147 -20 -74 -6 -145 -15 -156 -21 -39 -17 -260 -24 -763 -23 -519 0 -713 7 -723 24 -4 5 -84 15 -179 21 -95 6 -182 15 -194 20 -11 5 -37 12 -57 16 -21 4 -42 11 -48 15 -6 4 -40 14 -77 22 -37 7 -84 22 -104 33 -21 10 -47 19 -57 19 -11 0 -19 4 -19 9 0 5 -8 13 -18 16 -10 4 -42 21 -71 38 -29 17 -65 36 -79 44 -14 7 -29 17 -33 22 -7 11 -42 32 -90 55 -19 9 -35 20 -34 26 0 6 -10 11 -22 11 -13 0 -34 9 -49 20 -22 18 -36 20 -91 15 -35 -4 -69 -10 -75 -15 -6 -4 -72 -13 -147 -20 -75 -7 -141 -17 -147 -21 -6 -5 -37 -12 -70 -16 -34 -4 -63 -11 -67 -17 -3 -5 -20 -9 -37 -9 -39 0 -128 -22 -136 -33 -3 -5 -41 -14 -84 -21 -43 -6 -81 -16 -84 -21 -3 -5 -40 -14 -82 -19 -42 -5 -82 -14 -89 -20 -7 -5 -38 -13 -69 -16 -32 -4 -60 -10 -63 -15 -4 -5 -49 -16 -101 -23 -52 -8 -97 -19 -101 -24 -3 -5 -43 -14 -89 -20 -45 -6 -87 -15 -93 -20 -6 -4 -30 -12 -53 -16 -23 -4 -46 -11 -52 -15 -6 -5 -47 -15 -92 -22 -45 -7 -82 -17 -82 -22 1 -5 -21 -8 -47 -8 -26 0 -47 3 -47 8 0 5 -37 15 -81 22 -45 7 -86 17 -92 22 -6 4 -39 11 -73 15 -34 3 -67 11 -74 15 -15 12 -126 33 -173 33 -21 0 -43 4 -48 9 -6 6 -34 13 -63 17 -45 6 -56 4 -72 -14 -16 -18 -16 -22 -2 -36 8 -8 38 -19 66 -23 28 -4 55 -12 62 -17 6 -5 57 -15 112 -22 56 -7 102 -16 102 -20 0 -4 26 -10 58 -14 32 -4 58 -12 58 -17 0 -6 16 -10 37 -10 43 0 46 -24 4 -30 -14 -2 -31 -7 -37 -12 -5 -5 -35 -12 -65 -16 -30 -4 -55 -11 -55 -15 0 -9 -96 -32 -132 -32 -14 0 -25 -4 -25 -9 0 -5 -30 -15 -65 -23 -52 -11 -107 -11 -271 -3 -113 7 -248 10 -300 8 -276 -11 -357 -17 -366 -26 -15 -14 -73 -13 -88 2 -8 8 -17 9 -26 2 -7 -6 -65 -17 -129 -24 -63 -7 -121 -18 -128 -24 -8 -6 -172 -11 -432 -12 -336 -1 -422 2 -435 13 -12 10 -83 17 -241 24 -123 6 -235 16 -248 23 -17 8 -123 12 -331 13 -301 0 -489 10 -500 27 -3 4 -49 13 -103 20 -53 7 -97 17 -97 22 0 5 -11 9 -25 9 -33 0 -136 23 -142 32 -9 12 -94 21 -255 27 -141 6 -155 5 -155 -11 0 -33 64 -48 199 -48 69 0 128 -4 131 -9 3 -5 26 -12 50 -16 25 -4 56 -14 68 -23 13 -8 50 -18 82 -22 32 -3 58 -10 58 -14 0 -5 40 -14 89 -22 49 -7 90 -17 90 -22 0 -5 14 -8 32 -8 51 -1 180 -22 208 -36 34 -16 341 -14 361 2 9 7 18 8 24 3 5 -6 121 -13 257 -16 274 -6 377 -14 395 -29 7 -5 47 -12 89 -16 43 -3 81 -11 85 -17 9 -15 392 -13 410 1 7 6 100 13 207 15 115 3 203 9 215 16 26 15 199 35 302 35 43 0 82 4 88 10 6 6 88 13 183 16 95 4 179 8 187 11 8 3 98 0 199 -6 198 -13 232 -23 233 -72 0 -13 4 -32 9 -42 13 -22 137 -148 148 -148 4 0 16 -10 27 -21 10 -12 25 -21 34 -21 8 0 36 -22 63 -48 27 -26 54 -47 60 -47 6 0 17 -9 24 -21 7 -12 20 -21 29 -21 8 0 16 -7 16 -16 0 -8 3 -15 8 -16 10 0 29 -14 167 -126 19 -15 17 -30 -5 -38 -10 -4 -21 -10 -23 -13 -16 -18 -81 -31 -127 -25 -41 5 -52 3 -52 -9 0 -8 -31 -45 -68 -83 -52 -50 -68 -74 -68 -96 0 -17 5 -29 13 -29 14 0 45 -33 66 -70 18 -30 72 -27 76 4 2 13 -1 24 -7 24 -19 -1 -66 54 -60 69 6 17 54 20 64 4 3 -6 16 -10 28 -10 18 -1 20 4 16 28 -3 15 -3 34 0 42 6 15 45 19 45 4 0 -14 36 -24 56 -16 12 5 16 17 15 40 -2 28 1 33 25 36 16 2 34 10 41 18 7 9 30 15 51 15 32 0 46 -9 94 -57 31 -32 60 -58 64 -58 5 0 28 -19 52 -42 24 -23 48 -42 54 -42 5 0 10 -7 10 -15 0 -8 9 -18 20 -21 11 -4 23 -14 26 -22 3 -9 13 -15 22 -15 9 0 16 -8 16 -16 0 -9 12 -22 26 -28 15 -7 27 -19 27 -26 0 -8 4 -14 10 -14 6 -1 31 -19 55 -43 24 -23 47 -42 51 -41 4 0 49 -43 100 -95 52 -52 98 -95 104 -95 6 0 23 -13 37 -29 14 -16 34 -33 44 -36 10 -4 19 -15 19 -23 0 -9 4 -16 10 -17 6 0 50 -37 98 -84 49 -46 92 -84 97 -84 6 1 16 -14 24 -31 7 -17 20 -31 27 -31 7 -1 39 -24 70 -53 96 -87 110 -99 139 -115 15 -8 28 -18 28 -23 0 -15 -20 -20 -39 -10 -10 5 -46 15 -79 22 -33 7 -60 16 -60 22 0 5 -17 10 -37 10 -20 0 -39 4 -42 10 -4 6 -25 11 -48 11 -23 0 -41 3 -41 8 -1 5 -44 15 -97 22 -54 7 -100 16 -103 21 -3 4 -14 11 -24 15 -10 3 -18 14 -18 23 0 9 -9 27 -21 39 -12 12 -21 29 -21 36 0 22 28 16 49 -10 11 -13 32 -30 48 -38 26 -14 32 -13 46 1 21 21 12 48 -19 60 -13 5 -38 26 -56 47 -35 42 -73 50 -83 18 -4 -11 -27 -37 -51 -58 -24 -21 -52 -46 -62 -54 -14 -14 -20 -14 -39 -3 -41 26 -24 87 28 105 50 16 74 40 81 78 8 44 -13 77 -73 112 l-51 31 -61 -62 c-33 -33 -61 -67 -61 -74 0 -7 -8 -13 -16 -13 -9 0 -16 -7 -16 -16 0 -8 -7 -15 -16 -15 -19 0 -21 -38 -3 -57 10 -10 20 -6 49 22 22 22 44 34 58 32 19 -2 22 -9 19 -44 -4 -53 -26 -76 -58 -60 -12 6 -43 16 -67 22 -24 7 -47 16 -50 22 -4 5 -17 10 -30 10 -12 0 -36 7 -53 16 -16 8 -36 16 -44 16 -9 0 -15 10 -15 26 0 14 -4 26 -10 26 -5 0 -16 13 -24 28 -11 24 -41 49 -88 72 -13 7 -67 -34 -67 -50 0 -5 -7 -17 -16 -25 -14 -14 -15 -13 -15 15 0 27 -5 32 -37 38 -20 4 -37 11 -37 17 0 5 -21 10 -47 10 -26 0 -47 5 -47 11 0 5 8 10 19 10 23 0 35 23 26 47 -3 9 -12 16 -20 16 -8 0 -15 9 -15 21 0 31 30 26 65 -10 35 -37 82 -44 82 -12 0 25 -105 117 -133 117 -22 0 -98 -72 -98 -93 0 -7 -7 -12 -15 -12 -8 0 -17 -8 -20 -16 -10 -25 -26 -19 -30 12 -2 15 -10 31 -19 35 -9 4 -26 13 -39 19 -13 7 -31 12 -40 12 -8 1 -15 5 -15 11 0 6 16 11 36 11 20 -1 38 4 41 9 3 5 29 15 56 23 54 15 77 31 77 55 -1 34 -72 28 -131 -11 -46 -30 -84 5 -43 39 9 7 21 32 28 54 11 36 10 44 -5 59 -17 17 -20 17 -38 -7 -10 -14 -25 -51 -31 -81 -7 -31 -17 -59 -23 -62 -5 -4 -10 -15 -10 -27 1 -28 -11 -25 -47 10 -17 17 -40 32 -51 34 -14 3 -21 15 -22 38 -3 30 2 37 32 51 27 13 37 26 42 53 7 36 21 54 34 41 3 -3 1 -16 -6 -27 -18 -28 -17 -31 10 -31 13 0 33 9 45 21 12 12 33 30 48 41 l26 21 -27 27 c-25 25 -30 26 -55 15 -16 -7 -28 -17 -28 -22 0 -5 -5 -8 -11 -8 -6 0 -10 7 -10 15 0 9 -5 16 -11 16 -6 0 -11 6 -11 13 0 7 -14 22 -32 32 -35 20 -93 24 -93 8 0 -6 -9 -11 -20 -11 -11 0 -35 -15 -54 -33 -29 -28 -36 -43 -40 -90 -4 -50 -2 -59 24 -84 23 -24 38 -29 76 -28 28 0 41 -3 33 -8 -8 -5 -25 -9 -38 -9 -35 0 -33 -56 4 -81 15 -10 35 -27 44 -37 9 -10 23 -18 31 -18 7 0 16 -8 20 -16 8 -22 53 -20 66 2 8 15 10 11 11 -20 0 -30 6 -42 24 -52 13 -7 26 -15 29 -18 10 -13 52 -33 68 -33 8 0 16 -7 16 -16 0 -8 4 -15 10 -15 6 0 11 -8 11 -17 0 -16 38 -56 54 -57 4 0 25 -17 46 -38 30 -31 40 -36 47 -24 25 40 26 41 63 30 20 -5 49 -10 65 -10 28 0 28 -1 11 -21 -10 -12 -24 -21 -31 -21 -20 0 -45 -59 -32 -73 19 -18 51 -13 57 10 6 25 30 27 52 5 8 -8 10 -16 4 -16 -19 1 -14 -101 6 -109 23 -9 33 0 41 39 10 45 23 60 54 60 13 0 34 6 46 13 17 11 23 10 36 -10 10 -13 33 -25 58 -29 23 -4 42 -11 42 -16 0 -5 27 -15 60 -21 34 -7 64 -17 67 -23 3 -5 39 -15 79 -21 90 -14 136 -35 180 -81 33 -36 34 -36 136 -38 67 -1 103 -6 106 -14 2 -6 15 -12 29 -12 36 0 32 -13 -16 -61 -29 -27 -42 -50 -42 -69 0 -37 26 -36 64 4 50 52 64 38 51 -47 -5 -29 -6 -56 -3 -61 8 -14 45 -8 45 9 0 32 33 68 64 68 34 -1 79 40 89 79 6 24 9 25 66 19 33 -4 69 -13 80 -21 11 -8 34 -14 50 -14 16 0 29 -5 29 -10 0 -5 24 -11 54 -15 45 -5 60 -13 93 -49 21 -23 44 -42 51 -42 7 0 12 -7 12 -16 0 -8 7 -15 16 -15 8 0 16 -7 16 -15 0 -8 9 -17 21 -20 11 -3 21 -13 21 -22 0 -9 6 -17 14 -17 8 0 29 -17 47 -37 18 -20 37 -36 42 -36 5 0 37 -29 71 -63 33 -35 67 -63 74 -63 7 0 19 -11 26 -24 15 -29 27 -40 67 -62 17 -10 38 -31 47 -47 20 -38 32 -51 55 -59 10 -4 19 -13 19 -19 0 -15 26 -41 41 -41 6 0 11 -6 11 -12 0 -7 43 -55 95 -107 51 -52 94 -98 94 -103 0 -5 7 -9 16 -9 8 0 16 -5 16 -11 0 -6 5 -11 13 -11 14 0 81 -65 81 -78 0 -4 13 -20 29 -35 41 -40 128 -145 129 -156 0 -5 14 -20 31 -35 18 -14 32 -32 32 -39 0 -8 7 -17 15 -20 9 -4 16 -12 16 -20 0 -7 12 -24 26 -38 14 -14 26 -31 26 -38 0 -7 5 -13 11 -13 6 0 23 -19 38 -43 15 -24 36 -46 46 -49 12 -3 23 -18 27 -38 4 -18 11 -35 16 -39 6 -3 15 -34 22 -68 6 -34 19 -79 28 -99 26 -56 18 -378 -8 -378 -5 0 -12 -15 -16 -34 -3 -19 -13 -48 -22 -65 -25 -48 -37 -169 -25 -253 13 -95 78 -232 101 -213 19 16 10 89 -14 115 -14 15 -16 42 -13 154 2 83 9 141 16 150 7 8 18 37 25 65 7 27 16 50 21 50 5 0 14 26 21 58 18 88 2 460 -21 477 -12 9 -31 85 -25 100 3 8 22 18 42 22 20 4 39 13 42 20 3 8 19 17 36 21 17 4 30 11 31 16 0 5 18 15 42 22 23 7 42 15 42 19 0 4 16 13 36 20 20 7 37 17 37 21 0 4 27 20 60 37 34 17 68 35 77 40 8 5 28 15 44 22 16 7 29 15 29 19 0 5 14 11 31 15 18 4 35 12 40 19 9 15 117 70 137 70 7 0 13 5 13 10 0 6 11 14 25 17 15 4 32 13 38 21 7 8 32 20 56 27 24 6 46 14 49 18 7 10 119 64 132 64 7 1 15 7 18 15 3 8 21 18 39 22 19 4 47 22 64 38 16 17 44 34 61 37 18 4 32 10 32 14 0 4 17 13 37 20 20 7 37 17 37 21 0 5 18 15 42 22 23 8 42 18 42 22 0 4 15 11 34 14 18 4 57 23 85 43 29 20 68 40 87 43 19 4 35 11 35 16 0 5 19 14 42 20 23 6 42 15 42 19 0 8 44 32 102 56 19 8 35 18 35 22 0 4 18 13 42 20 23 7 42 16 42 21 0 5 7 9 15 9 16 0 59 20 69 33 2 3 20 10 38 14 18 4 36 14 39 22 3 8 15 15 26 15 12 0 27 6 35 13 16 15 81 39 105 39 9 1 19 7 22 15 4 8 22 18 41 23 19 4 37 10 40 14 9 11 204 106 218 106 7 0 13 5 13 11 0 5 9 10 20 10 12 0 23 4 27 10 10 16 133 74 159 74 13 0 31 7 39 16 9 8 40 21 69 28 30 7 54 16 54 20 0 4 14 11 31 15 17 4 32 10 32 15 0 4 20 14 44 22 25 8 54 20 66 27 11 7 36 16 55 20 19 3 34 11 34 16 0 6 10 10 22 10 12 0 44 12 71 26 79 41 143 69 162 69 10 0 18 3 18 8 0 5 17 15 37 23 20 8 37 18 37 21 0 4 27 13 60 21 33 7 63 16 66 20 7 9 63 41 97 54 16 7 29 16 29 22 0 5 10 9 22 9 29 0 93 23 93 33 0 4 14 10 32 14 17 4 31 12 31 17 0 5 8 10 17 10 10 -1 48 14 84 31 37 17 74 31 83 32 8 0 16 4 16 9 0 5 15 13 34 17 36 8 116 47 121 60 2 4 11 8 21 8 9 0 36 9 59 20 24 10 58 25 77 32 19 8 34 17 34 21 0 5 28 14 63 22 35 7 63 17 63 22 0 5 9 9 20 9 11 0 25 7 33 16 7 8 19 16 27 16 15 -1 57 20 67 32 3 4 25 10 49 14 24 4 50 14 57 23 6 8 19 15 28 15 9 -1 31 8 49 19 18 11 49 24 69 28 20 4 44 14 54 22 9 8 35 15 57 14 63 -2 204 13 204 22 0 18 205 25 622 21 l124 -1 28 -33 c82 -94 108 -104 108 -41 0 23 -5 45 -10 48 -6 4 -11 11 -11 15 0 12 183 1 187 -11 5 -12 52 -11 60 2 8 14 44 13 49 -2 3 -7 61 -12 166 -15 211 -4 327 -14 345 -29 9 -8 65 -13 142 -14 207 -2 421 -14 431 -25 14 -14 87 -13 92 1 4 14 363 14 380 1 6 -5 29 -12 51 -16 22 -4 40 -11 40 -16 0 -5 50 -12 112 -16 180 -10 245 -18 245 -28 0 -5 57 -9 127 -9 107 0 131 -4 154 -20 23 -16 52 -21 148 -24 78 -3 122 -8 124 -16 2 -7 28 -18 56 -26 29 -7 52 -16 52 -21 0 -4 18 -10 41 -14 23 -4 50 -14 60 -22 11 -8 33 -14 49 -15 55 0 130 -21 212 -59 18 -7 74 -20 126 -26 52 -7 97 -16 100 -20 9 -12 238 -35 277 -27 40 7 45 16 27 49 -9 17 -22 20 -88 20 -80 0 -184 18 -184 33 0 4 -36 13 -79 20 -44 7 -79 17 -79 22 0 4 -23 11 -52 15 -28 4 -54 13 -57 21 -3 7 -28 16 -56 20 -28 4 -57 10 -66 15 -9 5 -48 15 -87 22 -39 8 -70 18 -70 22 0 4 -25 13 -55 19 -30 7 -58 16 -61 20 -23 30 -87 47 -215 56 -80 5 -148 15 -163 24 -17 10 -78 17 -177 21 -83 3 -156 10 -163 15 -6 5 -58 12 -114 14 -56 3 -108 11 -115 17 -17 13 -191 34 -295 34 -42 0 -81 4 -87 9 -5 5 -102 12 -214 16 -431 13 -567 20 -567 28 0 5 -14 10 -29 10 -16 0 -44 3 -61 8 -17 5 -97 5 -178 0 -130 -8 -330 -1 -273 10 11 2 30 8 42 13 11 5 70 12 131 15 145 7 235 17 242 26 2 4 73 13 156 20 83 6 154 16 158 22 3 5 24 13 45 17 22 4 40 11 40 16 0 5 22 12 49 15 28 4 64 13 82 21 17 7 58 20 92 27 33 7 60 16 60 20 0 4 35 13 79 20 43 7 79 17 79 23 0 5 22 12 49 15 28 4 65 14 83 22 19 8 45 15 58 15 14 0 39 10 56 21 18 11 40 21 49 21 10 0 24 6 32 13 8 7 44 29 82 48 38 19 80 41 95 49 42 23 75 35 133 49 31 7 56 16 56 20 0 4 16 11 36 15 20 3 37 11 37 16 0 6 5 11 12 11 6 0 24 8 39 19 15 11 51 22 80 26 118 14 153 21 153 29 0 5 21 10 46 10 51 0 152 18 169 31 6 4 38 11 73 15 34 3 67 11 74 17 7 5 66 14 131 20 65 5 121 13 125 18 3 5 42 15 85 23 43 7 80 17 84 22 3 4 30 12 60 16 31 4 58 12 61 17 4 5 15 10 26 10 26 0 74 21 74 33 0 31 -74 55 -89 30 -4 -5 -29 -13 -56 -17 -27 -4 -54 -11 -60 -15 -6 -4 -41 -13 -79 -21 -38 -8 -74 -18 -81 -23 -6 -6 -56 -12 -110 -14 -151 -7 -232 -16 -244 -25 -6 -5 -37 -12 -69 -16 -31 -4 -61 -13 -64 -19 -4 -6 -50 -16 -103 -22 -53 -6 -95 -15 -95 -19 0 -4 -42 -10 -92 -14 -51 -4 -102 -13 -113 -20 -12 -7 -41 -19 -66 -27 -24 -8 -44 -18 -44 -22 0 -4 -17 -11 -37 -15 -20 -3 -37 -11 -37 -16 0 -6 -12 -10 -26 -10 -14 -1 -39 -6 -55 -12 -77 -31 -140 -59 -160 -71 -117 -66 -230 -117 -284 -127 -32 -6 -67 -15 -79 -21 -11 -5 -48 -13 -81 -16 -33 -4 -60 -11 -60 -16 0 -5 -23 -12 -50 -16 -28 -4 -60 -14 -72 -21 -13 -8 -53 -19 -90 -26 -37 -6 -81 -18 -98 -26 -18 -8 -62 -18 -100 -22 -38 -4 -73 -11 -79 -15 -6 -5 -29 -12 -52 -16 -23 -3 -52 -10 -63 -15 -12 -5 -80 -13 -151 -19 -72 -6 -133 -15 -137 -21 -3 -5 -61 -12 -128 -15 -79 -4 -133 -11 -157 -22 -46 -22 -141 -36 -188 -29 -21 4 -63 2 -94 -3 l-58 -10 -41 49 c-64 76 -114 59 -72 -25 11 -23 17 -42 14 -42 -4 0 -132 -3 -285 -7 -178 -4 -281 -10 -285 -17 -4 -6 -57 -16 -118 -22 -61 -6 -111 -14 -111 -19 0 -5 -22 -8 -48 -8 -26 0 -47 3 -47 8 0 5 -26 15 -58 22 -32 7 -57 17 -57 22 0 4 -16 11 -36 15 -19 3 -60 19 -92 35 -31 16 -76 36 -101 44 -24 8 -44 18 -44 23 0 4 -17 11 -38 15 -21 4 -40 14 -43 22 -3 8 -14 14 -23 14 -9 1 -41 12 -70 26 -29 15 -61 26 -71 26 -10 0 -18 5 -18 11 0 6 -21 16 -47 23 -26 7 -47 16 -47 20 0 4 -15 11 -33 15 -17 4 -34 13 -37 21 -4 8 -22 18 -42 22 -19 3 -35 10 -35 14 0 4 -19 14 -42 22 -24 7 -42 17 -42 22 0 5 -5 9 -11 9 -26 0 -278 123 -293 144 -3 5 -18 14 -32 22 -15 7 -35 17 -45 23 -28 16 -48 26 -143 76 -136 70 -143 74 -147 83 -2 5 -14 9 -26 9 -13 0 -33 7 -45 15 -12 9 -44 21 -71 28 -26 6 -48 16 -48 21 0 5 -9 10 -19 10 -11 0 -51 16 -89 35 -38 20 -88 42 -110 49 -22 6 -59 21 -82 32 -24 11 -51 20 -61 20 -10 0 -17 4 -17 9 0 5 -28 15 -61 22 -33 7 -63 17 -66 20 -9 12 -92 54 -107 54 -7 1 -32 10 -55 21 -23 11 -49 20 -57 21 -8 0 -23 6 -32 14 -9 8 -43 20 -77 28 -33 8 -60 17 -60 21 0 4 -19 11 -42 15 -24 3 -42 12 -42 20 0 17 48 60 68 60 8 0 18 5 22 11 4 6 23 18 43 26 19 9 35 20 35 26 0 5 6 10 14 10 13 0 104 83 157 145 16 18 35 34 43 34 8 0 17 7 21 15 3 9 12 16 19 16 17 0 103 85 103 102 0 7 5 14 11 14 5 0 10 6 10 14 0 8 13 20 29 27 39 16 91 46 95 56 2 4 12 8 22 8 10 0 36 16 57 36 20 20 45 37 54 37 23 0 69 51 69 76 0 12 9 23 21 26 11 3 21 10 21 15 0 5 6 9 13 9 14 0 102 84 102 97 0 15 54 61 79 67 14 3 26 10 26 16 0 5 5 9 12 9 6 0 25 12 42 26 18 15 40 27 50 27 10 0 27 8 37 19 10 11 31 23 46 26 19 4 67 44 132 111 86 87 110 106 144 111 25 5 46 16 52 27 6 11 16 21 22 21 6 0 29 14 51 31 21 17 51 36 67 41 15 6 28 18 28 27 0 9 4 16 10 16 6 0 11 7 11 16 0 9 11 21 26 26 14 5 26 15 26 21 0 6 6 11 14 11 24 0 61 48 58 74 -4 26 -24 38 -35 21z m-5528 -1385 c0 -5 -8 -24 -17 -42 -17 -35 -29 -39 -144 -50 -39 -4 -70 -11 -70 -15 0 -4 -44 -11 -98 -15 -53 -5 -101 -12 -107 -16 -15 -12 -115 -32 -158 -32 -19 0 -38 -4 -41 -9 -3 -5 -45 -15 -92 -22 -48 -7 -92 -17 -98 -21 -6 -4 -40 -11 -77 -15 -37 -3 -73 -10 -79 -15 -7 -5 -47 -15 -90 -23 -44 -7 -93 -19 -111 -26 -17 -8 -56 -17 -86 -21 -31 -4 -55 -11 -55 -15 0 -17 -172 -32 -240 -22 -76 11 -78 11 -66 31 5 7 34 16 66 19 30 3 60 9 66 13 6 4 41 13 79 21 38 7 73 18 78 22 15 14 73 11 88 -3 10 -10 17 -7 34 10 13 14 34 24 52 24 18 0 32 4 32 9 0 5 40 15 89 22 49 7 89 16 89 21 0 4 29 11 66 15 36 4 68 12 71 17 3 5 48 14 99 20 51 6 96 15 100 21 3 6 43 16 87 23 45 6 81 15 81 20 0 4 34 11 76 15 42 4 81 12 87 16 27 22 289 42 289 23z m9 -154 c18 -20 38 -37 43 -37 6 0 11 -5 11 -10 0 -6 -26 -11 -58 -11 -31 0 -59 -4 -62 -9 -3 -5 -34 -12 -68 -15 -33 -3 -70 -10 -81 -16 -11 -6 -64 -16 -118 -23 -54 -6 -106 -15 -116 -20 -9 -5 -57 -15 -106 -22 -50 -7 -94 -17 -100 -21 -6 -4 -54 -14 -108 -22 -53 -7 -97 -17 -97 -21 0 -4 -28 -11 -63 -15 -35 -4 -66 -11 -69 -17 -11 -17 -74 -10 -93 12 -21 22 -16 53 9 53 9 0 17 6 17 14 0 11 18 18 60 23 33 4 65 11 71 15 6 4 55 13 109 21 55 7 105 19 113 26 7 8 55 17 111 21 53 4 102 11 108 16 15 11 128 32 174 32 22 0 41 4 43 10 2 6 35 14 74 17 39 4 71 11 71 15 0 8 27 14 74 19 10 1 32 -15 51 -35z m174 -109 c64 -38 34 -64 -76 -64 -19 0 -42 -5 -53 -10 -10 -6 -60 -15 -111 -21 -51 -6 -98 -15 -105 -20 -6 -5 -40 -13 -74 -17 -35 -4 -66 -11 -69 -16 -3 -5 -43 -13 -89 -17 -47 -4 -98 -14 -116 -22 -17 -8 -69 -20 -115 -26 -46 -5 -88 -14 -94 -19 -6 -5 -40 -14 -74 -21 -35 -7 -73 -16 -84 -21 -12 -5 -42 -12 -67 -15 -26 -3 -49 -9 -53 -14 -3 -5 -48 -15 -100 -22 -52 -7 -97 -17 -100 -22 -3 -6 -49 -16 -100 -22 -52 -6 -97 -16 -100 -21 -3 -5 -27 -13 -53 -17 -26 -4 -49 -11 -52 -16 -3 -4 -49 -14 -103 -21 -53 -7 -96 -16 -96 -20 0 -4 -30 -13 -66 -20 -36 -7 -80 -19 -97 -27 -53 -22 -136 -29 -164 -14 -73 42 -55 63 72 83 48 8 87 17 87 21 0 4 36 13 80 19 45 7 84 16 87 21 3 5 34 13 68 17 34 4 68 13 75 21 7 7 38 16 68 19 30 4 60 11 66 17 7 5 49 16 94 23 44 7 81 17 81 22 0 5 12 9 26 9 17 0 27 -6 27 -16 0 -9 -8 -16 -16 -16 -20 0 -21 -30 -1 -38 8 -3 36 6 61 21 37 22 61 28 111 28 50 0 65 3 65 15 0 8 -5 18 -10 21 -6 4 -11 14 -11 22 0 11 14 15 55 15 31 1 64 7 75 15 11 9 46 19 79 22 32 4 65 12 72 18 7 6 47 14 88 19 41 4 78 12 81 17 4 6 59 16 122 24 64 7 118 17 121 21 3 4 37 10 76 14 39 3 77 10 84 16 7 5 62 16 121 24 59 8 108 18 108 22 0 15 67 7 99 -11z m141 -105 c4 -5 16 -11 27 -14 12 -2 22 -11 24 -20 3 -13 -16 -19 -102 -30 -58 -8 -105 -18 -105 -23 0 -5 -18 -9 -39 -9 -51 0 -174 -21 -188 -33 -7 -5 -58 -14 -115 -19 -56 -6 -108 -15 -114 -20 -7 -5 -40 -13 -75 -17 -34 -4 -67 -11 -73 -15 -6 -5 -46 -14 -89 -22 -44 -8 -82 -17 -84 -21 -3 -3 -41 -12 -84 -19 -43 -7 -81 -17 -84 -22 -3 -5 -38 -12 -77 -16 -39 -4 -70 -11 -70 -16 0 -4 -47 -13 -103 -21 -56 -7 -107 -17 -113 -21 -6 -5 -48 -15 -94 -23 -46 -7 -87 -16 -89 -20 -3 -3 -41 -13 -84 -20 -44 -8 -84 -18 -90 -22 -6 -4 -28 -10 -50 -14 -21 -4 -39 -11 -39 -15 0 -5 -30 -14 -66 -22 -36 -7 -70 -17 -76 -21 -6 -5 -33 -14 -62 -21 -57 -14 -111 -7 -111 15 0 7 -5 15 -11 17 -6 2 -8 11 -5 20 6 16 100 42 151 42 12 0 23 4 23 10 0 6 10 11 23 11 23 0 87 19 108 33 6 3 36 9 68 13 32 4 67 11 79 16 11 5 50 15 86 22 36 7 66 16 66 20 0 4 41 13 91 19 50 7 94 17 97 22 4 5 33 12 66 17 34 4 63 11 67 17 3 5 20 10 37 10 35 0 118 17 151 31 12 5 57 15 100 22 43 7 81 17 84 22 4 4 51 13 105 19 54 6 101 15 105 20 3 5 35 12 71 17 36 4 66 10 66 14 0 4 43 13 96 20 53 7 99 16 102 21 3 5 62 16 130 23 67 8 123 18 123 23 0 19 134 19 146 0z m-1474 -5 c8 -8 18 -28 22 -44 6 -27 5 -28 -23 -22 -17 3 -58 9 -91 12 -81 10 -100 32 -35 42 27 4 51 12 54 17 9 14 57 11 73 -5z m4909 5 c0 -5 21 -16 47 -24 26 -7 47 -17 47 -21 0 -5 17 -11 37 -15 40 -8 57 -23 37 -36 -7 -4 -72 -11 -145 -15 -74 -4 -136 -11 -139 -16 -3 -4 -83 -14 -178 -21 -96 -7 -179 -17 -185 -22 -6 -5 -58 -12 -115 -16 -58 -4 -110 -11 -116 -16 -6 -5 -67 -14 -136 -20 -69 -7 -135 -16 -147 -21 -11 -5 -94 -14 -183 -21 -90 -7 -168 -17 -174 -22 -19 -15 -251 -26 -242 -11 4 7 21 12 38 12 17 0 31 4 31 9 0 5 60 13 134 17 76 4 137 12 141 19 4 6 56 13 126 15 83 3 129 9 154 21 28 14 38 15 55 5 16 -10 25 -10 44 2 14 10 67 18 136 23 62 4 113 11 113 16 0 5 28 15 63 22 35 7 63 16 63 20 0 5 33 11 74 15 40 4 76 11 78 16 3 4 46 14 95 21 49 7 89 17 89 22 0 4 28 14 63 20 35 7 63 17 63 22 0 5 7 9 16 9 8 0 16 -4 16 -9z m-5441 -28 c15 -14 -15 -35 -58 -41 -28 -5 -55 -12 -61 -16 -6 -5 -48 -14 -94 -20 -46 -7 -86 -16 -90 -21 -3 -5 -27 -12 -53 -16 -26 -4 -60 -14 -77 -22 -16 -9 -52 -19 -81 -22 -28 -4 -51 -11 -51 -16 0 -5 -12 -9 -27 -9 -14 0 -26 4 -26 9 0 5 -9 12 -21 15 -12 3 -21 12 -21 21 0 16 17 21 108 33 27 4 50 11 50 16 0 5 16 13 36 16 20 4 37 11 37 15 0 4 34 14 76 22 42 7 79 18 82 22 11 16 120 28 194 23 40 -3 75 -7 77 -9z m279 -59 c6 -5 28 -9 50 -9 87 0 24 -35 -96 -53 -44 -7 -84 -16 -90 -21 -6 -4 -29 -12 -52 -16 -23 -4 -47 -11 -53 -15 -6 -4 -39 -13 -73 -20 -35 -7 -77 -19 -95 -27 -17 -8 -63 -17 -102 -22 -39 -4 -71 -11 -71 -16 0 -5 -24 -12 -52 -16 -29 -4 -53 -11 -53 -16 0 -5 -14 -9 -31 -9 -18 0 -32 5 -32 11 0 5 -6 10 -12 10 -17 0 -61 42 -61 58 0 12 115 37 172 37 15 0 27 3 27 8 0 4 30 15 66 22 36 8 70 18 76 22 6 5 47 15 92 22 44 7 81 17 81 21 0 4 26 10 58 14 32 4 58 12 58 17 0 20 171 18 193 -2z m1911 -4 c11 -9 33 -15 49 -15 29 0 51 -29 28 -37 -7 -2 -55 -7 -105 -11 -51 -4 -94 -11 -97 -15 -3 -5 -27 -12 -53 -16 -26 -4 -47 -10 -47 -15 0 -9 -143 -33 -196 -33 -18 0 -35 -4 -37 -10 -2 -5 -41 -15 -87 -22 -46 -6 -89 -15 -95 -20 -6 -4 -45 -12 -86 -16 -42 -4 -76 -11 -76 -15 0 -4 -45 -14 -100 -21 -55 -8 -100 -19 -100 -23 0 -5 -10 -9 -23 -9 -30 0 -144 -21 -171 -32 -45 -18 -65 -22 -121 -28 -32 -3 -62 -9 -68 -13 -6 -5 -44 -12 -84 -16 -41 -4 -76 -12 -79 -17 -3 -4 -39 -14 -79 -20 -40 -6 -75 -16 -79 -21 -3 -5 -49 -16 -102 -23 -53 -7 -97 -16 -97 -21 0 -4 -35 -13 -79 -20 -43 -7 -78 -16 -78 -21 0 -4 -16 -11 -35 -15 -18 -4 -36 -12 -40 -17 -3 -5 -30 -12 -61 -16 -47 -6 -58 -3 -79 17 -39 37 -25 60 42 68 31 4 57 12 57 17 0 5 24 12 53 16 28 4 52 11 52 16 0 5 14 10 32 10 36 0 125 20 141 31 6 4 44 14 84 20 40 7 78 17 84 22 6 4 49 15 95 22 46 8 86 18 90 22 3 5 31 12 63 15 31 4 61 11 67 15 6 4 50 14 97 21 48 8 87 17 87 21 0 4 44 13 97 20 54 7 103 18 110 23 6 6 40 13 73 16 34 4 66 10 72 14 6 5 50 15 100 22 49 7 93 16 99 20 6 5 52 14 103 21 50 7 92 16 92 20 0 4 59 14 131 22 72 7 131 17 131 22 0 4 36 11 79 15 43 4 81 12 85 17 8 14 38 10 61 -7z m3377 -70 c0 -10 2 -10 12 0 15 15 229 18 229 3 0 -5 17 -12 38 -15 36 -6 67 -23 67 -37 0 -4 -18 -7 -39 -7 -137 -2 -390 -19 -407 -26 -23 -10 -268 -31 -359 -31 -31 0 -56 -5 -56 -10 0 -5 -59 -13 -131 -17 -72 -4 -131 -11 -131 -15 0 -4 -47 -11 -103 -15 -56 -3 -134 -9 -172 -13 -100 -10 -313 5 -313 22 0 9 49 17 173 27 95 7 173 17 173 21 0 4 67 11 150 15 82 4 152 12 155 16 3 5 73 14 157 21 84 7 160 16 169 21 9 4 92 14 186 22 93 7 170 17 170 22 0 5 7 9 16 9 8 0 16 -6 16 -13z m-3114 -35 c16 -9 58 -19 91 -23 51 -5 62 -9 62 -26 0 -17 -9 -19 -103 -17 -131 3 -404 -13 -417 -23 -6 -5 -62 -12 -124 -16 -62 -4 -112 -11 -112 -15 0 -4 -70 -14 -155 -22 -86 -7 -158 -17 -160 -21 -3 -4 -35 -11 -71 -15 -56 -6 -65 -5 -60 8 6 15 123 39 189 39 14 0 26 4 26 9 0 5 48 15 107 21 59 7 109 17 113 22 3 5 44 13 92 17 48 4 89 11 93 16 3 5 20 10 38 10 65 0 213 23 239 37 35 19 113 19 152 -1z m3649 -77 c8 -11 78 -33 103 -33 15 0 23 -6 23 -19 0 -17 -12 -19 -128 -22 -71 -1 -131 -6 -134 -10 -3 -5 -107 -14 -231 -22 -125 -7 -231 -17 -237 -22 -17 -13 -414 -34 -504 -27 -46 4 -114 10 -152 13 -38 3 -73 10 -78 15 -6 6 -21 10 -35 10 -14 0 -22 5 -18 11 3 5 46 10 95 10 49 0 89 4 89 9 0 10 109 21 304 29 72 4 134 10 137 15 2 4 123 13 267 20 145 7 265 17 268 22 12 18 217 19 231 1z m-2776 -68 c4 -4 23 -7 42 -7 19 0 37 -5 41 -10 4 -7 13 -6 26 2 15 9 26 9 44 0 13 -6 62 -14 108 -18 46 -4 86 -11 88 -17 2 -5 53 -9 113 -9 123 0 256 -19 256 -36 0 -7 5 -6 13 2 16 16 57 16 63 0 2 -7 27 -11 66 -10 94 3 173 -9 173 -26 0 -8 -7 -14 -17 -14 -19 0 -16 -33 4 -40 8 -2 13 5 13 19 0 23 1 23 134 17 241 -12 344 -20 354 -28 6 -4 38 -11 71 -15 33 -4 61 -11 61 -16 0 -4 70 -14 157 -22 87 -8 158 -17 158 -22 0 -4 22 -11 49 -15 28 -4 64 -13 82 -21 17 -7 62 -16 100 -20 39 -4 83 -14 100 -23 17 -9 65 -19 107 -22 42 -3 76 -9 76 -13 0 -4 43 -14 95 -22 51 -7 94 -17 94 -22 0 -5 8 -8 19 -8 10 0 37 -10 60 -21 22 -12 49 -21 60 -21 12 0 19 -8 19 -21 0 -12 7 -21 15 -21 9 0 16 -8 16 -17 0 -8 7 -18 15 -21 9 -4 20 -35 27 -81 7 -42 18 -79 25 -83 16 -11 16 -374 0 -408 -7 -14 -17 -61 -24 -104 -7 -43 -16 -81 -21 -84 -4 -3 -12 -19 -16 -36 -10 -41 -36 -66 -79 -75 -21 -4 -40 -12 -44 -17 -3 -6 -37 -16 -76 -22 -38 -7 -69 -16 -69 -20 0 -4 -28 -11 -61 -15 -33 -4 -70 -13 -81 -20 -12 -7 -52 -19 -89 -26 -38 -8 -73 -18 -79 -22 -6 -4 -37 -11 -68 -15 -32 -4 -63 -11 -68 -15 -6 -5 -51 -15 -100 -22 -50 -8 -95 -18 -101 -23 -6 -4 -58 -14 -116 -21 -57 -7 -106 -16 -109 -19 -6 -8 -172 -31 -218 -31 -18 0 -35 -5 -39 -10 -3 -5 -52 -13 -108 -17 -56 -4 -107 -11 -113 -15 -16 -12 -130 -32 -183 -32 -27 0 -53 -4 -59 -10 -5 -5 -81 -15 -167 -21 -87 -7 -166 -17 -176 -22 -10 -6 -111 -15 -226 -21 -114 -6 -216 -16 -227 -22 -10 -6 -106 -13 -213 -17 -106 -3 -196 -10 -199 -15 -7 -11 -224 -12 -225 -1 0 14 -75 14 -91 1 -10 -9 -17 -9 -22 -1 -5 7 -94 14 -238 18 -127 5 -236 12 -241 17 -6 6 -42 10 -80 10 -93 0 -293 20 -320 31 -11 5 -49 13 -84 17 -34 4 -89 10 -120 14 -55 6 -126 38 -126 56 0 4 -8 8 -16 8 -9 0 -16 7 -16 16 0 9 -8 19 -18 23 -10 3 -28 14 -40 25 -120 107 -207 185 -243 220 -24 23 -47 42 -51 42 -4 0 -32 23 -61 51 -161 153 -235 219 -251 225 -10 3 -18 14 -18 22 0 9 -6 17 -13 17 -6 0 -33 22 -60 50 -27 28 -57 53 -67 57 -10 4 -18 15 -18 23 0 9 -6 17 -12 17 -7 0 -46 31 -87 69 -134 126 -150 141 -162 141 -7 0 -12 6 -12 15 0 8 -25 31 -55 52 -31 20 -67 49 -81 63 -14 15 -29 27 -33 27 -5 0 -22 12 -38 26 -16 15 -43 38 -61 52 -26 21 -29 29 -20 45 7 10 32 23 55 28 24 5 44 13 44 17 0 4 28 14 63 21 35 7 63 17 63 22 0 5 24 12 53 16 28 4 52 10 52 15 0 4 34 14 76 21 42 8 79 17 82 21 7 9 98 31 130 31 15 0 27 4 27 9 0 10 93 33 132 33 14 0 26 4 26 10 0 5 27 13 60 17 33 4 65 11 71 15 6 5 55 14 110 22 55 7 102 17 105 21 3 5 67 14 142 20 75 6 138 16 141 20 3 5 44 12 90 15 152 11 226 20 226 28 0 4 69 11 154 15 86 4 161 12 167 18 7 5 120 12 252 16 132 3 243 8 245 11 9 7 609 -3 616 -11z m-1991 -53 c0 -16 -40 -22 -205 -32 -66 -5 -77 -3 -52 5 17 6 75 14 128 17 54 4 98 11 98 16 0 4 7 9 15 9 9 0 16 -7 16 -15z m5019 6 c0 -5 24 -15 53 -22 28 -7 52 -19 52 -27 0 -9 -41 -15 -154 -20 -84 -5 -161 -12 -170 -17 -18 -9 -277 -32 -360 -32 -27 0 -51 -5 -53 -11 -5 -16 -353 -19 -363 -3 -4 6 -28 14 -53 17 -52 7 -60 12 -49 29 5 9 11 9 19 1 13 -13 49 -16 49 -3 0 9 315 34 422 34 32 0 61 4 63 10 2 5 98 15 213 21 116 7 212 17 214 22 4 12 117 13 117 1z m-5433 -95 c-7 -12 -90 -21 -90 -10 0 7 31 15 71 18 14 0 22 -3 19 -8z m5696 -38 c8 -7 22 -16 31 -19 11 -4 8 -6 -7 -7 -13 0 -24 -5 -26 -10 -2 -5 -89 -15 -193 -22 -104 -7 -191 -16 -194 -21 -3 -4 -62 -10 -131 -14 -70 -4 -128 -12 -130 -18 -4 -13 -103 -13 -111 0 -4 5 -29 13 -56 17 -49 7 -76 20 -76 36 0 5 78 12 173 16 96 4 174 11 174 15 0 4 52 11 116 14 65 4 123 12 129 17 14 12 166 21 238 14 25 -2 54 -10 63 -18z m-5859 1 c0 -10 -22 -17 -71 -22 -39 -4 -76 -11 -82 -16 -6 -4 -43 -14 -84 -21 -40 -7 -88 -19 -106 -27 -19 -8 -46 -15 -61 -15 -15 0 -27 -4 -27 -10 0 -5 -26 -15 -58 -22 -32 -8 -57 -17 -57 -20 0 -4 -28 -14 -61 -21 -33 -7 -63 -17 -65 -21 -3 -5 -17 -12 -30 -16 -22 -6 -24 -4 -21 17 2 16 11 26 27 28 13 2 24 7 24 12 0 4 29 14 65 22 36 7 71 17 76 21 6 5 44 15 84 22 41 7 76 16 79 19 3 4 43 13 89 20 46 8 87 18 90 22 2 4 28 11 57 15 28 4 57 11 62 17 16 16 70 13 70 -4z m6050 -111 c17 -14 43 -21 70 -21 40 0 56 -12 33 -26 -5 -4 -98 -11 -207 -17 -109 -6 -207 -15 -219 -20 -11 -5 -78 -12 -148 -16 -113 -6 -132 -4 -168 14 -22 11 -48 23 -56 26 -11 3 -8 6 7 6 13 1 24 5 24 10 0 5 63 12 139 16 266 14 318 18 339 28 11 5 44 11 73 13 29 2 60 5 70 6 9 1 29 -8 43 -19z m82 -116 c0 -6 18 -10 42 -10 23 0 42 4 42 10 0 6 16 11 36 11 20 0 37 -5 37 -10 0 -5 18 -13 41 -17 41 -6 84 -30 74 -40 -2 -3 -102 -8 -220 -13 -118 -4 -220 -11 -226 -15 -6 -4 -83 -13 -173 -20 -90 -7 -167 -17 -173 -23 -14 -14 -75 -12 -87 4 -5 7 -13 26 -17 42 -6 26 -4 29 27 30 19 1 44 1 55 0 11 -1 23 2 26 7 7 10 275 34 376 34 37 0 66 4 66 10 0 6 17 11 37 11 20 0 37 -5 37 -11z m399 -115 c0 -5 14 -12 31 -16 17 -4 32 -12 32 -17 0 -5 12 -9 28 -9 15 0 26 -2 23 -5 -6 -5 -114 -15 -261 -22 -66 -4 -131 -11 -142 -15 -12 -5 -118 -15 -236 -22 -119 -7 -218 -16 -221 -20 -3 -5 -56 -11 -118 -14 l-113 -6 0 40 0 40 139 8 c77 4 144 11 150 16 7 5 144 15 305 22 161 6 295 16 297 21 4 12 86 12 86 -1z m286 -120 c3 -8 26 -18 49 -22 84 -14 32 -44 -81 -46 -30 -1 -55 -6 -55 -12 0 -6 -27 -10 -60 -10 -107 0 -428 -24 -439 -33 -6 -5 -58 -11 -116 -14 -266 -14 -336 -20 -346 -27 -14 -10 -131 -20 -166 -13 -24 4 -28 10 -28 41 0 25 6 37 18 42 10 3 28 9 40 14 28 11 310 32 438 32 56 0 103 4 103 8 0 5 57 12 128 16 331 18 376 21 376 30 0 16 133 10 139 -6z m-8287 -70 c45 -24 7 -107 -54 -121 -39 -8 -51 5 -51 55 0 24 8 40 27 55 31 25 48 27 78 11z m8351 -57 c-1 -6 -20 -15 -42 -20 -23 -5 -43 -13 -46 -17 -3 -4 -31 -14 -63 -21 -32 -8 -63 -18 -69 -23 -6 -4 -83 -11 -171 -15 -87 -4 -159 -11 -159 -16 0 -5 -18 -9 -39 -9 -71 0 -344 -25 -349 -32 -11 -13 -352 -29 -360 -16 -15 22 -5 32 55 56 24 10 356 35 459 34 25 0 45 4 45 9 0 9 76 15 339 29 67 4 123 10 123 15 0 4 34 10 75 13 41 4 80 12 87 18 14 14 117 9 115 -5z m-350 -151 c-6 -11 -27 -23 -47 -27 -21 -4 -37 -11 -37 -16 0 -5 -13 -12 -29 -16 -16 -4 -31 -11 -34 -16 -7 -9 -196 -31 -274 -31 -29 0 -52 -4 -52 -9 0 -5 -71 -14 -158 -20 -87 -7 -164 -17 -171 -22 -7 -6 -49 -13 -94 -17 -77 -7 -81 -7 -81 14 0 12 5 22 11 22 5 0 10 9 10 20 0 18 11 21 102 27 57 4 112 11 124 16 11 5 68 12 126 15 58 3 156 9 218 13 62 4 113 10 113 14 0 5 50 11 112 16 68 4 121 13 134 22 29 20 40 18 27 -5z m-431 -189 c0 -15 -10 -21 -42 -27 -23 -3 -42 -10 -42 -15 0 -4 -23 -14 -52 -21 -28 -8 -53 -18 -55 -24 -2 -5 -67 -15 -145 -21 -78 -6 -150 -15 -160 -20 -10 -6 -28 -10 -39 -10 -17 0 -21 7 -21 35 0 60 17 66 217 81 100 7 182 17 182 22 0 4 29 10 65 12 36 2 72 4 79 5 7 2 13 -6 13 -17z m-6369 -186 c18 -49 -25 -66 -63 -25 -17 19 -17 23 -4 31 24 16 60 12 67 -6z m5928 3 c-14 -7 -29 -15 -31 -19 -3 -3 -25 -9 -49 -13 -24 -4 -53 -10 -63 -14 -19 -7 -19 -6 -3 18 17 25 58 37 141 39 l31 1 -26 -12z m-6449 -27 c10 -7 6 -11 -15 -15 -35 -7 -47 0 -25 14 19 12 23 12 40 1z m32 -57 c-2 -14 -12 -24 -25 -26 -11 -1 -15 1 -8 4 8 3 14 15 14 26 0 11 5 20 11 20 6 0 9 -11 8 -24z m984 -362 c8 -10 14 -27 15 -37 0 -15 -7 -19 -33 -16 -41 4 -61 31 -41 55 18 22 42 21 59 -2z m850 -160 c3 -6 24 -11 45 -12 67 -2 97 -12 87 -29 -8 -13 -13 -13 -26 -2 -12 10 -17 10 -17 2 0 -7 -22 -11 -58 -11 -32 0 -57 4 -57 9 0 5 -10 12 -21 15 -34 8 -27 39 9 39 17 0 34 -5 38 -11z m2460 -2 c7 -7 13 -21 13 -30 0 -15 -21 -20 -124 -31 -68 -8 -128 -17 -134 -21 -6 -5 -76 -11 -157 -15 -81 -4 -149 -11 -153 -17 -3 -5 -102 -15 -221 -22 -118 -7 -217 -16 -219 -20 -3 -4 -53 -10 -111 -14 -204 -13 -262 -19 -273 -27 -6 -5 -67 -11 -136 -15 -177 -9 -271 -18 -284 -28 -6 -4 -65 -11 -131 -15 -66 -5 -123 -11 -126 -16 -3 -4 -41 -10 -85 -14 -71 -6 -82 -4 -99 14 -10 12 -25 21 -33 21 -8 0 -14 9 -14 20 0 18 11 21 95 28 51 4 94 11 94 15 0 5 63 12 139 16 77 4 144 11 150 16 6 4 102 14 215 21 113 8 207 17 210 20 3 4 125 13 272 20 147 6 270 16 273 21 4 5 67 12 141 15 75 3 141 11 147 17 6 6 45 12 85 12 108 0 315 20 319 32 5 14 132 12 147 -3z m800 -19 c0 -6 -7 -10 -16 -10 -8 0 -15 -5 -15 -10 0 -5 -30 -15 -66 -22 -36 -8 -70 -17 -76 -21 -6 -5 -27 -12 -47 -16 -20 -4 -42 -14 -50 -21 -8 -8 -58 -16 -126 -21 -62 -4 -118 -11 -124 -16 -11 -9 -293 -31 -394 -31 -34 0 -62 -4 -62 -9 0 -5 -108 -15 -239 -22 -132 -8 -245 -19 -252 -24 -8 -6 -67 -13 -132 -16 -65 -3 -120 -9 -123 -13 -3 -4 -75 -13 -161 -20 -86 -7 -164 -17 -174 -22 -9 -5 -104 -14 -211 -21 -107 -7 -196 -17 -198 -22 -2 -5 -37 -10 -78 -10 -109 0 -264 -18 -268 -31 -6 -17 -86 -13 -93 5 -3 9 -12 16 -19 16 -17 0 -50 36 -41 45 4 4 30 8 58 8 28 0 59 4 70 9 10 6 90 15 179 21 89 6 167 15 173 20 7 5 85 13 175 16 223 9 357 19 357 28 0 4 96 13 213 20 117 8 215 17 218 22 2 5 83 12 178 16 95 4 178 11 184 16 6 4 65 10 131 14 190 9 284 19 284 29 0 5 18 9 42 9 23 0 42 -5 42 -10 0 -14 70 -15 75 -2 2 6 65 16 140 23 75 7 139 16 142 21 2 4 38 11 78 15 41 5 78 12 84 16 6 5 39 13 74 19 34 5 64 11 65 11 2 1 3 -3 3 -9z m-2541 -52 c0 -5 13 -11 29 -13 16 -2 -20 -8 -81 -12 -60 -5 -116 -13 -126 -18 -9 -4 -89 -14 -179 -21 -90 -6 -167 -16 -173 -21 -25 -25 -141 11 -142 44 0 19 64 30 181 30 40 0 71 5 71 11 0 6 77 10 210 10 123 0 210 -4 210 -10z m1985 -159 c0 -6 -15 -17 -32 -23 -18 -7 -31 -20 -31 -30 0 -28 -24 -39 -100 -44 -192 -14 -264 -21 -273 -28 -6 -4 -112 -14 -236 -21 -125 -7 -232 -18 -239 -24 -9 -7 -19 -6 -30 4 -13 10 -21 11 -35 2 -11 -7 -57 -15 -104 -19 -48 -4 -86 -11 -86 -16 0 -7 -36 -10 -310 -27 -57 -3 -107 -10 -110 -14 -3 -5 -48 -11 -100 -14 -152 -10 -240 -20 -252 -29 -6 -4 -69 -11 -141 -14 -121 -6 -134 -5 -155 13 -13 11 -24 30 -24 41 0 18 10 21 87 27 47 4 106 7 130 7 24 0 45 4 47 9 2 5 86 15 187 21 100 7 188 16 194 21 6 5 84 15 174 22 90 7 165 17 168 21 3 4 61 11 130 14 68 4 130 11 136 16 7 6 76 13 154 16 297 14 394 20 405 29 6 5 94 14 197 22 102 7 186 16 186 21 0 5 14 9 31 9 17 0 32 -6 32 -12z m34 -161 c10 -7 18 -23 18 -35 0 -18 -9 -21 -79 -26 -44 -4 -85 -11 -92 -16 -12 -9 -246 -30 -399 -37 -33 -1 -60 -5 -60 -9 0 -4 -50 -10 -110 -14 -61 -5 -110 -11 -110 -15 0 -4 -82 -13 -182 -20 -102 -7 -182 -18 -184 -24 -3 -7 -9 -6 -19 2 -10 8 -19 9 -28 1 -7 -6 -95 -16 -196 -24 -102 -7 -187 -16 -189 -20 -3 -5 -48 -11 -100 -14 -279 -17 -331 -21 -331 -30 0 -20 -41 -6 -80 27 -42 37 -43 45 -9 52 12 2 28 7 37 10 22 9 259 29 340 29 38 0 69 4 69 9 0 10 81 20 236 28 57 3 107 9 110 14 3 5 74 13 158 17 84 4 158 12 164 17 8 6 15 6 20 -1 4 -8 11 -8 19 -2 7 6 95 15 196 22 101 7 193 16 205 21 11 5 121 15 244 23 123 7 227 17 229 21 9 14 103 10 123 -6z m-250 -184 c-22 -12 -46 -21 -53 -21 -7 0 -23 -9 -37 -20 -20 -16 -59 -23 -193 -33 -93 -8 -173 -17 -179 -22 -6 -4 -63 -11 -128 -15 -65 -4 -118 -11 -118 -15 0 -5 -54 -11 -119 -15 -177 -9 -262 -18 -286 -27 -26 -11 -217 -32 -292 -32 -30 0 -60 -4 -65 -10 -6 -5 -90 -15 -186 -22 -145 -11 -181 -11 -203 1 -31 17 -32 23 -2 55 23 24 32 26 207 32 101 4 186 11 189 16 5 8 36 12 276 29 51 4 92 10 92 14 0 4 100 13 223 21 123 8 226 18 229 22 3 5 73 12 157 16 84 4 155 11 158 16 6 10 180 27 293 29 l78 2 -41 -21z m-319 -167 c-6 -11 -27 -23 -46 -27 -19 -3 -53 -16 -76 -27 -22 -12 -54 -21 -70 -21 -15 0 -31 -4 -34 -9 -3 -6 -44 -13 -90 -17 -46 -4 -87 -12 -90 -17 -3 -5 -34 -9 -69 -9 -80 0 -260 -21 -287 -33 -12 -5 -94 -14 -184 -20 -90 -7 -172 -16 -184 -21 -25 -11 -264 -30 -291 -23 -10 2 -18 9 -18 16 0 6 -8 19 -18 30 -28 31 -4 42 103 47 54 3 108 9 119 14 29 12 210 32 294 32 38 0 69 4 69 9 0 9 72 17 259 29 60 3 108 10 108 14 0 5 67 12 150 16 82 4 154 11 160 16 10 8 64 15 160 19 41 1 44 0 35 -18z m-347 -163 c0 -19 -39 -44 -82 -53 -19 -4 -41 -15 -50 -24 -9 -8 -36 -18 -60 -21 -25 -4 -47 -10 -50 -14 -3 -4 -67 -13 -142 -20 -75 -7 -141 -17 -147 -21 -6 -5 -86 -15 -178 -22 -93 -7 -173 -17 -178 -22 -17 -15 -76 -10 -90 7 -7 8 -20 16 -28 16 -7 0 -14 8 -14 19 0 23 36 33 122 33 31 0 65 4 75 10 10 5 91 14 181 21 89 7 165 16 168 21 3 5 67 15 142 22 75 7 141 16 147 20 6 5 42 12 81 16 39 4 73 12 77 17 9 15 26 11 26 -5z m-364 -222 c-11 -7 -39 -20 -62 -27 -23 -8 -45 -18 -49 -24 -3 -5 -53 -15 -110 -21 -57 -7 -108 -15 -114 -19 -6 -3 -49 -10 -95 -14 -93 -8 -120 3 -120 52 0 23 4 24 123 31 67 4 125 11 128 15 4 5 72 15 153 22 91 8 149 18 152 26 3 6 7 3 9 -7 2 -11 -5 -26 -15 -34z m-316 -162 c-3 -13 -14 -21 -26 -21 -12 0 -34 -8 -51 -18 -27 -16 -30 -16 -47 0 -15 15 -15 19 -2 33 8 8 33 16 56 19 22 2 49 5 58 6 13 1 16 -4 12 -19z" transform="matrix(.02286 0 0 -.02286 -8.16 155.72)"/>
	<path d="M8490 3962c-29-3-58-9-63-13-6-5-27-12-46-16-56-12-117-86-117-142 0-17 4-34 10-37 6-4 11-16 11-27 0-11 6-20 15-20 8 0 21-10 29-21 8-11 28-23 45-28 17-4 34-12 38-17 3-5 91-10 195-11 160-1 192 2 214 17 13 10 35 18 48 18 41 0 109 83 108 133 0 51-80 120-152 134-23 4-48 12-55 19-15 12-192 19-280 11zm257-87c2-5 25-12 50-16 48-8 86-36 86-63 0-24-42-57-83-65-21-3-41-11-45-17-9-14-303-13-312 1-3 5-21 13-38 17-36 8-85 79-60 87 7 3 13 11 13 19 0 15 23 26 53 26 11 0 21 4 21 10 0 5 20 12 44 14 62 7 264-4 271-13zM10423 3893c-48-25-65-57-56-104 9-47 82-124 117-124 15 0 27 4 27 10 0 6 8 11 18 11 10 0 27 7 38 15 22 17 42 92 32 125-10 32-47 70-69 70-10 0-21 4-25 10-9 15-36 11-82-13zm98-92c0-43-14-52-57-36-37 15-10 77 33 78 21 0 24-5 24-42zM6672 3838c-35-33-38-41-33-77 3-25 16-52 33-69 49-48 164-32 164 23 0 7 7 13 15 13 12 0 16 11 16 40 0 36-4 43-29 52-16 6-39 20-52 32-34 33-69 28-114-14zm109-39c18-18 15-58-4-65-52-20-81 7-57 52 15 28 41 33 61 13zM7936 3855c-58-35-65-118-13-166 34-32 118-35 144-5 32 34 37 138 7 138-6 0-22 12-35 26-28 30-62 33-103 7zm73-67c18-17 16-39-3-46-10-4-22 2-31 13-25 34 5 63 34 33zM8896 6513c-11-4-13-63-13-268 1-144-2-265-5-269-4-3-10-2-14 4-4 6-23 21-42 35-28 19-38 22-50 11-23-19-9-50 50-108 28-27 53-62 57-76 3-14 10-25 15-25 5 0 10-11 12-24 4-32 51-40 51-8 0 12 4 22 10 22 6 0 11 6 11 13 0 7 13 30 31 50 17 20 31 42 31 49 0 8 5 14 11 14 6 0 11 7 11 15 0 9 5 16 13 16 16 0 43 59 33 74-12 19-56 1-92-38-18-20-39-36-46-36-16 0-18 48-3 58 16 10 14 470-2 486-13 13-45 15-69 5zM15771 6501c0-12-9-24-22-28-33-10-58-40-74-85-7-23-17-45-22-51-12-14-10-121 3-121 5 0 10-13 10-29 0-42 22-83 53-99 14-8 29-18 32-23 4-5 43-9 86-10 62-1 84 3 99 17 11 10 26 18 33 18 7 0 16 8 19 18 4 10 16 30 26 44 11 14 20 38 20 55 0 16 4 30 10 30 13 0 14 102 1 110-5 3-12 22-16 43-4 20-14 40-22 43-9 3-15 12-15 20 0 7-16 17-35 21-18 4-36 11-39 16-3 5-29 11-58 14-29 2-61 8-71 12-13 5-18 1-18-15zm133-64c7 0 15-15 19-32 4-17 11-34 17-37 5-4 10-40 10-81 0-55-6-87-23-121l-23-47-52 5c-54 5-70 18-70 58 0 13-5 24-11 24-6 0-10 31-10 73 0 42 4 74 10 74 6 0 11 6 11 13 0 8 5 26 13 42 13 28 39 40 76 33 11-2 26-4 33-4zM15207 6502c-39-3-45-7-45-28 0-13 9-32 21-43 19-17 21-32 21-162l0-144-34-15c-22-9-35-24-38-38l-3-24 196 0c187 0 196 1 201 21 3 12 10 21 15 21 5 0 10 28 10 62 0 74-20 100-47 62-9-13-16-29-16-35 0-44-124-84-175-57-22 12-25 21-25 74 0 33 5 64 11 67 5 4 10 20 10 37 0 17-5 33-10 37-13 8-15 58-2 58 5 0 12 9 15 21 3 12 14 21 28 21 16 0 22 6 22 26 0 15-6 28-14 31-25 8-97 12-141 8zM16270 6502c-100-2-172-8-181-15-24-20-15-38 26-47l39-10 3-136c4-164 0-183-34-183-22 0-26-5-26-29l0-29 194 0c162 0 196 3 205 16 14 23 13 137-2 137-14 0-61-50-61-64 0-15-43-22-106-18l-57 3-3 55c-3 49-1 55 18 55 12 0 22-5 22-10 0-6 6-11 15-11 8 0 18-9 21-21 8-25 22-27 31-4 9 25 7 175-3 192-12 18-33 6-33-18-1-27-26-54-51-54-20 0-22 5-22 46 0 70 6 80 56 79 24 0 55-7 70-15 14-9 34-19 43-22 10-4 20-15 23-26 3-11 13-20 22-20 9 0 17-6 17-12 0-6 7-4 15 5 18 17 22 80 6 80-6 0-11 17-11 37 0 22-5 37-13 37-7 0-23 1-34 3-12 1-97 1-189-1zM14639 6487c-18-19-15-50 6-58 10-4 23-12 30-18 15-16 27-157 19-227-6-51-11-59-40-73-20-10-33-24-33-37 0-19 8-21 113-24 112-3 113-3 113 22 0 15-12 33-30 47-30 22-47 74-36 105 9 22 74 16 81-7 11-34 36-49 53-32 16 17 26 144 12 165-12 20-38 15-38-7 0-23-20-32-69-32l-36 0 0 52c0 46 3 54 25 63 34 12 140 1 155-17 6-8 18-14 26-14 9 0 17-17 21-42 5-32 12-42 26-42 18 0 20 9 20 94 0 96-8 113-40 82-10-10-15-10-25 0-7 7-24 13-37 13-13 0-24-6-24-13 0-10-3-10-13 0-7 7-42 13-81 13-40 0-75-6-82-13-10-10-13-10-13 0 0 8-17 13-45 13-25 0-51-6-58-13zM753 6428c-26-5-24-51 3-58 20-5 21-14 21-140 0-123-2-137-21-153-12-10-26-18-32-18-6 0-10-11-8-24 3-23 7-24 107-24 114 0 134 11 86 48-22 18-27 31-27 70l0 48 34-7c19-3 47-9 62-13 26-6 27-3 34 48 4 29 4 58 1 64-10 16-35 12-57-11-12-12-34-21-48-21-26 0-27 1-24 66 3 63 4 65 33 69 35 4 87-15 117-43 32-30 54-23 61 17 10 61 0 78-49 85-42 6-255 4-293-3zM1166 6405c0-19 6-35 15-38 13-5 16-32 16-152 0-97-4-146-11-146-19 0-44-31-38-48 5-12 38-15 190-15 178 0 184 1 200 23 19 28 21 94 3 111-17 17-50 16-50-1 0-42-99-80-168-65l-31 7 0 119c0 85 4 127 15 149 9 16 16 43 16 59l0 29-79 0-78 0 0-32zM1763 6408c-66-38-88-88-88-191 1-63 6-89 25-125 14-25 33-49 42-52 9-4 24-13 32-22 18-18 160-11 166 8 2 6 13 12 23 12 45 0 95 106 95 202 0 40-5 71-10 71-6 0-11 8-11 19 0 20-51 75-71 75-6 0-13 4-15 9-2 6-34 13-71 16-62 6-74 3-117-22zm142-41c9-3 17-12 17-20 0-7 7-16 17-20 14-5 16-21 12-101-2-53-9-99-15-103-6-4-14-15-18-25-5-14-18-18-59-18-28 0-55 5-59 12-4 6-10 46-13 88-6 90 13 180 38 186 28 8 62 8 80 1zM2179 6429c-23-3-46-9-52-14-10-10 17-41 36-41 21 0 30-52 29-170-1-118-1-119-32-149-28-26-30-31-16-45 13-13 43-14 191-8 196 8 213 14 202 70-4 17-6 47-6 67 0 29-4 36-19 33-10-2-20-13-22-24-10-53-96-89-164-71-29 9-32 13-35 64-3 60 14 73 42 31 10-15 21-20 33-16 13 5 18 20 18 64 0 89-23 124-37 58-6-25-12-31-30-28-26 3-33 26-23 77l6 36 76 0c85 0 104-12 117-72 8-36 32-44 40-15 2 10 2 51 0 90l-5 71-154-2c-84-1-172-4-195-6zM10700 6406c0-11-5-24-11-27-16-10-13-160 3-167 10-5 10-8 0-13-16-7-19-140-3-140 6 0 11-22 11-48 0-26-5-47-11-47-6 0-10-9-10-21 0-26-26-17-66 24-31 31-81 43-89 21-2-7 23-41 57-76 63-67 98-119 98-149 0-36 58-40 66-5 4 13 47 65 97 115 60 60 89 96 85 107-11 29-40 20-90-29-10-10-33-21-52-25l-33-7 0 48c0 27 5 51 11 55 5 3 10 33 10 66 0 33 5 88 10 122 7 39 7 65 1 69-5 3-11 36-13 74l-3 68-34 3c-29 3-34 0-34-18zM7100 6368c-11-13-14-81-13-310 0-186-4-293-10-293-6 0-10 4-10 9 0 5-19 24-41 42-42 33-138 58-138 35 0-14 95-106 116-113 10-3 24-18 32-34 8-16 19-34 25-42 6-7 17-20 24-28 21-25 60-20 82 11 32 45 113 126 133 133 10 4 19 11 19 16 0 6 9 13 20 16 27 6 38 34 23 53-10 11-21 10-62-10-27-13-65-39-85-56-19-18-40-32-47-32-17 0-10 358 7 370 9 7 9 11-1 14-9 4-13 39-13 120 0 112-1 115-24 115-13-1-29-8-37-16zM6036 5673c-29-13-42-28-52-58-7-22-17-39-22-39-5 0-8-29-8-63 0-56 3-65 36-101 28-30 42-37 60-32 14 3 44 6 68 6 38 0 45 4 56 32 27 64-16 118-74 92-32-13-42-44-18-53 10-4 10-8 1-18-10-11-18-7-39 17-29 32-31 45-21 97 4 21 13 33 24 33 10 0 23 5 29 11 13 13 56-17 56-39 0-20 20-28 37-14 19 16 20 62 2 84-20 25-72 63-85 62-6 0-29-8-50-17zM5131 5661c-10-10-17-24-17-31 0-7-5-12-11-12-6 0-16-12-21-27-12-30-40-35-49-8-4 10-10 21-13 24-4 3-11 15-18 26-7 14-25 22-50 25-36 3-38 1-38-29 0-21 7-36 21-43 12-6 21-16 21-22 0-7 12-26 26-43 15-17 27-38 27-46 0-8 4-15 10-15 6 0 11-16 11-36 0-23 5-38 16-42 25-9 36 2 36 37 0 17 4 39 9 49 6 10 15 31 21 47 7 17 20 29 31 29 11 0 26 7 34 16 10 12 10 16-2 16-10 0-11 2-2 8 20 12 28 63 14 81-17 21-35 20-56-4zM5472 5668c-15-16-17-226-2-265 10-25 15-27 79-27 64 0 70 2 79 27 6 15 11 50 11 79 0 28 4 52 10 52 6 0 11 28 11 63l0 64-35-3-34-4 4-91 4-91-30-15c-46-24-56-5-56 106 0 97-14 132-41 105zM8004 5660c-23-18-24-28-24-146 0-143-2-140 89-134 23 1 58 3 76 4 23 2 35 8 35 18 0 9 5 16 11 16 8 0 8 5-1 16-9 11-33 16-80 16-60 0-67 2-67 21 0 15 7 21 26 21 15 0 27-5 27-11 0-6 8-5 21 2 11 8 21 24 21 37 0 21-6 24-42 24-24 0-42 2-42 4 0 3-3 12-7 21-5 15 5 17 74 17l80 0 0 30c0 37-14 44-94 44-33 0-64 4-70 9-6 6-19 3-33-9zM9699 5673c-4-3-7-65-7-136l0-129 26 0c23 0 26 4 26 40 0 52 23 63 52 26 12-15 22-33 22-40 0-16 33-47 50-47 21 0 27 50 8 78-19 30-22 69-5 69 39 0 57 106 23 132-20 14-182 21-195 7zm123-66c19-7 27-18 27-36 0-24-4-27-42-27-29 0-42 5-42 15 0 8-6 17-13 19-10 4-10 8 1 22 17 20 31 22 69 7zM9976 5667c-7-7-11-59-11-146l0-134 26 0c25 0 26 2 26 62 0 39 5 64 13 68 11 5 11 7 0 12-15 7-18 57-2 57 5 0 10 13 10 29-1 35-43 71-62 52zM10169 5670c-3-6-22-10-42-10l-36 0-2-100c-1-55-3-111-3-124-1-17 6-24 26-27 14-2 30-8 36-13 16-16 46-11 84 14 39 26 48 51 47 138 0 79-8 99-43 106-16 4-30 12-30 17 0 13-29 12-37-1zm48-122c0-54-10-67-49-67-19 0-35 5-35 11 0 5 4 10 10 10 6 0 11 18 11 40 0 50 15 68 43 51 12-8 20-24 20-45zM5728 5660c-20-7-21-16-17-138 3-122 11-154 35-139 4 2 8 30 8 61 0 97 36 81 71-31 10-33 29-43 54-28 11 8 15 43 17 142l3 133-30 0c-29 0-31-3-31-42 0-52-16-56-25-7-5 23-16 39-33 47-15 7-28 12-29 11-1 0-12-4-23-9zM3973 5652c-43-8-62-43-58-108 2-25 39-52 70-52 17 0 47-36 47-56 0-22-38-24-49-3-11 19-62 32-71 18-10-17 5-64 20-64 7 0 19-8 27-16 22-27 91-20 121 12 50 54 26 131-48 151-25 6-42 17-42 27 0 12 10 14 53 8 50-6 52-6 52 19 0 45-58 75-122 64zM4360 5648c-19-6-34-17-34-25 0-8-6-16-13-19-17-5-19-173-2-184 6-4 14-16 18-26 4-10 14-18 23-18 9 0 16-5 16-10 0-6 12-11 26-11 15 0 27 5 27 11 0 5 5 10 13 10 26 1 61 42 67 78 4 21 10 38 15 38 15 0 11 36-6 69-9 17-16 38-16 47 0 22-45 52-76 51-13-1-39-6-58-11zm92-154c0-31-4-44-15-44-8 0-17-6-19-14-4-9-11-7-27 7-31 27-31 86 0 119l23 25 19-24c11-14 19-43 19-69zM4584 5646c-13-7-16-32-16-133 0-130 4-158 24-158 16 0 49 58 49 85 0 14 9 22 32 27 63 12 57 77-6 77-15 0-26 6-26 14 0 15 43 28 90 28 18 0 27 8 32 26 3 14 3 30-1 37-8 13-154 11-178-3zM5257 5644c-9-9-19-27-23-40-5-13-12-26-18-30-14-9-13-149 2-154 6-2 11-10 11-17 0-20 63-29 137-21 53 6 62 10 56 24-4 10-6 52-5 93 1 42-2 77-7 77-5 0-14 17-19 39-10 38-11 39-64 42-38 3-58-1-70-13zm93-95c8-40 0-84-18-104-28-30-73 66-56 119 5 16 16 22 37 22 27 0 31-5 37-37zM7434 5523c0-129 1-136 21-136 14 0 21 7 21 21 0 11 4 21 9 21 5 0 12 14 16 31 6 30 9 32 57 32 64 0 97 29 97 87 0 65-26 81-132 81l-89 0 0-137zm134 71c7-7 13-21 13-31 0-15-9-19-42-19-40 0-42 2-42 32 0 27 4 31 29 31 17 0 35-6 42-13zM7697 5523l0-136 26 0c23 0 26 4 26 37 0 49 19 70 43 47 10-9 20-26 24-38 10-32 45-61 64-53 20 7 20 35 0 73-20 38-20 60 0 60 17 0 30 52 25 105l-4 36-102 3-102 3 0-137zm118 69c28-21 23-48-9-48-38 0-63 26-44 47 17 19 29 19 53 1zM8264 5637c-41-45-18-124 37-125 27 0 57-24 57-45 0-22-15-22-53 0-25 15-32 16-47 4-26-22-14-54 29-76 30-16 47-19 83-12 59 12 86 48 77 104-7 41-24 55-104 82-40 14-2 27 45 15 55-14 73-2 53 35-18 36-29 40-96 40-48 0-64-4-81-22zM8529 5653c-8-3-13-12-13-21 0-8-5-14-11-14-15 0-12-44 4-66 8-10 21-18 30-18 9 0 19-7 22-15 3-8 20-17 38-20 17-4 32-12 32-18 0-19-32-24-58-10-20 11-28 11-41 0-42-34 0-84 69-84 40 0 102 39 110 69 8 33-31 75-77 84-25 5-36 14-41 32-7 29 3 46 16 26 13-21 75-21 88 1 9 13 7 22-8 39-16 17-31 21-83 21-35-1-70-4-77-6zM8781 5639c-15-24-18-81-4-89 5-3 11-28 14-56 3-37 12-58 33-79 28-28 80-39 80-18 0 6 10 11 21 11 12 0 24 8 28 18 3 10 10 28 16 41 6 13 12 60 12 105l2 82-32 0-31 0-5-86c-6-93-20-121-51-101-14 9-18 29-21 102-3 86-4 91-26 91-13 0-29-10-36-21zM9041 5539c0-74 4-121 10-121 6 0 11-7 11-16 0-13 3-14 21-3 14 10 21 25 21 53 0 28 4 40 15 40 9 0 16-4 16-9 0-23 61-75 88-75 33 0 34 3 6 42-18 26-20 34-9 54 7 13 19 28 27 33 19 11 18 70-2 99-15 21-25 24-111 24l-93 0 0-121zm115 58c0-6 7-11 17-11 24 0 12-24-21-40-39-19-57-3-40 34 12 26 44 38 44 17zM9311 5652c-2-5-2-66 0-137l5-128 92 0c69 0 95 3 105 15 24 30 4 45-68 53-78 8-96 33-29 38 36 3 40 7 43 38 3 33 2 34-40 34-23 0-42 4-42 8 0 22 30 34 86 34 58 0 61 1 61 26 0 26-1 27-105 27-57 0-106-4-108-8zM10353 5631c-21-23-26-43-29-97-3-62 0-72 24-99 25-28 31-30 89-25 71 5 105 28 105 70-1 44-23 64-72 64-39 0-43-2-43-26 0-20 5-26 21-26 28 0 21-26-7-30-12-2-29 7-40 18-15 17-17 28-9 61 7 33 14 40 38 43 17 2 38-4 48-13 17-15 21-15 32-2 7 9 11 29 9 45-4 32-27 43-98 44-35 1-48-4-68-27zM2846 5513l0-137 34 0c30 0 36 5 45 34 7 24 19 37 41 45 18 6 45 22 61 36 23 20 29 34 29 71 0 71-24 87-126 87l-84 0 0-136zm134 44c3-20-1-23-29-23-33 0-37 6-25 36 9 25 50 16 54-13zM3182 5641c-46-18-58-44-62-133-3-85-3-87 26-110 58-46 160-7 178 68 4 14 11 26 16 26 5 0 10 16 10 36 0 20-5 37-11 37-6 0-10 9-10 19 0 34-45 65-90 64-23 0-49-3-57-7zm56-72c10-3 17-13 17-21 0-8 5-14 11-14 5 0 10-8 10-16 0-9-5-16-10-16-6 0-13-17-17-37-5-28-12-36-29-36-43 0-64 86-31 125 20 23 24 25 49 15zM3438 5613c-35-34-36-39-36-114 0-92 15-112 87-120 38-4 50-1 79 23 18 16 34 35 34 43 0 8 4 15 10 15 6 0 11 17 11 37 0 20-5 37-11 37-6 0-10 11-10 25 0 14-13 40-29 57-40 46-87 45-135-3zm101-58c24-25 26-42 5-69-8-12-15-29-16-39 0-29-48-24-56 5-16 58 1 124 32 124 8 0 23-10 35-21zM3686 5629c-12-22-15-190-4-229 6-22 12-24 93-24 93 0 105 6 95 48-7 28-26 32-60 12-18-10-23-10-27 0-3 8-11 14-20 14-11 0-14 18-14 83 0 45-3 90-7 99-9 23-43 21-56-3zM3252 5271c-21-18-43-50-49-70-11-42-4-109 15-124 6-6 15-19 19-29 5-15 19-18 68-18 67 0 74 3 101 45 14 23 16 33 6 44-17 21-34 19-50-5-14-24-64-29-84-9-17 17-15 72 2 95 17 23 55 24 77 2 25-25 60-15 64 18 5 39-30 71-86 79-40 5-49 2-83-28zM3041 5275c-4-9-6-68-6-131 0-94 2-116 16-121 9-4 25 2 36 12 18 16 21 33 21 123 0 76-4 108-15 119-20 20-44 19-52-2zM3530 5279c-6-7-12-65-14-129l-4-115 103-3 102-3 0 32 0 32-79 0c-43 0-78 3-78 8 0 16 25 34 48 34 37 0 57 11 57 32 0 16-8 20-42 20-35 0-42 4-42 21 0 19 7 21 66 21 75 0 105 18 81 47-17 21-181 23-198 3zM4421 4811c0-6-23-16-50-23-28-6-55-16-61-21-6-5-55-13-108-17-84-6-96-9-96-27 0-12 7-19 21-19 11 0 21-5 21-10 0-16 102-14 108 2 3 7 6 3 6-9 1-13-23-46-62-85-35-35-63-68-63-72 0-4-39-46-87-93-112-110-140-148-123-169 7-9 19-15 27-15 14 0 99 79 99 92 0 4 37 43 81 87 45 44 103 107 129 139 26 32 53 59 59 59 7 0 15-25 19-57 4-32 12-58 17-58 6 0 10-9 10-21 0-12 6-21 13-21 10 0 18 39 27 134 7 74 17 135 23 137 14 5 14 62 0 70-6 4-10 2-10-3zM4578 4545c0-7-25-37-56-66-65-63-97-112-88-136 9-24 47-21 60 4 13 25 45 27 67 5 9-9 37-19 64-22 41-6 51-3 72 18 14 14 28 43 32 65 7 38 5 44-42 92-37 38-59 52-80 52-16 0-29-6-29-12zm83-100c10-23 10-31-3-44-13-13-21-13-43-3-34 15-43 38-25 58 23 26 57 20 71-11zM4764 4352c-20-20-40-37-45-37-15-1-99-112-99-130 0-28 48-25 77 5 24 27 56 26 63 0 6-26-3-63-15-63-14 0-12-31 3-47 11-11 19-5 42 32 18 29 37 46 49 46 31 0 54 11 54 26 0 8 8 17 17 20 26 10 14 89-18 123-24 25-76 62-87 62-3 0-22-17-41-37zm85-89c2-18-5-31-20-40-19-12-25-11-42 4-20 18-26 47-13 61 5 4 22 6 40 4 25-2 32-8 35-29zM3986 4098c-9-16-39-53-69-81-39-38-53-60-53-82 0-19 6-29 16-29 8 0 16 4 16 8 0 5 16 16 36 25 31 14 37 15 51 1 10-10 25-13 43-9 30 8 36 32 11 42-19 7-21 49-2 49 8 0 24-12 37-27 24-27 59-33 86-15 11 7 12 13 4 18-6 4-14 16-17 25-4 10-20 24-36 32-16 8-36 27-43 43-19 39-60 39-80 0zM5174 4004c-10-3-18-12-18-20 0-8-6-24-13-35-9-15-8-24 6-44 16-23 25-104 11-104-26 0-46 26-46 57 0 43-13 54-42 35-22-14-32-81-11-81 6 0 11-7 11-14 0-24 48-61 80-62 51-2 75 11 82 45 8 36-2 112-16 120-17 10-11 37 7 37 21 0 45-30 46-55 1-49 53-30 53 19 0 65-83 121-150 102zM4158 3919c-19-7-42-30-42-41 0-5-10-21-21-35-21-27-29-105-10-105 5 0 10-7 10-16 0-23 50-39 102-34 45 5 108 51 108 79 0 7 5 13 11 13 5 0 10 17 10 37 0 20-5 37-10 37-6 0-11 6-11 13 0 29-47 60-90 59-23 0-48-3-57-7zm93-78c13-36 2-65-31-85-26-14-36-15-55-5-12 7-24 14-26 15-2 1-1 17 3 35 5 24 17 38 41 48 46 20 58 18 68-8zM13643 3833c-3-12-10-21-15-21-15 0-11-40 4-45 17-6 15-183-2-200-6-6-11-25-11-41 0-24 4-29 25-29 23 0 27 6 38 63 8 40 18 63 27 63 8 0 15-6 15-14 0-7 12-36 26-65 14-29 26-61 26-71 0-10 5-18 10-18 6 0 13-17 17-37 4-20 11-37 15-37 5 0 15-24 22-52 7-29 17-53 21-53 4 0 13-21 21-47 8-26 18-47 22-47 5 0 9-7 9-16 0-21 18-30 47-22 29 7 33 32 10 63-8 10-18 40-21 65-4 25-14 51-22 57-8 7-15 18-15 24 0 17-79 171-94 186-10 8-31 87-26 93 3 3 21-1 40-7 82-30 99 8 23 50-26 14-47 31-47 38 0 7-11 16-24 21-27 8-95 74-106 101-9 25-29 23-35-2zM5352 3817c-29-26-39-74-17-81 7-2 15-29 18-60 4-45 2-55-10-51-8 2-20 21-26 40-9 27-19 37-38 39-50 7-46-51 8-105 33-33 91-39 125-13 17 13 19 24 13 75-3 34-11 63-17 65-21 6-12 44 10 44 16 0 21-7 21-27 0-15 7-34 16-43 21-22 58-1 58 32 0 32-48 90-74 90-11 0-23 5-26 11-11 16-30 11-61-16zM4322 3680c-60-66-71-83-65-105 6-25 38-38 38-15 0 5 7 10 15 10 9 0 16 5 16 11 0 5 9 10 21 10 16 0 21-7 21-32 0-17-6-41-13-52-11-18-10-23 3-32 31-19 52-12 52 19 0 36 17 55 49 55 14 0 25 4 25 10 0 5 9 13 21 16 60 19-20 184-90 183-12 0-50-31-93-78zm128-7c22-22 15-50-13-50-31 0-41 13-32 42 7 23 26 27 45 8zM13356 3712c-7-9-22-16-32-16-33 0-45-38-30-93 7-27 20-55 27-63 8-7 14-24 14-37 0-24 38-102 55-113 13-8 49 1 76 19 11 8 28 14 37 14 28 1 61 45 52 70-13 34-24 36-69 13-46-23-81-23-86 1-2 11 10 20 32 27 37 11 49 38 28 63-9 12-24 14-58 9-33-5-46-3-46 6 0 7 9 15 21 18 12 3 21 9 21 14 0 5 11 10 24 12 18 2 24 11 27 37 3 34 2 35-39 35-24 0-46-7-54-16zM5523 3646c-91-96-106-146-57-199 35-37 98-40 130-6 11 12 29 25 40 29 10 3 36 28 57 55 37 46 37 49 20 68-19 19-21 18-82-41-91-86-91-86-111-71-31 22-20 53 40 109 58 55 71 88 41 100-26 9-27 8-78-44zM13147 3604c-20-10-39-25-43-34-4-9-13-26-19-39-15-28-17-76-3-76 5 0 12-22 15-48 8-54 33-84 82-97 59-16 99 2 139 62 18 27 15 83-4 83-5 0-11 11-15 26-7 28-21 32-63 16-34-13-39-63-6-63 14 0 21-7 21-20 0-15-10-22-38-27-47-9-62 4-72 64-6 36-3 48 15 66 18 18 30 21 59 15 34-6 36-5 36 24 0 16-4 35-8 42-15 23-59 26-96 6zM4596 3573c-10-2-18-9-18-15 0-6-29-41-64-77-58-61-63-70-57-99 4-18 13-33 19-33 7 0 32-19 54-42 23-23 50-41 60-41 21 0 40 64 20 71-14 5-74 67-74 78 0 21 26 17 52-7 27-26 31-27 46-11 23 22 22 33-3 55-25 21-28 45-6 45 21 0 69-42 69-60 0-9 12-14 31-14 53 0 42 39-31 103-34 30-66 54-71 53-4 0-17-3-27-6zM12865 3485c-38-19-44-27-44-54 0-17 8-47 19-65 11-18 23-48 27-66 4-19 12-34 16-34 5 0 12-19 16-42 6-37 11-42 36-42 31 0 85 21 85 34 0 4 7 8 15 8 34 0 70 136 41 155-6 4-14 21-18 39-5 17-23 44-41 60-40 36-89 38-152 7zm94-51c12 0 23-9 26-21 3-12 10-21 15-21 14 0 11-55-4-88-16-35-39-32-60 9-9 17-19 33-23 35-4 2-11 19-15 40-5 28-2 39 13 51 11 8 21 10 23 4 2-5 13-9 25-9zM12712 3398c-7-18 3-59 14-59 5 0 12-15 16-34 4-19 14-46 21-60 8-15 20-48 28-74 12-40 18-48 44-51l31-3-7 55c-3 30-14 62-22 72-9 10-16 24-16 31 0 7-11 32-23 57-13 24-26 51-30 60-10 21-48 25-56 6zM4778 3361c0-5-14-14-31-20-40-14-64-61-64-127 0-71 30-106 95-113 60-7 84 14 62 55-7 14-22 26-32 26-38 0-52 12-51 45 0 39 17 64 50 75 30 9 76-18 76-46 0-51 23-68 48-35 16 21 19 76 4 76-6 0-10 7-10 16 0 8-7 16-15 16-7 0-22 9-33 21-19 21-99 30-99 11zM12534 3329c-15-12-34-21-43-21-28 0-25-58 5-115 11-21 20-46 20-56 0-10 4-18 10-18 5 0 15-26 22-57 14-62 39-81 68-52 18 18 21 52 5 61-16 10-13 69 4 69 17 0 85-63 93-85 4-12 10-9 27 11 29 35 29 40-10 81-29 29-34 42-35 89 0 35-8 66-20 85-17 24-27 29-69 29-34 0-59-7-77-21zm104-69c9-23-15-47-49-47-30 0-50 30-36 52 10 17 78 13 85-5zM12179 3164c-31-15-64-31-72-35-18-9-19-93-2-104 5-3 13-22 17-40 4-19 11-34 15-34 5 0 15-23 23-50 7-28 25-61 40-74 28-24 59-31 66-15 2 5 15 16 30 24 83 46 94 56 94 91 0 28-4 34-24 34-25 0-87-20-111-36-9-5-18-3-24 6-13 21-12 25 18 41 36 19 33 76-4 82-13 2-31-2-39-9-18-15-36-5-36 20 0 25 17 39 58 48 53 11 76 79 27 79-10 0-44-12-76-28zM5056 3174c-12-2-70-28-129-58-78-39-107-59-107-73 0-10 7-19 15-19 9 0 16-5 16-10 0-6 7-11 16-11 8 0 16 5 16 11 0 17 48 11 66-9 11-12 18-38 18-68 0-37 3-49 15-49 9 0 16 4 16 10 0 6 6 11 14 11 14 0 39 63 39 98 0 9 4 17 10 17 6 0 11 9 11 20 0 11 7 25 15 33 19 15 21 77 3 91-7 5-23 8-34 6zM5436 3175c-15-15-6-35 31-72 24-24 46-37 59-35 36 5 32 28-11 72-40 39-64 50-79 35zM5723 3069c-14-5-97-87-154-151-19-21-19-46 1-62 9-7 16-9 16-4 0 11 50 36 71 36 11 0 13-14 7-63-7-59-6-63 14-63 13 0 25 8 29 21 3 11 10 21 15 21 5 0 11 9 14 21 4 13 14 21 32 21 39 0 91 58 91 102 0 59-90 138-136 121zm56-93c17-45-10-77-52-60-17 6-31 49-21 65 11 18 66 14 73-5zM11904 3045c-15-12-34-21-42-21-9 0-18-9-21-21-6-23 13-94 25-94 4 0 11-16 15-35 4-18 13-44 21-56 8-12 17-39 21-59 7-40 31-54 61-38 22 12 23 60 2 68-19 7-22 57-3 56 31 0 61-13 61-27 0-8 6-14 15-14 8 0 18-10 21-22 7-21 8-21 27-4 28 25 26 49-8 83-25 24-29 37-29 91 0 34-5 66-12 70-6 4-14 16-18 26-10 27-100 25-136-3zm103-63c8-14-17-71-33-78-41-15-77 30-56 69 12 21 77 28 89 9zM5163 2995c-33-35-34-42-13-83 18-34 22-108 6-108-6 0-11 7-11 15 0 9-5 16-10 16-6 0-11 9-11 19 0 22-19 44-39 44-7 0-13-7-13-15 0-8-6-18-14-21-10-5-10-7 0-12 8-3 14-14 14-24 0-10 13-31 29-47 61-58 160-19 160 64 0 19-5 34-11 34-6 0-10 7-10 16 0 8-8 16-16 16-9 0-16 9-16 21 0 14 7 21 21 21 15 0 21-8 21-24 1-13 8-33 16-45 13-16 20-18 34-9 54 34 2 131-78 147-23 4-36-1-59-25zM11729 2920c0-24 6-46 14-50 7-5 19-32 27-61 7-29 17-55 21-58 5-3 4-13-3-23-16-20-70-14-70 8 0 8-4 15-8 15-9 0-34 51-34 70 0 8-4 14-9 14-6 0-13 11-16 24-13 48-24 56-48 34-26-23-27-46-6-86 9-16 27-56 41-87 14-32 38-71 53-86 22-24 33-28 65-23 48 8 120 75 120 113 0 15-5 27-10 27-5 0-12 17-16 39-4 21-16 50-27 63-11 14-23 40-27 59-8 36-20 49-49 49-15 0-18-9-18-41zM5915 2869c-10-16-46-56-80-89-45-44-60-67-58-84 6-42 38-26 124 60 65 64 84 90 84 113 0 24-5 29-26 29-17 0-32-10-44-29zM6389 2808c-87-94-103-124-71-133 24-6 45 1 45 15 0 6 33 45 74 85 51 52 73 81 71 96-6 43-36 27-119-63zM5362 2870c-13-13-7-42 14-61 33-30 26-78-13-93-10-3-18-13-18-21 0-9-7-18-15-21-21-8-32-61-15-71 8-5 17-9 21-9 11-1 103 92 103 104 0 17 31 13 49-5 24-24 81-16 85 12 4 24-70 99-97 99-9 0-16 6-16 13 0 35-75 76-98 53zM11411 2802c-22-11-39-27-39-35 0-9-5-16-11-16-6 0-10-19-10-42 0-29 4-42 14-42 9 0 17-5 19-12 2-6 30-14 61-17 62-6 84-17 84-42 0-12-10-14-52-8-50 7-52 6-59-20-18-70 101-110 158-52 32 31 42 72 33 124-6 32-12 38-44 44-20 3-36 11-36 16 0 5-24 9-52 9-29 0-53 3-53 6 0 18 35 36 68 36 45 0 59 23 31 53-22 25-60 25-112-2zM6535 2777c-3-14-13-26-21-26-8 0-14-7-14-16 0-9-8-19-17-23-35-13-70-60-75-99-5-33-2-40 11-40 10 0 23-10 30-21 19-31 102-30 149 2 90 58 106 154 37 217-45 41-90 44-100 6zm73-80c9-35-19-91-49-99-38-9-75-1-78 17-4 20 79 105 103 105 10 0 21-11 24-23zM6044 2771c-15-12-27-28-27-37 0-8-8-14-16-14-9 0-16-8-16-17 0-8-12-20-26-25-29-11-70-70-66-94 2-8 12-20 23-26 11-7 30-20 42-30 11-10 31-18 44-18 13 0 26-6 29-14 5-10 8-10 13 0 3 8 14 14 24 14 10 0 27 9 38 20 10 12 26 24 36 27 25 7 47 79 39 122-8 36-44 83-65 83-7 0-16 7-19 15-8 21-20 20-53-6zm52-77c28-28 9-111-26-111-6 0-11-5-11-10 0-17-71-13-77 4-6 15 19 54 66 103 32 33 29 33 48 14zM11183 2699c0-6-9-11-20-11-10 0-29-10-43-22-18-18-23-31-18-57 9-58 35-78 98-78 68 0 88-8 88-33 0-19-6-20-52-14-45 6-52 4-58-14-9-30 0-47 42-74 35-22 40-23 56-8 10 9 25 17 34 17 8 0 23 9 33 21 68 79 31 159-78 172-59 7-108 36-65 39 36 2 61-4 69-16 6-8 11-7 18 4 16 24 13 36-15 61-27 23-89 32-89 13zM5560 2565c-71-73-97-118-68-118 5 0 10-5 10-11 0-17 45-65 71-74 13-5 24-17 24-25 0-11 10-16 31-16 29 0 31 3 31 34 0 26-8 38-33 55-48 30-58 51-40 83 8 15 20 27 26 27 16 0 58 45 58 61 0 7 5 13 11 13 5 0 10 11 10 26 0 21-5 26-26 26-18 0-49-24-105-81zM10983 2615c0-6-6-11-13-11-17 0-126-55-137-68-10-13 2-93 15-98 5-2 9-10 9-19 0-8 5-14 11-14 5 0 10-8 10-16 0-9 5-16 11-16 5 0 10-9 10-20 0-12 5-24 11-27 5-4 10-14 10-23 0-28 32-49 71-47 21 0 40 5 44 9 3 5 20 15 37 24 54 27 72 48 64 78-5 22-13 27-40 27-19-1-43-8-55-16-26-20-68-20-68 0 0 9 11 19 26 22 26 7 33 27 20 61-5 12-17 14-58 10-35-4-51-3-51 5 0 17 42 42 81 50 30 6 34 11 34 40 0 32-15 59-34 59-4 0-8-5-8-10zM6251 2587c-4-10-39-49-79-88-74-73-83-93-55-116 13-11 30 1 110 80 104 103 121 141 62 141-20 0-34-7-38-17zM6745 2597c-38-8-96-70-104-112-13-70 1-107 52-137 26-15 53-27 61-27 26 0 82 58 82 85 0 27-30 58-60 64-15 2-19-4-19-31 0-29-4-34-24-34-14 0-23 6-23 15 0 9-5 16-11 16-6 0-10 9-10 21 0 12 4 21 9 21 5 0 11 9 14 20 4 14 19 23 43 28 55 10 79-2 86-43 8-41 36-58 44-26 3 12 10 21 15 21 22 0 6 45-31 84-41 42-60 47-124 35zM6353 2460c-13-16-49-56-81-90-37-38-56-66-52-76 8-22 56-20 64 3 3 10 18 24 33 31l27 13-7-84c-7-77-6-83 12-83 10 0 62 42 113 94 84 85 93 96 78 111-14 14-19 14-50-2-18-9-38-28-43-42-14-37-44-34-35 4 4 16 11 30 16 32 5 2 9 29 9 61 0 56-1 57-31 57-21 0-38-10-53-29zM10658 2462c-8-8-22-15-32-15-10 0-31-10-46-23-24-18-28-27-22-55 4-18 14-36 21-40 7-5 16-25 20-45 4-20 11-37 17-37 5 0 10-12 10-27 0-35 38-88 62-88 23 0 33 28 21 57-4 12-8 32-9 45-1 33 41 31 73-3 14-14 31-26 39-26 7 0 14-5 14-10 0-6 9-11 21-11 16 0 21 7 21 35 0 29-7 38-37 55-30 16-37 26-37 52 0 18 5 37 11 44 9 8 9 13 0 18-6 4-11 16-11 28 0 51-103 87-136 46zm72-73c10-11 9-19-7-34-46-47-86-40-86 14 0 34 1 36 40 36 23 0 47-7 53-16zM5800 2384c-34-35-68-63-75-63-21-1-36-51-23-75 15-28 49-62 62-62 5 0 20-14 32-31 15-21 31-32 49-32 26 0 27 2 21 39-4 27-18 51-43 74-42 39-47 55-16 55 11 0 21-7 21-15 0-15 21-27 48-27 10 0 15 12 15 37 0 25-5 37-16 37-19 0-22 37-4 48 7 4 20-3 31-15 10-13 23-23 28-23 6 0 18-12 28-26 19-30 56-35 66-10 7 20-118 152-145 152-10 0-45-29-79-63zM6951 2421c-9-9-28-29-42-44-14-16-44-46-66-67-44-44-48-62-18-89 12-11 21-26 21-33 0-8 4-14 9-14 5 0 28-17 50-36 38-35 41-35 54-16 12 17 12 24-3 49-10 17-28 34-40 40-14 6-24 21-26 39-3 23 1 29 18 29 12 0 22-7 22-15 0-15 31-27 71-27 17 0 24 6 24 21 0 11-5 21-11 21-6 0-10 7-10 15 0 9-5 16-11 16-6 0-10 9-10 21 0 29 9 26 41-10 31-35 95-55 95-31 0 34-14 60-32 65-11 3-21 12-21 20 0 13-72 61-91 61-5 0-16-7-24-15zM10421 2359c-11-7-23-15-26-19-3-4-18-10-33-14-39-10-47-48-20-98 32-59 64-135 64-154 0-9 4-16 9-16 5 0 12-10 15-22 4-16 12-21 35-18 25 3 30 9 33 37 2 19-1 35-7 35-12 0-23 39-15 58 3 8 12 15 20 15 9 0 27 13 41 28 39 42 33 142-11 174-16 12-81 8-105-6zm65-86c8-22-27-59-54-55-16 2-22 12-25 37-3 33-1 34 35 34 24 0 40-6 44-16zM6589 2248c-89-30-129-105-104-196 6-22 85-78 111-78 25 0 82 61 82 88 0 27-26 55-58 61-17 3-21-3-21-31 0-28-3-34-23-34-14 0-24 6-24 16 0 8-5 16-10 16-17 0-12 34 9 62 16 20 30 25 71 26 50 1 51 0 60-38 11-45 37-62 45-30 3 12 10 22 15 22 23 0 6 44-31 83-41 43-70 51-122 33zM10050 2040c-1-68-2-138-4-155-2-23 2-32 16-35 10-2 21 4 25 16 14 42 30 77 36 77 8 0 25-36 42-87 8-22 17-39 21-39 5 0 14-28 21-61 8-35 23-69 36-82 13-12 29-46 37-76 8-30 17-54 21-54 4 0 10-10 13-22 5-17 13-21 36-19 26 3 30 9 33 43 1 22-1 40-7 40-5 0-15 18-22 42-7 23-17 42-22 42-6 0-10 8-10 18 0 10-9 35-20 55-11 20-23 52-27 71-4 19-11 34-16 34-4 0-14 19-21 41-8 23-20 44-28 47-8 3-14 12-14 21 0 11 11 13 47 9 43-5 47-3 47 18 0 15-8 26-21 29-12 3-21 10-21 15 0 5-7 9-16 9-25 0-96 62-110 96-10 23-20 30-42 30l-30 0 0-123zM6141 2065c-71-71-100-113-88-132 13-21 53-10 101 28 14 11 22 10 45-9 34-27 34-35 0-80-25-33-28-66-5-66 23 0 64 21 64 33 0 7 7 20 15 29 26 29 66 69 84 83 21 17 22 58 1 75-12 10-19 8-36-9-26-26-56-28-75-6-10 13-10 25-1 56 17 57 15 65-13 65-16 0-47-23-92-67zM7471 2021c-29-14-61-26-70-26-10 0-19-5-22-12-2-6-36-14-77-17-79-6-99-15-99-46 0-16 8-19 53-19 29 0 61 5 72 12 16 10 24 10 37-1 14-12-1-32-128-158-171-169-199-204-181-227 22-26 57-17 98 26 21 23 39 45 39 49 0 4 41 48 91 98 51 50 101 104 111 120 29 43 39 34 39-36 0-66 17-99 45-88 10 4 18 30 23 79 4 40 11 73 17 73 5 0 10 12 10 27 0 39 22 124 35 132 12 9-11 41-29 40-6 0-35-12-64-26zM6339 1861c-80-80-97-113-65-125 8-3 16-12 16-20 0-8 5-15 11-15 7 0 23-12 37-26 27-30 64-35 74-10 4 11-9 33-39 63-38 39-42 47-27 53 10 4 24 1 30-5 17-17 60-15 67 4 4 9-1 27-11 41-21 34-21 38 5 38 11 0 31-12 43-27 26-29 69-35 79-10 5 15-45 79-63 79-4 0-18 9-30 21-13 11-28 21-34 21-7 0-48-37-93-82zM6618 1723c-10-11-32-24-48-28-16-4-28-11-28-16 0-5-19-14-41-21-69-20-88-92-21-79 47 9 62-1 62-45 0-75 47-87 76-19 11 24 26 58 33 76 8 17 21 47 29 65 7 19 17 35 22 35 4 0 8 8 8 19 0 37-62 45-92 13zM6761 1575c-22-22-41-46-41-51 0-6-9-14-21-17-21-7-85-80-83-96 1-15 93-77 114-77 11 0 23-5 27-11 3-6 20-10 37-10 34 0 77 34 89 73 4 14 15 32 23 41 35 35-10 159-57 159-8 0-17 7-20 15-10 25-23 19-68-26zm68-59c51-19-14-130-76-130-17 0-34 4-38 10-7 11 15 64 28 64 5 0 9 5 9 11 0 13 21 35 42 44 8 3 16 6 17 7 1 0 9-2 18-6zM15063 1263c-12-13-5-35 12-42 52-20 56-32 52-193-3-151-3-151-29-155-28-4-41-18-41-46 0-17 16-18 190-18 183 0 192 0 211 23 16 18 19 36 17 91-4 80-21 91-51 34-29-55-56-73-115-81-73-10-94 12-94 95 0 32 4 58 10 58 6 0 11 17 11 37 0 20-5 37-11 37-6 0-10 11-10 26 0 14 4 26 9 26 5 0 12 9 15 21 3 13 14 21 27 21 17 0 22 7 22 32 0 29-3 31-39 32-22 1-71 2-110 4-38 2-73 1-76-2zM16129 1263c-132-3-169-11-169-36 0-5 9-9 19-9 11 0 28-9 37-20 15-16 18-40 15-154l-3-135-33-22c-37-23-43-41-20-63 20-20 159-22 167-2 4 10 6 10 6 0 1-10 31-13 115-13 95 0 116 2 121 16 9 23 8 146-1 155-4 4-25-12-47-35-23-23-50-42-61-42-11 0-23-5-26-10-10-17-99-13-116 4-9 8-15 34-15 58 0 34 3 43 19 43 10 0 25-12 33-27 8-14 23-26 33-26 17 0 19 10 19 87 0 47-4 93-9 101-10 16-32 7-32-14 0-8-7-20-16-27-12-10-19-9-31 3-18 18-22 71-6 71 6 0 11 7 11 17 0 15 10 16 78 11 82-6 115-24 123-65 2-12 13-23 27-25 22-3 23 1 23 58 0 103-4 109-66 106-30-1-118-4-195-5zM14585 1250c0-6-8-11-16-11-9 0-16-4-16-8 0-15 25-34 43-34 11 0 22-5 25-11 12-18 18-168 11-238-6-55-11-70-27-74-11-3-20-14-20-25 0-18 9-19 110-19 92 0 110 2 110 16 0 8-13 20-29 26-37 15-44 27-44 82 0 43 1 45 28 42 21-3 30-10 33-27 2-17 10-24 28-24 23 0 24 4 28 76 2 42 2 87-1 100-4 28-32 32-32 4 0-26-36-57-60-52-23 4-31 54-14 97 11 30 11 30 92 25 68-4 86-9 109-31 16-14 32-39 36-54 7-30 24-36 44-16 16 15 17 51 3 51-6 0-11 18-11 41 0 76 6 74-179 74-123 0-167-3-171-13-4-11-6-11-6 0-1 16-74 18-74 3zM15645 1219c-20-12-44-24-54-28-9-3-23-26-30-50-8-24-18-48-23-54-11-12-11-121-1-121 5 0 14-19 21-42 15-47 43-84 63-84 8 0 17-7 20-16 7-18 120-23 120-5 0 6 5 11 13 11 7 0 30 4 50 10 32 9 43 21 67 68 27 53 29 66 25 147-4 82-8 93-35 122-42 44-52 48-131 56-57 6-74 4-105-14zm149-61c5-19 14-34 19-34 13 0 14-130 2-156-5-10-16-32-24-49-14-28-22-32-65-35-48-3-50-2-56 29-4 18-11 32-16 32-12 0-12 144 0 152 5 3 13 23 17 45 10 55 12 56 66 53 45-3 49-6 57-37zM1294 1221c-38-4-44-8-44-27 0-13 9-30 21-37 21-13 22-21 19-145-2-75-8-134-15-138-19-13-57-73-57-91 0-12 10-16 36-16 20 0 39 4 43 10 3 6 48 11 100 11 56 0 94-5 94-11 0-6 26-10 57-10 76 0 90 19 90 120 0 81-13 117-31 90-6-9-11-27-11-40 0-13-4-23-9-23-5 0-12-9-15-20-6-23-47-33-135-33l-61 0 0 63c0 35 4 63 10 63 6 0 11 17 11 37 0 20-5 37-11 37-6 0-10 11-10 26 0 14 4 26 9 26 5 0 12 9 15 21 3 13 14 21 27 21 17 0 22 7 22 32 0 28-3 31-34 31-19 0-44 2-55 4-12 2-41 1-66-1zM819 1208c0-6-7-11-16-11-23 0-19-39 6-45 19-5 21-14 21-138 0-134-9-174-38-174-9 0-15-10-15-26l0-26 100 2c115 4 135 14 89 48-27 20-31 30-31 72l0 48 36-6c21-3 45-13 54-22 9-9 25-16 36-16 18 0 21 7 21 60 0 34-6 67-13 74-17 17-50 16-50-2 0-15-31-27-67-27-16 0-18 8-15 65l3 66 77-3c81-4 111-19 119-60 2-12 12-23 22-25 15-3 18 6 18 60 0 102 11 96-185 96-108 0-172-4-172-10zM1880 1209c0-6-11-12-24-16-35-8-92-68-99-103-4-17-10-32-15-36-13-7-12-106 0-114 6-3 13-20 17-37 4-17 10-31 14-31 4 0 13-13 20-29 24-54 98-69 209-43 41 10 58 20 69 40 7 14 16 29 18 32 3 2 14 21 24 40 20 38 26 164 8 175-6 3-10 14-10 22 0 31-66 80-113 86-25 2-45 9-45 14 0 5-17 9-37 9-20 0-36-4-36-9zm91-61c13-3 24-12 24-19 0-7 7-19 16-26 18-16 22-137 5-166-6-10-15-31-21-47-9-26-15-29-62-29-29 0-56 6-60 12-14 23-17 164-4 217 14 61 40 75 102 58zM2252 1208c-3-6-25-11-48-11-50 0-53-17-5-37l36-15 1-147 1-148-26-10c-17-6-27-18-27-31 0-21 6-21 198-21 150 0 200 3 203 13 3 7 2 43-1 81-5 55-10 69-25 72-13 2-22-4-25-19-3-12-10-21-14-21-4 0-10-9-13-20-4-13-19-22-46-27-22-4-44-13-48-19-4-8-19-6-44 7-35 16-38 21-38 65 0 43 2 47 24 44 15-2 24-12 27-27 1-13 9-23 17-23 19 0 26 34 26 123 0 54-3 76-13 76-13 0-39-46-39-71 0-8-8-13-18-11-23 4-31 70-13 104 11 21 18 22 80 16 77-8 105-29 110-81 8-82 51-29 51 63 0 80-12 85-181 85-84 0-146-4-150-10z" transform="matrix(.02286 0 0 -.02286 -8.16 155.72)"/>
</svg>
