<?xml version="1.0" encoding="utf-8"?>
<svg xmlns="http://www.w3.org/2000/svg" version="1" viewBox="0 0 192 155">
	<title>Sketch map of Cave Cove showing where the boat was beached.</title>
	<path d="M2766 6947c-52-19-83-46-107-91-30-56-30-85 3-141 31-53 94-89 155-89 29 0 47 8 77 36 21 21 36 40 32 44-4 4-18-6-32-21-34-36-69-43-115-24-52 22-73 67-68 145 6 78 44 124 102 124 46-1 71-18 86-62 18-50 50-37 37 15-13 50-109 86-170 64zM4378 6948c-107-39-157-157-102-239 52-77 145-106 219-67 36 19 42 42 7 31-13-5-43-10-67-13-37-4-47-1-74 27-32 31-45 70-45 129 0 42 57 102 105 110 49 8 94-26 94-71 0-35 16-36 38-3 37 56-91 126-175 96zM4732 6938c-60-37-80-76-80-150 0-111 62-170 166-160 62 6 100 31 127 87 28 56 27 105-2 156-31 54-66 79-123 86-39 4-56 1-88-19zm104-21c15-6 34-25 42-41 20-38 19-128-1-167-19-37-77-57-116-39-30 14-61 75-60 120 2 59 56 135 100 139 4 1 19-5 35-12zM5006 6954c-34-5-36-14-11-37 11-10 45-69 76-133 31-64 64-119 73-122 22-8 33 7 95 126 30 58 63 113 75 123 31 26 25 42-14 38-27-3-34-8-34-26 0-24-79-192-90-192-12 0-75 139-82 183-8 45-21 51-88 40zM5394 6953c-21-4-23-14-5-31 13-14 14-158 2-237-9-54 2-59 111-58 128 1 152 8 156 43 4 34-12 37-43 8-20-18-35-21-92-19l-68 3 0 69 0 68 51-4c44-3 50-1 47 16-3 16-12 19-47 16-47-4-59 12-49 65 4 21 13 29 41 34 49 9 98-2 127-29 20-20 24-20 30-6 3 9 5 27 3 41-4 24-6 24-124 24-67 0-130-1-140-3zM3078 6833c-34-65-71-132-82-150-29-48-29-49-2-45 18 2 25 11 27 33 3 51 19 60 108 60l82 0 14-48c12-41 17-47 42-47 36 0 47 17 28 40-9 10-34 53-56 97-22 43-47 90-54 105-8 14-14 31-14 38 0 6-7 17-15 24-12 10-26-8-78-107zm81-13c13-26 21-52 17-58-8-13-96-14-104-1-9 14 37 106 52 106 6 0 22-21 35-47zM3576 6908c-7-46-74-188-88-188-8 0-85 155-100 202-5 13-17 19-43 19-40 0-46-7-22-26 8-6 41-63 74-127 60-118 75-141 88-141 5 0 35 63 69 141 34 78 65 142 70 142 5 0 9 5 9 11 0 5-11 10-25 10-21 0-26-7-32-43zM3762 6943c-66-3-76-9-55-31 8-7 11-58 8-144l-3-132 63-1c152-2 194 4 194 28 0 17-33 20-49 4-6-6-40-10-77-8-66 3-67 4-76 37-5 19-5 50 0 69 8 29 14 34 48 37 24 2 39 9 39 17 0 11-12 13-42 9l-42-6 0 43c0 39 3 43 34 54 24 8 52 8 91 1 60-12 76-8 67 16-6 15-37 17-200 7zM6517 6092c-61-62-62-75-6-68 38 5 47 3 63-19 27-34 39-14 33 57-8 100-18 103-90 30zm56-18c0-8-7-15-16-15-16 0-21 12-8 24 12 12 24 8 24-9zM6667 6035c-23-51-26-71-10-71 11 0 53 85 53 106 0 25-25 5-43-35zM6746 5995c-31-81-29-90 23-100 25-5 37-1 55 17 12 14 22 32 22 41-1 21-25 53-41 53-7 0-11 12-9 28 6 56-22 35-50-39zm67-44c4-22-27-37-43-21-16 16-1 47 21 43 10-2 20-12 22-22zM6901 5949c1-9-7-22-18-31-17-13-19-20-10-35 18-30 65-49 84-34 18 15 20 85 2 102-18 19-62 17-58-2zm37-75c-4-4-15-4-26 0-15 6-16 9-3 17 16 10 41-5 29-17zM7045 5935c-9-10-17-28-18-39 0-12-4-34-8-50-9-36 10-39 28-5 7 13 20 29 30 36 12 8 16 22 13 44-5 37-22 41-45 14zM7131 5867c-6-9-15-31-19-51l-7-36 26 24c14 13 35 24 46 24 33 0 51 15 34 28-24 21-66 26-80 11zM7247 5817c-13-12-23-31-23-42 0-27 36-63 63-63 30 0 55 44 46 80-12 51-47 61-86 25zm59-45c2-12-3-18-16-18-26 0-35 9-27 28 8 20 39 13 43-10zM7393 5779c-27-19-28-44-4-62 10-8 15-18 10-22-5-5-13-1-19 9-14 26-32 23-28-5 5-34 55-50 79-26 15 15 16 22 5 39-16 27-16 32 2 32 10 0 13 7 10 20-8 28-28 33-55 15zM6847 5750c-13-16-5-27 22-27 10 0 19-5 19-11 0-6-7-10-16-10-8 0-30-14-49-31-29-26-32-32-20-47 8-9 25-17 39-17 27 0 32 10 13 29-8 8-3 16 21 28 45 23 57 49 37 78-18 25-48 29-66 8zM7503 5733c-4-5-4-22 0-36 6-22 4-26-10-21-26 10-22-34 4-48 37-20 87 26 53 47-17 10-13 27 6 27 11 0 15 5 10 16-3 9-6 19-6 21 0 9-52 4-57-6zM2583 5707c0-9 5-16 11-16 6 0 8-11 4-26-5-21-2-27 21-32 17-5 27-15 27-27 0-31-21-35-48-9l-25 24 0-22c0-33 44-60 72-45 36 19 43 45 25 83-14 28-15 39-5 55 18 29 17 31-35 31-35 0-47-5-47-16zM2715 5699c-19-27-22-103-4-121 19-19 66-16 86 6 24 27 23 99-2 121-27 24-61 22-80-6zm72-36c8-21-22-69-39-64-7 3-14 22-16 43-3 35-1 39 22 39 15 0 29-8 33-18zM2893 5699c-22-31-22-123 0-123 10 0 16 10 16 30 0 17 4 34 10 38 6 4 8 16 5 27-4 11-1 20 5 20 6 0 11 7 11 16 0 23-28 19-47-8zM6958 5693c-27-30-33-82-13-112 30-46 73-27 110 49 13 25 12 32-3 55-21 32-68 36-94 8zm67-34c0-33-20-62-42-62-25 0-36 29-19 51 30 38 61 44 61 11zM2976 5654c-7-51 0-84 16-73 6 3 11 17 11 30 0 13 5 28 11 35 9 8 8 17-2 33-21 33-28 28-36-25zM7657 5668c-29-29-7-103 30-103 53 0 77 43 56 99-8 20-68 23-86 4zm53-36c10-10-14-37-25-30-15 9-11 37 4 37 8 0 18-4 21-7zM7088 5632c-12-15-21-39-21-52 0-25 46-88 64-88 6 0 24 13 41 30 33 33 41 79 20 117-17 32-76 28-104-7zm67-10c22-9 21-45-1-69-22-25-32-24-45 1-8 14-8 28 1 47 13 29 18 31 45 21z" transform="matrix(.02286 0 0 -.02286 -.96 159.059)"/>
	<path d="M2430 5627c-11-12-38-36-60-53l-39-32 7 48c5 40 3 49-10 49-22 0-43-94-35-153 5-41-1-87-37-278-6-32-12-84-14-115-2-32-12-120-22-195-20-151-21-270-1-328 20-63 78-85 322-120 38-6 217-14 399-18 243-5 352-12 410-24 143-31 256-51 296-51 21 0 61-8 89-18 62-24 261-31 358-13 70 12 151 3 215-25 94-40 128-49 256-64 77-9 142-16 145-16 4 0 4-5 0-10-3-6-3-17 2-24 5-9 10-5 14 13 5 21 13 27 45 30 39 3 39 3 41-40 1-23 2-51 2-61 1-14-6-18-33-15-29 3-36-1-45-24-14-38 2-63 39-63 60 0 73-96 30-226-14-43-26-102-26-131 0-49-24-137-61-229-9-22-16-57-15-79 1-25-10-65-30-107-44-93-45-94-89-80-31 10-37 16-36 42 0 30 0 30 19 13 25-23 39-6 21 24-11 17-10 24 5 41 9 10 18 25 18 32 0 15-45 16-60 1-8-9-14-9-19 0-8 13-47 15-47 3 0-5 7-19 16-32 16-22 16-26 0-43-16-17-15-21 7-49 24-31 20-30-51 19-37 25-54 29-115 29-61 0-83 6-156 41-90 44-106 49-163 59-21 3-47 15-59 27-13 12-36 20-59 20-20 0-64 9-99 20-34 12-81 25-104 31-23 6-87 22-141 36-101 25-171 38-336 61-68 9-109 9-169 0-66-10-86-10-125 4-26 9-55 24-66 34-13 11-39 18-74 19-38 1-74 11-118 33-34 18-89 38-120 45-32 7-99 24-150 38-50 14-107 26-127 26-20 0-63 14-96 32-55 29-62 31-71 15-6-11-14-14-22-7-7 5-35 13-62 17-38 5-50 3-51-7-1-8-5-2-9 13-5 19-13 25-32 23-43-5-57-56-17-64 12-2 17 1 12 8-4 7 1 12 11 12 15 0 15-3 4-17-16-19-4-34 13-17 7 7 19 13 26 13 14 0 10-43-9-94-7-20-12-22-24-11-13 10-16 9-16-8 0-11-4-24-9-30-5-5-19-39-32-75-20-54-36-76-97-131-41-36-103-94-138-127-36-33-87-74-112-89-122-73-260-209-358-353-47-70-52-86-20-69 12 6 23 10 24 8 1-2 8-14 15-27 7-13 13-32 13-42 0-11 7-29 16-40 16-20 17-19 12 6-3 14-12 53-20 86-15 57-14 72 3 72 3 0 15-29 26-63 10-35 23-63 29-63 5 0 7 6 4 13-19 52-40 146-35 160 11 28 26 8 45-58 9-35 21-63 26-63 12 0 12-1-8 70-21 76-23 110-7 116 10 3 32-44 52-111 3-8 7-12 11-8 4 3-2 37-12 75-18 65-17 100 3 100 6 0 15-23 22-50 7-28 20-64 28-82l16-31-6 37c-3 20-12 61-21 92-17 61-12 89 14 84 10-2 24-28 36-69 11-36 24-66 30-65 10 0 4 32-19 98-16 48-18 80-4 80 9 0 29-57 48-139 4-16 12-29 17-29 9 0 8 8-13 95-16 62-17 104-4 105 9 1 32-58 53-142 17-66 17 14 0 89-20 88-20 84-2 84 14 0 23-30 44-134 3-19 11-34 16-34 12 0 12 10-6 110-19 106-20 100 4 100 16 0 23-15 38-74 19-77 44-115 33-51-8 52-25 127-34 150-6 14-4 19 6 15 8-2 18-16 22-30 4-14 15-51 24-82 9-31 17-74 17-95 0-29 8-46 29-67 37-35 65-36 96-3 19 20 22 29 13 46-18 33-74 76-100 76-21 0-26 8-37 60-8 33-18 73-24 88-10 28-5 51 12 51 4 0 16-32 27-71 10-39 22-78 27-86 15-27 11 41-6 105-18 67-20 84-7 84 6 0 18-35 27-77 10-41 23-87 28-101 13-31 82-116 95-116 16 0 10 24-14 48-18 20-20 27-10 40 15 17 1 30-23 21-8-3-18-1-22 4-9 16 5 44 21 44 22 0 19 59-6 138-23 75-26 91-11 77 13-14 53-181 47-198-6-14 70-101 88-101 19 0 15 15-8 37-15 13-19 26-15 43 5 21 2 25-20 25-21 0-25 5-25 29 0 16-9 68-20 115-14 63-16 90-8 98 12 12 18-2 46-108 7-28 17-50 22-50 11 0 12-8-8 79-24 103-30 163-16 163 7 0 12-6 12-14-1-25 47-186 55-186 13 0 10 24-12 96-30 96-39 177-21 177 9 0 24-32 40-87 34-120 34-120 40-104 5 14-11 94-36 173-16 49-13 81 7 81 6 0 11-9 11-19 0-10 11-52 25-92 44-125 30 3-16 140-6 19-8 42-5 51 11 29 34-2 53-72 22-84 38-123 48-123 8 0-7 77-21 105-4 9-11 31-15 50-7 28-5 34 12 34 15 0 24-16 38-66 27-93 31-102 36-71 2 14-6 54-17 89-12 35-20 64-18 66 3 3 16-4 30-13 19-12 31-34 39-72 8-30 20-66 27-80l14-27 1 33c0 18-5 47-12 66-6 18-9 36-5 40 15 15 36-24 48-91 7-41 17-74 22-74 13 0 12 23-3 96-6 34-8 65-4 69 15 15 36-30 49-103 6-40 17-76 23-79 8-5 9 3 5 24-4 18-10 57-14 87-14 111 44 24 64-95 4-22 12-41 17-41 10 0 2 73-13 114-5 13-9 33-9 45 0 17 4 18 20 10 13-7 26-36 37-82 22-88 33-109 42-80 3 12-1 38-10 59-17 42-21 92-6 92 12 0 29-44 47-125 17-72 21-80 35-71 6 3-2 41-16 85-15 43-23 83-19 87 19 19 43-22 66-113 37-146 50-138 19 11-9 42-13 79-10 82 12 12 27-19 48-98 12-46 26-91 31-100 15-25 12 37-5 108-12 48-12 60-1 60 7 0 18-6 23-13 12-15 42-110 52-163 4-19 11-34 17-34 6 0 8 14 3 34-15 73-26 149-22 153 12 11 26-15 48-92 14-46 29-84 34-84 11 0 10 7-13 93-12 42-20 79-18 81 20 20 60-43 60-95 0-34 21-102 30-96 8 5-1 86-14 129-6 18-4 24 8 24 25 0 40-26 60-106 22-86 48-126 37-57-4 23-14 65-22 92-13 48-13 50 7 50 23 0 36-26 53-107 11-51 30-79 30-43 0 10-7 49-16 86-9 37-14 69-11 72 10 10 38-8 38-25 0-21 41-142 54-156 17-19 18 1 2 47-9 26-20 67-24 92-8 39-6 45 10 45 14 0 25-22 47-90 16-50 33-86 38-81 5 5-1 34-12 66-22 60-27 105-12 105 20 0 29-22 64-155 15-56 36-61 26-6-4 22-11 47-15 56-4 8-11 33-15 55-6 34-4 39 14 39 26 0 35-16 59-108 10-39 23-74 28-77 11-7 11 56-1 78-5 10-12 38-16 62-7 37-5 45 9 45 9 0 21-11 26-24 19-51 33-99 33-119 0-12 6-30 15-41 15-20 15-20 16 0 0 12-7 47-16 79-20 76-20 84 6 84 12 0 23-6 25-13 24-79 36-123 42-149 4-17 11-26 16-21 6 6 3 34-5 67-9 32-15 69-15 82 0 20 3 23 18 14 11-6 29-42 43-87 33-104 45-132 51-116 3 8-5 52-18 98-12 47-19 88-16 92 15 15 47-45 64-122 10-45 23-86 27-91 14-16 10 44-7 112-9 34-15 68-12 75 6 16 26-34 52-138 13-48 27-86 31-86 13 0 10 25-14 121-23 89-20 121 6 85 12-17 35-95 52-178 4-16 10-28 15-28 10 0-1 78-19 143-6 22-11 44-11 48 0 12 29 10 37-2 11-18 36-126 37-156 0-30 15-63 25-54 5 6-4 75-21 155-7 31-5 35 12 32 19-4 37-58 52-160 4-23 10-37 16-31 5 5 2 45-6 93-18 100-18 100-6 100 16 0 53-124 54-177 0-35 15-62 25-45 4 6 5 15 2 20-3 5-10 37-16 71-6 34-14 73-18 86-5 18-2 24 11 24 21 0 36-38 50-126 14-91 34-112 24-27-3 35-9 76-12 92-4 21-1 29 10 29 16 0 39-42 39-71 0-34 26-128 35-128 10 0 6 35-14 130-12 57-8 68 19 52 17-11 53-123 54-169 0-13 6-24 12-24 12 0 8 70-7 139-4 18-3 29 5 29 21 0 46-53 52-112 10-91 31-84 25 8-6 82 11 96 24 20 9-55 30-69 24-17-5 47 13 46 29-2 16-50 26-52 26-4 0 50 16 58 32 16 15-40 6-53-42-66-49-14-61-27-36-41 13-7 25-5 42 6 44 28 33 13-101-149-132-159-216-276-207-286 4-4 22 7 39 24 29 27 203 246 288 363l32 43 5-35c8-55 28-48 36 13 4 30 14 68 23 86l17 31 18-42c11-23 27-68 36-101 10-32 22-61 28-65 14-9 13 1-11 95-17 64-18 84-8 91 17 10 33-19 66-126 15-48 31-84 36-81 10 6 7 21-16 105-20 70-19 81 7 77 17-2 28-20 47-77 14-40 25-81 25-90 0-10 8-24 18-32 15-13 16-10 11 23-3 20-12 66-21 102-13 57-13 66 0 61 8-3 17-6 19-6 6 0 47-136 47-157 0-11 7-25 16-32 20-17 20-5 0 79-18 73-20 100-7 100 12 0 49-87 65-153 7-29 17-57 22-62 14-16 11 39-7 106-8 33-15 70-15 82 0 19 1 20 11 3 13-22 62-176 62-194 0-8 5-13 11-13 14 0 13 15-7 109-16 79-14 104 6 84 6-6 23-52 38-104 28-99 32-108 42-97 6 6-4 60-27 152-6 25-5 34 5 34 12 0 38-59 70-163 20-65 23-26 4 62-20 97-20 101-1 101 16 0 46-61 73-149 18-57 42-92 55-79 3 3 0 16-6 27-19 36-55 160-48 167 12 12 26-15 59-108 41-118 55-142 46-78-4 25-13 73-21 104-16 61-14 69 9 60 17-6 70-143 70-180 0-14 5-28 11-32 15-9 12 42-6 116-18 78-18 79-2 79 14 0 52-98 65-166 4-19 12-34 17-34 13 0 12 53-2 92-6 18-9 48-7 67l4 35 28-60c15-33 34-83 40-110 13-55 31-83 30-50 0 12-7 47-15 79-9 31-16 66-16 76 0 36 17 8 36-58 27-95 39-123 50-123 6 0 8 6 6 13-12 30-41 176-38 186 3 7 10 7 22-2 11-8 28-55 44-117 24-98 32-121 42-111 2 2-3 44-11 93-8 49-12 91-9 93 16 16 36-19 62-107l30-100-24-25c-28-29-74-148-63-165 9-15 26 6 35 43 4 16 16 30 28 34 21 5 30 28 11 28-14 0-14 28 0 37 6 4 17 2 25-5 7-6 16-8 19-5 5 5-35 180-50 217-4 10-4 26-1 36 6 15 9 15 28-2 11-10 23-35 26-56 15-90 30-148 38-148 11 0 11-1-6 99-8 46-12 88-8 92 21 21 48-42 80-184 4-16 11-29 16-29 11 0 5 53-16 137-8 31-12 59-10 61 2 2 13-1 24-7 15-8 26-35 40-101 10-50 22-93 27-96 12-7 11-1-6 88-14 77-8 100 20 76 13-11 27-56 46-146 4-20 12-38 19-40 9-3 11 4 4 26-5 17-12 60-16 96-7 63-7 66 13 55 19-10 66-139 66-183 0-10 4-18 9-18 10 0 5 67-10 126-13 50-12 63 4 63 15 0 41-80 56-172 5-29 15-54 24-57 11-4 12 0 6 15-5 11-12 53-16 93-4 41-11 82-15 92-10 22 4 24 28 5 18-14 50-126 50-176 0-29 15-50 24-34 3 5-1 45-8 90-7 44-9 81-5 81 21 0 40-37 62-122 27-104 50-144 38-67-4 26-10 71-13 100l-6 52 22-21c12-11 31-58 44-105 24-92 49-134 37-63-19 116-20 145-6 140 20-6 27-24 46-109 16-72 16-76-9-157-31-98-31-99-12-99 16 0 28 22 28 54 0 12 8 23 21 27 17 4 20 11 15 34-5 23-1 33 17 45 23 17 20 39-6 39-9 0-19 21-26 53-16 77-14 94 10 94 15 0 23-11 32-45 10-39 22-81 39-133 12-40 14 16 3 78-13 66-9 94 12 87 6-2 23-41 40-87 44-128 55-150 60-128 3 10-1 34-8 53-6 18-18 58-25 88-13 52-13 56 6 56 23-1 45-44 62-126 7-29 16-55 21-59 14-8 12 39-2 96-6 26-9 50-6 53 3 3 22-1 41-10 64-28 171-57 181-48 13 12-1 41-21 41-25 0-205 61-232 79-13 8-39 18-58 21-19 3-61 13-94 21-33 9-72 15-88 15-37 0-169 61-204 93-38 36-73 51-121 53-64 3-95 10-228 55-76 26-154 44-203 48-65 5-86 12-115 35-26 21-62 33-133 47-141 26-207 44-254 69-28 14-62 22-99 22-31 0-93 11-137 26-45 14-117 33-162 43-51 11-81 22-81 31 0 7 10 35 23 61 29 61 22 61 292 0 152-35 203-43 196-32-1 2 7 14 18 27 18 19 19 24 6 32-13 8-12 12 5 25 17 12 19 19 10 34-15 25-60 30-77 10-8-9-14-32-15-51 0-33-2-35-40-34-22 0-42 3-45 6-14 14 15 60 40 66 39 10 34 35-7 41-38 6-60-13-60-51 0-31-25-50-53-41-17 5-21 13-16 30 3 12 6 31 6 41 0 10 7 18 15 18 23 0 32 23 13 33-10 6-17 17-17 25 0 9-7 16-14 16-8-1-19-26-28-64-7-34-17-63-20-63-54-7-67-8-56-3 37 16 34 89-5 112-24 14-16 31 12 24 29-8 36 11 13 35-10 11-9 12 8 3 29-14 163-27 163-16 0 5-57 21-127 35-70 13-129 31-132 38-3 7 0 22 6 34 6 11 14 58 16 103 3 45 14 107 26 138 23 62 29 127 15 172-5 15-6 77-3 136l5 108 31-1c18-1 77-7 132-14 54-8 132-17 173-22 97-10 335-38 445-51 50-6 95-18 106-27 18-17 84-34 84-22 0 3-12 11-28 17-50 19-21 18 102-2 128-22 253-22 451 1 55 6 189 13 298 15 173 4 205 2 257-15 66-22 107-26 107-10 0 6-2 11-3 11-2 0-37 11-80 26-42 14-91 26-108 26-16 0-30 4-30 10 0 5 21 37 46 70 26 34 43 63 38 65-10 4-75-64-110-115-21-29-54-48-65-37-8 8 17 50 61 100 22 26 40 54 40 63 0 16-145-131-146-148 0-4-5-8-11-8-16 0 0 27 52 90 23 28 43 55 43 59 0 21-23 3-85-70-60-69-94-95-94-71 0 4 20 29 44 55 46 50 82 103 82 121 0 6-42-34-93-88-50-55-98-97-104-95-7 2 17 40 56 86 38 45 67 87 65 93-2 6-45-32-95-85-51-52-100-95-108-95-12 0-13 5-6 18 9 17 57 81 85 115 12 14 15 35 5 35-9 0-22-15-99-109-37-46-69-78-71-71-5 13 19 52 81 135 35 46 25 64-10 21-11-13-40-47-64-76-24-29-52-63-63-76-18-21-51-33-51-18 0 3 10 21 23 40 20 29 39 53 92 119 13 17 14 38 1 33-10-3-41-40-124-148-22-27-48-49-58-49-16 0-17 3-8 20 6 11 15 23 21 26 11 7 105 130 105 137 0 19-34-1-59-34-56-75-125-149-138-149-20-1-17 5 40 89 90 133 56 128-44-8-29-39-60-71-68-71-22 0-19 6 43 89 32 42 58 82 58 88 0 22-19 12-38-18-27-42-138-159-151-159-20 0-10 23 43 101 30 43 51 81 48 85-8 8-5 11-90-89-36-42-72-76-81-76-15 0-15 4 2 29 10 16 37 50 59 77 39 47 50 73 30 73-5-1-42-38-81-85-63-73-98-101-98-76 0 5 26 40 58 79 31 38 53 73 48 76-5 3-43-31-85-75-42-44-74-75-72-69 2 6 23 32 47 57 46 49 72 91 63 100-3 3-44-33-92-80-77-77-103-97-103-79 0 4 29 40 64 80 94 106 65 114-33 8-43-46-82-83-86-83-20 0-5 23 48 77 68 68 89 101 65 101-9 0-26-13-38-30-30-40-146-142-154-134-7 7 16 43 53 83 15 16 33 38 39 50 21 40-10 19-78-53-38-40-72-73-76-73-6 0 49 66 92 111 12 13 20 29 17 37-3 9-32-12-82-60-117-112-164-120-57-10 63 65 84 118 23 61-93-88-139-129-147-129-18 0-4 23 37 62 49 46 89 106 71 106-6 0-45-33-86-74-51-49-79-70-86-63-10 10-4 18 80 107 10 11 19 25 18 32 0 12-20-3-86-64-50-46-52-28-3 20 20 20 37 43 37 51 0 10-18-1-47-29l-46-46-29 20c-86 61-131 69-207 36-29-12-50-16-57-10-6 6-31-11-66-48-32-31-65-58-74-58-9 0 10 26 45 63 34 35 70 63 80 63 10 0 36 12 57 26 42 29 61 33 78 15 23-22 25 10 4 59-24 55-40 57-65 6-21-41-56-68-78-60-20 8-19 37 1 45 8 3 16 12 16 20 0 36-46 7-148-93-129-126-147-141-146-124 0 6 33 46 73 89 40 42 73 85 74 95 0 10-40-24-96-83-69-72-103-100-121-100-32 0-32 10 4 48 95 99 129 140 121 145-5 3-50-35-100-83-81-79-123-107-123-80 0 5 36 47 80 95 44 47 77 89 73 93-4 4-46-32-94-79-57-58-94-87-110-86-21 0-14 11 50 84 66 75 90 113 65 103-4-2-38-37-74-77-37-41-73-78-81-82-26-15-15 11 20 48 45 49 81 95 81 105 0 19-31 5-48-21-40-61-113-129-139-129-24 0-22 4 26 60 75 88 99 121 93 127-4 4-50-40-103-96-87-91-133-123-133-91 0 6 26 38 58 70 68 69 115 128 107 135-6 6-132-121-182-181-17-22-37-34-53-34l-26 0 21 28c11 16 57 69 100 117 44 49 79 94 79 100 0 15-180-165-216-217-24-34-56-53-56-32 0 3 40 53 90 110 50 58 88 107 85 110-6 6-121-112-180-182-18-22-38-34-55-34-33 0-29 7 73 120 44 50 81 96 81 103 0 15-113-95-171-168-41-52-72-68-86-46-3 5-2 11 4 13 16 7 169 188 169 201 0 7-48-37-105-97-136-142-162-130-41 19 28 35 52 69 52 76 0 19-47-28-113-114-32-42-65-76-73-76-8 0-14 3-14 6 0 4 31 44 69 89 37 45 64 85 59 88-8 5-82-71-146-150-11-14-28-23-39-21-16 3-4 20 57 85 42 45 73 85 69 89-4 4-47-33-95-81-49-48-92-85-96-81-8 8 10 31 95 120 89 94 42 75-55-21-82-82-117-107-117-84 0 5 35 49 77 98 43 49 74 90 69 92-5 2-52-41-104-94-52-54-95-95-95-91 0 4 31 43 68 88 38 44 68 85 68 92 0 7-40-29-88-80-82-85-111-106-111-81 0 9 71 93 123 145 14 15 18 34 7 34-3 0-43-38-89-84-45-47-89-84-98-84-9 0-16 2-16 5 0 3 30 43 68 88 75 91 93 140 24 64-23-26-66-72-93-102-43-47-83-71-83-50 0 4 31 47 69 96 38 49 66 92 63 95-10 10-45-27-115-116-35-46-66-77-68-71-4 12 57 97 108 151 16 17 26 33 22 36-8 9-90-71-144-141-24-31-48-55-53-55-13 0 16 39 90 125 56 64 69 86 51 84-4-1-50-48-101-105-80-89-122-123-122-99 0 6 39 49 134 149 24 25 45 52 45 58 0 13-22-5-145-126-83-80-118-103-118-76 0 6 38 51 84 100 74 79 96 110 79 110-3 0-55-51-115-113-61-62-110-108-111-101 0 6 40 57 90 114 49 56 87 105 83 109-4 4-59-48-123-114-70-73-118-115-121-107-5 14 12 35 117 146 29 30 49 59 45 63-5 4-55-41-112-101-57-59-109-106-116-104-13 4 25 52 120 153 34 36 59 69 55 73-5 5-57-43-116-106-85-89-114-113-132-110-21 3-13 16 72 105 53 56 96 104 96 108 0 19-29-4-107-84-93-97-142-137-153-126-4 4 40 54 98 111 57 58 99 105 92 105-6 0-33-20-59-45-97-92-180-165-188-165-20 0-4 27 50 88 66 71 94 110 87 117-3 3-47-40-98-95-50-55-98-99-106-99-21 0-19 8 10 40 14 15 52 57 84 93 32 36 59 71 59 77 0 18-32-10-99-84-33-38-70-77-82-87-48-43-55-5-7 40 56 53 139 152 132 158-3 4-51-40-105-97-111-115-152-130-49-18 87 96 130 151 117 151-6 0-47-40-92-89-45-49-87-92-95-94-38-15-14 22 80 126 58 63 99 116 93 118-6 2-52-37-103-88-165-164-116-73 80 150 27 31 46 59 42 62-9 9-46-27-136-131-51-60-76-82-79-71-2 10 17 42 43 72 25 30 59 74 75 97 17 23 45 57 62 75 17 18 29 39 26 46-4 12-86-77-157-169-15-20-31-33-35-29-15 15 11 57 78 129 94 100 143 163 125 163-7 0-33-23-56-50-23-27-64-70-92-96-41-38-49-42-49-25 0 27 42 80 154 194 49 50 87 97 85 103-2 7-52-35-111-92-59-57-109-102-112-100-16 16 37 83 185 235 57 59 76 89 61 99-6 3-10 2-10-4 0-5-50-55-111-112-119-110-148-112-52-2 133 151 163 189 158 194-3 3-45-33-92-82-47-48-88-82-90-75-6 19 16 48 109 148 46 48 84 92 86 97 9 23-20 3-92-65-43-40-82-73-86-73-5 0-9 10-9 23 0 14 27 50 68 93 64 66 81 94 60 94-5 0-18-10-29-22zm2358-1214c0-18-29-55-42-55-4 0-29-22-55-48-46-46-82-61-81-34 0 13 117 137 146 155 19 11 32 4 32-18zm255-62c35-17 115-97 108-109-5-7-206 8-215 16-7 8 19 24 35 21 6-1 20-6 30-10 25-11 35 0 19 19-7 9-10 25-7 37 8 24-10 39-30 23-10-9-17-8-27 4-11 14-8 16 20 16 19 0 49-7 67-17zm-105-14c3-12 0-33-7-48-10-23-18-26-72-26-33 0-60 3-60 6 0 14 107 89 127 89 3 0 9-10 12-21zm-115-852c23 0 23 0-1-10-31-12-39-34-22-64 7-14 12-29 11-34-2-6 3-14 11-19 10-6 9-8-5-8-10 0-18 7-18 15 0 9-8 16-16 16-9 0-16-9-16-22 0-29-25-20-30 10-2 15 3 23 13 23 23 0 33 22 14 33-14 7-15 15-6 41 8 21 17 30 27 26 8-3 25-6 38-7zm-3003-147c19-75 21-125 4-125-11 0-19 20-27 66-7 37-12 75-12 85 0 31 25 12 35-26zm2611-135c13-9 13-12-5-26-19-13-22-13-28 3-15 35-1 44 33 23zm-2634-150c22-17 34-57 20-66-19-11-54 6-64 34-16 42 7 59 44 32zM7775 5603c-8-20-15-45-15-53 0-21 19-21 27 0 4 8 16 21 28 27 20 11 21 9 15-26-4-25-1-41 9-49 19-17 39-2 32 24-3 12-1 30 5 40 13 25 2 48-27 56-14 3-32 9-41 12-12 5-21-4-33-31zM7961 5552c-24-72-15-105 14-50 14 27 20 31 27 20 5-8 9-24 9-36 0-12 7-31 15-42 13-18 17-14 48 52 33 71 37 116 7 91-8-7-18-25-22-41-7-27-8-27-25 19-26 70-47 67-73-13zM7286 5600c-17-5-62-87-62-114 0-25 21-18 32 11 5 14 17 26 25 26 10 0 17 9 17 21 0 14 7 21 21 21 24 0 28 26 4 36-9 3-18 5-18 5-1-1-10-3-19-6zM7346 5546c-3-5-12-29-21-55-20-56-5-80 19-32 9 18 24 33 33 33 18 0 18 2 3 36-13 27-25 33-34 18zM8123 5501c-18-14-27-32-27-51 0-34 32-67 59-62 26 5 31 37 7 44-13 3-10 5 9 6 36 1 49 36 24 65-24 26-38 25-72-2zM8355 5468c-27-48-46-144-28-144 6 0 16 11 22 25 6 14 20 27 30 30 13 3 20 20 24 60 11 87-8 98-48 29zM7530 5450c-24-56-29-95-12-95 6 0 17 13 23 29 7 16 14 30 15 32 1 2 13-2 25-9 22-11 23-22 5-65-5-13-2-18 8-18 16 0 83 125 75 139-9 14-35 8-35-9 0-12-9-15-29-13-25 3-29 8-26 32 5 48-25 34-49-23zM8256 5474c-48-74-47-129 2-129 33 0 43 22 43 93-1 66-17 79-45 36zM7724 5430c-5-7-6-16-2-20 9-9 19 5 14 20-3 11-6 11-12 0zM7775 5362c-29-68-33-91-12-91 18 0 62 127 48 141-5 6-20-14-36-50zM7681 5366c-17-33-21-74-7-74 13 0 56 83 49 94-12 19-25 12-42-20zM8415 5382c-4-8-1-24 5-36 10-18 8-20-10-15-25 7-28-20-4-43 36-36 89-4 66 39-8 15-8 22 2 28 7 5 10 16 7 25-8 21-59 22-66 2zM7864 5363c0-7-7-27-16-45-34-64-37-78-16-78 12 0 24 11 30 28 6 16 19 47 28 69 16 38 16 39-4 39-12 0-22-6-22-13zM7888 5227c5-16 29-19 30-3 0 6-8 12-17 14-11 2-16-2-13-11z" transform="matrix(.02286 0 0 -.02286 -.96 159.059)"/>
	<path d="M2535 5071c-16-18-17-27-8-53 7-17 8-30 2-30-5 0-14 12-20 26-11 30-31 26-31-5 0-28 28-53 58-53 35 0 100 59 100 90 0 46-67 62-101 25zm69-37c0-11-8-15-23-13-33 5-37 30-4 30 18 0 27-6 27-17zM2132 5072c-9-5-13-13-9-17 9-9 51 5 51 17 0 13-22 13-42 0zM2039 5009c-16-22-20-33-11-38 14-9 43 25 34 39-3 5 2 9 11 9 9 0 17 5 17 11 0 20-27 9-51-21zM1712 5009c-31-8-48-34-39-58 6-16 11-13 39 16 36 39 37 51 0 42zM1785 5009c0-6 7-11 16-11 8 0 16 5 16 11 0 5-8 10-16 10-9 0-16-5-16-10zM1848 5004c0-9 7-16 17-16 9 0 14 5 12 12-6 19-29 23-29 4zM2630 4980c-31-32-37-45-34-75 5-67 73-72 112-8 27 43 28 82 3 105-28 25-38 22-81-22zm68-27c0-32-26-63-48-58-27 5-31 37-9 62 26 28 58 26 57-4zM1904 4979c-5-20-13-23-62-23-42 0-57-4-57-15 0-8 12-17 26-21 34-8 34-24 1-39-14-7-28-18-31-26-10-25 13-27 45-3 24 18 34 20 52 11 11-7 24-12 27-12 12 0 5 29-10 42-21 18-19 28 7 35 14 4 20 11 16 21-3 9 0 18 7 21 9 3 9 8-1 19-11 12-15 10-20-10zM1960 4970c-13-13-7-24 14-24 12 0 21 7 21 15 0 16-22 22-35 9zM2032 4935c-4-6 5-15 20-21 34-13 34-24 1-46-15-10-26-24-26-33 0-19 1-19 47 2 29 15 42 16 57 6 27-17 34-5 16 30-14 27-14 31 1 31 10 0 15 7 13 18-3 14-16 19-63 21-33 2-62-1-66-8zM1656 4897c-12-12-9-22 8-29 11-4 16 1 16 15 0 20-11 27-24 14zM2884 4834c-13-49-15-73-8-81 16-15 21-7 38 58 19 69 19 93 2 93-8 0-21-30-32-70zM2762 4878c0-9 12-24 26-34 25-16 28-16 45 0 20 21 10 34-37 43-27 6-34 4-34-9zM2967 4862c-9-17-16-50-16-73 0-34 5-46 25-59 15-10 35-14 46-11 24 8 55 65 55 102 0 70-80 100-110 41zm74-27c9-23-5-68-23-75-26-10-39 12-32 53 6 29 13 38 28 38 12 0 24-7 27-16zM3135 4862c-11-11-21-41-24-66-4-36-1-49 17-64 28-26 72-16 85 20 14 37 13 103-2 118-19 19-55 15-76-8zm62-43c9-27-13-65-35-60-21 4-28 41-12 70 13 24 38 19 47-10zM3297 4856c-20-23-23-131-4-131 8 0 15 11 15 26 0 14 9 43 21 63 11 21 21 42 21 48 0 16-38 12-53-6zM3584 4839c-67-18-77-104-17-149 30-23 82-14 101 16 14 22 1 38-16 21-7-7-26-12-42-12-23 0-31 6-36 27-10 39 8 62 47 62 40 1 67 22 40 31-38 12-45 12-77 4zM1655 4823c-9-23 3-33 15-14 12 20 13 32 1 32-6 0-13-8-16-18zM3384 4827c-12-15-5-112 8-112 5 0 13 12 16 28 4 16 14 37 23 47 14 16 14 20-1 34-19 20-33 21-46 3zM3730 4823c-19-8-18-150 2-150 10 0 15 19 19 70 5 74 1 88-21 80zM3919 4812c-30-25-46-139-19-139 11 0 17 9 17 26 0 15 7 29 15 33 19 7 21 31 3 38-9 4-7 10 8 21 15 12 18 20 9 28-8 9-17 7-33-7zM1791 4806c-19-15-20-79-1-73 6 2 10 11 9 19-2 22 13 18 31-9l16-23 24 23c22 22 23 24 6 50-20 29-55 35-85 13zM4034 4806c-5-7-14-43-18-80-6-53-4-66 6-62 8 3 18 18 22 35 5 16 14 33 21 37 10 7 10 12 0 24-11 13-10 18 8 28 12 6 22 16 22 21 0 15-48 13-61-3zM2048 4801c-22-8-32-24-32-52 0-26 25-33 36-11 5 11 7 11 12 0 10-21 44-15 52 9 4 14 0 29-11 42-19 20-30 23-57 12zM3808 4770c-11-21-17-86-8-92 14-8 33 28 33 61 0 27-16 46-25 31zM4144 4755c-22-12-23-44-2-61 9-8 16-18 16-24 0-6-6-5-15 2-10 9-17 9-22 1-9-16 14-42 36-42 41 0 58 52 25 73-14 8-15 13-6 17 18 7 17 32 0 39-8 2-22 0-32-5zM6259 4718c-17-21-22-43-22-89 0-34 5-61 11-61 5 0 10 5 10 11 0 6 8 27 17 47 9 19 14 41 12 49-3 7 2 18 11 25 16 12 11 46-7 46-6 0-20-12-32-28zM5859 4707c-34-43-10-107 50-130 27-10 72 6 81 30 7 20-16 37-31 23-17-17-57-11-68 11-18 33 3 61 49 65 61 5 57 30-6 30-45 0-56-5-75-29zM6044 4673c-8-68-4-84 20-84 11 0 16 14 17 52 1 29 2 61 3 71 0 10-7 19-16 21-14 3-19-9-24-60zM6380 4722c-32-23-50-154-22-154 8 0 16 5 16 13 0 7 7 27 16 44 9 17 13 36 11 44-3 7 2 18 11 23 10 6 15 16 11 26-8 21-18 22-43 4zM1777 4691c3-8 28-14 70-16 51-3 65 0 62 10-3 9-28 15-71 17-50 2-65 0-61-11zM2023 4676c-15-15 9-24 67-24 49 0 63 3 63 15 0 12-14 16-62 16-33 0-64-3-68-7zM6143 4668c-18-21-10-95 10-95 11 0 17 13 19 46 4 51-9 73-29 49zM6481 4662c-26-11-29-23-12-54 7-14 8-20 1-15-17 10-26-14-12-32 8-8 26-14 41-12 25 3 27 6 26 60 0 60-6 68-44 53zM1717 4641c-10-16-1-24 31-24 21 0 27-5 27-26 0-15 7-36 17-46 16-19 15-19-21-19-21 0-38-5-38-11 0-6 19-10 42-10 35 0 45 4 49 21 3 11 11 21 19 21 16 0 26 23 26 63 0 28-3 31-34 31-19 0-51 3-72 7-24 4-41 1-46-7zm121-58c0-8-10-15-21-15-12 0-21 7-21 15 0 9 9 16 21 16 11 0 21-7 21-16zM1654 4631c-8-13 2-32 16-32 6 0 10 9 10 21 0 22-15 28-26 11zM1974 4598c0-6 9-14 21-17 12-3 21-14 21-24 0-35 12-52 36-52 32 0 56 29 56 70l1 35-67 0c-42 0-68-5-68-12zm105-47c0-18-27-20-37-3-8 12 15 32 29 23 4-2 8-12 8-20zM5295 4584c-23-19-29-34-29-67 0-81 74-116 110-52 14 26 14 32-2 60-12 21-14 33-6 41 8 8 7 16-2 27-19 23-37 21-71-9zm53-76c9-9-14-36-26-29-14 9-11 36 5 36 8 0 17-3 21-7zM5436 4583c-53-50-32-152 31-152 47 0 83 105 52 152-22 34-46 34-83 0zm61-37c13-21-6-73-27-73-16 0-20 7-20 35 0 19 3 38 7 42 10 11 32 8 40-4zM5601 4584c-17-12-20-28-20-87 0-56 3-71 16-71 10 0 16 12 19 37 2 20 10 40 19 45 9 5 12 16 9 29-4 11-2 20 4 20 18 0 13 29-5 36-21 8-18 8-42-9zM57 4565c-3-8-4-50-2-93 2-60 6-78 18-78 10 0 18 13 21 32 8 44 34 44 68 0 27-36 59-49 59-25 0 6-15 28-32 47-35 40-39 58-16 78 16 13 22 52 9 52-5 0-26-17-48-39-39-39-39-39-39-12 0 33-28 62-38 38zM1680 4565c0-7 4-20 9-27 12-19 25 1 16 23-7 20-25 23-25 4zM294 4551c0-9 5-13 11-10 5 4 10 11 10 17 0 5-5 10-10 10-6 0-11-8-11-17zM5676 4551c-3-9-6-40-6-68 0-39 4-52 16-52 9 0 16 9 16 21 0 12 7 32 15 46 14 21 14 26-1 46-19 28-31 30-40 7zM5993 4514c-61-52-63-70-9-79 30-5 43-13 48-29 6-22 6-22 18-1 7 11 16 23 21 27 12 8-4 117-18 121-6 2-33-15-60-39zM6124 4540c-31-21-39-69-19-107 20-38 49-50 79-31 28 17 35 40 26 86-10 54-50 78-86 52zm58-62c2-11-4-30-12-42-15-19-17-20-33-3-26 25-13 74 19 70 14-2 24-12 26-25zM584 4519c-13-18-17-35-12-55 4-15 6-38 6-51 0-15 7-24 22-26 33-5 36-27 4-31-15-2-27-8-27-14 0-16 52-19 69-5 21 17 20 59-2 67-15 6-15 9 5 31 28 29 28 41 5 81-22 37-44 38-70 3zm57-51c0-9-10-16-21-16-12 0-21 7-21 16 0 9 9 16 21 16 11 0 21-7 21-16zM6268 4530c-8-9-16-45-19-80-3-51-1-63 10-59 8 3 16 16 18 30 4 33 25 76 42 87 11 7 11 12 1 24-16 19-35 18-52-2zM1854 4526c-7-11 20-34 29-25 4 4 7 10 7 15 0 11-30 20-36 10zM5006 4530c-4-4-8-15-8-25 0-28 22-95 31-95 9 0 64 75 64 87 0 14-33 7-39-8-9-25-21-19-31 16-5 18-13 29-17 25zM423 4517l-45-3 0-51c0-66 14-75 36-21 20 51 55 58 64 13 11-48 14-55 26-55 12 0 14 73 2 89-17 23-41 31-83 28zM284 4474c0-47 8-74 22-74 5 0 9 25 9 57 0 45-4 58-16 58-11 0-15-12-15-41zM6347 4490c-9-34-2-106 10-106 5 0 13 13 18 30 4 16 16 36 27 44 18 13 18 15-4 35-31 28-44 28-51-3zM6821 4499c-36-36-33-143 4-163 45-24 84 26 84 106 0 59-52 93-88 57zm59-60c5-34-14-72-33-69-17 4-28 51-18 78 9 24 47 18 51-9zM6741 4497c-1-4-3-38-5-74-3-35-1-67 3-70 20-12 32 15 35 78 2 57-1 69-15 72-10 2-18-1-18-6zM6974 4480c-29-31-44-154-19-154 12 0 17 10 17 37 0 38 17 78 39 92 8 5 14 15 14 23 0 24-29 26-51 2zM5087 4455c-18-43-11-69 21-75 14-3 18 1 14 16-5 20 13 46 32 46 21 0 24 22 5 37-33 25-55 18-72-24zM1887 4477c-9-9 4-36 15-30 5 4 9 13 9 21 0 16-13 20-24 9zM7047 4459c-12-14-4-133 9-133 10 0 21 27 21 50 0 9 7 24 16 34 13 15 13 20-1 40-19 26-29 29-45 9zM2318 4442c-3-12-2-21 3-21 15 0 23 22 13 33-7 6-13 2-16-12zM2159 4443c-5-7-6-16-2-20 9-9 19 5 14 20-3 11-6 11-12 0zM1880 4410c0-6 7-28 15-49 13-30 19-36 29-26 9 9 9 15 0 25-7 7-13 23-13 36 0 15-6 25-16 25-8 0-15-5-15-11zM2108 4398c-10-5-18-15-18-20 0-16 31-11 38 6 8 22 2 27-20 14zM2289 4347c0-20 3-22 13-13 9 10 9 16 0 26-10 9-13 7-13-13zM1959 4348c-4-6-2-13 4-17 13-7 32 2 32 17 0 12-28 12-36 0zM2027 4342c0-9 6-16 14-16 8 0 20 7 28 16 11 13 8 16-15 16-17 0-27-6-27-16zM605 4263c-3-9-7-43-9-77-5-61 8-88 25-56 14 24 38 22 46-5 5-15 10-18 18-10 8 8 8 18 0 36-7 16-7 30 0 43 15 27 3 31-28 11-27-18-27-18-27 12 0 38-17 69-25 46zM42 4184c0-63 3-78 16-78 8 0 16 9 16 20 0 38 12 53 43 53 26 0 30-4 30-31 0-35 18-52 28-27 13 34 9 135-5 140-8 2-16-6-20-18-8-30-61-31-69-1-3 12-13 21-22 21-14 0-17-14-17-79zM2073 4237c-14-22-15-30-3-54 31-65 111-74 135-16 21 53-16 96-83 96-22 0-37-8-49-26zm90-5c6 0 15-10 21-21 21-41-43-71-78-36-33 33-10 73 34 61 8-3 18-4 23-4zM2258 4241c0-12 4-18 10-15 6 4 11 14 11 22 0 8-5 15-11 15-6 0-10-10-10-22zM265 4225c-23-10-14-25 16-25l29-1-29-16c-31-16-37-44-16-65 17-17 87-16 101 2 14 16 5 75-13 89-16 13-71 22-88 16zm71-72c0-9-9-16-21-16-21 0-27 11-14 25 13 12 35 7 35-9zM433 4225c-19-8-5-25 22-26l23 0-22-9c-29-12-39-38-25-65 9-16 20-20 55-17 42 3 44 5 48 38 6 64-42 102-101 79zm68-75c3-8-5-13-22-13-27 0-35 10-20 25 11 11 37 3 42-12zM748 4192c-16-46 9-86 54-86 38 0 49 13 49 57 0 46-11 58-53 58-34 0-41-4-50-29zm76-29c0-22-32-34-48-18-6 5-7 18-3 28 9 25 51 17 51-10zM898 4203c-9-25-6-75 5-82 6-4 16 8 22 26 15 42 57 42 57 1 0-17 6-27 16-27 20 0 24 36 7 69-11 21-22 26-57 27-29 0-46-4-50-14zM4610 4194c0-9 4-13 10-10 6 4 11 11 11 17 0 5-5 10-11 10-6 0-10-8-10-17zM2348 4193c-3-4-6-19-6-33 0-26 7-27 55-7 11 4 18 3 18-4 0-7-5-12-10-12-6 0-11-5-11-10 0-22 32-10 44 16 10 21 9 29-5 43-15 16-19 16-45-1-15-10-25-14-21-8 7 13-9 26-19 16zM2237 4160c-13-26-14-44-2-44 11 0 26 52 19 60-3 3-10-5-17-16zM4963 4172c-12-12-8-42 8-56 13-10 22-8 48 10 31 22 44 17 19-8-9-9-7-14 7-19 23-9 50 23 45 54-4 28-55 34-82 9-19-16-20-16-20 0 0 17-13 22-25 10zM2028 4130c-18-34-26-98-13-98 7 0 14 7 17 16 17 54 15 54 59 8 23-25 46-45 51-45 24 0 7 30-46 82-52 51-58 55-68 37zM4606 4141c-10-11-9-35 2-35 5 0 12 9 15 21 5 20-3 27-17 14zM2279 4108c0-3 4-21 10-39 5-17 12-45 16-61 5-26 10-29 39-27 27 3 38 12 52 40 15 29 16 39 6 49-15 15-123 48-123 38zm94-75c0-24-24-35-41-19-20 20-13 39 15 39 19 0 26-6 26-20zM2965 4108c-6-4-15-37-19-73-6-58-5-66 14-76 56-30 77-6 71 80-4 62-32 91-66 69zm42-111c-8-22-24-23-32-1-7 19 18 40 31 27 4-5 5-16 1-26zM3245 4103c0-8 6-23 15-35 8-12 16-40 18-63 2-29 9-42 22-45 14-2 18 4 18 34 0 24 9 47 26 68 45 53 32 73-17 27l-28-28-18 28c-19 29-36 36-36 14zM3473 4110c-5-5-8-17-8-27 0-13-8-19-24-19-32 0-49-19-49-53 0-36 18-53 57-52 48 0 56 10 56 70 0 53-17 96-32 81zm-18-99c0-12-7-21-16-21-18 0-30 17-21 32 11 18 37 11 37-11zM4700 4107c-5-7-6-16-2-20 9-9 19 5 14 20-3 11-6 11-12 0zM2881 4091c-10-26 1-115 14-119 10-4 14 14 14 64 0 65-14 91-28 55zM3083 4086c-25-28-22-88 7-115 33-31 46-29 65 8 22 42 20 66-6 99-25 32-42 35-66 8zm54-50c5-42-22-68-39-36-6 11-8 33-5 48 10 38 40 30 44-12zM4908 4094c-4-7 0-18 10-25 9-7 17-27 17-45 0-34 12-48 50-60 32-9 76 35 76 77 0 29-4 32-55 43-30 7-63 15-73 18-9 2-21-1-25-8zm109-50c12-7 12-14 2-32-13-26-29-25-46 3-9 13-8 20 4 28 19 12 23 12 40 1zM2205 4052c0-12 5-18 11-15 5 4 10 14 10 22 0 8-5 15-10 15-6 0-11-10-11-22zM3566 4057c-12-13-7-47 9-53 24-9 19-23-5-17-24 6-28-10-6-28 22-18 63-9 67 13 2 11-4 28-13 39-13 14-14 20-5 23 7 3 10 10 5 17-8 13-40 17-52 6zM4683 4013c0-8-16-12-43-12-41 0-72-18-72-42 0-7 4-10 9-6 5 3 12-2 15-10 4-9 20-16 37-16 25 0 36 8 54 38 18 27 21 40 12 49-9 9-12 8-12-1zM4722 3994c-13-13-8-43 8-56 22-19 60 5 56 34-3 23-48 38-64 22zM47 3966c-3-13-5-52-3-86 3-62 4-63 41-71 22-6 48-5 65 2 23 8 28 17 28 45 0 44-24 112-43 124-8 6-30 10-48 10-27 0-35-5-40-24zm79-23c0-9-9-16-21-16-21 0-27 11-14 25 13 12 35 7 35-9zm19-76c-4-23-36-30-56-13-21 18-9 31 28 31 24 0 31-4 28-18zM1781 3981c-5-7-6-16-2-20 9-9 19 5 14 20-3 11-6 11-12 0zM1806 3954c-32-34-30-55 4-42 12 5 17 1 17-14 0-25 30-86 42-86 5 0 12 4 16 10 3 6 1 11-5 11-6 0-11 4-11 10 0 6 11 8 26 4 33-8 37 21 7 40-11 7-18 19-15 27 7 17-15 62-34 69-7 3-28-10-47-29zm61-26c3-8-1-12-9-10-8 3-16 11-19 19-2 8 2 12 10 9 7-2 16-11 18-18zM2237 3979c0-6 7-22 16-36 16-25 16-27-10-38-37-17-44-41-12-41 14 0 28 5 32 11 3 5 30 10 59 10 59 0 67 20 13 33-17 5-42 23-55 40-23 32-43 42-43 21zM2181 3966c-12-30-10-45 4-32 6 7 10 21 8 31-4 19-5 19-12 1zM4883 3970c0-5 9-21 21-35 26-35 26-35-11-50-17-7-31-20-31-28 0-17 14-18 43-2 12 6 44 14 70 18 55 8 69 28 25 38-16 3-45 20-64 37-34 31-53 40-53 22zM1738 3945c-4-10-5-22-2-25 11-11 20 4 15 25-5 18-5 18-13 0zM242 3922c0-11 11-16 34-17l34-1-34-10c-26-7-34-16-34-33 0-14 5-30 12-37 18-17 87-16 102 2 17 21 4 88-21 101-30 17-93 13-93-5zm94-63c0-11-10-16-31-16-31 0-40 9-25 25 14 13 56 7 56-9z" transform="matrix(.02286 0 0 -.02286 -.96 159.059)"/>
	<path d="M405 3929c-4-7 3-27 15-45 34-47 22-74-47-109-32-16-57-31-56-32 11-11 103 22 129 45 35 32 82 93 92 120 12 33-7 31-36-4l-28-35-31 36c-20 25-32 32-38 24zM4706 3893c-20-20-15-58 8-66 30-9 47 3 30 23-10 13-9 18 5 26 10 6 16 15 12 20-8 14-40 12-55-3zM4565 3888c-33-9-20-33 25-45 47-13 66-5 60 28-4 20-46 28-85 17zM2153 3856c0-22 2-25 10-13 13 21 13 42 0 42-6 0-10-13-10-29zM2069 3854c0-5 4-13 10-16 6-4 11 1 11 10 0 9-5 16-11 16-6 0-10-4-10-10zM4657 3819c-6-13-2-24 12-35 28-22 68-37 84-31 28 11 13 25-33 32-37 5-47 11-50 30-4 20-5 21-13 4zM4562 3793c-5-12-9-14-12-5-7 18-24 16-24-3 0-8 4-15 10-15 6 0 11-7 11-15 0-8 12-18 27-22 53-13 79 44 30 66-34 16-33 16-42-6zM4852 3769c-41-45-3-104 68-104 48 0 78 19 78 51 0 27-45 64-86 71-30 5-41 1-60-18zm102-44c-6-42-82-33-82 9 0 10 13 15 43 15 38 0 42-3 39-24zM5794 3738c-10-7-15-18-11-32 4-17 8-18 20-9 26 22 24 4-4-35-22-32-25-42-14-55 14-17 40-20 67-10 19 7 11 36-10 36-21 0-18 15 7 37 48 43 2 101-55 68zM6002 3733c-20-20-22-39-6-55 9-8 8-17-2-32-16-27 3-55 37-55 52 0 63 46 21 88-27 27-27 28-5 28 17 0 23 5 20 18-5 24-44 29-65 8zM7200 3732c-40-22-39-61 3-78 32-13 39-25 22-36-5-4-17 1-26 10-19 19-38 20-38 1 0-20 35-48 59-48 51 0 62 59 17 93-27 20-28 21-6 22 29 0 41 17 24 37-15 19-18 19-55-1zM1344 3728c0-6-19-23-42-37-23-15-42-34-42-42 0-19 5-20 32-5 19 10 21 7 21-34 1-44 1-45 17-22 11 16 27 24 47 24 23 0 33 7 40 25 5 14 16 27 23 30 10 3 10 6 1 12-8 4-13 2-13-5 0-7-11 3-24 23-23 35-60 54-60 31zm42-52c7-15 7-23-1-28-13-8-53 26-45 39 9 16 34 10 46-11zM6443 3731c-10-11-8-127 3-134 14-9 22 21 22 78 0 49-10 71-25 56zM6507 3731c-9-9-10-91-1-113 14-36 25-13 25 52 0 63-7 79-24 61zM4673 3713c-21-26-9-63 23-74 44-15 58 5 33 48-24 40-38 47-56 26zM7308 3665c0-35 5-63 11-63 5 0 10 9 10 20 0 11 10 28 23 36l23 16-29 27c-16 15-31 27-33 27-3 0-5-29-5-63zM1494 3705c-9-9-9-19 2-41 16-30 35-41 69-41 44 0 37 54-11 78-37 19-45 20-60 4zm60-40c8-5 12-13 7-18-4-4-15 0-25 10-19 19-8 24 18 8zM4509 3706c-4-7-2-17 5-24 8-8 12-5 12 12 0 25-6 29-17 12zM4560 3706c-16-6-24-18-24-36 0-29 18-36 28-11 8 21 25 20 25-1 0-9 5-14 12-12 20 7 21 24 1 48-15 17-24 19-42 12zM7658 3699c-31-5-39-34-30-104 7-59 22-74 32-32 4 15 18 27 40 34 71 21 32 114-42 102zM6110 3674c-13-24-5-72 12-72 6 0 17 15 25 33l14 33 17-33c19-36 38-36 38-1 0 28 19 25 23-4 5-34 34-29 38 6 6 47-13 60-88 60-57 0-68-3-79-22zM6320 3693c-1-1-3-21-5-44-4-47 9-68 42-68 32 0 48 19 48 57 0 41-16 58-55 58-16 0-29-1-30-3zm54-70c0-6-5-11-10-11-6 0-13 5-17 11-3 5 1 10 10 10 9 0 17-5 17-10zM7405 3683c-7-7-13-28-13-46 0-38 27-61 57-50 19 7 22 36 4 36-7 0-2 9 11 22 23 21 23 22 5 36-24 18-48 19-64 2zM7520 3683c-7-7-12-28-12-47 0-28 4-35 26-41 30-7 58 1 58 17 0 6-8 11-18 11-16 0-15 2 2 20 15 17 16 24 5 37-16 19-44 21-61 3zM4818 3629c-28-61 36-108 80-59 22 24 37 19 30-11-7-26 13-27 28 0 15 28 13 36-10 63-14 16-37 26-68 29-43 5-48 3-60-22zm58-15c8-13-11-37-24-29-17 10-14 38 4 38 8 0 17-4 20-9zM1168 3585c-56-47-59-68-8-60 40 6 43 2 26-29-7-13-7-27-1-38 8-15 11-15 22 5 6 13 20 23 31 23 19 0 54 31 54 48 0 16-55 89-68 88-6 0-31-17-56-37zm90-39c5-26-15-22-22 4-4 13-1 20 6 17 7-2 14-12 16-21zM1686 3613c-4-7-5-16-2-19 10-10 20 4 15 19-4 11-6 11-13 0zM4615 3612c-4-6-24-8-48-4-45 7-53-1-23-24 17-13 17-14-6-20-13-4-22-12-20-19 7-21 37-19 59 3 12 12 29 22 37 22 13 0 27 21 27 43 0 13-18 12-26-1zM4484 3588c0-19 2-20 10-7 13 20 13 31 0 31-6 0-10-11-10-24zM4648 3595c-15-16-6-44 16-50 30-7 40 0 40 31 0 20-6 26-24 26-14 0-28-4-32-7zM1367 3578c-30-30 1-92 47-92 28 0 46 20 46 53 0 34-18 52-53 52-15 0-33-6-40-13zm69-30c4-20-28-36-42-22-13 14 3 45 22 42 9-2 18-11 20-20zM1680 3565c-11-13-10-16 4-16 9 0 17 7 17 16 0 8-2 16-4 16-2 0-10-8-17-16zM1607 3560c0-6 10-11 23-11 19 0 21 2 8 11-20 13-31 13-31 0zM5549 3527c-8-12 12-30 34-30 13 0 18-24 14-70-2-26 18-44 25-23 2 8 7 31 11 52 4 27 12 40 28 44 19 5 21 8 9 22-15 19-110 23-121 5zM4599 3508c0-12 5-22 11-22 5 0 10 7 10 15 0 8-5 18-10 22-6 3-11-3-11-15zM7151 3512c0-10 9-20 21-23 17-4 21-14 21-52 0-65 25-55 29 10 3 41 7 50 24 50 11 0 20 6 20 14 0 10-17 14-58 16-47 1-57-2-57-15zM4463 3502c0-10 5-16 11-14 6 2 11 8 11 14 0 5-5 11-11 13-6 3-11-4-11-13zM7889 3469c4-27 7-59 7-71 1-21 2-21 15-4 17 23 33 24 41 3 4-9 14-16 24-16 12 0 15 5 9 18-5 10-10 34-13 53-5 34-16 43-29 24-12-20-26-11-26 15 0 18-6 27-17 27-15 0-16-8-11-49zM4635 3496c-4-7 0-17 10-22 9-6 17-17 17-25 0-26 20-17 27 11 8 31 7 31-23 41-14 4-26 2-31-5zM1453 3470c-16-24-16-28 0-52 19-28 33-33 44-15 3 6-2 17-12 24-19 15-13 38 11 38 7 0 16-7 20-16 8-22 28-19 28 3 0 48-63 61-91 18zM5692 3472c-27-50 18-105 68-82 17 8 22 17 18 32-3 13 0 22 6 22 18 0 14 39-5 46-37 14-74 7-87-18zM5822 3472c-12-14-14-27-8-47 14-39 34-41 48-4 7 20 22 35 37 39 37 9 21 31-22 31-25 0-45-7-55-19zM5985 3487c-22-6-26-13-26-48 0-50 20-59 35-16 6 19 21 36 33 39 24 6 23 28-1 31-8 1-27-2-41-6zM6096 3466c-23-43-21-59 9-79 33-21 42-21 63 0 23 23 21 63-4 89-30 29-50 26-68-10zm47-48c-1-16-24-13-30 3-3 9 2 13 13 11 10-2 17-8 17-14zM7799 3480c-52-28-28-109 32-109 13 0 23 6 23 15 0 9-9 16-20 16-11 0-23 7-26 17-10 24-9 25 19 25 34 0 41 14 19 34-16 15-22 15-47 2z" transform="matrix(.02286 0 0 -.02286 -.96 159.059)"/>
	<path d="M8089 3488c-7-4-15-18-19-31-9-29-23-30-32-2-7 21-37 29-37 9 0-6 8-25 18-42 17-29 17-30-11-52-32-25-37-52-9-52 31 0 118 107 118 146 0 24-12 34-28 24zM6214 3460c-11-24-9-31 15-54 19-20 33-25 49-20 34 11 28 38-7 35-23-3-29 1-29 18 0 15 7 21 24 20 33-1 23 21-11 25-22 3-31-3-41-24zM6354 3469c-32-23-27-66 11-88 26-14 31-14 47 3 17 17 17 18 1 18-23 0-23 9-1 33 14 16 14 22 4 35-17 20-32 20-62-1zM6491 3473c-18-17-16-25 11-51l24-22-24 7c-27 8-31-7-8-26 18-15 45-7 54 16 7 17-23 89-36 89-5 0-14-6-21-13zM6780 3479c-27-5-29-8-26-43 3-41 29-62 29-23 0 15 10 26 32 34 53 20 30 42-35 32zM7287 3441c0-52 14-70 53-70 41 0 50 18 36 71-12 48-26 49-26 1 0-16-5-33-12-36-15-10-30 14-30 50 0 16-5 29-10 29-6 0-11-20-11-45zM7427 3470c-3-9 2-25 11-35 21-23 23-40 3-24-20 16-30 3-16-22 7-13 19-19 39-17 22 3 28 10 31 33 2 19-2 31-13 35-11 4-15 14-11 26 5 15 1 20-16 20-12 0-24-7-28-16zM7542 3479c-19-7-17-45 2-52 9-4 16-10 16-15 0-5-7-7-16-3-10 3-15 0-15-10 0-22 39-33 58-18 18 16 19 36 2 54-7 8-13 21-13 29 0 17-15 23-34 15zM7646 3473c-30-30-1-102 42-102 22 0 51 34 51 60 0 45-62 73-93 42zm60-33c9-11 8-17-4-27-19-16-37-6-37 21 0 24 23 27 41 6zM1251 3459c-19-14-22-23-17-50 4-18 12-39 18-46 15-19 40-17 40 2 0 9-7 16-16 16-8 0-18 5-21 11-5 7 8 8 36 4 40-7 43-6 43 19 0 25-29 61-49 61-5 0-21-8-34-17zM6648 3458c-11-22-1-56 23-75 12-11 21-11 38-2 18 9 22 20 19 51-2 35-6 39-36 41-24 3-36-2-44-15zm53-37c-10-10-15-10-26 0-10 11-9 15 3 23 21 13 40-6 23-23zM1557 3404c-48-43-59-71-24-60 18 6 21 2 21-26 0-39 24-39 30-1 2 14 12 27 23 30 27 7 26 24 0 31-26 7-27 17-6 35 17 13 21 31 8 31-4 0-28-18-52-40zM4448 3416c-10-10-8-35 3-35 13 0 23 30 13 36-5 3-12 2-16-1zM4575 3416c-11-10-9-24 2-24 5 0 12 7 15 15 6 16-5 22-17 9zM1331 3359c-22-12-25-72-6-91 15-15 51-17 51-3 0 5-10 13-21 16-12 4-21 12-21 17 0 7 9 8 23 3 40-12 54-10 58 10 5 23-26 60-49 59-9 0-25-5-35-11zM2487 3360c-10-6-24-28-30-48-11-34-10-42 8-66 23-31 78-43 103-22 25 21 17 30-30 33-37 3-45 7-48 27-6 47 43 74 72 39 16-19 32-20 32-1 0 37-67 61-107 38zM2660 3321c-3-10-10-31-16-46-5-16-8-42-6-58l4-30 19 41c24 55 33 111 18 111-7 0-15-8-19-18zM4428 3325c-12-30-10-45 4-31 6 6 10 20 8 31-4 19-5 19-12 0zM5265 3292c-21-44-15-64 22-81 21-10 32-10 47-1 15 10 22 9 33-3 11-15 15-13 27 10 19 37 35 35 35-4 0-35 20-43 28-10 8 30 35 26 35-6 0-41 29-32 37 11 11 57-1 65-118 85-31 6-35 3-44-29-9-31-10-32-11-8-1 33-20 58-50 67-19 5-26 0-41-31zM5809 3305c-20-19-15-46 11-64l23-16-29-1c-35-1-38-24-5-47 32-23 47-21 66 8 14 22 14 28 0 55-11 21-12 32-4 37 7 4 9 15 6 24-8 20-50 23-68 4zM7190 3307c-25-15-23-55 3-78 28-26 26-39-6-31-29 7-31 3-15-28 12-23 41-26 60-7 21 20 16 69-8 82-12 6-19 16-15 21 3 6 10 8 15 5 15-10 23 16 10 32-15 18-19 18-44 4zM1425 3271c-38-36-49-58-30-58 5 0 15 7 23 16 7 8 24 16 37 16 18 0 23 4 19 15-5 12 1 16 22 16 35 0 30 25-6 29-17 2-38-10-65-34zM2848 3284c-12-15-34-88-34-116 0-27 20-22 27 7 3 14 15 28 26 31 21 5 29 28 10 28-6 0-10 8-10 17 0 12 6 15 21 11 15-4 21 0 21 15 0 23-44 28-61 7zM7315 3290c-10-10-8-117 2-124 14-8 23 21 23 79 0 48-8 62-25 45zM6127 3249c-22-35-18-92 8-97 11-2 31-1 45 3 22 5 26 12 26 53 0 41-4 49-27 58-35 13-31 14-52-17zm47-53c0-18-23-15-29 5-2 6 3 12 12 12 10 0 17-7 17-17zM2732 3239c-15-33-16-68-2-68 11 0 27 33 33 68 6 30-18 30-31 0zM5922 3262c0-14 33-80 40-80 5 0 14 5 22 13 10 10 15 9 23-6 15-27 26-22 51 20 25 43 14 74-13 36-15-22-17-22-27-4-9 16-14 17-32 7-16-11-23-10-33 2-11 14-31 21-31 12zM6451 3257c-6-4-15-34-19-68-6-51-5-60 9-60 9 0 17 7 17 16 0 12 6 15 21 10 30-10 52 13 52 54 0 45-44 72-80 48zm52-39c4-9 0-19-9-22-21-8-30 1-22 22 8 21 23 21 31 0zM6586 3259c-18-8-16-45 3-53 8-3 16-10 16-15 0-5-8-6-16-3-10 4-16 0-16-10 0-21 39-33 58-17 20 16 19 30-1 71-17 34-20 36-44 27zM7696 3251c-31-15-38-42-20-76 18-33 40-39 69-20 34 23 32 41-4 33l-29-7 24 20c28 25 30 39 4 53-12 7-27 6-44-3zM2967 3226c-8-16-18-47-22-68-6-32-4-39 10-39 9 0 17 8 17 20 0 11 7 28 16 37 9 9 14 24 11 32-4 10 1 16 15 16 11 0 21 7 21 15 0 29-51 19-68-13zM6248 3208c0-26 4-47 10-47 6 0 11 8 11 18 0 19 18 45 32 45 5 0 10-11 11-23 5-34 30-38 30-5 0 17 6 28 16 28 10 0 16-10 16-27 0-16 5-26 15-26 18 0 21 34 5 64-9 17-22 20-79 20l-67 0 0-47zM7394 3242c-30-30-5-92 38-92 37 0 55 17 55 53 0 15-6 32-13 39-7 7-25 13-40 13-15 0-33-6-40-13zm56-40c0-22-31-19-35 4-3 14 1 18 15 16 11-2 20-11 20-20zM7525 3197c-9-69-2-87 24-63 10 9 21 13 25 9 3-3 18 1 33 11 52 34 24 101-41 101-34 0-35-1-41-58zm67 2c0-8-4-17-7-21-10-9-37 14-30 26 9 14 37 11 37-5zM3080 3175c-4-10-1-27 6-38 7-11 10-24 6-27-5-4-10-1-13 6-7 20-23 15-23-7 0-11 7-26 16-33 13-11 20-10 39 9 19 19 21 27 10 43-10 16-9 21 4 26 14 6 14 10 4 22-17 21-41 20-49-1zM4431 3046c0-19 22-67 28-61 8 9-7 71-18 71-6 0-10-5-10-10zM1641 2996c-16-6-18-60-3-88 6-11 25-28 42-36 45-23 74-7 74 43 0 61-59 103-113 81zm61-35c28-15 27-63-1-63-23 0-58 46-48 63 9 13 23 13 49 0zM1567 2920c-11-6-3-21 30-57 43-48 73-62 73-35 0 23-88 102-103 92zM4474 2891c-33-42-29-75 12-92 58-25 102 26 60 68-20 20-20 21 1 21 11 0 21 7 21 15 0 29-69 20-94-12zm58-47c4-7-2-19-12-26-17-13-21-12-29 1-16 30 23 54 41 25zM4610 2872c-41-44-27-131 21-131 34 0 63 41 63 89 0 70-40 90-84 42zm60-39c5-35-25-67-46-50-19 17-18 47 2 67 23 23 41 16 44-17zM4759 2845c-17-20-44-96-44-124-1-26 28 7 35 41 4 22 12 31 27 31 24 0 29 16 8 25-7 2-2 5 11 6 30 1 31 28 2 35-14 4-28-1-39-14zM1513 2799c-13-14-22-31-20-38 5-15 61 28 61 49 0 21-14 18-41-11zM4838 2769c-21-50-24-81-8-81 6 0 17 13 24 29 7 16 20 34 28 41 12 10 14 17 5 31-19 31-30 27-49-20zM1362 2744c-4-4-7-22-7-40 0-46 50-95 88-85 55 13 56 70 2 113-22 19-70 25-83 12zm74-37c17-17 17-61 0-61-27 0-68 52-53 67 11 11 40 7 53-6zM5371 2675c-22-31-20-47 5-55 23-7 28-42 9-54-7-4-18 1-25 10-18 25-26 22-26-9 0-35 44-47 74-20 27 24 26 55-2 85l-23 25 28 0c33 0 37 15 8 31-28 14-29 14-48-13zM1274 2655c-36-47-8-90 51-79l35 7-23-20c-25-21-22-32 8-32 20 0 41 29 41 56 0 44-89 97-112 68zm49-35c0-9-7-16-16-16-8 0-15 7-15 16 0 8 7 16 15 16 9 0 16-8 16-16zM5477 2624c-39-46-34-112 10-129 23-9 88 32 89 55 0 9 2 27 5 38 7 26-29 69-57 69-11 0-32-15-47-33zm62-10c11-18-6-71-24-78-22-8-45 21-37 45 14 41 46 58 61 33zM4179 2545c0-50 4-78 10-72 5 6 11 22 13 37 5 41 44 35 49-8 4-46 23-44 23 2 0 38-26 73-48 64-9-3-15 5-17 23-2 15-10 29-17 31-10 4-13-16-13-77zM4796 2607c-5-10-2-128 4-133 2-2 19-7 37-11 38-8 67 13 66 50 0 32-11 46-43 54-16 4-30 16-33 27-6 20-24 28-31 13zm76-90c0-20-10-28-27-21-23 8-18 35 6 35 12 0 21-7 21-14zM5199 2562c0-32 2-66 5-76 9-29 25-21 25 12 0 17 7 33 16 36 18 7 21 39 4 39-6 0-20 10-31 23-19 24-19 24-19-34zM5719 2594c-29-83-37-137-20-137 5 0 13 15 19 34 5 19 15 34 22 34 23 0 28 16 12 34-9 10-19 26-22 35-4 14-6 14-11 0zM3749 2569c0-7 5-19 12-26 10-10 9-20-6-45-21-36-15-52 12-33 32 23 48 28 53 15 5-17 34-16 34 1 0 8-6 19-13 26-10 10-10 16 0 26 13 13 17 50 5 50-3 0-15-8-26-17-18-17-20-17-38 0-23 21-33 22-33 3zM4447 2562c-2-3 1-27 5-52 7-46 10-46 26 6 3 9 15 19 27 22 36 9 24 31-17 30-21 0-39-3-41-6zM5076 2560c-5-7-3-14 4-17 9-2 8-8-3-19-34-34-3-81 51-75 31 3 33 6 36 48 2 25-2 52-9 61-15 18-69 19-79 2zm66-58c7-19-29-30-39-13-5 8-7 18-4 23 8 13 38 5 43-10zM3992 2554c2-4 10-25 19-47 17-45 26-49 43-17l12 23 19-23c27-32 35-29 54 25 19 49 8 64-19 29-12-18-14-18-30 2l-16 21-16-21c-16-19-17-20-27-2-10 17-47 27-39 10zM4310 2537c-14-53 26-94 74-76 24 9 19 31-5 24-29-7-27 4 6 30 36 29 25 47-28 47-35 0-42-4-47-25zM4568 2542c-21-40 28-94 66-73 21 12 14 32-9 23-25-9-18 12 8 23 38 16 30 41-15 45-30 2-41-2-50-18zM4932 2555c-15-14-7-64 12-81 50-45 105 4 79 71-6 17-77 25-91 10zm71-45c0-23-41-20-45 3-3 15 2 18 21 16 13-2 24-11 24-19zM3885 2504c0-11 7-16 18-14 23 5 21 23-2 28-9 2-16-4-16-14zM6139 2462c-5-12 2-15 26-15 28 0 31-3 20-16-8-9-20-16-28-16-20 0-56-38-56-58 0-9 14-23 33-30 30-13 31-15 11-21-23-8-55-75-55-117 0-36 17-33 30 6 6 17 18 34 26 37 9 4 13 15 9 32-5 25-3 26 18 15 28-15 41-7 23 14-6 8-9 22-5 32 5 13 0 19-16 24-31 8-28 22 9 43 38 21 46 39 32 66-14 24-68 27-77 4zM6266 2429c-19-22-22-34-20-90 1-28 8-42 24-51 52-28 100 39 84 118-6 30-13 36-39 38-20 2-38-3-49-15zm49-20c31-12 18-88-15-88-25 0-35 31-22 66 12 31 13 31 37 22zM5701 2405c-41-41-43-95-3-126 33-26 59-27 82-5 22 23 11 37-24 30-21-5-34 0-48 15-19 21-19 23-2 50 19 27 25 28 87 9 30-9 31 9 3 37-29 29-59 26-95-10zM5174 2398c-5-4-8-16-8-27 0-13-8-19-24-19-48 0-67-54-30-88 25-23 72-22 79 1 15 55 17 104 4 122-8 10-17 15-21 11zm-5-80c7-21-4-39-24-39-11 0-21 5-24 13-7 21 4 39 24 39 11 0 21-6 24-13zM5513 2331c0-42 4-73 10-73 6 0 11 14 11 31 0 20 7 35 21 42 11 6 21 15 21 21 0 5-10 12-21 16-12 3-21 13-21 21 0 9-5 16-11 16-6 0-10-32-10-74zM4253 2319c0-64 2-73 17-68 9 4 23 2 31-5 37-31 80 28 60 84-8 22-16 27-43 27-23 0-36 6-40 19-13 41-25 14-25-57zm92-12c2-10-4-21-13-24-22-9-48 14-41 34 8 21 50 13 54-10zM4809 2344c0-95 23-131 36-55 5 32 11 42 26 42 16 0 21-9 24-39 4-45 22-50 28-8 5 41-26 82-57 76-20-4-25-1-25 14 0 11-8 20-16 20-12 0-16-12-16-50zM5854 2382c-37-110-38-166-2-137 14 12 20 35 30 116 3 27-20 44-28 21zM6511 2344c-24-87-26-111-11-105 8 2 19 19 24 38 6 18 17 33 25 33 11 0 14 7 10 24-4 13-7 29-7 36 0 31-31 11-41-26zM4410 2352c-25-25-27-50-5-82 26-36 79-24 79 18 0 12-3 13-13 3-16-15-44-17-34-1 3 6 18 15 32 20 29 12 31 24 9 47-23 22-43 20-68-5zM4548 2359c-7-8-9-17-6-20 3-3 1-16-6-28-19-37 3-64 53-64l42 0 0 52c0 41-5 55-21 63-27 15-48 14-62-3zm62-65c0-8-10-15-21-15-12 0-21 7-21 15 0 9 9 16 21 16 11 0 21-7 21-16zM5371 2324c-6-41-4-52 11-63 43-31 89-13 89 35 0 55-17 77-57 77-34 0-36-2-43-49zm63-25c10-16-1-24-21-17-10 4-14 12-11 17 9 14 23 14 32 0zM3707 2339c0-13 9-36 20-50 19-25 22-25 38-9 17 17 19 17 36-4 17-21 18-21 40 22 13 24 23 49 23 54 0 20-21 10-35-18-15-28-15-28-27-5-10 20-15 21-33 10-18-11-24-10-35 5-19 25-28 23-27-5zM3899 2346c4-9 1-25-6-36-21-34 1-58 56-58l46 0-3 37c-6 58-19 74-61 74-30 0-36-4-32-17zm60-52c0-8-10-15-21-15-21 0-28 11-15 24 13 13 36 7 36-9zM4042 2346c-13-15-11-21 15-42 16-14 22-25 14-25-7 0-19 5-26 12-10 10-13 7-13-11 0-27 21-38 58-29 27 7 36 41 15 54-6 4-9 15-5 24 12 31-35 45-58 17zM4685 2350c-17-18-16-77 3-92 21-17 73-10 77 12 2 13-4 17-32 15-28-1-34 3-34 20 0 15 7 21 26 22 14 1 30 2 35 3 5 1 4 8-3 17-16 19-54 20-72 3zM4973 2346c-21-20-22-57-3-82 18-25 74-20 79 7 3 16-2 18-27 12l-29-6 29 19c32 21 38 50 12 60-27 10-44 8-61-10zM5948 2351c-4-6-5-13-2-16 8-8 29 5 29 18 0 13-19 12-27-2zM6035 2323c-23-25-39-71-39-109 0-40 24-35 29 5 2 15 13 33 24 39 17 9 19 14 8 27-10 13-8 17 10 22 13 3 23 12 23 20 0 21-36 18-55-4z" transform="matrix(.02286 0 0 -.02286 -.96 159.059)"/>
	<path d="M5922 2288c-8-18-14-46-14-62 0-22-6-32-23-36-55-14-54-141 0-165 34-16 79 12 79 49 0 34-38 72-65 65-12-4-19-1-16 6 2 7 16 11 31 10 32-4 45 11 24 29-13 10-13 18 0 55 27 74 12 118-16 49zm8-206c6-19-29-30-40-12-6 8-10 18-10 23 0 13 45 3 50-11zM6216 2227c0-21-3-27-20-40-13-9-14-17-6-31 36-57 82-38 76 32-2 36-7 44-26 47-13 1-24-2-24-8zM4861 2211c-3-2-3-31-1-63 3-59 16-76 28-37 3 11 11 21 16 21 6 0 10-10 10-21 0-29 17-27 25 2 5 18-1 30-25 50-18 14-32 32-32 39 0 13-12 18-21 9zM4663 2177c-33-27-42-101-17-130 48-53 130 7 108 78-23 72-48 86-91 52zm57-50c7-25-9-69-26-69-20 0-34 32-27 63 9 40 44 44 53 6zM5617 2173c-25-25-26-40-4-71 10-14 27-23 44-23 23 0 25-3 13-10-9-6-26-11-39-11-30 0-32-28-3-37 44-14 84 30 84 92 0 64-56 99-95 60zm61-40c3-9-3-13-19-10-13 2-26 10-29 17-3 10 3 13 20 11 13-2 26-10 28-18zM4168 2171c-3-36 3-140 7-144 3-3 14 6 24 20l19 25 13-23c6-12 19-22 27-22 17 0 21 26 5 36-6 4-10 21-10 39 0 32-1 32-26 15-36-23-37-23-37 25 0 23-5 42-11 42-6 0-11-6-11-13zM4546 2171c-3-32 3-119 8-126 2-5 12-3 21 4 14 12 15 53 3 132-1 10-32 0-32-10zM4788 2143c0-23 4-44 9-48 11-6 26 64 17 79-14 22-26 8-26-31zM5009 2110c0-55 3-74 13-70 7 2 15 20 18 39l5 35 14-39c16-45 32-45 54 0l16 30 5-36c4-23 12-38 23-40 15-3 17 6 14 73-3 90-20 104-52 44l-21-38-31 38c-48 57-58 50-58-36zM5530 2170c-3-8-3-44 1-81 5-58 7-64 20-46 22 30 17 141-7 141-5 0-11-6-14-14zM5771 2177c-3-4-6-39-6-79 0-57 3-71 15-71 13 0 16 15 16 72 0 68-8 94-25 78zM3801 2158c0-10-10-16-24-16-29 0-70-28-70-47 0-28 23-67 44-72 11-3 32-1 46 4 23 9 25 15 25 78 0 39-5 69-10 69-6 0-11-8-11-16zm-6-57c10-17-6-43-27-43-14 0-19 7-19 26 0 19 5 27 20 27 11 0 23-5 26-10zM4045 2134c-35-6-33-52 3-61 14-4 26-11 26-16 0-6-12-7-26-3-31 7-37-16-10-39 20-17 46-3 58 30 7 18 3 29-14 45-18 16-19 20-5 15 10-4 18-3 18 3 0 17-25 30-50 26zM5230 2124c2-10-2-29-9-42-17-29-7-54 24-62 48-12 63-2 66 47 4 54-11 75-52 75-24 0-31-4-29-18zm62-62c0-8-9-14-21-14-20 0-29 20-15 34 10 10 36-4 36-20zM3864 2101c0-52 18-85 45-85 41 0 62 23 58 63-4 46-29 56-29 11 0-29-4-33-24-30-18 2-25 11-27 37-4 43-23 46-23 4z" transform="matrix(.02286 0 0 -.02286 -.96 159.059)"/>
	<path d="M5334 2122c0-5 8-24 18-40 21-38 13-61-28-85-36-20-42-44-11-44 29 0 147 136 147 170 0 17-20 8-41-20l-22-29-22 29c-22 28-41 37-41 19zM5809 1527c-37-25-31-50 9-41 23 5 31 4 26-4-4-7-13-12-20-12-20 0-59-40-59-61 0-20 55-46 79-37 21 8 19 22-6 30-22 7-29 26-10 26 14 0 63 48 63 63 0 12-39 53-51 53-4 0-18-8-31-17zM5922 1459c-36-70-8-134 51-118 27 7 54 53 54 92 0 45-18 69-53 69-25 0-34-8-52-43zm74-30c0-34-24-59-48-50-23 9-19 56 7 74 29 20 41 13 41-24zM6232 1456c-9-13-21-49-26-80-14-71-14-74 3-74 9 0 17 16 21 41 4 23 14 44 24 47 9 4 14 13 11 22-3 8 1 20 9 27 9 7 16 19 16 27 0 23-41 17-58-10zM6066 1451c-12-13-18-37-18-73 0-45 4-56 22-66 52-28 100 39 84 118-6 29-12 35-39 38-20 2-38-4-49-17zm66-48c0-39-11-59-32-59-24 0-36 35-21 63 17 31 53 28 53-4zM6312 1394c-16-42-25-113-14-113 6 0 13 12 17 26 3 14 16 35 28 46 15 14 20 27 15 43-9 29-35 28-46-2zM6587 1363c-15-23-45-127-39-136 10-16 25-9 37 17 25 53 83 41 74-16-8-57 20-31 41 38 13 42 16 65 8 73-7 7-15 4-24-8-7-10-26-18-41-18-23 0-28 4-28 25 0 30-16 44-28 25zM6788 1322c-4-6-5-13-2-16 8-8 29 5 29 18 0 13-19 12-27-2zM6884 1293c-3-5-10-27-16-50-5-22-13-51-17-64-6-20-3-24 15-24 14 0 22 7 22 18 0 10 7 38 15 61 9 23 16 48 16 55 1 15-27 18-35 4zM6769 1273c-12-20-18-95-8-101 18-12 38 45 34 96-2 14-18 18-26 5zM6967 1268c-19-49-35-118-31-125 14-22 34-5 45 36 18 70 19 102 1 102-6 0-13-6-15-13zM4645 761c-19-15-19-16 7-39 14-13 38-32 52-41l26-18-39-40c-45-47-49-62-16-72 18-6 30 0 57 33 26 31 38 38 49 30 68-49 70-50 86-36 23 19 20 27-21 51-20 12-37 26-37 31 0 6 14 26 32 45 35 39 37 65 3 70-15 2-30-7-45-29-22-31-56-42-68-22-4 6-20 20-36 31-27 19-32 20-50 6zM4978 762c-15-18-11-180 4-177 6 1 13 13 17 26 4 16 12 23 24 21 10-2 30 4 44 13 35 23 36 83 2 104-38 24-78 30-91 13zm75-58c4-14-1-21-16-25-28-8-39 0-39 25 0 28 48 28 55 0zM5141 749c-3-4-6-44-6-89 0-66 3-82 15-82 13 0 16 16 16 83 0 77-8 105-25 88zM5373 749c-12-22-17-66-8-72 6-3 11-28 11-54 0-58 25-59 29-1 3 27 10 39 24 43 27 7 27 39 0 39-13 0-21 8-23 22-4 24-24 38-33 23zM5975 736c0-5 9-20 20-34 17-20 21-21 21-7 0 9 3 25 7 34 5 12 0 17-21 17-15 0-27-5-27-10zM5524 700c-6-8-14-29-18-47-11-55 63-110 99-73 22 22 15 41-14 33-15-4-26-2-26 5 0 5 14 13 32 17 44 10 40 42-8 67-30 16-50 15-65-2zM5685 706c-5-4-11-30-12-57-2-63 22-88 75-78 35 7 38 10 38 47 0 63-61 116-101 88zm69-88c0-13-7-19-21-19-26 0-40 30-21 42 20 12 42 0 42-23zM5217 675c-28-72-7-108 61-108l46 0 0 45c0 58-24 92-64 92-25 0-34-7-43-29zm73-53c-4-21-37-30-53-15-16 16 0 34 30 34 20 0 26-5 23-19zM5851 691c-17-21-5-87 20-110 16-14 27-16 59-8 39 10 39 10 40 65 1 56-11 80-28 54-5-8-9-30-9-48 0-24-6-34-21-38-26-7-35 6-42 60-5 34-8 38-19 25zM6763 349c-5-10-9-54-8-97 1-66 5-79 20-82 15-3 19 4 19 39 0 24 4 43 10 43 6 0 11-4 11-10 0-17 55-75 63-67 4 5 11 43 15 85 7 66 5 76-9 76-18 0-21-9-17-50 3-39-19-26-50 29-31 57-39 62-54 34zM5236 350c-4-4-7-44-7-90 0-78 1-82 27-92 37-14 53-13 72 6 37 37 8 110-45 110-18 0-22 6-22 30 0 31-13 48-25 36zm80-118c6-25 0-32-25-32-23 0-34 16-27 37 9 22 46 18 52-5zM4943 268c-22-43-39-81-39-84 0-12 29-5 42 10 18 23 77 20 99-5 38-41 49-19 21 43-63 139-70 141-123 36zm74 3c2-9-6-19-18-22-23-6-26 1-15 29 7 20 28 16 33-7zM5137 260c4-111 23-110 27 2 2 71 0 85-14 85-14 0-16-14-13-87zM5559 318c-3-10-10-26-15-36-5-9-5-21 0-26 5-5 11-26 12-46 5-47 24-48 28-1 2 24 10 37 24 40 23 6 27 35 4 35-8 0-18 11-22 26-7 30-23 34-31 8zM7210 329c-11-11-8-159 3-166 12-7 32 27 32 53 0 10 8 28 18 39 15 16 16 22 5 26-8 3-18 16-23 30-10 25-22 31-35 18zM7089 277c-29-20-29-51 1-73 15-11 17-15 6-12-24 8-35-10-19-30 16-18 54-20 71-2 19 18 16 58-4 69-12 7-13 12-5 17 17 11 14 25-8 37-14 7-26 6-42-6zM5387 275c0-5 5-14 12-21 10-10 10-12 0-12-21 0-15-62 8-74 26-14 67-13 82 1 13 13 6 80-11 101-11 15-91 19-91 5zm81-62c6-18-27-30-41-16-6 6-8 17-4 23 9 15 39 10 45-7zM5670 224c0-43 4-56 16-56 9 0 16 10 16 25 0 31 24 53 52 45 26-6 38 10 21 30-8 9-31 14-59 14l-46-1 0-57zM5823 267c-45-45 2-122 61-100 23 9 28 17 28 54 0 35-5 44-27 52-36 14-43 13-62-6zm62-35c7-13-22-36-36-28-19 12-12 38 9 38 12 0 23-5 27-10zM5961 277c-15-15-7-44 16-61l24-17-24 6c-26 7-33-16-10-35 31-24 80 27 52 55-4 4-8 18-8 31 0 22-34 37-50 21zM6066 277c-13-13-8-47 8-53 9-3 16-11 16-16 0-7-6-6-15 1-10 9-17 9-22 1-11-19 17-43 47-40 32 4 41 34 17 61-13 14-14 20-5 23 7 3 10 10 5 17-8 13-40 17-51 6zM6354 262c-28-26-29-54-2-77 28-26 72-18 92 16 16 26 16 30-1 55-21 33-57 36-89 6zm60-39c-6-27-40-30-40-3 0 15 6 22 21 22 15 0 21-6 19-19zM6493 267c-3-7-4-33-2-58l3-46 24 39c26 45 44 51 45 16 0-13 4-31 10-39 9-14 12-14 21 0 16 24 12 68-8 86-22 20-86 21-93 2zM6937 264c-21-22-22-43-5-80 20-45 93-48 93-4 0 18-5 21-27 15-37-9-32 11 6 24 38 13 40 40 4 54-38 15-51 13-71-9zM7316 272c-23-13-24-39-2-63 16-17 15-18-5-13-35 9-30-36 6-50 43-16 70 14 62 69-7 39-22 69-36 68-4 0-15-5-25-11z" transform="matrix(.02286 0 0 -.02286 -.96 159.059)"/>
</svg>
