<?xml version="1.0" encoding="utf-8"?>
<svg xmlns="http://www.w3.org/2000/svg" version="1" viewBox="0 0 192 147">
	<title>Sketch map of the surroundings of King Haakon Bay.</title>
	<path d="M5721 6788c-41-22-68-109-50-162 6-16 6-48 0-79-11-61-5-73 32-59 26 9 26 12 16 62-14 67-5 90 30 82 19-5 26-3 26 9 0 10-13 19-31 23-36 7-39 19-16 74l16 38 25-24c25-23 59-24 59-2 0 13-52 54-68 54-6-1-24-8-39-16zM2762 6752c-31-43-22-67 53-137 66-62 71-73 46-99-26-26-64-20-87 12-20 27-22 28-29 9-12-29 9-52 55-61 57-11 93 4 114 49 25 54 8 89-77 152-61 46-28 111 36 69 14-9 34-15 44-13 15 3 14 6-6 26-18 18-36 24-75 24-46 0-55-4-74-31zM4399 6765c-1-10-1-39 0-64l2-45-36 7c-47 8-79-9-97-51-26-64 9-126 71-125 81 2 108 8 103 23-3 9-4 74-2 144 3 125 3 129-19 129-13 0-22-7-22-18zm-14-155c22-34 12-76-24-92-24-11-29-10-47 12-24 30-25 52-3 83 21 30 52 29 74-3zM4505 6724c0-9 5-14 12-12 19 6 23 29 4 29-9 0-16-7-16-17zM4883 6689c0-6-15-18-32-27-26-13-31-23-31-52 0-23 7-44 21-56 12-11 18-27 15-36-4-11 3-17 27-22 24-5 32-12 29-25-4-19-16-21-58-8-34 11-32-20 3-35 39-18 61-15 87 12 31 33 28 45-11 66l-33 17 33 28c42 34 43 63 1 111-32 37-51 47-51 27zm25-57c29-20 15-69-19-69-29 0-41 22-32 58 8 29 23 32 51 11zM5473 6652c-54-45-41-117 26-151 37-19 68-14 100 16 55 53 23 145-56 157-30 5-43 1-70-22zm102-26c15-27 14-77-2-93-7-7-22-12-34-12-32 0-47 20-47 63 0 20 5 43 12 50 19 19 59 15 71-8zM3233 6665c-1-1-3-42-4-89-2-78 0-87 17-87 16 0 20 8 20 52 0 40 5 57 22 73 23 21 23 21 37 1 18-26 48-16 43 14-2 20-10 23-55 23-29 0-59 4-66 8-7 5-14 7-14 5zM3633 6638c-39-40-42-84-7-124 53-61 154-19 154 62-1 46-29 78-76 87-34 6-43 3-71-25zm92-15c17-16 17-84 0-100-44-45-103 32-71 93 13 22 52 27 71 7zM3817 6658c-4-6-4-16 0-22 3-6 8-31 10-57 7-87 36-109 116-93l42 9 3 86c3 86 3 86-21 77-21-7-24-17-27-75-4-75-19-96-53-74-9 6-15 33-16 78-1 39-5 70-9 70-4 0-14 3-22 6-9 3-19 1-23-5zM4049 6657c-1-3 0-42 2-87 3-70 6-82 21-79 13 3 17 13 14 39-6 64 7 103 35 109 38 7 50-15 46-84-3-55-2-61 17-61 19 0 22 8 24 63 5 89-9 105-92 106-35 0-65-2-67-6zM4492 6660c-2-5-2-45 0-90 3-72 6-81 24-81 18 0 20 8 20 77 0 45-5 81-13 89-14 14-26 16-31 5zM4598 6658c-4-30 4-155 10-161 5-5 16-6 25-2 12 4 15 16 11 47-9 66 3 94 39 94 34 0 34-1 36-105 1-30 5-37 24-40 22-3 24 1 24 50 0 30-7 70-15 89-15 36-15 36-84 35-38-1-69-4-70-7zM5030 6653c-20-25-9-52 34-79 21-14 39-32 39-40 0-26-32-27-58-2l-26 24 0-23c0-44 77-60 110-23 16 18 17 26 7 48-7 14-26 35-43 44-43 25-43 49 0 41 24-5 31-3 28 6-6 20-75 23-91 4zM2998 6649c-13-9-14-107-2-126 17-27 64-43 115-37 55 6 52 0 53 108 0 54-1 58-25 61-25 3-26 1-26-66 0-50-4-72-15-79-40-25-63 7-63 85 0 61-10 74-37 54zM3428 6573c0-80 1-84 24-84 21 0 24 5 24 49 0 31 6 56 17 68 16 19 19 19 37 2 18-16 21-16 37-1 36 36-19 67-71 39-13-7-21-7-26 0-3 6-14 11-24 11-15 0-18-12-18-84zM5278 6429c-4-6-2-25 4-43 13-36 9-217-5-247-9-19-4-20 88-16 88 5 99 8 117 31 27 33 20 101-12 127-19 16-21 23-12 48 11 34-6 79-36 91-35 13-138 19-144 9zm113-40c32-33 13-78-33-78-21 0-24 5-24 40 0 57 23 72 57 38zm30-122c24-13 32-50 19-86-10-25-16-28-58-28l-48 0 0 68 0 68 34-6c19-4 42-11 53-16zM2729 6418c-1-4-2-75-3-157l-1-150 32 0 32 0-1 80c0 53 4 82 12 85 7 2 28-18 47-45 54-76 99-120 123-120 31 0 28 12-10 48-18 17-51 59-73 93l-41 62 27 32c15 18 34 37 42 41 8 5 15 16 15 25 0 23-47 13-51-12-5-22-81-100-99-100-7 0-9 22-5 63 5 61 5 63-20 63-14 0-26-4-26-8zM3710 6403c4-13 7-80 7-148 0-122 0-124 23-121 21 3 23 8 20 76-3 82 3 90 69 90 41 0 44-2 51-33 4-18 4-58 0-89-5-43-4-56 7-56 36 0 39 15 39 160l-1 144-25 0c-22 0-25-5-28-50l-3-50-52 0-53 0 0 48c0 44-2 47-30 50-27 3-30 1-24-21zM4480 6387c4-22 8-91 8-153 1-111 1-112 25-112 22 0 24 3 18 31-7 30 7 63 26 63 4 0 22-21 41-47 24-34 41-47 59-47 14 0 26 4 26 10 0 6-4 11-8 11-5 0-27 24-48 53l-40 54 27 28c32 34 34 43 6 43-12 0-21-6-21-14 0-17-61-76-69-67-4 3-6 47-6 96 1 89 0 90-26 90-24 0-26-2-18-39zM3047 6377c4-23 35-26 35-4 0 9-9 18-20 20-14 2-18-2-15-16zM3150 6347c0-9 5-16 11-13 6 2 12 8 12 13 0 6-6 12-12 14-6 2-11-4-11-14zM3438 6347c-3-12-20-29-37-39-29-16-36-37-31-81 1-9 14-26 28-39 18-14 23-24 16-29-19-11-14-27 8-27 34 0 54-12 54-33 0-26-29-37-55-21-29 18-45 4-23-21 26-28 73-25 104 8 29 31 23 66-14 83-30 13-29 20 3 34 28 13 43 52 32 83-3 11-23 38-43 61-33 37-37 39-42 21zm21-68c31-11 37-52 12-73-24-20-58 4-58 40 0 25 7 44 16 44 2 0 15-5 30-11zM5574 6324c-38-6-61-32-40-45 9-6 21-4 32 7 23 20 87 15 91-7 2-12-8-16-41-17-51-2-82-31-82-77 0-52 36-69 142-65l43 2-4 81c-4 56-11 87-23 99-18 19-74 30-118 22zm94-132c4-45-15-59-56-41-48 22-27 90 26 84 23-3 27-9 30-43zM3042 6314c-3-3-1-18 5-33 6-16 7-56 3-92-5-56-4-66 12-72 28-11 32 3 27 97-3 69-8 88-23 96-10 6-21 8-24 4zM3219 6311c-4-5-24-7-45-3-33 5-37 3-31-12 4-10 7-56 7-102 0-76 2-83 21-83 19 0 21 7 21 71 0 82 15 111 53 106 20-3 27-13 34-46 5-23 6-58 2-77-7-40 5-55 39-46 12 3 18 11 14 20-3 9-5 42-5 73 0 47-5 62-26 83-26 26-73 35-84 16zM4000 6305c-18-22-3-33 22-18 26 17 65 17 81 0 20-19 16-29-12-29-67 0-121-48-106-95 11-34 73-55 134-45l54 9-3 47c-4 67-20 113-47 131-29 21-105 21-123 0zm115-83c7-8 11-29 10-45-3-25-9-30-39-33-39-3-54 10-54 48 0 39 59 60 83 30zM4255 6308c-14-14-17-40-5-39 4 0 17 7 28 16 27 20 65 19 73-2 10-25 9-25-31-25-48 0-93-42-83-76 15-50 36-62 104-58l64 3 3 52c6 100-22 142-96 142-24 0-50-6-57-13zm111-121c3-44 3-44-33-44-41 0-56 23-44 69 5 22 11 26 40 23 32-3 34-6 37-48zM4733 6310c-10-6-26-25-34-42-14-25-14-39-4-79 13-51 46-78 99-78 40 0 99 62 99 104 0 40-24 90-48 99-26 10-92 8-112-4zm92-32c22-24 25-96 4-121-17-21-56-18-78 6-35 39-4 137 43 137 6 0 21-10 31-22zM4928 6297c4-13 7-58 7-99 0-74 1-76 25-76 25 0 25 1 20 62-5 48-2 69 12 89 36 57 72 22 80-77 4-66 6-69 33-72l28-4-6 67c-7 91-30 128-79 132-21 2-48-2-60-8-14-8-21-8-21-1 0 6-11 11-23 11-18 0-21-5-16-24z" transform="matrix(.02286 0 0 -.02286 -1.332 155.51)"/>
	<path d="M5723 6311c0-6 4-11 11-11 6 0 27-36 48-79 34-71 36-82 24-105-20-38-56-57-115-61-60-3-67-8-58-38 17-53 153 0 208 81 14 22 37 71 49 111 13 39 30 74 38 77 24 9 17 35-9 35-21 0-28-10-43-58-10-32-22-57-26-57-11 0-43 70-43 94 0 17-8 21-42 21-24 0-42-5-42-10zM8369 6030c0-5 4-15 10-24 6-9 5-20-2-29-16-19-2-29 41-29 34 0 39-4 50-36 12-37 13-37 26-13 15 28-1 59-56 109-30 27-70 40-69 22zM1066 6003c-2-7-7-29-10-49-3-21-8-53-12-71-4-22-3-34 4-34 15 0 34 34 34 61 0 41 19 32 49-22 16-30 36-55 44-55 8 0 23 24 34 58 23 71 24 82 3 91-20 7-36-13-36-47 0-37-15-28-46 29-28 50-55 67-64 39zM4057 5935c-3-10-10-29-15-42-13-31-13-65-1-65 6 0 12 7 16 15 9 23 23 19 36-10 15-33 38-35 30-3-4 15 1 31 15 45 26 29 17 53-24 67-44 15-50 15-57-7zm70-36c0-14-35-6-40 9-2 8 4 10 18 7 12-3 22-10 22-16zM3788 5889l-26-56-8 39c-12 60-31 49-23-13l6-53-30 21c-45 32-61 26-26-11 25-27 27-31 8-21-13 6-26 16-30 22-3 6-17 10-29 10-22 0-21-1 8-25 36-30 31-33-21-12-54 23-57-1-3-25l45-20-35-1c-23 0-33-5-30-14 2-8 19-11 42-9 47 4 50-9 8-28-31-14-43-33-21-33 15 0 84 29 100 42 8 7 10 22 5 44-7 33-6 34 24 34 29 0 33 5 56 73 30 90 17 115-20 36z" transform="matrix(.02286 0 0 -.02286 -1.332 155.51)"/>
	<path d="M8363 5897c-13-19-14-31-5-54 8-22 14-26 23-17 8 8 16 8 25 1 32-27 69 32 46 74-16 30-68 28-89-4zM3827 5848c-16-35-17-48-7-82 18-58 33-68 84-55 23 7 48 19 55 28 12 15 9 16-27 9l-42-7 37 32c47 40 36 53-16 18-49-33-58-27-22 16 38 45 24 60-16 18l-32-34 6 31c3 18 8 40 12 50 15 38-14 17-32-24zM4178 5842c-27-44-20-65 27-81 24-8 33-6 44 9 20 28 17 65-7 89-29 29-37 27-64-17zm44-41c-1-15-25-12-30 4-3 9 2 13 13 10 9-2 17-8 17-14zM4301 5795c-9-44-8-51 2-51 5 0 15 11 21 26 7 14 19 26 27 26 17 0 29-25 21-46-9-24 15-30 27-7 6 11 11 25 11 31 0 22-42 54-72 54-26 0-31-6-37-33zM3174 5796c-26-11-38-44-33-91 8-67 114-71 114-4 0 27-4 32-26 32-27 0-35-14-16-26 19-12 11-28-13-25-19 3-24 12-27 42-3 42 17 59 51 40 26-13 36 4 15 26-19 18-31 20-65 6zM4460 5785c-21-13-25-72-7-106 10-19 9-20-11-9-18 10-21 8-21-10 0-29 33-46 57-28 13 9 17 22 14 41-4 21-1 30 14 34 20 7 24 25 13 65-7 26-29 30-59 13zm36-47c0-5-6-11-12-13-6-3-11 4-11 13 0 10 5 16 11 14 6-2 12-8 12-14zM8364 5775c-36-11-48-27-48-64 0-38 19-51 70-51 50 0 77 20 77 59 0 60-29 77-99 56zm61-39c9-22-10-43-25-28-12 12-4 46 11 46 4 0 11-8 14-18zM1076 5723c-10-23-27-50-38-60-22-19-25-57-9-88 8-14 8-33 1-60-6-22-18-77-26-123-26-135-69-334-74-339-3-3-67 8-143 23-76 15-152 27-168 27-17 0-71 9-120 21-105 24-177 28-171 8 4-13 159-46 334-72 43-6 118-20 168-30 87-17 89-18 88-48-1-17-17-102-36-189-19-86-37-179-42-204-4-26-16-89-27-139-17-83-17-119 2-100 4 4 16 51 26 104 11 54 27 131 36 171 40 189 49 235 58 293 6 33 13 65 16 70 11 19 51 12 443-68 153-32 139-31 139-12 0 10-21 19-60 27-34 6-75 16-92 21-18 5-67 14-110 21-44 7-103 19-132 26-29 8-74 17-99 21-79 10-79 10-58 128 10 57 29 152 43 211 14 59 25 116 25 127 0 10 16 38 36 61 36 42 36 42 30 123-3 44-9 83-14 85-4 3-15-14-26-36zM4573 5720c-9-13-16-31-16-40 0-24 36-55 59-50 28 5 29 27 2 32-22 4-22 6 10 18 36 14 42 30 21 51-20 20-58 15-76-11z" transform="matrix(.02286 0 0 -.02286 -1.332 155.51)"/>
	<path d="M2436 5727c0-15 81-106 183-206 78-77 115-106 152-118 27-9 66-28 87-43 44-30 99-34 149-11 18 8 65 23 105 33 39 9 106 33 148 53 67 31 84 34 128 28 28-3 65-12 83-20 46-19 107-105 181-256 93-191 128-224 226-213 32 4 54 1 65-8 12-10 40-11 118-4 118 10 165 10 317-1 94-7 117-12 152-35 41-28 43-28 258-29 150-1 224-5 241-14 13-7 63-51 109-98 105-103 149-124 254-125 43 0 79-4 79-10 0-5-7-9-14-9-21 0-43-47-35-75 7-31 46-57 62-42 8 8 3 17-14 31-26 22-23 50 7 62 12 4 25-3 40-21 12-16 26-28 30-28 16 0 6 36-15 59-27 28-20 30 38 9 61-22 118-20 150 5 14 12 36 21 49 20 20-1 20-1-2-8-32-9-26-29 8-25 14 2 61 3 103 2 64-1 80-5 103-26 19-17 44-26 91-31 97-11 126-29 164-99 18-34 39-67 48-74 8-7 19-30 22-50 4-20 21-53 38-72 26-29 29-39 19-56-8-16-7-31 5-60 33-78 16-160-52-260-25-36-48-75-52-87-10-31-114-117-179-147-52-23-71-26-187-26-84 0-152 6-194 17-35 9-92 19-127 23-53 5-67 3-93-16-39-27-122-47-163-38-16 4-52 1-81-6-42-11-58-11-99 3-42 13-57 14-107 2-32-7-71-21-86-31-15-10-56-21-93-23-63-6-67-4-112 32-57 47-82 48-186 7-93-37-149-40-186-10-22 17-43 20-123 20-118 0-143-11-162-73-18-58-18-58-38-43-20 17-40 4-31-21 4-13 1-20-9-20-8 0-19-10-24-21-9-20-11-20-33-5-34 23-30 42 18 92 44 45 51 66 29 93-30 38-251 41-310 5-18-11-16-54 3-70 21-17 11-49-28-88-19-18-30-39-28-52 3-19 10-22 42-19 22 1 50-2 62-9 18-10 21-18 15-51-5-30-2-45 13-64 23-28 60-31 131-10 59 17 72 9 37-24-34-31-62-87-54-107 3-8 27-33 52-53 26-21 47-44 47-50 0-27 44-100 68-113 32-17 33-29 2-33-15-3-23-11-23-24 0-22 87-58 196-79 47-10 62-17 67-35 4-13 16-35 27-49 14-17 18-34 14-57-4-18 0-47 7-64 7-18 13-62 14-100l0-68-37-2c-30-1-38 3-37 18 1 32-20 25-30-10-9-33-18-36-72-33-33 2-38-15-8-31 23-12 85-2 150 26l40 16 0-56c-1-30-6-61-13-68-38-38-227 17-251 73-13 32-66 82-87 83-6 0-33 11-59 25-28 15-75 28-116 32-66 6-186-5-223-20-14-7-18-3-18 16 0 24-5 45-36 141-9 29-17 69-17 90 0 26-7 45-26 62-23 22-29 23-66 12-23-7-89-12-148-12-106 0-173-16-192-45-14-22-9-89 7-105 33-33 29-63-15-129-42-63-43-65-32-116 9-43 8-62-6-105-11-33-18-92-20-167-2-123 9-166 56-209 14-12 23-33 23-52 0-18 9-63 21-99 13-43 21-96 21-149 0-138 14-183 78-245 31-30 59-65 63-77 4-13 11-91 15-174 9-155 26-249 70-388 14-45 26-89 26-99 0-31 66-142 93-156 15-8 40-29 56-46 16-18 34-33 39-33 30 0 15 28-50 92-70 70-111 135-121 197-3 17-21 86-38 152-28 101-35 150-42 303l-9 183-64 59c-73 68-84 100-85 237 0 53-8 109-21 153-11 37-21 82-21 100 0 22-13 47-39 78l-40 46 4 126c2 69 8 138 14 153 6 15 12 65 12 111 2 76 5 89 30 118 40 48 47 90 20 127-30 42-29 91 2 108 13 8 82 17 155 21 72 5 145 10 161 11 30 3 32 2 44-65 8-38 21-92 30-121 9-29 16-69 16-90 1-52 17-65 56-44 20 10 72 18 139 21l107 6 88-42c70-34 95-52 121-90 26-37 46-52 103-74 102-41 151-46 186-19l28 22-2 145c-2 87-8 153-15 167-7 13-12 47-10 76 2 42-3 58-21 77-13 14-23 30-23 37 0 19-54 55-82 55-15 0-60 10-101 23-67 21-72 23-43 29 48 9 44 36-9 70-37 23-49 38-54 65-5 23-26 56-59 91-28 30-51 60-51 66 0 6 19 36 43 66 31 39 46 51 54 43 16-16 63-15 80 1 11 11 15 11 19 0 3-7 19-13 36-13 26 0 34 6 43 31 12 30 12 30 23 8 17-33 38-29 62 11 24 41 16 56-14 29-21-19-22-19-38 1-12 15-17 16-21 6-5-11-10-10-26 4-24 22-49 13-62-22-6-15-15-24-21-21-5 4-19 2-29-4-42-22-75 32-38 63 13 11 20 11 37 0 28-17 37-7 20 24-17 32-6 66 23 73 22 6 22 7 4 27-15 16-17 27-9 50 13 42 48 56 138 56 65 0 86-5 123-27 35-20 54-25 81-20 31 6 37 3 44-18 8-24 8-24 12 5 6 38 25 36 25-3 0-17 4-31 10-31 6 0 11 18 11 42 0 23 4 42 9 42 5 0 8-18 7-40 0-25 4-39 13-39 7 0 18-7 23-16 8-12 10-7 11 21 1 20 5 49 10 63 6 20 9 12 9-34 1-33-3-60-9-60-17 0-52-46-52-68 0-17-9-13-48 26-50 49-65 40-21-13 15-18 27-44 27-62 0-38 15-39 35-2 11 19 16 23 17 12 0-32 71-42 99-13 25 25 20 46-11 46-20 0-26-4-21-16 5-13 1-16-17-14-27 4-37 34-18 57 9 11 23 14 43 9 22-5 30-2 30 9 0 9-7 18-16 22-18 7-21 74-5 116 9 25 13 27 34 15 13-7 37-23 53-37 40-33 141-35 199-3l40 21 0-21c0-26 17-28 24-3 3 10 5 5 6-13 1-35 17-26 25 16 3 15 5 9 4-15-1-25 4-43 11-46 9-3 14 7 14 26 0 39 10 77 21 77 5 0 6-25 3-56-5-41-12-60-32-75-35-27-47-63-32-96 10-24 17-26 60-23 43 2 48 5 51 32 3 25 0 29-25 29-20 0-26-5-22-16 4-11 0-16-13-16-11 0-22 6-25 14-10 26 11 43 48 40 42-2 50 9 59 87 7 55 7 55 93 72 32 7 34 5 34-24 0-40 18-41 24-3 3 18 5 9 6-21 2-61 22-58 23 4 0 22 5 41 11 41 12 0 3-109-13-138-14-28-11-79 6-92 21-18 80-10 94 12 14 22-2 53-30 59-16 3-18-1-12-25 6-23 4-27-11-24-11 2-21 13-23 24-5 24 24 47 49 41 16-5 18 4 16 82-1 83-1 84 6 21 3-36 11-65 17-65 6 0 13 31 16 69 4 61 8 71 33 86 25 15 38 16 105 4 42-7 81-17 86-23 6-5 9-36 8-68-2-35 1-57 8-57 6 0 12 15 13 34 0 18 5 46 9 60 6 16 7 1 3-42-4-45-12-73-25-84-30-26-33-57-9-88 27-34 66-36 88-4 23 33 21 47-11 53-24 4-26 2-22-20 3-19 0-25-14-25-10 0-21 8-25 17-9 25 23 57 51 51 20-6 22-2 24 55 1 33 6 73 11 87 8 19 9 4 5-51-7-93 12-97 22-6 3 33 8 61 10 64 3 2 49 7 103 10 82 4 109 10 161 36 73 37 81 38 106 10 11-12 26-19 34-16 8 3 28-4 44-15 17-12 35-21 41-21 21 0 13 18-17 36-38 25-86 70-86 82 0 5 20-7 44-27 54-44 91-64 101-55 7 7-13 26-80 79-19 14-34 31-34 36 0 5 9 1 21-10 11-10 41-28 65-41 36-18 46-29 51-56 2-18 13-43 23-55 24-28 76-28 95 1 22 30 11 62-21 62-21 0-25-4-21-21 6-24-21-30-30-6-10 25 15 60 38 53 26-8 42 2 35 21-8 22-41 26-76 8-30-14-34-14-91 24-73 49-68 60 9 17 31-18 59-30 63-26 8 8-12 35-26 35-12 0-82 45-82 54 0 3 26-8 59-24 32-17 65-30 73-30 21 0 18 20-4 29-10 3-40 20-67 36l-50 30 29 45c16 24 36 59 43 78l14 34 82 0c48 0 83 4 83 11 0 5-14 10-31 10-18 0-32 4-32 8 0 4 24 6 52 4 29-2 53 1 53 7 0 5-43 12-95 15-132 8-140 25-10 20 70-2 105 1 105 8 0 7-25 12-60 13-62 1-60 3 10 14 63 10 46 26-31 28-44 1-55 3-29 6 125 11 117 30-16 39-100 7-104 9-94 28 13 24 4 62-15 62-16 0-48 54-48 81 0 12-15 40-32 64-39 54-40 67-5 59 15-4 33-1 42 6 24 20 19 70-7 88-13 9-20 20-16 24 4 4 13 2 20-5 19-19 40-15 40 9 0 12 7 21 17 21 13 0 14 2 4 15-17 20-46 20-85 0-39-20-41-56-3-88 21-19 24-26 13-33-9-6-21-2-34 8-15 15-20 15-28 4-6-11-13-9-33 9-34 33-85 53-135 53-40 0-54 12-31 27 7 4 17 2 24-5 6-6 17-11 25-11 17 0 18 33 1 49-9 10-9 16 1 28 17 20-5 34-26 16-24-19-61 17-45 45 7 14 7 25 1 31-7 7-19-10-35-48-31-75-37-69-9 10 11 33 18 63 15 66-7 7-9 4-36-45-18-33-21-36-17-14 3 15 9 35 12 44 4 9 2 17-3 17-6 0-21-28-34-63-25-68-35-81-25-31 9 46-12 38-27-11-7-23-17-42-22-42-6 0-6 11 0 27 13 33 13 57 1 57-5 0-12-14-15-31-4-18-11-32-16-32-5 0-3 18 5 39 16 48 18 66 5 66-6 0-16-18-22-39-14-42-39-78-28-40 3 12 9 35 13 52 11 44-12 25-28-23-14-46-37-75-26-34 20 76 21 90 5 77-8-7-21-34-29-60-8-27-18-48-23-48-5 0-2 21 7 47 20 58 13 86-10 37l-16-37 6 34c4 22 1 34-6 34-7 0-12-8-12-18 0-10-5-26-11-34-8-12-9-7-4 19 11 56-13 31-34-36-10-31-21-57-26-57-4 0-1 22 7 50 17 57 19 80 6 72-5-3-15-27-22-53-7-27-17-48-22-48-5 0 0 25 12 55 24 64 23 61 11 61-5 0-17-19-26-42-20-51-30-56-16-8 12 44 12 63-1 55-6-4-10-16-10-27 0-11-6-20-12-20-6 0-8 8-5 19 5 14 1 22-12 26-10 3-47 18-82 34-53 23-83 28-194 33-113 5-137 9-174 31-24 13-52 25-62 25-28 0-17 93 14 124 31 31 25 58-12 63-28 3-39-12-18-25 20-12-1-26-22-15-15 8-20 20-18 40 3 25 7 28 43 25 40-2 48 5 26 27-17 18-66 16-86-4-21-21-21-76-1-99 11-12 13-25 6-48l-9-31-1 30c-1 45-22 22-22-24 0-23-5-44-11-48-8-5-10 11-5 54 5 45 4 57-4 46-6-9-12-25-13-37-1-11-5 1-8 27l-7 47-14-63c-7-35-15-69-18-76-4-16-209-19-219-4-3 5 2 56 12 114 19 114 16 139-17 139-23 0-30-27-8-34 7-3 9-9 4-14-15-16-44 13-44 44 0 28 3 30 40 28 40-2 48 5 26 26-14 15-59 17-79 4-8-5-16-25-20-45-4-29 0-43 20-67 24-28 25-32 12-86-7-32-16-60-19-64-9-9-7 31 4 70 11 38 3 68-10 42-5-8-11-34-15-59-5-24-12-44-16-44-5 0-5 17 0 39 12 51 12 66 0 66-5 0-13-23-18-50l-8-50-6 52c-6 49-7 51-14 21-20-76-23-78-86-78-85 0-99 10-99 73 0 29-5 53-11 53-6 0-11-9-11-19 0-15-1-16-10-3-8 14-10 14-15 0-3-8-7-32-9-52-3-24-5-16-6 24-2 75-20 79-25 5l-4-55-2 60c-3 80-23 78-23-2 0-74-6-79-104-87-57-5-71-3-97 16-27 20-34 21-67 9-46-17-70-9-104 31-35 41-34 53 6 98 18 21 26 38 19 38-8 0 1 15 20 34 51 54 28 54-37 1-32-26-61-45-64-42-3 3 11 19 30 35 74 61 98 86 85 87-8 0-41-21-74-47-85-67-88-59-7 18 59 55 75 65 103 62 48-4 75 19 67 55-5 18-14 28-28 28-28 0-36-18-13-31 17-10 17-10-2-18-28-11-53 9-57 47-2 27 1 33 25 39 18 5 33 1 46-10 17-16 23-16 55-3 19 8 48 20 64 27 31 12 39 33 13 33-9 0-35-10-59-22-39-20-44-20-61-5-10 9-29 16-42 16-22 0-19 4 19 32 40 29 56 52 35 52-5 0-28-15-53-33-46-34-75-86-75-134 0-22-15-40-68-83-38-30-68-50-68-46 0 4 25 34 57 65 32 31 55 59 53 61-2 2-25-12-50-32-69-56-81-58-30-4 53 54 51 81-2 29-53-51-60-39-8 14 55 56 51 73-6 25l-41-34 36 38c36 39 39 66 4 38-17-13-17-13-4 4 27 35 2 32-50-6-28-21-55-38-59-38-5 0-19 11-32 25-13 15-38 29-54 33-16 3-39 10-51 15-11 5-29 11-39 14-10 4-18 14-18 24 0 9-6 36-13 58-12 42-29 55-30 22 0-15-1-16-10-3-18 29-24 1-10-47 7-26 10-50 8-53-3-3-11 15-18 40-6 24-15 51-21 59-15 23-23-4-11-36 17-45 3-43-17 2-20 46-33 31-16-17 6-17 6-31 2-31-5 0-14 21-21 47-6 26-17 47-23 47-11 0-10-20 3-73 3-9-2-1-11 18-8 19-19 34-24 34-11 0-12 7 12-83 12-42 19-80 17-82-3-3-16 30-29 74-13 44-27 77-33 74-5-3-6-20-2-36 4-19 2-31-5-31-6 0-11-5-11-12 0-6 7-9 16-5 9 3 16 0 16-8 0-8 2-29 6-47 6-31 5-33-24-33-18 0-35-3-38-7-4-3-34-18-67-31-55-22-63-23-84-9-13 9-29 16-36 16-6 0-24 9-40 20-16 11-42 24-59 28-31 7-193 154-272 245-37 44-69 65-69 47zm1364-380c0-10-121-111-138-117-7-2 17 25 55 60 65 61 85 75 83 57zm-30-178c0-5-11-15-24-23-24-14-24-14-4 8 22 24 28 27 28 15zm825-85c-32-117-40-140-45-135-3 3 0 33 7 67 17 87 21 99 33 92 5-4 8-15 5-24zm351-136c-9-17-10-16-11 4 0 12 4 38 8 58l8 35 3-39c2-22-2-47-8-58zm383-114c55-7 118-40 99-51-8-5-18-2-26 8-16 23-27 11-20-19 4-13 1-27-5-31-6-4-11-14-11-22 0-11 7-14 26-9 16 4 33 1 44-7 15-13 16-12 11 17-4 19-1 39 8 51 13 18 16 15 40-34l26-54-77 0c-75 0-78 1-104 34-31 41-76 67-148 84-35 9-53 19-56 32-3 17 4 18 74 12 42-3 96-8 119-11zm-68-84c23-9 47-26 53-37 5-11 8-19 4-19-16 0-110 54-110 63 0 13 3 13 53-7zm-1331-1134c27-4 50-12 50-19 0-7-19-28-42-47-32-25-42-41-42-63 0-60 68-110 115-85 13 7 21 7 21 1 0-6-9-13-20-16-10-4-23-22-29-40-8-31-15-35-62-43-28-5-71-10-94-11l-42-1 0 42c-1 77-10 89-69 89-28 0-51 2-51 4 0 2 14 19 31 38 32 34 43 86 21 100-6 3-10 15-10 25 0 14 13 21 60 30 33 6 72 9 87 7 14-3 48-7 76-11zm1211-42c-4-9-6-37-6-63 0-33-4-46-14-43-21 7-7 123 15 123 6 0 8-7 5-17zm253-64c-2-16-4-3-4 29 0 31 2 44 4 28 2-16 2-41 0-57zm381 53c0-21-3-26-12-17-6 7-9 19-5 29 9 25 17 19 17-12zm-1606-261c0-8-8-15-16-15-9 0-16 7-16 15 0 9 7 16 16 16 8 0 16-7 16-16zM3943 5712c-4-6-16-10-27-10-11 0-20-8-20-16 0-9 3-16 7-16 11 0 77 40 77 47 0 10-31 6-37-5zM4758 5703c-6-11-14-41-18-66-5-41-4-44 9-27 18 22 29 23 29 3 0-25 21-30 43-10 21 19 21 19 14-9-12-47 13-34 37 20 34 79 24 98-30 55l-27-21-12 34c-14 41-31 49-45 21z" transform="matrix(.02286 0 0 -.02286 -1.332 155.51)"/>
	<path d="M3686 5664c-65-51-75-81-13-38 54 37 60 38 31 3-45-53-37-76 10-32 56 52 64 64 58 85-7 29-34 23-86-18zM3966 5683c-16-10-28-24-28-31 0-22 14-16 47 18 33 35 26 40-19 13zM4220 5683c-24-5-55-170-32-170 11 0 23 50 23 95 0 17 3 31 7 31 5 0 7-29 5-63-3-41 0-63 8-63 12 0 12-1 13 100 0 75 0 76-24 70zM4168 5657c0-13-7-36-15-50-17-29-22-105-6-89 9 10 43 128 43 151 0 6-5 12-11 12-6 0-11-11-11-24zM3986 5645c-18-15-28-32-26-44 4-18 8-16 38 13 53 52 44 76-12 31zM4108 5596c-37-79-41-98-21-91 11 3 69 133 71 157 1 26-20-2-50-66zM2314 5644c-5-12-1-22 9-28 11-6 14-20 12-45-4-30-1-37 13-37 15 0 16 7 11 49-8 58-33 92-45 61zM4267 5597l1-69 35 2c36 2 149 55 149 70 0 5-6 7-13 4-7-3-31-13-53-23-40-17-40-17-28 6 11 21 10 22-15 16-23-6-28-3-29 17 0 19-3 17-12-10-15-47-26-43-32 10-2 25-3 15-3-23zM3760 5611c-36-60-22-76 17-20 39 55 40 58 20 58-8 0-25-17-37-38zM4029 5618c-27-32-37-64-21-63 13 0 58 71 53 84-2 8-16-2-32-21zM4913 5627c-30-30-23-74 13-87 37-13 62 6 62 47 0 28-24 62-43 62-6 0-20-10-32-22zm43-35c0-18-17-31-31-22-14 9-1 37 16 37 8 0 15-7 15-15zM4066 5594c-26-53-28-60-13-60 15 0 44 61 40 86-3 17-8 12-27-26zM6216 5604c0-16 25-134 41-196 7-26 23-68 34-93 43-91 10-51-80 95-50 82-96 157-100 165-5 9-13 12-17 8-9-9 11-49 69-142 24-37 43-69 43-72 0-3 14-27 31-53 18-26 31-49 29-51-2-2-39 28-82 67-118 105-200 175-211 179-18 7-9-18 12-33 12-9 64-56 115-105 51-49 106-98 121-108 42-27 24-30-33-4-91 41-241 101-270 108-45 12-31-7 22-29 28-11 98-43 157-71 59-28 113-51 121-51 7 0 21-5 30-11 19-14-27-9-221 26-78 14-145 23-150 20-21-12-2-23 53-30 33-4 96-16 139-27 43-10 98-20 121-21 23 0 32-3 21-5-96-21-278-86-278-100 0-12 8-12 63 6 25 9 87 25 136 36 49 11 99 24 110 28 39 15-27-30-99-68-101-52-154-87-140-92 6-2 60 20 119 49 59 30 110 51 112 49 3-3-19-33-49-65-59-65-100-135-89-153 4-6 16 4 27 23 36 58 171 213 175 200 2-7 0-18-6-25-18-23-90-228-83-235 4-4 8-5 10-3 3 4 91 214 111 266 4 11 6-40 3-113-3-93-1-132 8-132 11 0 17 92 12 200-3 66 16 75 24 12 8-68 58-223 72-223 7 0 8 9 4 24-31 96-41 133-44 165l-4 37 18-37c38-75 89-157 99-157 14 0 14-1-56 133-61 118-62 122-26 80 37-42 166-150 179-150 30 0-48 84-157 170-43 34-20 34 34 0 63-38 188-107 197-107 33 0-69 68-206 138-67 34-59 36 33 9 156-47 215-62 223-57 18 11-4 23-78 41-42 10-85 23-95 28-10 5-39 14-63 18-44 9-44 9 24 13 38 2 103 4 146 4 47 0 79 4 82 11 6 17-123 26-223 15-86-9-115-6-61 5 16 4 63 18 103 32 41 13 91 28 113 32 22 4 40 13 40 21 0 14-131-16-252-58-41-15-52-16-38-5 11 8 25 15 30 15 5 0 40 21 78 47 37 26 86 57 109 69 40 20 54 42 28 41-7 0-67-35-134-78-66-43-121-77-123-75-2 2 43 53 101 113 58 60 106 112 106 117 0 24-36-5-115-91-82-88-119-114-82-56 8 13 31 52 50 86 19 35 43 73 54 85 22 24 27 61 7 55-7-3-23-23-35-46-13-23-40-70-62-104-21-35-44-81-50-103-18-60-30-46-14 16 30 120 58 245 58 260-1 13-3 12-15-3-29-38-85-344-60-329 7 5 10 2 6-9-4-9 0-18 10-22 18-7 15-39-10-87-12-23-15-24-21-9-4 10-18 18-31 18-13 0-26 7-29 15-9 22 17 85 35 85 12 0 15 13 14 58-3 137-18 304-28 304-10 0-6-120 8-278 4-46 0-36-36 68-22 66-43 143-47 171-4 27-11 50-17 50-5 0-10-6-10-14zM3800 5562c-39-42-49-60-34-60 15 0 98 76 98 90 0 26-22 16-64-30zM5024 5582c-13-51-3-74 36-78 40-4 53 9 53 53 1 36-13 37-29 2-16-34-40-28-36 9 5 35-16 47-24 14zM2394 5570c0-10 10-15 28-15 23 0 25 2 14 15-7 9-20 16-28 16-7 0-14-7-14-16zM4538 5499c1-89 11-120 31-90 11 17 0 107-18 151-12 28-13 23-13-61zM4607 5570c-5-9-12-131-9-166 1-5 8-4 17 4 10 8 15 30 14 61-1 62-13 115-22 101zM2468 5550c0-17 28-30 44-20 7 4 4 12-8 21-25 18-36 18-36-1zM4421 5547c-21-9-51-19-68-23-17-4-33-13-35-21-4-11 2-13 29-8 29 6 32 5 22-8-20-24 6-31 37-11 15 10 30 26 33 37 4 17 34 39 34 25 0-4-15-27-33-52-29-41-34-78-7-62 19 12 52 99 45 120-8 24-9 24-57 3zM4505 5537c0-18-7-52-16-75-14-42-8-64 15-50 15 10 23 92 12 127l-10 31-1-33zM4686 5547c-3-10-15-41-25-68-12-31-15-52-9-56 12-8 36 45 47 103 8 40-1 54-13 21zM5152 5557c-3-4-8-26-12-47-9-45 6-53 24-13 7 14 19 26 27 26 17 0 29-25 21-46-9-24 15-30 28-6 17 32 2 62-38 79-41 17-44 18-50 7zM4717 5491c-46-68-54-88-31-81 17 6 84 120 79 135-2 7-24-18-48-54zM5283 5531c-28-77-18-133 14-72 8 17 21 32 27 34 8 3 8 13-1 33-16 35-29 36-40 5zM8367 5528c-20-43 2-78 49-78 45 0 52 28 8 33-18 2-29 10-29 19 0 9 6 14 14 13 9-2 22-1 30 2 13 5 13 9 3 22-21 25-62 19-75-11zM2408 5529c-7-20 4-37 23-37 21 0 30 19 15 37-16 19-30 19-38 0zM2546 5513c-8-13 44-39 55-28 5 5-1 15-12 23-24 18-34 19-43 5zM3918 5506c-36-25-13-42 29-20 18 9 33 21 33 27 0 16-35 12-62-7zM2363 5486c0-10 10-15 27-15 23 0 26 2 15 15-8 9-20 16-28 16-8 0-14-7-14-16zM2478 5488c0-20 40-34 55-19 15 14 10 19-26 28-22 6-29 4-29-9zM4752 5459c-45-41-59-63-40-62 17 1 107 93 97 99-5 4-31-13-57-37zM5366 5492c0-6 5-11 13-11 7 0 1-6-13-14-28-13-41-45-25-60 5-5 26-12 47-15 38-7 39-7 46 29 9 47-9 81-43 81-14 0-25-5-25-10zm31-63c0-6-4-11-10-11-5 0-13 5-16 11-4 5 1 10 10 10 9 0 16-5 16-10zM4805 5444c-58-47-72-68-45-68 16 0 118 102 110 110-3 4-32-15-65-42zM2289 5471c0-12 41-26 50-17 8 8-18 27-37 27-7 0-13-4-13-10zM2441 5467c-8-21 2-38 22-38 19 0 19 10-1 35-13 18-16 18-21 3zM2615 5461c0-20 23-37 35-25 8 8-13 45-25 45-6 0-10-9-10-20zM5478 5425c-10-31-18-63-18-72 0-9-10-39-22-66-15-35-19-53-11-61 8-8 13-7 16 4 3 8 17 52 32 97 29 87 42 154 28 154-4 0-16-25-25-56zM4005 5432c-29-21-54-40-56-42-3-2-2-6 2-10 4-4 29 8 56 26 27 18 54 33 58 33 5 0 9 7 9 16 0 23-13 19-69-23zM4841 5413c-34-34-51-58-42-58 15 0 47 30 99 92 38 46-1 23-57-34zM4100 5439c-27-11-97-84-81-84 20 0 108 66 108 81 0 7-2 13-3 13-2-1-12-5-24-10zM4884 5398c-42-50-53-74-35-74 21 0 95 109 83 121-2 3-24-19-48-47zM2352 5423c0-24 117-65 141-49 6 4 19 7 29 7 28 0 22 20-7 28-18 5-29 2-35-7-7-13-14-12-47 3-21 9-39 21-39 26 0 4-9 8-21 8-12 0-21-7-21-16z" transform="matrix(.02286 0 0 -.02286 -1.332 155.51)"/>
	<path d="M2557 5394c4-18 13-37 19-41 9-6 9-8 0-8-7 0-16 4-19 10-10 16-37 13-37-5 0-20 7-23 67-32 45-7 51-6 45 9-3 9 0 20 7 25 8 5 1 10-19 13-18 4-32 13-32 22 0 20-14 42-27 42-7 0-8-14-4-35zM4931 5376c-39-54-46-73-28-73 10 0 44 47 73 102 23 43-7 24-45-29zM5545 5406c-5-14-26-60-46-103-20-42-35-84-32-91 10-25 24-5 42 57 9 33 21 63 27 66 5 4 16 18 22 32 20 38 44 32 40-11-4-45 20-40 34 8 12 40 4 51-43 60-29 6-35 3-44-18zM8382 5415c-35-45-24-81 25-81 28 0 38 6 47 26 10 22 9 30-7 47-21 24-50 28-65 8zm40-42c-13-14-27-3-17 13 4 6 12 8 18 5 7-5 7-11-1-18zM4101 5379c-38-40-46-55-27-55 6 0 11 4 11 9 0 5 18 21 42 37 42 28 54 48 27 48-8 0-32-18-53-39zM5671 5389c-6-12-6-25 0-35 5-8 9-19 9-25 0-6-4-4-10 5-5 8-13 12-17 7-5-4-3-17 5-29 11-18 9-26-8-50-12-16-28-36-37-43-22-18-21-44 1-35 13 5 16 2 11-11-5-13-1-17 14-17 11 0 21-6 21-12 0-8 4-8 15 1 13 11 16 10 16-4 0-9 5-17 12-17 7 0 9-10 5-25-6-23-3-25 56-31 35-4 74-2 87 3 21 8 18 10-18 11-46 2-108 18-76 20 28 2 96 32 88 39-3 4-27 1-53-6-73-20-79-8-13 26 97 51 72 60-35 14l-48-21 47 48c25 26 44 50 41 53-3 3-29-13-57-36-28-23-53-40-55-37-3 2 11 23 30 47 41 52 31 72-12 24-40-46-46-43-20 8 12 23 27 42 33 42 7 0 9 12 7 31-3 21 0 32 9 32 17 0 18 12 1 29-18 18-37 15-49-6zM4165 5361c-34-31-49-58-33-58 14 0 89 69 89 81 0 21-14 15-56-23zM5321 5387c-11-28-17-137-7-137 5 0 12 11 15 24 8 32 1 133-8 113zM2667 5377c0-6 5-13 11-17 5-3 10 1 10 10 0 9-5 17-10 17-6 0-11-5-11-10zM4963 5343c-34-52-34-57-4-65 35-10 35-9 49 22 9 24 9 36-3 58l-14 28-28-43zM5271 5347c0-22-5-55-10-75-13-44-2-65 16-31 17 29 20 146 5 146-6 0-11-18-11-40zM5362 5331c-10-81-9-108 3-96 15 15 27 137 14 145-6 3-13-17-17-49zM2384 5362c0-9 7-18 16-22 25-9 57-7 57 4 0 12-8 17-45 25-21 6-28 3-28-7zM4241 5365c-29-16-70-87-78-134-9-58 14-96 58-96 36 0 52 20 114 144 49 97 49 97 29 97-8 0-25-25-37-55-37-92-48-108-72-108-30 0-40-12-24-30 18-22-5-31-25-11-27 27-17 63 15 60 44-3 57 5 41 24-8 11-25 15-43 12-16-2-29-1-29 2 0 3 17 23 37 44 38 39 47 70 14 51zM4392 5363c-15-17-49-155-40-163 8-8 8-8 36 78 25 77 27 113 4 85zM5121 5313c-22-76-23-94-5-75 14 14 39 126 30 132-4 2-15-24-25-57zM5166 5307c-13-66-9-92 9-72 13 14 24 141 13 141-5 0-15-31-22-69z" transform="matrix(.02286 0 0 -.02286 -1.332 155.51)"/>
	<path d="M4269 5333c-24-29-28-52-8-51 8 0 55 65 55 76 0 17-21 5-47-25zM4416 5310c-4-30-10-72-13-94-4-23-2-39 4-39 11 0 47 166 39 180-13 21-23 5-30-47zM4532 5356c-4-5-20-7-37-5-24 3-32-1-36-20-11-38-8-142 4-149 6-4 10 17 10 56 0 35 5 66 11 70 6 4 10-7 10-26 0-49 21-38 23 13 1 38 2 40 6 10 6-51 24-41 24 13 0 47-4 56-15 38zM5224 5352c-2-7-6-38-9-68-5-44-3-55 9-55 12 0 16 16 16 68 0 64-6 86-16 55zM4575 5348c-11-10-9-75 2-82 12-7 26 68 14 80-5 5-12 6-16 2zM5404 5321c-4-19-10-47-13-63-4-16-2-29 3-29 11 0 35 69 35 104 0 34-18 26-25-12zM4627 5337c-4-3-7-23-7-43 0-43 7-40 21 7 8 31 1 51-14 36zM5070 5302c-13-43-5-69 12-41 10 15 15 84 6 84-3 0-11-19-18-43zM2238 5316c-17-32-25-105-13-113 7-4 15 3 20 16 9 23 9 23 27-5 19-30 39-28 31 3-3 10 2 25 12 32 34 29 16 65-39 78-21 5-31 2-38-11zm56-36c-10-14-26-11-26 6 0 10 6 13 16 10 8-3 13-10 10-16zM5540 5278c-31-64-37-101-13-81 17 13 55 124 46 132-3 3-18-20-33-51zM2489 5308c0-11 10-16 28-16 28 1 28 1 9 16-26 20-37 20-37 0zM4666 5274c-7-28-9-55-6-60 7-12 32 52 33 86 1 41-15 25-27-26zM5027 5297c-20-27-24-47-8-47 13 0 34 39 30 57-3 10-10 7-22-10zM5593 5266c-40-60-48-84-25-77 13 4 75 123 68 130-3 3-22-21-43-53zM4714 5287c-13-34-13-77-1-63 5 6 14 26 20 44 14 42-3 59-19 19zM2636 5252c-14-32-22-64-19-87 4-35 4-36 15-9 6 14 22 35 34 46 12 11 22 26 22 33 0 7 6 15 13 18 9 3 6 12-10 27-13 12-25 23-27 23-2 0-15-23-28-51zM4775 5281c-23-36-35-78-20-68 17 10 45 68 41 82-3 7-12 1-21-14zM8374 5292c-5-7-3-17 3-24 13-13 76 2 79 19 3 15-73 19-82 5zM4804 5247c-8-18-12-36-10-38 8-8 35 35 36 54 0 28-10 22-26-16zM59 5252c-6-9 17-106 30-127 10-16 32-14 48 4 18 22 26 20 40-10 16-37 37-33 66 12 14 21 32 49 40 63 13 20 14 26 2 37-11 11-20 7-47-26-18-21-36-39-40-39-4 0-10 17-14 37-7 41-20 47-37 15-15-27-34-22-42 12-6 25-35 40-46 22zM2369 5244c-33-32-15-88 27-88 21 0 27 20 6 21-7 0 0 7 16 16 33 18 37 41 8 57-27 14-38 13-57-6zM4846 5230c-18-35-20-53-7-53 7 0 44 65 44 79 0 16-23 0-37-26zM4895 5226c-18-42-16-57 4-37 9 9 15 27 13 41-5 25-5 25-17-4zM2510 5226c-45-23-30-101 19-102 9 0 12 6 8 17-4 10 2 23 16 34 20 17 21 21 8 42-17 26-17 26-51 9zM8407 5232c-5-4-16-8-26-8-23 0-29-40-8-58 13-11 20-11 33 1 13 10 18 11 25 0 12-19 34 13 30 43-3 24-38 39-54 22zM4935 5203c0-9 5-16 11-16 5 0 10 7 10 16 0 8-5 16-10 16-6 0-11-8-11-16zM2712 5184c-6-7-13-28-17-47-5-26-3-36 10-41 19-8 38 9 40 36 1 10 5 24 10 32 17 28-23 47-43 20zM5019 5181c0-9 6-15 12-13 20 7 23 30 5 30-10 0-17-8-17-17zM5067 5189c-16-27-25-65-17-70 10-6 43 46 43 67 0 14-18 15-26 3zM5105 5165c-17-44-25-93-16-93 16 0 47 97 36 108-7 7-14 2-20-15zM5319 5170c-9-25-7-86 3-93 13-7 23 20 23 63 0 39-16 57-26 30zM5145 5150c-6-15-10-47-10-71 0-59 19-38 30 33 9 59-3 83-20 38zM5181 5140c-8-43 2-93 17-84 13 8 13 121 0 121-6 0-13-17-17-37zM5226 5170c-9-9-9-54-1-85 12-43 25-25 25 34 0 53-7 68-24 51zM5271 5114c0-35 5-63 11-63 5 0 10 28 10 63 0 35-5 63-10 63-6 0-11-28-11-63zM5382 5157c-3-5-8-28-12-52-8-49 10-62 20-15 4 16 10 39 13 52 7 23-9 34-21 15zM5418 5121c-22-48-26-70-13-70 9 0 55 88 55 105 0 25-24 6-42-35zM5454 5099c-26-69-13-81 20-19 32 63 33 65 13 65-8 0-23-21-33-46zM8410 5127c-8-14-13-15-17-6-8 21-24 5-24-24 0-31 25-44 47-25 11 9 16 9 16 1 0-22 28-13 34 11 13 48-31 81-56 43zM5493 5084c-23-32-30-65-14-65 12 0 49 82 42 90-4 3-16-8-28-25zM5542 5082c-23-35-37-90-20-80 18 12 45 69 41 89-3 14-7 12-21-9zM5691 5061c0-6-12-13-27-17-25-6-26-10-23-63 1-31 7-56 13-56 6 0 9 12 8 25-6 40 16 41 23 1 11-60 31-59 22 1l-7 51 30-35c17-20 37-34 44-32 10 4 5 15-15 39-16 19-27 36-24 39 2 2 25-3 50-12 53-18 97-14 48 5-18 6-46 19-63 29-50 27-79 36-79 25zM5554 5019c-18-57-7-63 20-11 26 51 27 53 8 53-7 0-20-19-28-42zM5592 5001c-19-55-21-87-6-87 9 0 17 24 37 108 12 48-13 32-31-21zM8372 5022c-4-10-8-22-10-25-7-13 40-62 60-62 31 0 54 44 42 77-12 31-32 38-32 11 0-17-2-17-20 0-24 22-32 21-40-1zM1614 4933c-4-25-9-61-13-79-7-30-4-35 21-45 35-13 69-13 89 0 20 12 10 22-32 30-42 9-54 33-16 33 33 0 37 26 7 35-37 9-23 25 20 24 81-2 68 29-17 41l-54 7-5-46zM5830 4933c-28-14-41-54-28-90 14-38 39-51 75-39 23 8 30 18 33 45 2 28-1 34-20 34-18 0-22-5-17-22 4-18 1-21-17-18-18 2-23 10-23 34 0 27 4 32 28 32 34 0 50 13 29 26-19 13-30 12-60-2zM8437 4910c-12-6-25-16-30-22-6-7-11-6-14 3-10 24-36-8-29-35 9-33-16-76-77-131-45-41-53-54-59-100-5-43-2-66 20-120 39-100 71-128 165-142 41-7 50-5 50 8 0 18-22 29-57 29-39 0-106 56-125 104-10 23-17 71-17 105 0 54 3 64 23 75 13 7 35 22 48 34 19 18 26 19 33 8 5-9 19-12 36-9 15 3 28 1 28-4 0-5 7-9 15-9 12 0 16 12 16 41 0 52-23 63-52 24l-21-28 0 29c-1 46 18 73 43 65 26-9 40 9 40 50 1 34-9 41-36 25zM3314 4886c-3-4-6-23-6-42 0-42 27-49 37-9 11 41-9 73-31 51zM3242 4814c-31-27-38-47-16-47 24 0 61 32 61 53 0 27-10 25-45-6zM3754 4795c-15-11-17-21-11-45 4-17 7-50 7-75-2-53 21-92 57-102 34-8 64 9 72 42 8 34-34 126-76 166-26 25-32 26-49 14zm79-100c0-10 5-23 11-30 17-17 7-60-15-64-10-2-29 5-40 15-17 16-20 28-16 61 3 23 1 50-5 61-5 10-7 24-3 31 10 15 68-48 68-74zM4582 4783c-31-32-32-32-39-5-11 44-28 19-28-42 0-65 11-79 34-42 18 28 34 26 48-6 7-14 19-26 28-26 20 0 20 14-1 54-12 23-13 36-5 44 15 14 15 49 1 49-7 0-23-12-38-26zM3137 4744c-31-37-37-61-15-61 19 0 70 55 70 77 0 27-23 21-55-16zM3332 4713c4-13 10-44 13-67 9-61 26-99 44-99 11 0 13 5 7 18-4 10-10 36-13 58-2 21-8 39-13 39-5 0-10 15-12 33-2 19-10 36-18 38-11 4-13-1-8-20zM3520 4661c-51-37-61-66-17-55 26 6 28 5 21-21-7-28 11-50 20-25 4 9 20 18 37 22 18 3 34 14 38 23 8 20-26 89-43 88-6 0-31-15-56-32zm61-25c0-9-5-16-11-16-6 0-10 7-10 16 0 8 4 16 10 16 6 0 11-8 11-16zM3021 4654c-50-53-28-76 28-30 21 16 29 30 24 42-9 24-20 21-52-12z" transform="matrix(.02286 0 0 -.02286 -1.332 155.51)"/>
	<path d="M8381 4670c-21-21-15-69 10-82 34-19 72 3 72 40 0 35-17 55-47 55-12 0-28-6-35-13zm42-34c0-6-6-12-12-14-6-2-11 4-11 14 0 9 5 16 11 13 6-2 12-8 12-13zM6153 4648c0-17 49-30 83-21 38 10 18 30-34 33-37 2-49-1-49-12zM6454 4655c-4-4-7-11-7-15 0-12 70-24 92-15 17 7 17 8-2 22-21 16-71 20-83 8zM6879 4611c1-22-5-50-13-62-18-29-6-41 28-25 14 7 39 12 55 12 46 0 72 35 35 47-10 3-35 20-54 37-19 17-39 32-43 32-5 0-8-19-8-41zM6601 4634c-15-15 19-35 57-35 28 0 41 5 41 15 0 21-80 38-98 20zM5261 4623c0-5 5-15 13-23 10-11 8-17-11-30-37-25-28-34 30-32 49 2 52 4 47 27-5 19-2 24 15 24 21 0 29 15 13 24-17 11-107 19-107 10zM6753 4602c4-20 50-31 81-19 16 6 15 8-3 22-30 22-82 20-78-3zM6411 4584c-17-28-23-111-7-111 5 0 14 14 20 32 6 17 19 31 28 31 20 0 21 20 1 27-8 4-13 12-10 20 10 26-15 26-32 1zM2910 4564c-23-25-30-49-13-49 16 0 64 43 64 59 0 22-25 18-51-10zM7018 4555c-10-16 25-40 60-40 37 0 49 18 24 37-24 18-73 20-84 3zM8337 4532c-19-59-2-80 67-80 30 0 58 3 62 6 11 12-5 36-25 36-13 0-22 11-28 34-7 26-15 35-36 37-23 3-29-2-40-33zm42-22c0-9-5-16-10-16-6 0-11 7-11 16 0 8 5 16 11 16 5 0 10-8 10-16zM3581 4536c-27-26-27-44-2-67 25-23 52-24 33-1-11 13-9 15 18 9 54-11 60 44 8 68-34 15-33 16-57-9zM6496 4550c-13-13-7-24 14-24 12 0 21-4 21-9 0-4-13-8-29-8-22 1-30-5-32-24-5-30 13-43 57-43 34-1 46 14 46 53 0 37-56 76-77 55zm30-66c3-6-1-11-10-11-9 0-16 5-16 11 0 5 4 10 9 10 6 0 13-5 17-10zM4137 4547c-7-51-3-137 7-137 7 0 16 9 19 21 9 29 54 28 61-1 12-44 34-15 34 43 0 58-22 87-34 43-4-15-14-22-30-22-14 0-25 4-25 8 0 10-31 53-32 45zM4617 4528c-7-13-2-117 7-126 5-4 14 1 22 11 14 20 37 24 37 8 0-6 7-11 16-11 19 0 20 22 3 40-10 10-10 15 0 25 30 30 1 41-31 12-18-16-20-15-26 16-6 31-19 42-28 25zM5544 4521c0-10-9-16-25-16-36 0-41-27-12-61 20-23 29-27 44-18 31 20 40 43 29 74-11 33-36 47-36 21zm0-59c0-6-5-10-10-10-6 0-11 7-11 16 0 9 5 14 11 10 5-3 10-11 10-16zM6712 4508c-16-35-17-98-2-98 6 0 15 12 21 26 5 15 17 27 25 27 21 0 22 19 2 27-9 3-12 14-9 26 8 31-22 24-37-8zM7155 4524c-10-16 15-30 56-30 38 0 45 15 14 31-27 14-61 14-70-1zM6600 4513c-2-7-7-31-11-53-5-31-3-39 10-39 9 0 16 8 16 19 0 25 24 46 49 42 11-2 20 4 22 15 3 13-3 18-22 18-15 0-34 3-43 6-9 4-18 0-21-8zM2813 4491c-43-59-29-103 18-59 17 16 25 34 23 50-4 34-20 38-41 9zM3937 4505c-111-34-132-85-57-142 44-34 69-34 103 1 44 44 46 114 3 143-13 9-14 9-49-2zm47-67c-2-45-30-82-55-73-28 10-75 58-69 69 10 15 91 50 109 46 11-2 15-14 15-42zM7299 4497c5-24 83-34 83-10 0 18-22 28-60 28-19 0-25-5-23-18zM2019 4486c-3-8-1-19 5-25 16-16 60-6 63 13 5 23-60 34-68 12zM3410 4498c-15-15-8-53 13-72 25-23 36-16 28 18-8 32-32 63-41 54zM4312 4498c-15-15-6-25 22-26l29-1-26-7c-30-9-43-51-20-66 23-14 68-10 82 7 14 16 7 63-12 86-12 14-63 18-75 7zm56-67c0-6-7-10-16-10-8 0-15 4-15 10 0 6 7 11 15 11 9 0 16-5 16-11zM4452 4489c0-10 10-16 24-16 23 0 23 0-2-13-33-17-38-33-16-54 19-20 68-22 86-4 18 17 16 51-3 79-20 28-89 34-89 8zm58-58c-4-6-14-10-22-10-9 0-13 4-10 10 4 6 14 11 22 11 9 0 13-5 10-11zM4761 4479c-15-58 15-91 66-74 58 21 39 100-23 100-30 0-38-5-43-26zm67-30c-2-12-9-24-16-26-16-5-29 23-20 45 9 23 40 6 36-19zM4900 4498c-11-11-8-75 3-82 5-4 16 7 24 23 18 39 50 45 50 9 0-32 14-43 31-23 10 12 9 22-4 47-15 28-23 33-57 33-22 0-43-4-47-7zM7428 4482c-10-16 15-30 55-30 41 0 54 16 25 31-27 14-71 14-80-1zM2153 4464c-8-15-7-24 5-33 9-7 16-19 16-27 0-17 44-31 68-22 24 9 19 21-15 37-21 9-29 18-25 29 3 9-1 21-9 26-21 14-28 12-40-10zM5221 4471c-16-16-17-47-1-56 6-4 15-2 20 6 6 9 11 7 20-10 15-29 30-28 44 3 16 36-4 70-42 70-16 0-34-6-41-13zM7576 4473c-11-18 5-31 37-31 34 0 51 18 30 32-20 12-59 12-67-1zM7685 4470c-1-7-1-17 0-22 1-5-9-21-21-34-30-32-20-42 18-21 50 27 91 66 83 79-10 16-79 15-80-2zM1916 4441c-4-6 0-19 8-29 9-10 14-24 11-31-3-7 0-13 7-13 6 0 11 7 11 16 0 11 8 15 24 13 30-4 37 17 7 22-12 2-24 10-28 18-6 18-30 20-40 4zM3662 4441c-35-20-13-92 27-94 5 0 7 7 3 16-4 11 1 16 20 16 28 0 34 18 15 53-12 22-37 25-65 9zM2071 4428c2-7 16-19 30-26l25-13-28 0c-16 0-31 5-35 11-13 21-28 9-23-17 5-26 3-27-25-22-23 5-30 2-30-9 0-19 54-21 83-3 15 10 29 10 59 0 22-6 43-9 48-6 17 10 9 25-17 36-15 5-26 15-26 21 0 17-28 42-48 42-9 0-15-6-13-14zM5450 4431c0-17-55-65-91-80-20-8-35-20-35-25 0-18 32-25 54-12 18 11 19 10 13-14-8-31 10-36 26-8 9 16 11 15 21-11 11-28 26-37 36-20 3 5 1 28-4 52-6 27-6 61-1 87 8 33 7 42-5 42-8 0-14-5-14-11zM5582 4416c-32-26-22-47 14-27 29 15 39-6 16-32-19-21-16-24 24-21 25 2 30-9 12-28-7-6-10-17-8-24 5-13 62 26 62 43 0 11-76 113-84 114-3 0-19-11-36-25zM6385 4402c-14-49-15-86-2-86 11 0 17 17 28 74 9 53-12 63-26 12zM1831 4415c-9-21 9-40 33-35 24 5 33 30 11 30-9 0-16 5-16 11 0 16-22 12-28-6zM2722 4373c-36-40-43-57-20-57 23 0 62 48 58 72-3 21-7 19-38-15zM6453 4391c-2-4-7-25-11-47-9-45 10-55 26-13 14 38 40 34 44-8 2-18 8-34 14-34 13 0 20 68 8 81-14 13-75 29-81 21zM6585 4376c-6-15-14-44-18-66-11-60 18-42 34 22 14 56 1 91-16 44zM7565 4374c-16-11-18-18-9-27 9-10 19-8 40 5 15 10 27 23 27 28 0 14-36 11-58-6zM3466 4355c25-48 62-78 62-49 0 20-43 73-59 73-12 0-13-5-3-24zM3730 4351c-39-30-36-57 3-31 14 9 32 13 41 10 9-3 17-1 17 6 0 7 9 9 26 5 28-7 34 4 13 25-20 20-63 14-100-15zM1801 4359c-3-5 3-16 13-24 21-16 123-20 123-4 0 6-4 9-9 8-6-2-13 1-16 6-9 13-104 25-111 14zM5198 4359c0-7 5-14 13-16 7-2 29-9 49-15 39-13 67-1 47 19-17 16-109 26-109 12zM2237 4332c0-9 7-13 21-9 32 8 36 24 5 24-16 0-26-6-26-15zM4297 4277l3-71 36-7c51-11 100 15 90 46-4 13-11 40-14 60-7 36-9 37-63 40l-55 3 3-71zm71 39c0-6-7-11-16-11-8 0-15 5-15 11 0 5 7 10 15 10 9 0 16-5 16-10zm9-57c14-16 5-27-21-27-12 0-19 7-19 21 0 23 23 27 40 6zM6644 4340c-11-3-19-16-20-31-1-14-2-31-3-38 0-7 13-20 30-28 27-13 32-12 44 5 21 28 18 75-6 88-11 6-22 10-23 10-2-1-12-4-22-6zM7468 4320c-26-18-32-46-10-46 15 0 60 42 60 55 0 13-26 8-50-9zM748 4313c-20-19-15-46 15-81 30-37 26-56-7-27-25 23-36 16-28-18 14-54 75-58 102-7 10 19 7 27-22 57-36 37-35 74 2 41 30-28 50-3 21 26-25 24-64 29-83 9zM5142 4319c-13-12-8-23 14-30 14-4 21-16 21-35 0-35 17-54 48-54 28 0 42 23 41 67 0 28-5 32-53 45-61 16-62 16-71 7zm89-72c0-5-6-11-12-13-6-3-11 4-11 13 0 10 5 16 11 14 6-2 12-8 12-14zM6001 4312c-44-32 20-159 77-152 26 3 28 6 27 65 0 51-4 65-24 81-29 24-53 25-80 6zm70-35c20-19 25-52 9-76-8-13-12-13-27-1-29 25-48 69-34 82 17 17 29 16 52-5zM1832 4305c-9-14 3-31 22-31 8 0 15 9 15 21 0 21-25 28-37 10zM2011 4297c-5-13-9-14-18-4-17 16-29 15-29-3 0-8 9-17 21-20 11-3 21-13 21-22 0-12 9-16 34-16l34 0-26 21c-15 11-21 20-14 20 18 1 17 28-1 35-9 4-18-1-22-11zM2103 4302c5-15 60-24 60-9 0 11-25 23-49 23-9 0-14-6-11-14zM2186 4298c3-19 64-39 90-30 27 10 12 27-23 27-20 0-39 4-43 10-10 17-28 12-24-7zM4469 4308c-14-24-18-89-6-103 16-20 77-20 97 0 19 18 8 87-15 101-18 11-69 12-76 2zm49-31c-7-3-21-3-32 0-10 2-4 5 13 5 18 0 26-2 19-5zm15-43c3-8-5-13-22-13-27 0-35 10-20 25 11 11 37 3 42-12zM3797 4298c-3-4-7-19-7-34 0-27-1-27-16-6-16 20-16 20-21-2-6-22-44-45-73-45-17 0-21-27-7-36 20-12 116 7 122 24 7 22 30 57 42 66 5 3 6 14 3 23-7 17-30 23-43 10z" transform="matrix(.02286 0 0 -.02286 -1.332 155.51)"/>
	<path d="M4599 4289c0-9 7-31 16-48 20-38 12-51-42-72-38-15-51-42-20-42 32 0 88 43 136 105 41 54 45 64 30 70-17 6-37-11-51-43-3-7-15 1-27 17-25 32-42 37-42 13zM5667 4271c-45-39-50-55-14-46 17 4 27 1 31-9 13-32 81-6 81 30 0 16-36 59-49 59-5 0-27-15-49-34zm66-24c0-8-7-15-16-15-16 0-21 12-8 24 12 12 24 8 24-9zM6752 4260l0-44 22 29c28 37 41 36 41-3 0-21 5-31 15-31 11 0 16 10 16 30 0 53-9 64-54 64l-40 0 0-45zM6955 4289c-4-9-15-13-29-10-26 6-41-2-57-33-16-31 4-55 52-63l38-6 12 54c6 30 12 59 12 64 0 16-22 12-28-6zm-19-67c-10-17-37-14-37 3 0 18 22 28 35 17 5-5 6-14 2-20zM5534 4264c-34-29-36-32-23-57 22-40 54-43 82-9 27 32 29 47 14 76-15 28-30 25-73-10zM1890 4269c0-15 22-27 48-27 24 0 17 28-9 35-34 10-39 9-39-8zM2609 4263c-14-16-16-24-7-34 9-9 17-7 33 8 24 21 28 47 7 47-7 0-22-10-33-21zM1787 4255c-15-29-23-117-11-124 6-4 13 3 16 15 7 28 16 28 33 1 13-22 38-18 30 4-2 7 5 22 16 35 26 28 17 64-19 78-38 14-55 12-65-9zm72-39c0-17-10-20-36-10-26 10-20 26 9 26 17 0 27-6 27-16zM2079 4254c0-26 23-35 74-26 65 10 50 32-18 26-13-1-26 3-30 9-10 17-26 12-26-9zM3545 4265c-3-5 1-18 9-29 8-12 12-31 9-46-5-22-4-24 8-14 7 8 22 14 33 14 27 0 23 18-12 53-33 33-39 35-47 22zM3942 4247c-31-30-26-44 27-84 46-34 63-33 100 5 26 28 28 35 17 58-23 51-103 63-144 21zm115-17c14-12-10-61-29-61-24 0-80 35-80 50 0 29 81 37 109 11zM5358 4238c-25-31-32-69-14-69 15 0 44 60 40 81-2 14-8 11-26-12zM7399 4236c-29-28-37-57-15-57 14 0 57 70 49 78-3 3-18-7-34-21zM3086 4196c-21-19-44-37-52-40-9-3-11-12-6-24 5-15 10-17 19-7 24 23 36 13 31-25-4-40 17-53 27-15 4 15 11 19 26 15 25-8 61 21 61 50 0 23-41 82-57 81-6 0-28-16-49-35zm64-21c0-3 3-12 6-21 5-12 1-17-14-17-21 0-38 24-26 36 7 7 34 8 34 2zM1931 4187c-30-23-34-57-10-81 31-31 57-29 49 4-4 17-1 27 9 31 22 8 20 35-4 48-25 13-23 13-44-2zM2148 4174c-18-27-23-110-7-110 10 0 43 58 43 76 0 6 8 16 17 23 10 7 14 18 10 25-12 20-45 13-63-14zM2520 4171c-20-25-21-29-6-32 21-4 48 16 48 35 0 27-20 26-42-3zM4116 4184c-15-7-34-26-42-42-14-26-13-29 20-58 40-35 38-34 64-21 16 9 19 21 16 59-4 63-22 82-58 62zm25-55c-9-39-12-41-32-21-14 14-15 20-4 34 23 27 44 20 36-13zM5591 4164c-26-39-12-69 32-69 30 0 37 5 43 28 15 57-43 90-75 41zm43-35c-10-10-19 6-10 20 6 11 9 11 12 0 3-7 2-16-2-20zM2050 4166c-18-9-23-20-23-51 0-35 3-42 27-47 31-8 60 12 38 26-11 6-11 11 2 22 37 30 1 70-44 50zM5772 4153c-24-33-23-39 7-68 25-22 27-23 53-5 31 20 38 53 9 41-10-4-25-9-32-12-18-8-16 23 3 38 8 8 13 18 10 23-11 16-31 9-50-17zM3633 4158c0-29 28-64 60-74 26-9 33-15 25-24-15-15-15-49 1-49 7 0 20-8 31-17 20-19 35-13 52 19 11 20 9 21-15 15-22-5-28-2-36 22-6 16-15 38-19 49-6 17-5 19 9 14 16-6 39 18 39 39 0 15-38 4-61-18l-25-23-21 29c-21 28-40 37-40 18zM6649 4156c-7-7-13-35-13-63 0-53 16-71 62-71 44 0 75 73 37 88-24 9-38-3-30-27 5-17 2-21-13-18-23 5-31 36-14 56 9 11 19 12 37 5 31-11 43 3 20 26-20 20-69 22-86 4zM3518 4142c0-8 7-15 15-15 9 0 16 7 16 15 0 9-7 16-16 16-8 0-15-7-15-16zM3566 4142c-9-23 4-49 22-42 8 3 17 6 20 6 2 0 4 11 4 26 0 19-6 26-20 26-11 0-22-7-26-16zM3833 4143c0-15 38-34 48-24 2 2 2 12-2 22-8 21-46 23-46 2zM7316 4152c-9-9 4-103 17-117 9-10 17-6 33 18 11 17 34 37 50 43 42 18 34 46-14 46-20 1-46 4-58 9-12 4-24 5-28 1zM2229 4141c-16-7-18-56-3-56 6 0 11-6 11-12 0-6-10-8-22-4-18 6-22 3-19-12 2-11 12-21 23-23 28-6 51 19 44 46-3 14-1 27 5 31 8 5 8 12-1 22-13 15-17 16-38 8zM8376 4135c-21-6-39-15-39-19 0-16 72-86 82-80 6 4 12 22 15 41 3 18 7 41 9 49 5 19-17 22-67 9zM5266 4100c-10-20-16-40-12-44 10-10 59 45 59 66 0 28-27 15-47-22z" transform="matrix(.02286 0 0 -.02286 -1.332 155.51)"/>
	<path d="M3812 4099c0-13-7-15-32-9-43 9-41-12 3-25 49-15 110-9 131 13 18 18 17 19-16 12-26-5-36-3-40 9-9 22-46 22-46 0zM3501 4093c-10-15 24-40 55-40 14 0 25-5 25-11 0-6-12-8-28-4-23 6-26 4-23-12 4-24 50-33 62-13 20 31 10 58-23 65-18 3-29 11-25 17 3 6-3 11-15 11-11 0-24-6-28-13zM5681 4095c0-6-7-10-15-10-8 0-20-8-27-16-11-13-10-21 4-42 22-34 53-34 75 0 14 22 16 32 6 53-11 25-43 36-43 15zM2427 4071c-23-25-30-49-14-49 10 0 65 55 65 66 0 15-29 6-51-17zM3619 4078c-13-13-7-33 11-40 23-9 45 12 25 25-12 7-12 9 0 14 9 4 6 6-7 7-12 0-25-3-29-6zM5850 4060c-32-34-28-41 15-32l38 7-18-28c-23-35-14-46 21-23 31 20 34 47 7 78-25 29-34 28-63-2zM3986 4065c-4-6-2-14 5-18 16-10 26 4 13 18-8 7-14 7-18 0zM3146 4044c-22-24-22-74 0-82 9-4 20-2 23 4 4 6 17 13 28 15 28 5 34 48 9 67-26 20-39 19-60-4zM8333 4047c-11-28-7-46 9-46 10 0 16 9 16 25 0 31-16 44-25 21zM3906 4022c0-20-5-32-14-32-22 0-29 12-16 28 9 11 6 14-15 14-17 0-28-7-32-22-7-27 35-45 84-36 42 8 53 34 25 60-28 26-32 24-32-12zM4037 4031c-5-7 0-19 11-27 38-27 51-10 17 22-15 13-22 15-28 5zM3980 4011c0-14 7-21 21-21 23 0 26 11 8 29-19 19-29 16-29-8zM5177 4005c-33-28-42-57-18-57 17 0 70 54 70 71 0 20-17 15-52-14zM5747 4012c-41-25-51-41-36-57 8-8 15-8 24 1 7 7 21 13 30 13 10 0 21 11 24 24 13 47 8 49-42 19zM6086 4003c-10-31 12-99 41-128 27-26 27-27 43-6 30 40-10 153-54 153-14 0-27-8-30-19zm56-33c13-25 15-74 2-74-11 0-33 48-33 73 0 27 17 27 31 1zM2368 4001c-7-12-71-31-114-34-30-3-36-17-16-37 8-8 20-9 37-2 36 13 54-7 48-53-7-48 21-38 30 11 3 20 14 54 24 76 9 23 17 43 17 45 0 8-20 4-26-6zM4121 4000c-4-6-5-14-1-17 7-8 28 6 28 18 0 14-19 13-27-1zM7315 4004c-14-14-7-66 9-66 10 0 16 10 16 30 0 31-13 48-25 36zM3633 3985c0-16 48-34 60-23 10 11-19 39-40 39-11 0-20-7-20-16zM3530 3969c6-29 93-25 93 4 0 10-15 13-48 13-36-1-47-5-45-17zM4176 3970c-6-22 7-30 18-12 3 5 16 6 28 3 17-4 21-2 18 9-3 8-17 16-32 18-19 2-28-3-32-18zM4059 3969c-4-5-14-7-22-4-10 4-15 0-15-11 0-14-4-15-22-6-29 16-42 2-16-17 27-19 84-20 76-1-3 10 4 13 26 10 32-5 39 6 17 27-15 15-36 16-44 2zM5919 3973c-15-15-7-64 12-81 25-23 26-23 69 15 42 37 47 52 17 52-11 0-23 4-27 10-7 12-61 14-71 4zm56-35c0-14-20-24-32-16-6 3-8 11-5 16 8 13 37 13 37 0zM3225 3952c-28-19-29-58-3-81 20-19 35-14 26 8-3 10 3 12 22 9 30-6 36 13 17 49-15 27-37 33-62 15zM3457 3956c2-7 15-19 28-25 22-11 22-13 6-29-20-20-19-22 11-31 43-13 49 8 15 54-30 41-70 61-60 31zM8348 3961c0-6 7-16 15-24 9-7 14-21 11-32-8-23 9-34 33-21 11 5 28 13 38 16 27 8 10 30-19 24-19-3-26 1-28 18-3 22-50 39-50 19zM3801 3942c0-8 12-27 27-43l27-30-4 27c-4 24-2 26 31 22 21-2 35 1 35 8 0 6-9 12-20 12-10 0-22 3-27 7-14 14-69 12-69-3zM4123 3936c-6-25 33-72 61-72 13 0 14 3 3 20-6 12-21 23-32 26-15 4-18 11-13 27 4 12 2 22-3 22-6 0-13-10-16-23zM3381 3932c0-17 28-33 39-22 7 7-17 38-30 38-5 0-9-7-9-16zM3623 3932c0-10 10-15 31-15 37 0 42 15 8 24-35 10-39 9-39-9zM3744 3938c-9-15 2-32 21-32 19 0 19 15 0 31-10 8-17 9-21 1zM5079 3936c-32-12-39-41-10-40 23 0 55 24 55 40 0 14-6 14-45 0zM4200 3918c0-12 9-27 21-33 16-9 21-8 21 3 0 8-9 23-21 34-20 18-21 18-21-4zM3577 3910c-4-4-2-14 5-21 13-17 72-20 72-4 0 6-9 11-20 11-12 0-24 4-27 10-8 12-20 14-30 4zM3691 3906c-4-7-3-17 3-23 7-7 13-6 18 2 4 7 3 17-3 23-7 7-13 6-18-2zM3897 3895c3-8 11-16 19-19 8-2 12 2 9 10-2 7-11 16-18 18-8 3-12-1-10-9zM3987 3899c-10-9 13-35 31-35 17 0 18 13 1 29-14 15-22 16-32 6zM4064 3896c0-11 40-26 49-18 3 3 2 11-2 17-8 14-47 15-47 1zM4951 3897c-42-9-43-39-2-36 31 2 60 19 60 36 0 10-11 10-58 0zM3302 3860c-23-20-39-39-35-43 10-10 93 19 93 34 0 10 4 11 21 0 25-15 40-3 25 21-20 32-59 27-104-12zM3423 3874c0-12 7-24 16-27 21-9 35 5 16 16-7 5-10 14-6 21 4 6 0 12-10 12-9 0-16-10-16-22zM4337 3882c0-20 17-33 25-19 3 5-1 15-10 22-13 11-15 10-15-3zM2220 3857c-21-20-26-30-16-33 15-5 65 29 72 49 8 22-25 13-56-16zM5986 3870c-17-20-7-64 16-73 11-4 27 3 44 20 21 22 25 31 16 45-14 24-60 28-76 8zM7310 3857c4-38 35-41 35-4 0 17-7 28-19 30-16 3-19-2-16-26zM8308 3871c-25-11-32-39-10-38 22 0 41 17 37 33-2 13-8 14-27 5zM3948 3859c-10-12-17-13-27-5-9 7-15 7-20 1-12-20 63-45 81-27 8 8-3 47-13 47-4 0-14-8-21-16zM4263 3864c0-6 7-10 16-10 8 0 16 4 16 10 0 6-8 11-16 11-9 0-16-5-16-11zM4796 3867c-10-2-18-12-18-21 0-13 7-14 39-8 45 8 55 13 55 27 0 10-42 11-76 2zM3774 3830c3-19 5-38 5-42 1-4 11-8 24-8 21 0 21 1 4 20-13 14-14 21-5 24 18 6 4 40-16 40-12 0-15-9-12-34zM3530 3835c4-21 48-31 64-14 8 8 5 12-11 12-12 0-25 4-29 10-11 17-28 12-24-8zM3872 3848c-10-11 14-57 30-57 8 0 15 4 15 9 0 15-37 55-45 48zM4638 3847c-16-16-6-25 28-25 44 0 71 9 64 22-7 11-82 13-92 3zM4506 3832c-22-9-28-32-9-33 35 0 92 17 89 27-6 15-49 19-80 6zM8215 3828c-7-19 34-79 54-79 19 0 19 10-1 36-8 11-12 29-9 39 4 14 0 19-16 19-12 0-25-7-28-15zM3368 3809c-9-7-21-23-27-34-11-20-12-20-12-2 0 11-6 17-13 15-20-7-21-24-1-49 22-27 56-20 56 12 0 14 5 19 15 15 23-9 30 11 13 35-12 17-17 18-31 8zM3434 3806c0-17 27-33 38-22 8 7-16 38-29 38-5 0-9-7-9-16zM4350 3815c-31-13-10-25 36-22 28 1 50 7 50 13 0 12-65 18-86 9zM6056 3799c-36-26-37-43-4-38 13 2 32-3 41-11 17-13 39-9 39 8 0 5-11 20-24 35l-23 28-29-22zM4237 3802c-18-4-32-11-32-17 0-17 64-18 78-2 16 20-2 27-46 19zM2126 3780c-3-6 5-10 21-10 14 0 27 4 27 10 0 6-10 11-21 11-11 0-23-5-27-11zM4129 3773c-26-18-32-45-10-45 15 0 60 42 60 55 0 12-25 7-50-10zM7340 3762c0-24 27-63 36-54 10 10-9 64-24 70-7 2-12-5-12-16zM3486 3747c0-6-9-9-21-6-29 8-37-10-11-24 17-9 23-8 28 4 4 11 16 14 42 10 36-6 50 10 19 22-27 10-57 7-57-6zM3938 3740c0-11 11-30 26-44 22-21 26-22 26-7 0 22-30 70-43 70-5 0-9-9-9-19zM8310 3736c-8-13 22-40 45-40 16 0 17 6 3 32-12 23-37 27-48 8z" transform="matrix(.02286 0 0 -.02286 -1.332 155.51)"/>
	<path d="M3497 3696c0-24 27-40 41-25 5 5-2 18-16 28-25 19-25 18-25-3zM1976 3682c-25-27-29-38-11-38 16 0 72 41 72 53 0 18-39 9-61-15zM4077 3695c-18-22-28-72-15-72 16 0 35 39 31 65-3 18-5 20-16 7zM8391 3689c5-24 34-40 57-31 19 7 18 9-6 28-32 25-55 26-51 3zM8197 3679c-3-4 1-17 9-29 9-12 16-38 16-57 0-40 18-41 38-3 19 39 34 48 75 48 27 0 39 5 39 16 0 18-45 28-60 12-7-7-27-5-60 5-26 8-49 14-49 14-1 0-4-2-8-6zM1512 3654c-25-25-26-34-5-73 27-53 94-56 120-6 13 23 12 29-5 47-25 28-52 27-73-2-13-18-16-19-16-6 0 10 5 21 11 24 5 4 10 14 10 22 0 21-17 19-42-6zm84-69c0-19-23-15-29 4-2 7 3 13 12 13 10 0 17-8 17-17zM3455 3655c0-25 24-46 48-41 29 5 29 28-1 36-14 3-26 10-26 16 0 5-5 9-11 9-6 0-10-9-10-20zM7382 3651c0-30 13-60 27-60 17 0 19 25 4 53-13 23-32 27-31 7zM4011 3637c1-24 29-63 39-53 10 10-10 62-26 67-7 3-13-4-13-14zM1866 3593c-32-33-35-44-15-44 17 0 60 44 60 61 0 20-15 15-45-17zM8161 3599c-17-16-16-39 1-39 17 0 39 21 39 38 0 17-24 18-40 1zM3483 3594c-4-6 7-27 26-45 31-32 34-33 47-15 8 11 14 27 14 37 0 28-22 36-28 11-3-13-9-22-13-22-12 0-29 15-34 30-4 11-7 12-12 4zM1449 3533c0-17 74-68 100-68 32 0 14 27-37 55-61 34-63 34-63 13zM2565 3532c-3-11-12-23-18-27-8-5-7-11 2-20 9-10 16-10 27 0 11 8 18 9 22 2 4-7 12-11 17-11 18 0 10 26-16 50-25 24-27 24-34 6zM7440 3540c-8-14 9-57 29-73 24-20 32 3 13 39-19 36-33 48-42 34zM3467 3523c2-9 8-17 14-17 15 1 12 25-4 30-9 3-13-2-10-13zM8133 3529c-4-6 3-21 15-32 28-28 49-18 29 13-18 26-35 34-44 19zM1754 3502c-14-15-22-30-18-34 8-8 61 29 68 48 7 22-25 13-50-14zM3503 3484c-4-16 0-29 11-37 24-18 34-8 26 25-10 37-29 42-37 12zM2720 3481c0-9 4-16 10-16 6 0 11 4 11 10 0 5-5 13-11 16-6 4-10-1-10-10zM3560 3470c0-15 4-24 10-21 6 4 11 13 11 21 0 8-5 18-11 21-6 4-10-5-10-21zM2658 3476c-20-12-7-42 17-42 28 0 35 10 23 32-12 22-19 24-40 10zM6103 3473c-7-8-22-35-34-61l-22-47 6 44c9 69-10 62-26-10-15-65-15-65-19-23-5 54-23 74-24 25 0-33-1-34-12-12-16 33-33 29-25-5 4-16 9-46 13-66 10-64 14-71 28-52 7 10 31 21 52 25 31 5 46 16 64 46 41 65 71 129 67 142-2 7-13-4-23-24-24-46-70-108-76-102-2 3 8 29 24 58 27 53 32 92 7 62zM2457 3462c0-8 6-19 13-26 9-10 9-13 0-13-23 0-14-32 13-44 14-6 27-21 29-34 2-15 12-23 32-25 33-4 38 13 8 32-12 7-21 19-21 26 0 6-10 15-21 19-23 7-18 37 6 37 8 0 15 4 15 10 0 6-10 11-21 11-11 0-23 4-27 10-9 15-26 13-26-3zM1385 3449c-9-12-10-25-3-45 12-34 59-44 88-18 14 13 21 14 27 5 4-8 0-19-10-26-23-17-22-36 3-36 42 0 44 69 3 108-33 32-86 38-108 12zm55-31c0-6-5-12-11-14-6-2-11 4-11 14 0 9 5 16 11 13 6-2 11-8 11-13zM8211 3451c0-9 16-17 39-21 44-7 50-4 41 19-8 21-80 22-80 2zM2577 3443c-9-15 11-35 26-26 6 4 12 14 12 22 0 18-28 21-38 4zM2756 3444c-9-15 11-38 37-45 23-6 26 5 10 35-12 22-36 27-47 10zM1666 3415c-27-29-37-55-19-55 4 0 22 14 38 32 20 21 27 35 20 42-7 7-20 0-39-19zM4410 3436c1-8 89-76 99-76 3 0 6 6 6 14 0 8-19 27-42 42-42 28-63 35-63 20zM6153 3375c-81-96-78-119 5-33 60 62 85 103 61 101-5 0-34-31-66-68zM8316 3418c0-8 8-19 17-24 14-8 15-13 3-32-18-29-6-40 27-25 38 17 37 72 0 86-37 14-47 13-47-5zM2636 3404c0-10-6-25-14-32-10-10-9-15 3-23 28-18 45-12 38 14-3 13-6 32-6 42 0 10-5 18-11 18-6 0-10-9-10-19zM4974 3413c-3-9-17-54-32-100-15-46-30-93-34-103-4-12-2-18 9-18 18 0 41 53 60 137 12 56 11 119-3 84zM5874 3396c4-14 7-59 7-100 1-51 5-72 13-69 23 8 8 196-16 196-6 0-8-11-4-27zM6186 3356c-37-37-65-73-63-81 6-16 135 112 135 133 0 8-1 15-3 15-2 0-33-30-69-67zM6594 3368c-1-30-2-77-3-102l-2-48 37 0c36 0 37 2 70 84 35 88 40 111 26 111-5 0-23-34-39-75-39-97-51-102-24-8 14 50 17 78 10 85-7 7-14-4-22-35-22-84-32-104-25-50 6 51-2 93-17 93-5 0-10-25-11-55zM5917 3339c8-100 14-119 27-85 7 17 6 46-2 84-20 91-33 91-25 1zM7506 3407c-11-10 10-51 33-66 11-7 22-8 25-3 7 11-49 78-58 69zM8414 3396c-8-20 13-36 46-36 31 0 42 21 18 38-26 19-56 18-64-2z" transform="matrix(.02286 0 0 -.02286 -1.332 155.51)"/>
	<path d="M2546 3391c-8-13 21-25 42-17 9 4 16 11 16 17 0 14-49 14-58 0zM2699 3387c0-20 32-37 66-37 22 0 26-5 24-35-1-27 3-34 20-34 13 0 20 7 19 19-1 12 6 18 22 18 30 0 36 7 30 32-4 15-11 19-30 14-16-4-25-2-25 5 0 7-20 12-47 12-26 0-50 5-53 11-10 15-26 12-26-5zM4316 3387c0-8 28-21 70-32 112-29 119-30 119-17 0 17-59 43-99 43-20 0-49 5-64 10-20 8-26 7-26-4zM4885 3310c-39-103-39-107-20-107 8 0 25 38 42 93 31 102 32 106 20 106-5 0-24-41-42-92zM5841 3314c0-69 4-90 14-90 19 0 19 121 0 156-12 22-14 14-14-66zM6521 3394c0-4 7-20 15-34 17-29 22-126 7-126-5 0-12 15-16 34-15 72-29 113-40 113-7 0-8-11-4-29 15-63 23-118 17-118-4 0-15 26-26 58-11 32-25 58-32 58-8 0-5-22 10-66 28-83 36-96 51-84 7 5 26 8 42 6l31-2-8 75c-9 100-15 123-33 123-8 0-14-4-14-8zM6762 3393c0-6-21-48-47-94-50-89-60-120-31-96 18 15 99 170 99 188 0 6-5 11-10 11-6 0-11-4-11-9zM4789 3307c-14-46-22-87-18-91 10-10 25 15 37 60 36 132 18 160-19 31zM4866 3375c-4-11-16-43-27-71-22-52-19-75 5-48 16 17 44 123 35 132-4 4-9-2-13-13zM4697 3315c-14-40-20-69-14-75 15-14 21-4 38 63 22 83 4 92-24 12zM4760 3363c-3-10-15-44-27-74-11-30-18-61-15-70 3-8-1-37-9-64-18-60-19-68-5-68 6 0 11 5 11 12 0 7 10 33 23 59 16 32 20 49 12 52-14 5 1 74 33 153 4 11 3 18-5 18-6 0-14-8-18-18zM6753 3290c-47-81-60-120-33-103 9 6 105 177 105 188 0 24-26-7-72-85zM5181 3331c-6-37-24-100-41-142-9-21 20-26 32-6 8 12 36 150 36 174 0 31-21 10-27-26zM5245 3358c-25-77-58-191-58-203 0-38 42-2 43 36 0 15 9 59 19 99 10 39 14 73 10 76-5 3-11 0-14-8zM6187 3300c-45-48-63-73-56-80 14-13 50 19 102 89 65 88 43 84-46-9zM6249 3300c-23-34-56-79-74-102-36-45-40-58-18-58 9 0 31 22 51 49 50 70 105 171 92 171-5 0-28-27-51-60zM4305 3334c-24-29-1-71 42-81 40-8 111 4 129 22 15 15-33 16-70 1-30-11-51 6-26 22 11 7 11 13 3 28-16 24-60 29-78 8zM4994 3294c-28-84-31-102-18-102 6 0 18 11 26 24 19 28 35 134 20 134-5 0-18-25-28-56zM5289 3342c-15-24-46-171-38-183 12-20 15-13 34 90 16 88 17 114 4 93zM5802 3337c-10-31-14-134-6-134 19 0 38 131 21 141-6 4-13 1-15-7zM6790 3270c-32-46-59-89-59-96-1-25 28-14 41 15 7 16 29 54 50 84 20 29 35 60 32 67-2 8-31-24-64-70zM1334 3324c0-18 64-57 107-66 48-9 32 18-29 52-59 32-78 36-78 14zM2377 3331c-13-9-34-86-28-105 7-18 34-16 41 3 6 14 9 13 22-5 19-27 39-28 32-1-3 11 1 29 9 39 15 21 19 52 7 59-18 11-72 17-83 10zm53-33c3-5-1-12-10-15-9-4-15 0-15 9 0 17 16 21 25 6zM2590 3332c-14-14-7-23 26-34 19-6 39-7 48-2 13 7 9 12-18 26-39 19-46 20-56 10z" transform="matrix(.02286 0 0 -.02286 -1.332 155.51)"/>
	<path d="M2711 3321c2-10 14-20 27-22 26-4 30 8 11 27-19 19-42 16-38-5zM4568 3323c0-8-1-19-1-23-1-4 4-9 10-11 6-3 12 8 12 23 0 15-5 27-11 27-6 0-10-7-10-16zM5676 3313c-4-18-12-48-17-68-13-48-13-77 0-69 14 8 35 110 30 142-5 26-5 26-13-5zM5718 3327c-15-46-28-127-22-133 12-12 25 22 33 80 6 52 0 86-11 53zM5750 3315c-10-39-8-118 4-107 14 15 26 131 13 131-6 0-13-11-17-24zM6400 3318c3-14 12-58 19-97 7-44 17-71 25-71 18 0 17 37-2 101-17 57-55 118-42 67zM1553 3294c-42-53-25-69 23-22 23 22 41 44 41 48 0 21-39 5-64-26zM4412 3316c6-16 50-19 51-3 0 6-12 12-28 14-19 2-26-1-23-11zM4606 3322c-4-4-7-19-7-33 0-29 24-27 30 2 4 21-12 42-23 31zM4647 3312c-11-29-7-59 7-54 16 5 25 71 10 71-6 0-13-8-17-17zM5047 3258c-10-46-12-75-6-82 14-14 30 14 30 54 0 18 3 48 7 66 4 19 2 33-4 33-6 0-18-32-27-71zM5122 3318c-4-9-9-32-12-52-4-21-9-48-13-61-5-18-3-23 10-23 10 0 20 6 23 14 8 21 0 141-8 122zM5581 3289c-3-22-13-60-21-86-15-47-8-77 12-51 28 36 47 177 25 177-6 0-13-18-16-40zM5374 3306c-15-36-22-145-10-145 6 0 14 10 18 24 8 33 1 143-8 121zM8274 3297c-12-12-21-28-18-34 7-23 26-19 44 8 25 38 6 58-26 26zM5414 3252c-19-66-22-102-7-102 6 0 13 13 17 29 3 16 10 47 16 69 7 27 8 45 1 51-7 7-16-10-27-47zM6254 3213c-41-99-46-138-12-98 14 17 62 150 68 190 0 1-3 3-8 3-4 0-26-43-48-95zM6370 3218c4-52 8-96 9-98 2-2 9 0 16 4 15 9 8 70-15 142-16 47-16 46-10-48zM6822 3234c-52-77-69-130-29-89 23 23 95 139 95 153 0 22-19 4-66-64zM7586 3295c-7-20 35-84 49-76 15 9 9 29-17 62-21 26-27 28-32 14zM5320 3273c-3-13-8-47-12-76-6-49-6-51 10-32 10 13 16 41 16 76 0 60-5 71-14 32zM5623 3258c-3-22-10-53-15-69-11-31 1-47 18-25 17 20 29 133 14 133-6 0-14-18-17-39zM6332 3260c0-21-6-59-12-84-7-26-9-55-5-65 7-18 8-17 22 2 18 24 22 184 5 184-6 0-10-17-10-37zM6858 3209c-30-43-54-83-54-90 0-23 29-10 41 18 7 16 22 41 33 55 21 26 21 26 0-31-25-69-26-74-7-74 7 0 22 20 32 45 10 24 27 62 38 83 25 47 26 65 5 57-9-3-16-1-16 4 0 25-21 5-72-67zM2510 3256c-23-43-6-85 34-85 14 0 18 5 14 17-4 10 3 24 17 36 23 20 23 21 3 36-28 22-55 20-68-4zM5460 3251c-17-47-24-101-12-101 6 0 14 13 18 29 3 16 11 42 16 59 12 38 12 38-1 38-6 0-15-11-21-25zM2695 3258c-4-8-17-13-27-13-22 0-53-32-53-55 0-24 38-54 59-46 15 6 16 9 4 16-12 8-11 13 9 29 17 14 23 28 20 51-2 20-6 26-12 18zM2757 3241c-22-21-26-31-20-58 3-18 9-33 13-33 9 0 37 46 34 56-1 5 6 15 15 22 18 13 13 38-6 38-5 0-21-12-36-25zM2867 3256c0-6 4-13 10-17 6-3 11 1 11 10 0 9-5 17-11 17-6 0-10-5-10-10zM4432 3233c-25-18-42-35-39-38 10-10 112 41 112 57 0 22-26 16-73-19zM5498 3258c-11-19-19-113-9-103 12 12 30 111 20 111-3 0-8-4-11-8zM5525 3225c-15-48-16-89-3-81 5 3 11 23 14 45 3 22 9 48 13 58 4 10 3 19-2 19-6 0-16-19-22-41zM4468 3192c-44-45-44-73 0-31 14 13 26 19 26 13 0-6-7-17-16-24-17-14-21-42-6-42 17 0 76 83 73 102-7 32-34 26-77-18zM6935 3159c-44-87-46-132-2-67 30 46 64 142 49 142-5 0-26-34-47-75zM2852 3216c-16-4-18-12-14-40 5-28 3-34-9-30-20 8-20-21 0-37 26-22 62 5 55 40-3 16-1 34 5 41 6 6 8 16 4 22-7 12-9 12-41 4zM8234 3210c-19-18-16-53 4-45 9 3 19 6 21 6 8 0 4 41-4 46-5 3-15 0-21-7zM1265 3206c-37-10-40-22-7-39 44-23 61-21 69 6 10 38-5 46-62 33zM1482 3176c-26-44-28-57-9-57 13 0 50 62 50 84 0 22-20 8-41-27zM4553 3183c-17-33-24-87-9-69 13 15 37 89 30 96-3 3-12-9-21-27zM4603 3186c-4-11-13-36-21-56-17-42-18-57-3-48 20 13 53 102 42 113-7 8-13 4-18-9zM4652 3156c-39-91-15-106 26-16 14 31 16 45 7 54-9 9-17-1-33-38zM4772 3189c-2-7-13-38-25-68-15-41-17-55-7-55 8 0 21 18 30 39l16 40-6-40c-6-46 1-50 24-10l16 29-7-40c-9-53 3-49 29 8 11 26 22 48 24 48 2 0 1-21-2-45-3-25-2-41 3-37 10 10 36 81 36 99 1 19-34 23-55 5-16-14-18-13-18 2 0 23-17 22-32-1-9-15-10-13-5 11 6 28-12 42-21 15zM5943 3158l-21-45 0 42c0 60-18 34-37-53-8-40-15-79-15-86-1-20 20-15 21 5 1 16 2 16 9-2 7-17 16-5 52 71 24 51 41 97 38 102-12 21-27 10-47-34zM6019 3184c-11-8-86-160-86-175 0-22 23 2 47 49 15 30 37 65 48 77 32 34 25 70-9 49zM7035 3142c-12-27-26-58-31-68-6-10-11-25-11-34 0-31 20-15 42 33 12 27 24 46 27 43 3-3-4-25-16-49-24-47-27-64-10-64 6 0 24 30 41 67 38 83 48 122 33 122-7 0-12-7-12-14 0-8-7-21-16-29-15-11-16-10-10 15 12 48-15 32-37-22zM5851 3157c-15-35-17-101-3-101 13 0 24 61 19 100l-4 31-12-30zM6979 3131c-28-56-37-103-18-92 13 9 55 121 50 136-2 6-17-14-32-44zM7661 3172c-8-13 34-64 52-64 22 0 18 24-6 51-23 24-37 28-46 13zM5800 3156c-9-24 0-72 14-77 10-3 14 10 14 44 0 46-16 65-28 33zM7110 3093c-44-80-51-100-33-100 21 0 95 160 81 174-3 3-24-30-48-74zM5755 3148c0-7 7-30 15-50l15-37-3 46c-1 26-7 49-15 51-7 2-13-2-12-10zM1247 3143c-24-7-23-21 2-35 21-11 64-15 64-5 0 6-41 48-45 46-2-1-11-4-21-6zM5712 3132c0-16-2-16-10-3-7 11-13 12-21 4-8-8-6-24 9-57l21-47 1 42c2 42 2 42 14 13 6-16 15-28 20-28 12 0 10 36-4 67-14 31-30 35-30 9zM7153 3082c-35-71-42-100-23-100 10 0 58 98 69 144 12 47-13 23-46-44zM7224 3132c0-9-17-49-37-88-20-39-32-74-27-77 15-9 42 29 64 94 23 68 26 89 11 89-6 0-11-8-11-18zM3364 3117c-14-15-20-38-21-78l0-57 51 2c41 1 55 6 71 27 28 35 26 72-5 103-31 31-69 33-96 3zm88-47c5-33-23-52-56-37-14 6-25 18-25 25 0 42 76 53 81 12zM4908 3102c-9-21-15-48-13-61 3-17 9-11 27 29 26 57 28 70 12 70-6 0-18-18-26-38zM4943 3065c-20-78-2-80 26-3 22 62 23 67 4 67-9 0-21-24-30-64zM5003 3116c-2-7-12-35-21-60-22-65-22-66-10-70 10-4 58 104 58 130 0 17-21 17-27 0zM6041 3105c-52-58-80-112-58-112 13 0 97 105 97 122 0 21-15 17-39-10zM5067 3105c-2-7-12-36-21-64-19-61-19-59-8-59 11 0 39 59 49 102 5 23 3 35-4 35-7 0-14-6-16-14zM5601 3064c10-79 27-89 27-17 0 45-4 60-17 65-15 6-16 0-10-48zM5643 3079c10-52 27-69 27-26 0 39-9 66-23 66-7 0-8-16-4-40zM7770 3099c0-11-15-26-37-36-44-21-49-49-8-50 16 0 38-7 50-16 11-8 29-15 39-15 20 0 26 26 9 37-6 3-11 20-11 36 0 17-3 38-6 47-9 23-36 21-36-3zM8222 3103c0-25 19-68 31-68 14 0 14 37 0 63-13 24-31 27-31 5zM5105 3086c-17-44-25-104-14-104 17 0 48 105 35 118-8 8-14 4-21-14zM5163 3100c-11-18-19-112-10-102 12 12 34 75 34 96 0 15-17 19-24 6zM5392 3099c-3-6-2-33 2-61 6-43 8-47 14-24 18 59 6 120-16 85zM5518 3098c-8-13 17-116 29-116 6 0 8 20 4 49-4 27-7 55-7 63 0 16-17 19-26 4zM6536 3095c-8-25-36-156-36-171 0-59 40 45 60 155 5 29-15 42-24 16zM7237 3036c-36-77-41-96-23-96 12 0 56 91 68 139 13 53-12 30-45-43zM7314 3079c-4-16-21-56-39-90-31-59-34-80-9-64 16 9 58 102 68 149 9 42-10 47-20 5zM5203 3084c-11-36-16-91-8-91 9 0 34 68 34 93 0 16-21 15-26-2zM5246 3074c-10-49-16-102-11-102 10 0 36 72 36 99 0 33-19 35-25 3zM5476 3088c-6-10 14-116 22-116 2 0 4 28 4 63 0 57-10 78-26 53zM6484 3084c-2-7-9-29-15-48-11-34-8-54 8-54 7 0 33 82 33 105 0 15-21 13-26-3zM5313 3069c0-16-2-16-10-3-13 20-18 14-26-39-8-48 7-63 20-21 7 22 8 22 15-8 7-31 8-30 19 20 7 29 10 56 7 61-9 15-25 8-25-10zM5429 3040c0-26 4-47 10-47 6 0 11 21 11 47 0 26-5 47-11 47-6 0-10-21-10-47zM5561 3078c-8-13 4-74 16-81 5-3 9 13 9 36 0 41-13 64-25 45zM6040 3020c-61-77-61-100 1-41 40 39 41 39 25 8-9-17-28-43-43-56-25-24-28-43-7-43 5 0 32 28 59 63 27 34 52 61 54 59 4-5-25-59-56-106-10-17-12-27-5-32 6-4 30 23 53 59 48 73 52 69 20-23-12-35-19-67-15-70 11-11 23 10 43 69 21 67 31 65 16-4-7-27-10-52-7-55 12-11 25 11 38 65 12 50 11 62-4 95-11 22-26 37-37 37-10 0-28 9-41 21-12 12-26 21-31 21-5 0-33-30-63-67zM6425 3058c0-28-1-28-12-5-19 39-29 27-22-26 7-58 14-69 34-56 18 11 30 116 13 116-7 0-12-13-13-29zM6687 3038c-11-28-28-66-36-84-17-38-19-66-5-66 11 0 85 151 85 173 0 36-24 23-44-23zM1430 3058c-20-38-24-76-8-76 14 0 38 50 38 80 0 20-19 18-30-4zM5355 3037c0-29 3-35 11-23 13 20 13 63 0 63-6 0-11-18-11-40zM6324 3070c-8-3-14-14-14-23 0-15-1-16-11-2-8 12-12 13-16 3-3-8-10-11-15-8-14 9-25-44-25-116-1-87 19-85 26 3 6 73 9 72 31-7 15-57 34-44 21 15-6 23-10 51-10 63 0 25 31-55 31-82 0-10 5-18 11-18 14 0 12 40-6 89-18 51-18 48-6 48 6 0 17-23 26-50l15-50 1 38c2 74-21 112-59 97zM6641 3053c-4-13-19-49-33-79-45-95-22-98 25-4 25 49 45 92 45 97 0 20-30 8-37-14zM1224 3046c-14-43 53-105 98-91 9 3 23 16 31 28 12 20 11 26-6 50-16 22-31 28-69 31-40 3-49 0-54-18zm99-28c23-27-4-43-36-22-15 10-27 23-27 28 0 17 49 12 63-6zM6765 3053c-20-26-77-156-83-189-8-42 8-29 28 24 7 20 29 60 49 90 19 29 35 59 35 65 0 18-18 24-29 10zM7335 2999c-38-69-46-95-26-88 13 4 30 35 57 100 29 70 11 63-31-12zM6569 3011c-19-47-30-113-19-113 8 0 55 119 55 139-1 21-24 4-36-26zM7372 2963c-43-85-49-113-18-87 21 17 72 135 67 156-2 11-21-15-49-69zM3556 2995c-9-16-25-38-37-49-13-11-22-24-22-29 0-16 34-9 49 10 14 17 14 16 9-9-7-35 1-42 32-28 32 14 41 6 24-22-25-40 1-37 43 4 60 58 55 106-7 73-40-21-47-20-45 8 6 75-18 97-46 42zM6845 3001c-11-20-13-21-22-5-5 10-15 15-21 11-13-8-82-153-82-172 0-22 22 2 48 54 32 63 43 62 20-1-17-51-20-74-7-74 5 0 15 19 23 42 7 22 29 63 49 91 19 27 35 55 35 63 0 22-30 16-43-9zM7445 2987c-7-17-24-49-39-70-17-25-24-46-20-58 7-17 9-16 27 8 25 31 56 120 49 139-2 7-10-1-17-19zM8271 3006c-8-14 12-56 29-62 26-10 30 2 11 37-16 32-31 41-40 25zM6890 2958c-34-55-69-144-60-152 5-4 10-3 12 3 2 6 23 43 46 83 23 39 42 78 42 86 0 25-18 16-40-20zM7837 2970c-9-15 35-53 57-49 28 6 24 24-7 43-37 21-40 22-50 6zM6940 2937c-38-61-76-145-69-151 4-4 8-5 10-3 12 18 91 155 97 170 12 32-16 20-38-16zM7497 2957c0-7-14-35-31-60-32-47-42-88-19-81 27 10 85 156 62 156-7 0-12-7-12-15zM1197 2941c0-15 14-25 53-38 53-18 89-15 81 7-3 8-108 49-131 51-2 0-3-9-3-20zM5057 2953c-3-5-8-33-12-63-7-46-5-55 9-55 9 0 19 10 23 23 8 22 8 22 22-5 18-34 22-35 52-7l23 22-5-27c-4-22-1-27 16-27 17 0 23 9 28 39 4 22 9 50 11 62 8 36-27 42-53 10-28-36-50-34-65 5-11 29-37 41-49 23zM7510 2890c-44-75-52-97-36-97 25 0 89 114 84 150-2 16-14 3-48-53zM1388 2933c-5-10-13-35-17-53-6-27-4-34 9-34 20 0 44 81 29 96-7 7-14 4-21-9zM6986 2922c-9-16-29-47-43-68-43-65-21-65 32 1 47 58 62 96 39 96-5 0-18-13-28-29zM7005 2866c-46-66-49-73-35-73 13 0 97 106 97 122 0 28-19 13-62-49zM7550 2855c-30-51-41-78-34-85 11-11 44 34 79 109 20 43 21 51 8 51-5 0-29-34-53-75zM5330 2866c-27-30-48-59-48-65 0-6 18-8 48-3 41 6 52 4 73-17 39-36 48-14 27 64-11 45-24 70-34 72-10 2-38-20-66-51zM7959 2899c0-18 26-32 60-32 24-1 14 31-13 42-39 14-47 13-47-10zM8346 2912c0-5 0-17 1-27 1-12-5-18-20-18-12 0-21-7-21-16 0-21 66-22 83-1 7 9 23 15 36 14 35-4 27 27-9 35-18 4-40 10-50 15-10 4-19 3-20-2zM7036 2843c-73-91-67-111 9-29 59 65 76 95 53 95-5 0-34-30-62-66zM7589 2827c-43-87-46-97-29-97 12 0 84 142 84 165 0 31-18 9-55-68zM7646 2832c-24-44-44-85-44-92 0-26 28 0 56 54 28 55 49 84 49 70 0-4-17-39-38-77-20-38-34-72-31-76 10-9 32 18 68 84 34 63 42 97 19 90-7-3-18 2-24 11-9 12-20 0-55-64zM5545 2864c-15-41-24-111-14-116 5-4 14-3 20 1 14 9 38 115 29 129-10 17-26 10-35-14zM7124 2873c-6-8-33-42-62-74-49-57-60-93-17-53 12 10 22 13 22 7 0-7 3-12 8-12 15 0 118 96 118 111 0 19-10 18-35-4-19-17-19-17-12 11 7 30-5 38-22 14zM8080 2877c-11-17 2-29 37-34 38-5 52 11 25 30-22 17-53 19-62 4zM3720 2862c4-9-4-16-25-20-27-6-31-11-29-35 2-15 16-37 32-49 33-24 51-16 78 37 13 26 13 32-2 56-18 28-64 37-54 11zm16-67c3-9-2-13-14-11-11 2-21 10-24 18-3 9 2 13 14 10 11-2 21-10 24-17zM5675 2853c-11-32-22-98-18-110 7-23 32-14 41 15l10 27 29-38c27-36 52-48 62-30 3 4 8 35 12 68 7 57 6 61-14 61-16 0-22-7-22-27 0-31-16-34-31-6-25 46-60 66-69 40zM7741 2817c-12-28-33-68-46-89-25-39-22-63 5-41 12 9 17 8 22-6 6-15 9-16 21-3 17 18 64 109 74 144 12 41-14 26-35-21-11-25-28-54-38-66-13-16-13-12 3 21 25 51 39 111 26 111-5 0-19-23-32-50zM8192 2854c6-16 70-19 74-3 2 6-15 12-38 14-30 2-39-1-36-11zM1208 2820c0-8 4-18 10-22 18-11 12-34-10-40-12-3-21-12-21-22 0-13 8-15 47-10l47 7 0-50c0-43 2-48 16-37 34 29 16 93-46 160-29 32-43 37-43 14zM7156 2786c-36-34-47-51-37-54 8-3 17 0 19 7 2 7 9 12 15 12 19 0 82 53 82 69 0 27-25 16-79-34zM7803 2752c-47-79-52-95-29-95 19 0 96 145 83 158-6 6-27-18-54-63zM1339 2761c-4-24-5-46-1-49 11-11 24 11 31 52 6 31 4 40-8 40-10 0-18-16-22-43zM3802 2773c-28-38-27-48 1-74 31-29 42-27 70 11 27 36 22 54-7 27-20-18-54-24-54-9 0 5 6 18 15 29 8 11 15 26 16 33 0 23-19 15-41-17zM6070 2779c-9-22-15-78-13-109 2-23 23-15 33 13 13 34 20 33 33-6 13-37 35-36 36 1 0 14 7 39 15 56 14 28 13 31-9 50-36 28-84 26-95-5zM7200 2753c-48-48-59-65-42-65 14 0 108 91 108 104 0 21-16 12-66-39zM7845 2720c-47-79-52-95-29-95 19 0 96 146 83 159-6 6-27-19-54-64zM7235 2734c-41-48-51-67-34-67 13 0 97 89 97 103 0 24-20 13-63-36zM7277 2707c-52-65-61-82-44-82 13 0 117 118 117 134 0 27-21 12-73-52zM6281 2702c-33-41-43-61-35-69 8-8 17-6 32 6 24 23 71 14 80-15 7-21 31-27 41-11 9 15-41 143-58 145-8 1-35-24-60-56zM7887 2695c-42-65-53-91-35-91 15 0 40 33 69 92 30 59 32 66 19 66-5 0-28-30-53-67zM7354 2727c-77-87-103-159-28-77 20 22 38 38 41 35 2-2-5-13-17-23-12-11-21-29-21-41 0-17 9-11 47 31 49 54 58 78 32 78-9 0-16 5-16 11 0 17-16 11-38-14zM7967 2727c-10-15-18-31-18-34 0-3-12-23-27-45-29-42-33-65-13-65 19 0 84 121 80 149-4 23-4 23-22-5zM6502 2717c-6-7-13-37-15-65-3-42 0-53 14-56 11-2 19 6 24 25l8 29 35-41c42-51 55-43 60 37 2 46-1 58-13 58-9 0-17-11-19-24-5-32-14-29-39 10-24 39-39 46-55 27zM7425 2674c-42-54-53-80-35-80 10 0 97 103 97 116 0 27-24 13-62-36zM3892 2700c-24-26-22-49 5-75 33-30 43-27 81 25 40 56 41 63 7 55-14-4-28-2-32 4-10 17-42 12-61-9zm56-33c0-22-25-29-37-10-9 14 3 31 22 31 8 0 15-9 15-21z" transform="matrix(.02286 0 0 -.02286 -1.332 155.51)"/>
	<path d="M1164 2683c-12-26-6-58 11-58 5 0 12 8 15 18 3 12 5 7 6-10 1-40 30-50 55-19 40 49 16 95-48 95-19 0-31-8-39-26zm71-45c-11-10-20 6-11 20 7 11 9 11 13 0 2-7 1-16-2-20zM7999 2657c-18-29-37-53-42-53-4 0-8-9-8-21 0-34 16-25 59 34 51 70 60 92 39 92-8 0-30-24-48-52zM7480 2670c-12-16-30-45-40-64l-18-36 35 8c58 12 135 100 87 100-8 0-15 4-15 10 0 21-28 10-49-18zM6742 2668c-31-57-2-127 53-127 34 0 51 18 51 55 0 24-4 29-27 29-23 0-27-4-22-21 3-14 0-21-10-21-9 0-14 11-14 31 0 38 13 47 41 30 25-16 41-3 25 21-17 27-83 29-97 3zM8035 2617c-60-79-63-86-40-86 17 0 57 48 84 103 33 65 10 57-44-17zM7555 2629c-43-57-38-86 7-35 16 19 32 32 35 29 3-3-7-16-21-30-15-13-26-34-26-45 0-18 8-14 47 25 49 49 61 79 27 70-15-4-18 0-14 15 9 34-16 21-55-29zM1316 2656c-6-9-15-31-19-49-6-28-4-34 10-34 21 0 29 20 25 63-3 28-6 32-16 20zM8100 2615c-17-29-34-53-38-53-13 0-30-40-20-46 18-12 106 105 106 141 0 23-19 6-48-42zM6957 2649c-3-4-6-36-6-72l0-65 47-7c26-4 52-4 58 0 18 10-9 36-38 36-14 0-25 5-25 11 0 5 9 10 21 10 12 0 21 7 21 16 0 8-7 16-15 16-8 0-18 4-21 9-4 6 9 8 31 4 29-5 37-2 37 12 0 9-6 19-14 21-29 9-90 14-96 9zM4045 2598c-18-25-31-53-28-61 3-8 22-23 41-33 44-24 63-12 80 50 9 34 8 46-6 67-24 36-48 30-87-23zm50-58c0-11-4-20-9-20-15 0-35 30-28 41 10 16 37 1 37-21zM7636 2594c-48-60-56-81-25-64 29 15 77 83 73 103-2 12-16 1-48-39zM8162 2612c-34-38-66-89-66-103 0-22 63 44 79 83 19 45 15 51-13 20zM7707 2617c0-4-21-36-47-70-45-60-52-85-22-73 19 7 90 114 90 135 0 9-5 16-10 16-6 0-11-4-11-8zM1110 2597c-16-16-6-41 24-61 17-12 31-24 31-27 0-3-21-12-47-19-66-20-65-49 2-58 27-3 57-6 68-6 28 0 24 29-4 34-23 3-23 4 5 18 35 17 36 27 5 54l-23 20 31-3c54-5 38 25-21 40-63 17-63 17-71 8zM7749 2591c-54-66-94-119-94-126 0-20 32-5 53 26 13 19 32 43 43 53 10 10 19 28 19 39 0 24-5 26-21 8zM8171 2550c-43-57-54-82-35-82 10 0 54 54 74 92 27 52 3 45-39-10zM7769 2533c-49-65-54-73-42-80 9-6 106 104 106 121 0 24-31 4-64-41zM8203 2524c-34-46-43-77-24-77 14 0 85 106 78 117-9 15-19 8-54-40zM7807 2512c-52-70-46-89 10-34 44 43 62 84 37 84-6 0-27-22-47-50zM7840 2482c-52-63-58-82-34-115 15-19 18-17 79 42 44 44 63 71 63 90 0 24-5 20-57-37-59-65-80-69-28-5 34 42 46 71 34 78-4 3-30-21-57-53zM8243 2498c-20-25-31-49-28-58 6-14 10-14 22-4 13 11 16 9 16-9 0-12 6-25 14-30 22-13 40-54 33-76-7-25-44-35-51-14-4 8-11 12-17 8-6-3-10 2-10 11 0 11-6 16-16 12-9-4-16-1-16 5 0 6-7 9-16 5-11-4-15 1-15 15 0 12-5 19-10 16-15-10-109-174-103-181 11-10 28 7 49 48 18 36 53 75 53 60 0-3-12-27-26-53-15-26-26-54-26-63 0-29 26-6 45 40 10 25 25 55 34 66 9 12 7 0-6-31-12-28-21-58-21-66 0-29 18-14 35 29 10 24 20 41 23 38 4-4-1-21-10-39-19-36-21-53-6-53 6 0 19 16 29 37l18 38 11-51c13-64 32-57 28 10-3 54 5 61 35 29 10-12 23-21 28-21 14 0 10 35-8 61-17 24-17 24 23 22 58-2 59-2 45 23-8 16-8 25 0 33 23 23 14 39-15 28-34-12-36-12-36 0 0 5 8 12 19 16 21 6 51 54 40 65-3 3-21-6-39-22-46-38-53-24-11 19 46 47 24 59-27 15-38-33-39-33-22-6 36 55 17 70-21 16-13-19-23-27-23-18 0 8 7 24 16 36 8 11 15 24 15 29 0 18-19 6-52-35zM4150 2510c-31-26-30-57 2-78 40-26 65-21 77 13 22 63-30 106-79 65zm38-52c2-8-2-12-10-10-7 3-16 11-18 19-3 8 1 12 9 9 8-2 16-11 19-18zM1275 2473c-7-50-1-69 16-52 15 15 18 91 4 96-8 3-15-14-20-44zM7937 2434c-50-52-69-82-51-82 17 0 115 96 115 113 0 24-20 14-64-31zM7988 2418c-34-38-53-74-41-81 11-6 96 82 96 99 0 20-27 11-55-18zM8029 2382c-27-31-70-104-70-119 0-3 4-5 9-5 13 0 107 126 107 143 0 22-15 16-46-19zM8087 2369c-13-13-23-28-23-33 0-6-15-29-32-51-30-41-40-69-22-69 13 0 38 31 63 78 13 23 30 52 39 65 23 31 2 40-25 10zM1245 2329c-3-18-2-38 4-44 14-14 18-8 27 38 6 31 4 40-8 40-9 0-19-14-23-34zM1097 2259c6-21 3-24-23-21-20 3-30-1-32-13-4-18 35-30 93-30 30 0 54 21 32 29-15 5-16 34-1 34 5 0 10 6 10 14 0 10-13 14-43 13-39-1-42-3-36-26zM1235 2202c-11-41-7-70 9-70 12 0 16 11 16 41 0 47-15 65-25 29zM1145 2125c0-30-4-36-19-34-10 2-20 13-22 25-5 28-15 37-31 27-22-13-3-63 29-80 25-12 32-12 51 1 23 16 29 50 17 82-12 30-25 18-25-21zM1213 2038c-18-35-22-79-5-69 5 3 10 2 10-4 0-5 12-12 26-15 24-4 27-1 27 29 0 34-21 89-34 89-5 0-15-13-24-30zM1095 2009c-25-22-38-56-26-73 4-6 24-15 45-18 48-9 65 8 60 63-3 34-7 41-30 43-15 2-37-5-49-15zm51-40c0-6-5-12-11-14-6-2-11 4-11 14 0 9 5 16 11 13 6-2 11-8 11-13zM1220 1841c2-28 8-50 14-48 16 4 13 89-3 95-11 3-13-8-11-47zM1082 1837l0-43 49 4c55 3 68 22 21 27-19 2-34 13-41 29-18 38-29 31-29-17zM1042 1699c3-72 18-88 36-40 10 27 18 32 49 32 20 0 41 6 48 14 18 22-2 30-56 22-41-6-47-5-53 15-14 45-27 21-24-43zM4207 1715c-3-11-8-42-12-69-10-71-22-62-19 13 1 35-2 63-7 63-10 0-21-63-21-123 0-38 3-45 21-45 11 0 24 0 28 0 12-1 34 161 24 172-5 5-11 0-14-11zM1222 1704c3-10 9-32 12-48 7-28 20-37 30-20 10 17-15 86-31 86-11 0-14-7-11-18zM4096 1691c0-21 4-55 9-77 14-63-6-45-27 24-18 62-42 90-29 34 25-107 34-134 45-133 47 5 46 2 38 65-4 33-14 74-21 92l-14 31-1-36zM4277 1709c-9-12-56-147-56-160 0-3 4-5 9-5 10 0 30 40 49 99 7 23 16 51 21 61 8 21-8 25-23 5zM3654 1704c0-7 17-63 34-111 13-36 29-37 29-3 0 29-42 122-55 122-4 0-8-4-8-8zM3785 1684c-4-17-11-40-16-51-8-20-9-19-9 5-2 58-19 54-27-5-5-39-3-64 4-72 6-6 12-7 12-3 0 5 7 3 15-4 9-7 16-11 17-9 14 53 26 153 19 160-4 5-11-4-15-21zM3591 1690c0-6 9-29 21-52 31-61 26-63-20-10-46 53-70 51-30-2 50-68 44-71-44-25-34 17-53 20-53 8 0-9 65-54 105-72 25-12 23-13-22-14-102-1-163-31-70-33l45-1-44-12c-25-7-51-18-58-26-11-12-2-13 55-7l68 6-45-22c-24-12-44-26-44-32 0-13-1-13 53 6l46 16-42-37c-23-20-36-36-28-37 17 0 75 29 99 50 36 32 28 6-13-40-23-26-41-50-42-55 0-16 22-6 59 26l39 34-18-33c-19-38-21-45-8-45 5 0 15 14 22 31 7 17 21 38 32 47 17 16 18 15 10-28-12-59-12-71-1-71 11 0 33 81 33 120 0 28-15 37-25 14-2-7-5-3-6 9 0 12-12 27-27 34-19 9-26 20-26 43 0 31 31 74 53 74 20 0 10 40-24 93-33 51-50 66-50 43zM3844 1683c-8-17-53-148-53-157 0-2 5-3 13-3 19 0 38 36 49 92 5 27 13 58 17 68 4 10 2 18-5 18-6 0-15-8-21-18zM4008 1622c7-93 19-130 38-111 8 8 8 21-1 46-7 20-13 49-13 66-1 17-8 43-16 57-13 24-14 19-8-58zM4290 1617c-42-86-44-116-4-76 19 19 60 123 61 152 0 25-21-3-57-76zM3895 1667c0-13-9-44-21-70-11-25-20-53-20-62 0-35 32 14 47 72 18 68 19 84 5 84-6 0-11-11-11-24zM3965 1647c-8-42-8-118 0-139 15-40 24-11 24 78 0 94-11 124-24 61zM4368 1628c-11-22-25-44-31-47-11-7-42-67-42-81 0-5 5-9 13-9 15 0 58 69 84 134 22 56 5 59-24 3zM3939 1638c-1-14-9-38-17-52-17-30-21-74-7-74 17 0 34 60 30 106-2 26-5 34-6 20zM4666 1605c4-18 7-63 7-100 0-37 4-66 10-66 12 0 14 114 4 166-4 18-11 33-17 33-6 0-8-14-4-33zM4785 1556c-22-99-22-107-3-107 15 0 20 18 31 110 2 23 8 51 12 61 5 12 2 18-8 18-10 0-20-26-32-82zM4861 1614c-16-37-39-176-30-181 13-8 31 32 42 93 6 30 13 67 16 83 8 36-13 39-28 5zM4947 1616c-79-189-83-202-58-197 13 3 24 20 34 51 7 26 23 71 34 99 13 34 17 55 10 62-6 7-14 1-20-15zM4528 1611c-15-28-22-182-8-183 11-1 29 133 24 179-3 25-3 25-16 4zM4575 1607c-11-38-9-121 3-153 14-38 35-22 27 20-4 18-11 61-15 96-5 50-8 57-15 37zM4619 1619c-2-7-2-46 1-88 4-51 10-77 20-80 12-4 13 8 8 65-8 73-22 124-29 103zM4733 1601c-4-17-10-58-13-92-6-50-4-60 9-60 24 0 32 45 21 119-9 56-11 61-17 33zM4375 1545c-52-77-56-85-38-85 27 0 109 135 92 152-3 3-27-27-54-67zM5005 1577c-23-26-72-138-68-158 3-16 84 114 98 156 8 26-7 27-30 2zM4460 1509c-30-68-35-91-20-91 10 0 47 82 58 128 12 51-9 31-38-37zM5024 1491c-27-47-46-88-43-92 14-13 43 16 59 58 9 24 27 58 40 75 27 37 28 43 8 43-8 0-37-38-64-84zM1255 1530c12-58 17-72 28-68 12 4 12 7 3 61-4 27-12 42-23 42-12 0-14-8-8-35zM4401 1496c-35-59-38-83-6-57 18 15 57 86 57 104 0 25-18 8-51-47zM5072 1459c-40-60-53-87-45-95 8-9 16-3 29 18 10 17 34 54 54 84 34 51 43 78 27 77-4 0-33-38-65-84zM1113 1518c0-8-9-17-21-20-25-6-28-26-5-35 29-11 115 11 119 31 2 14-4 18-29 18-17 0-34 5-38 11-9 15-26 12-26-5zM5132 1433c-82-79-91-92-71-105 12-7 167 150 168 171 0 24-15 13-97-66zM1166 1425c-36-18-50-66-26-92 10-11 23-17 30-13 6 4 21 6 33 5 26-4 48 37 39 73-11 41-33 49-76 27zM3911 1428c-7-12-36-160-36-184 0-6 7-1 16 10 8 11 15 30 15 41 0 11 8 43 18 71 13 37 15 54 7 63-9 8-14 8-20-1zM6145 1432c-17-7-18-147-1-157 15-9 30 14 30 48l1 26 20-24c10-13 21-29 23-35 3-7 10-9 17-5 9 5 9 14 0 33-9 19-8 29 1 41 34 40-35 95-91 73zm61-46c0-6-8-10-16-10-9 0-16 4-16 10 0 6 7 11 16 11 8 0 16-5 16-11zM7261 1424c-15-11-18-24-14-68 3-30 8-57 11-60 2-2 23-6 46-7 30-2 41 1 41 13 0 9-12 17-29 19-27 3-42 23-17 23 7 0 9 10 5 27-6 22-4 26 11 24 30-5 49 11 34 29-15 18-63 19-88 0zM3848 1415c-12-34-22-135-14-140 5-3 11 0 13 8 13 49 28 116 28 129 0 19-20 21-27 3zM6282 1415c-6-7-8-42-6-79l6-65 40 0c29 0 41 4 41 15 0 10-10 16-26 16-31 0-34 18-8 38 16 12 16 15 3 24-9 6-13 12-11 14 3 1 14 7 24 13 11 6 20 15 21 21 3 16-71 19-84 3zM6409 1414c-9-24 0-133 12-136 6-1 12 13 14 32 2 21 9 34 18 34 18 0 20 28 2 35-7 3-3 6 9 6 29 1 38 12 24 29-16 18-72 18-79 0zM6544 1415c-7-7-13-40-13-73l0-61 42 0c30 0 42 4 42 16 0 10-10 16-26 16-33 0-33 6-3 32 13 10 18 19 11 20-21 0-16 18 8 24 11 3 21 13 21 22 0 21-63 24-82 4zM6681 1413c-13-23-3-134 11-129 6 2 14 15 18 29l6 26 19-29c24-36 42-38 33-3-3 14-1 35 6 46 7 11 9 32 5 47-6 24-12 28-48 28-25 0-45-6-50-15zm62-40c-6-6-16-7-23-3-10 6-9 10 1 17 18 11 36 0 22-14zM6822 1421c-14-14-8-130 6-135 36-14 75-10 79 8 3 14-3 19-23 19-32 0-34 6-10 33 16 18 16 19 0 19-28 0-20 15 15 29 18 6 29 17 26 23-8 12-82 15-93 4zM6947 1419c-8-13 6-127 16-127 5 0 9 11 9 25 0 38 15 40 41 6 37-51 54-42 54 32 0 47-4 63-14 60-7-3-15-18-19-35l-5-31-18 33c-9 18-25 36-34 39-22 9-24 9-30-2zM7115 1405c-23-32-21-75 4-98 24-21 83-24 96-3 12 20-7 33-30 20-16-8-26-7-41 4-16 12-17 18-6 41 10 23 17 27 40 21 23-6 26-4 23 13-6 31-65 33-86 2zM3733 1404c-10-32-15-144-6-144 10 0 32 90 32 132 0 26-19 36-26 12zM3786 1404c-9-27-14-154-6-149 11 7 32 91 32 130 0 32-18 45-26 19zM3971 1400c-14-25-44-135-44-160 0-29 17 3 41 75 25 76 27 128 3 85zM5163 1379c-59-36-60-36-54-76 5-29 2-44-10-56-29-29-19-46 51-90 82-52 95-34 19 25-56 43-61 41 50 19 23-4 31-2 31 10 0 16-28 27-73 29l-27 1 27 9c14 4 41 8 60 9 55 2 39 21-21 24l-55 3 55 21c30 12 55 27 55 34 0 18-21 17-67-2-45-19-73-21-42-3 12 8 35 24 51 37 51 41 15 45-50 6zM4026 1395c-4-6-14-43-21-81-7-38-17-79-21-90-5-13-4-18 5-15 15 5 63 138 64 174 0 25-15 32-27 12zM1292 1371c0-34 17-79 31-79 13 0 14 42 0 78-13 34-31 34-31 1zM4064 1347c-13-48-15-153-2-146 5 3 12 26 15 51 4 25 10 65 14 89 9 57-12 61-27 6zM4122 1352c-11-54-12-155-2-152 13 4 40 153 32 167-10 16-25 9-30-15zM4316 1336c0-23-4-70-7-106-8-77 10-90 22-15 13 84 12 153-2 158-9 3-13-9-13-37zM4361 1349c-3-8-3-22 0-31 3-8 1-44-5-79-11-60-8-86 8-70 7 7 34 144 35 178 1 22-29 24-38 2zM4427 1358c-3-4-6-50-6-102 0-114 17-103 27 17 6 72-2 104-21 85zM4652 1343c0-67 14-167 24-167 14 0 2 167-13 182-8 8-11 4-11-15zM4711 1320c-18-133-19-154-9-154 16 0 23 26 30 110 7 83-11 121-21 44zM4176 1348c-11-11-9-140 2-140 8 0 22 80 22 128 0 19-12 24-24 12zM4261 1274c-5-72 2-112 17-97 11 11 11 170-1 174-8 3-13-22-16-77zM4217 1315c-8-39-5-128 4-128 10 0 30 115 24 138-8 28-21 23-28-10zM4470 1307c-8-47 3-143 15-135 12 7 12 172 0 172-5 0-12-17-15-37zM4509 1333c-8-14 3-97 19-144 14-38 35-47 25-10-4 13-10 53-13 89-7 66-17 87-31 65zM4763 1315c-14-73-19-149-9-149 10 0 17 26 30 128 7 54-11 72-21 21zM4805 1333c-11-34-16-188-6-188 10 0 12 5 32 108 10 53 9 64-5 78-14 14-17 14-21 2zM4551 1320c-3-10 1-40 10-67 9-28 17-62 19-75 2-13 8-22 14-21 6 2 9 10 8 19-2 9-7 43-12 77-9 65-28 96-39 67zM4606 1325c-9-15 17-170 28-170 6 0 7 34 3 81-6 78-18 111-31 89zM4852 1284c-14-51-15-171-1-171 6 0 11 13 11 29 0 16 6 58 13 93 8 35 12 69 10 76-8 23-23 11-33-27zM1166 1271c-25-46-1-95 47-95 29 0 58 25 58 51 0 51-83 86-105 44zm62-27c11-12 10-17-4-22-21-8-43 10-33 27 10 15 22 14 37-5zM4900 1274c-4-4-7-47-7-97 0-109 16-101 25 12 6 73-1 102-18 85zM4936 1195c1-71 12-125 22-108 12 21 4 166-10 170-10 4-13-13-12-62zM6869 1252c-106-3-119-5-115-21 3-16 21-19 148-21l145-3-3 24c-4 27 0 27-175 21zM7092 1249c-9-16 17-45 30-32 12 12 3 43-13 43-5 0-13-5-17-11zM4978 1195c2-74 12-116 29-122 10-3 12 2 7 17-4 12-8 52-10 88-4 82-28 98-26 17zM6671 1233c-3-9-2-21 4-26 13-14 51 15 41 30-11 18-38 15-45-4zM1331 1227c-8-23 13-84 27-79 16 5 10 60-8 79-11 11-14 11-19 0zM6279 1224c0-9 7-16 17-16 9 0 14 5 12 12-6 19-29 23-29 4zM6344 1221c3-17 19-19 135-20 123-2 165 6 151 29-3 5-70 9-148 9-129 0-141-2-138-18zM5013 1214c-7-17 42-146 57-151 16-5 14 14-4 65-8 23-13 43-12 45 2 1 17-16 34-39 49-67 66-51 21 20-29 46-88 82-96 60zM3767 1182c-21-16-36-105-19-116 8-5 15 1 18 14 8 30 18 28 33-4 15-34 34-33 34 0 0 15 5 36 12 46 16 27 5 49-31 62-21 7-35 7-47-2zm55-37c0-6-7-11-16-11-8 0-15 5-15 11 0 5 7 10 15 10 9 0 16-5 16-10zM6189 1156c-40-17-49-37-37-83 13-47 43-62 90-44 22 8 27 16 25 39-5 37-51 50-51 14 0-25-29-29-38-5-10 25 26 59 49 46 27-14 40 10 15 28-22 16-23 16-53 5zM6300 1099l0-67 39-6c22-3 63-2 91 1 64 9 78 33 20 35l-40 1 37 8c22 5 28 9 16 10-12 1-16 4-8 7 30 13 11 27-26 21-29-5-35-4-24 3 9 6 24 11 33 11 14 0 30 20 30 38 0 3-38 5-84 5l-84 0 0-67zm108 38c-13-2-35-2-48 0-13 3-2 5 24 5 26 0 37-2 24-5zM6574 1143c-15-16-20-31-15-50 12-51 24-64 60-64 40 0 59 16 59 50 0 28-27 43-45 24-10-11-10-15 0-18 21-8 16-24-6-24-32 0-47 25-33 52 10 19 19 22 44 17 26-5 30-3 28 12-6 29-65 30-92 1zM6716 1158c-8-8-9-90 0-112 12-32 25-5 25 51 0 53-9 77-25 61zM6997 1105c1-33 6-61 12-63 14-3 13 116-1 120-8 3-11-17-11-57zM1190 1139c-41-18-47-35-32-84 11-38 12-38 54-32 51 8 90 32 90 54 0 9-7 30-16 47-18 35-42 38-96 15zm68-45c2-7-6-12-18-12-22 0-28 11-15 24 10 10 27 3 33-12zM3911 1133c-4-7-2-16 6-20 9-6 6-10-12-12-54-8-31-72 26-72 26 0 36 6 47 31 9 22 10 37 2 51-16 31-56 43-69 22zm27-62c0-6-8-10-17-10-9 0-13 4-10 10 4 6 11 11 17 11 5 0 10-5 10-11zM6780 1138c-15-15-7-25 21-26l29-1-26-7c-20-6-26-15-26-39 0-28 3-31 39-34 35-3 40 0 46 25 11 46-7 83-44 86-17 2-35 0-39-4zm56-67c0-6-8-10-17-10-9 0-13 4-10 10 4 6 11 11 17 11 5 0 10-5 10-11zM6888 1124c-16-30-13-58 10-78 24-23 67-18 72 7 3 14-4 18-29 18-26 0-33 4-30 18 3 10 11 17 19 16 7-2 21-1 30 3 15 6 15 8-3 21-28 21-56 19-69-5zM7069 1131c-20-9-24-18-21-48 3-43 25-60 64-50 33 8 38 28 7 28-25 0-28 16-5 24 21 8 20 45-1 53-9 4-18 6-18 6-1-1-13-6-26-13zM7168 1138c-12-12-8-109 4-109 6 0 16 15 22 32 7 18 23 37 37 42 13 5 25 14 25 21 0 16-31 24-46 11-9-7-17-7-24-1-6 6-14 8-18 4zM4022 1103c-14-26-14-60-1-69 6-3 16 6 23 21 17 38 44 30 51-15 5-32 7-34 20-18 18 22 7 86-16 95-32 13-66 6-77-14zM4176 1105c-25-28-20-143 6-148 30-5 46 16 53 67 7 49-8 100-30 100-7 0-20-9-29-19zm35-44c0-6-5-11-10-11-6 0-13 5-17 11-3 5 1 10 10 10 9 0 17-5 17-10zM1360 1093c-6-10 9-93 19-103 3-3 10-2 15 1 9 6 8 29-4 88-5 24-19 31-30 14zM4301 1081c-15-12-27-28-27-36 0-22 42-68 63-68 27 0 38 22 18 35-14 9-14 12 5 28 23 18 19 35-12 52-15 7-27 5-47-11zM4509 1088c-12-30-9-104 3-109 9-3 14 6 14 22 0 39 14 42 35 6 20-33 43-40 53-14 8 22 27 9 27-19 0-42 29 3 36 58 7 46 6 50-15 50-12 0-33-13-46-28l-23-27-26 38c-27 39-49 48-58 23zM4728 1058c-4-7-9-33-9-58-2-53 19-61 36-13 6 17 16 32 22 32 17 0 13 22-7 37-24 18-31 18-42 2zM4823 1024c-3-9-3-23 0-31 3-8 1-17-6-19-6-2-9-12-5-22 8-21 53-23 69-3 14 16 6 49-11 49-7 0-7 5 1 14 6 7 8 17 4 21-12 12-46 7-52-9zM1380 909c-7-30 11-69 33-69 17 0 20 29 5 68-13 33-30 34-38 1zM1397 735c0-38 4-52 14-52 22 0 28 25 16 67-15 54-30 46-30-15zM1401 585c8-47 26-75 35-52 2 7 11 20 19 28 21 21 19 35-6 43-12 3-21 11-21 16 0 6-8 10-17 10-14 0-16-7-10-45zM1414 441c-17-25-11-53 15-69 27-16 40 42 16 74-13 18-14 18-31-5z" transform="matrix(.02286 0 0 -.02286 -1.332 155.51)"/>
</svg>
