<?xml version="1.0" encoding="utf-8"?>
<svg xmlns="http://www.w3.org/2000/svg" version="1" viewBox="0 0 122 122">
	<title>Plan of the sleeping berths in the cave.</title>
	<path d="M2583 5462c-39-6-63-32-63-71 0-26 9-42 41-71 23-20 51-42 63-48 48-26 36-95-17-95-25 0-69 35-79 63-10 28-21 1-14-35 5-30 12-36 53-47 97-26 156 15 133 92-12 38-33 61-101 108-29 20-37 67-13 77 23 8 68-14 76-37 3-12 11-22 16-22 14 0 13 60-1 68-20 13-68 22-94 18zM2189 5434c-14-14-26-34-26-45 0-11-6-25-13-32-10-11-10-15 1-22 11-7 14-29 10-92l-5-83 27 4c27 4 27 4 24 87l-4 84 28-7c24-6 28-4 25 12-2 13-14 21-31 23-23 3-27 8-22 30 6 32 28 43 50 25 13-11 19-11 29-1 9 10 8 16-8 28-30 22-56 18-85-11zM2772 5452c0-5 4-13 10-19 12-12 18-237 7-255-5-8 4-12 30-12 37 0 46 8 27 27-6 6-12 67-13 136l-3 126-29 3c-16 2-29-1-29-6zM875 5308l0-142 27 0c27 0 27 1 24 61l-4 61 55 0c45 0 57 4 74 26 27 35 25 65-7 103-26 30-32 33-98 33l-70 0-1-142zm126 101c25-22 19-73-11-93-20-14-25-13-44 7-22 21-28 66-16 100 8 19 40 13 71-14zM1117 5433c4-9 7-73 7-142l0-125 26 0 26 0 0 109c0 147-6 175-39 175-20 0-25-5-20-17zM5126 5394c-30-30-54-61-54-68 0-7-23-38-50-68-28-31-60-70-71-87-12-17-47-57-79-90-57-59-71-75-187-234-110-150-395-518-466-602-28-32-76-109-108-172-52-101-68-122-150-198-51-46-107-95-124-108-59-44-214-180-214-187 0-4-21-20-45-37-25-16-92-73-150-128-104-97-108-99-216-134-60-20-125-41-145-48-20-7-59-12-88-13-49 0-56 3-87 39-19 22-42 57-51 78-10 21-28 60-42 86-13 26-35 80-48 121-51 164-87 228-154 280-43 32-66 60-83 98-13 29-31 59-40 67-9 8-17 20-17 28 0 37-40 80-101 110-47 23-81 49-121 97-31 36-65 74-75 86-10 11-18 24-18 28 0 14-54 63-81 73-56 21-100-4-192-111-47-55-90-100-95-100-13 0-127-130-194-221-17-23-53-65-80-93-26-28-51-64-55-81-10-37-35-91-154-335-51-104-96-201-100-215-4-14-13-35-20-45-10-15-15 52-22 336-14 519-13 523 9 520 10-2 18 0 18 5 0 16-47 129-54 129-8 0-61-112-62-128 0-6 9-9 20-6 19 5 21-4 27-174 3-99 9-317 12-485l6-304-27-41c-68-99-136-259-164-384-7-32-22-86-34-120-17-52-19-76-13-142 11-108 11-203 1-287-7-52-6-75 4-86 8-9 17-16 21-16 8-1 64 115 64 130 0 4 13 27 30 51 27 40 92 82 174 113 12 4 34 13 51 19 16 7 47 12 69 12 22 0 57 7 78 16 44 18 129 20 170 5 16-6 65-13 109-16 44-3 121-11 171-17 79-10 101-9 157 6 36 10 77 28 92 38 15 11 44 23 64 27l36 8-39-46c-61-71-32-73 35-2 47 50 68 65 100 70 23 4 77 16 120 27 53 13 112 19 179 18 87-1 111 3 197 34 96 34 100 34 226 28 427-22 666-54 757-101 23-12 50-21 61-21 27 0 23-13-18-53-20-20-37-42-37-49 0-28 28-12 74 44 49 61 47 60 131 37 23-6 106-16 184-22 130-10 218-29 247-52 13-11 66-19 175-25 80-5 131-19 423-119 167-56 166-56 177-45 17 17-1 27-125 68-63 21-120 43-125 48-6 6-19 10-30 10-11 0-69 17-130 37-90 29-128 37-197 37-49 0-102 7-127 16-106 41-174 54-325 63-46 3-91 8-100 11-9 3-56 10-106 14-54 6-107 18-131 30-23 11-70 26-104 33-95 20-90 16-76 53 10 26 10 34-2 41-8 6-11 17-7 31 4 12 3 23-2 23-14-1-97-89-97-105 0-11-13-12-66-6-36 5-91 11-123 15-45 5-58 11-61 26-3 13 0 17 8 12 9-5 12 0 9 17-5 37-45 34-46-4 0-15-4-32-8-36-4-4-7 1-7 11 0 9-5 17-11 17-12 0-41 26-41 36 0 3 12 6 26 6 22 0 27 4 24 24-3 19-10 23-39 23-45 0-63-24-45-62 7-16 21-27 33-27 14 0 22-7 22-19 0-18-6-19-66-10-112 16-265 3-344-29-58-24-88-29-193-33-69-2-144-9-168-15-24-6-76-18-117-26-108-21-177-41-206-61-15-9-52-25-83-34-51-15-76-15-220-4-90 7-175 17-189 21-60 21-119 23-187 7-39-9-96-21-127-28-71-14-219-83-249-117-13-13-32-44-43-67-11-23-28-58-38-78l-18-37 7 68c9 83 8 159-2 261-6 63-3 90 16 152 22 74 28 95 54 201 14 55 118 273 136 284 6 4 10-19 10-56 0-61-1-62-26-57-32 6-33-1-6-39 12-16 26-42 32-57 9-25 7-29-13-37-31-12-38-5-14 13 11 8 16 20 12 27-5 8-16 5-38-12-16-13-43-33-59-45l-30-20 37-7c20-4 52-11 71-15 28-6 34-4 34 9 0 10-8 18-18 18-9 0-15 2-12 5 5 5 55 16 303 68 49 11 158 34 242 52 83 18 178 37 210 43 31 6 86 18 120 26 111 25 449 101 519 116 37 8 77 17 89 21 21 5 21 5 4-9-21-17-25-39-7-39 6 0 42 20 79 45l68 44-40 7c-139 23-139 23-139 5 0-11 9-17 27-17 16 0 26-3 23-6-5-4-191-49-365-87-26-6-90-20-142-32-87-20-506-110-667-143-38-8-111-24-163-35-52-11-98-18-103-15-12 7 2 45 31 83 13 18 21 36 18 39-13 13-35 7-35-9 0-8-5-15-10-15-19 0-13 199 6 236 9 17 26 55 37 84 28 71 123 258 140 278 8 9 29 56 49 105 19 49 43 105 53 124 11 19 19 40 19 48 0 7 7 22 16 33 9 13 3-15-15-68-65-196-74-228-74-268-3-305-2-320 25-347 20-20 37-26 73-26 41 0 52 6 95 47 27 26 54 60 60 76 17 41 30 129 37 243l6 99 39-44c50-54 84-57 127-11 16 18 37 58 46 89 10 32 19 58 21 58 2 0 21-17 43-37 36-33 38-37 20-44-48-17-77-48-94-99-17-51-17-56 1-95 27-61 60-83 124-82 92 0 153 56 153 140 1 51-29 98-78 122l-41 20 38 16c23 10 43 28 52 48 23 53 30 43 45-76 4-31 17-62 33-81 25-30 32-32 98-32 57 0 74 4 90 21 27 30 36 17 37-56 0-79 13-141 35-162 17-18 110-29 128-16 16 13 78 126 78 145 0 9 4 24 10 34 5 10 14 35 20 55 7 26 10 30 11 14 1-28 94-201 131-246 30-36 28-49-19-93-27-25-36-53-17-53 6 0 17 9 24 21 7 12 24 21 37 21 17 0 24 5 21 18-2 16 9 20 81 25 57 4 120 18 195 44 60 21 133 41 162 44 29 4 87 19 129 33 130 43 271 50 1026 48 576-1 832-8 909-27 78-19 105-21 105-7 0 11-83 39-142 47-47 7-285 19-310 16-9-1-98 0-199 2-412 8-1113-4-1268-23-55-6-130-23-167-37-37-14-67-22-66-18 0 5 26 30 58 56 32 25 73 61 92 79 18 18 49 44 70 57 20 14 60 49 89 78 54 56 175 160 237 205 84 60 180 173 225 266 50 101 87 154 241 346 144 180 202 254 243 311 23 34 67 92 97 129 63 77 62 76 96 125 14 20 58 72 97 115 139 155 164 184 187 226 12 23 41 60 64 84 22 23 41 45 41 50 0 17-20 5-72-48zm-3052-1022c20-15 20-16-5-10-15 3-43 6-63 6-28 0-33 3-21 11 23 15 67 12 89-7zm14-54c53-44 78-156 72-322-3-70-9-139-15-153-6-14-9-50-6-80 8-86-30-141-99-140-58 0-114 102-105 191 3 33 0 70-9 92-7 20-16 91-18 158-7 151 13 245 55 267 43 24 87 19 125-13zm-198-70c-6-16-10-42-10-59 0-31-14-41-27-20-3 5-18 10-33 10-26 0-25 2 23 52 28 29 53 51 55 49 2-2-2-16-8-32zm306-19c13-18 37-48 52-65l28-32-40-29-41-28-6 39c-3 21-12 64-20 94-7 30-10 55-6 55 4 0 19-15 33-34zm-341-94c22-20 25-32 25-109 0-48 5-100 11-117 6-16 13-69 14-118 2-71-2-105-22-163-30-88-54-116-90-107-28 7-74 69-85 115-4 16-10 100-14 186-5 134-3 167 13 221 33 108 92 145 148 92zm461-43c86-50 120-163 117-391-3-178-22-215-111-215-39 0-55 5-72 24-22 24-48 99-39 113 2 5-1 22-7 38-7 16-13 89-14 161-3 155 10 216 58 256 36 31 38 31 68 14zm86-20c16-15 17-29 3-29-6 0-15 9-21 21-13 23-1 28 18 8zm-731-62c-7-19-12-50-12-69 0-36 0-36-39-29-22 4-41 8-42 9-2 1 20 31 47 67 27 35 51 62 53 60 3-3-1-20-7-38zm807-95c0-28 50-88 103-124 31-21 56-47 60-62 10-41-2-38-31 8-15 24-34 43-41 43-8 0-23 10-34 22-14 15-28 20-48 16-27-5-28-3-34 44-3 27-8 66-12 86l-8 37 23-28c12-16 22-34 22-42zm-838-49c14-13 20-42 24-115 3-54 7-101 9-105 8-13-13-225-31-323-17-89-20-97-67-144-56-56-91-64-125-28-30 32-36 72-22 143 9 46 9 73 1 104-17 60-14 92 13 175 14 42 38 118 54 170 42 139 87 177 144 123zm880-91c7-9 18-16 25-16 18 0 111-111 129-155 44-104-41-338-122-338-16 0-36 8-46 19-24 26-41 158-42 317-1 161 18 219 56 173zm-402-251c13-16 24-33 24-39 0-5-26-9-58-9-57 0-57-1-57-32 0-38 6-39 31-8l19 24 12-30c8-22 17-29 31-25 34 9 4-41-36-60-63-30-116-16-151 39-22 37-30 92-13 92 6 0 9-15 8-34-1-18 5-35 12-37 8-3 13 4 13 17 0 11 5 24 10 27 6 3 7 13 4 22-4 9 1 15 12 15 9 0 14 5 11 11-4 5-19 10-35 10l-28 1 31 27c26 23 37 26 83 22 40-4 58-12 77-33zm20-98c-11-11-20 5-11 19 7 11 9 11 13 0 2-7 1-16-2-19zm1425-850c11-11-15-35-38-35-21 0-21 1-2 21 20 22 29 25 40 14z" transform="matrix(.02286 0 0 -.02286 -3.604 124.87)"/>
	<path d="M1995 3444c0-17 5-31 11-31 5 0 10 14 10 31 0 17-5 32-10 32-6 0-11-15-11-32zM3703 5432c-14-14-7-26 14-23 12 2 22 8 22 14 0 13-25 20-36 9zM4193 5389c-3-10-20-25-38-34-28-13-34-23-37-54-3-31 2-42 25-60 27-21 28-24 11-42-22-24-13-33 36-33 54 0 69-21 41-56-19-24-25-26-45-16-12 7-28 20-35 29-10 14-15 14-26 4-21-21 21-56 74-63 36-5 48-2 70 18 14 14 26 32 26 41 0 29-32 63-67 73l-33 9 38 16c64 28 78 72 35 117-14 16-31 37-37 49-13 25-31 27-38 2zm3-60c-7-18 10-32 20-16 12 20 26 10 26-20 0-38-26-62-51-47-29 19-30 99-1 99 7 0 10-7 6-16zM1280 5345c-21-17-22-21-7-21 9 0 20 4 24 10 10 17 43 12 69-10l25-21-43 0c-53-1-86-25-94-70-10-52 14-67 106-67l78 0-6 50c-12 110-15 117-46 134-41 21-77 20-106-5zm107-86c18-35-3-72-42-72-37 0-59 31-49 69 5 21 13 26 43 26 26 0 39-7 48-23zM1499 5358c-15-4-16-8-7-26 7-14 10-51 7-95-5-68-4-72 16-69 18 3 21 12 24 70 4 70 16 96 47 96 32 0 52-41 52-107 0-57 2-61 24-61 24 0 24 1 17 75-11 97-28 118-96 111-27-2-53-1-57 3-5 4-17 5-27 3zM1936 5330c-39-39-44-65-20-111 51-99 169-77 181 34 5 45 3 52-28 81-47 43-87 42-133-4zm111-16c26-49 0-137-41-137-34 0-67 98-45 132 19 29 72 32 86 5zM2947 5340c-30-27-47-95-31-121 6-9 26-27 45-40 27-18 43-22 73-17 40 7 72 30 60 42-4 5-13 2-20-5-7-6-28-12-47-12-44 0-46 24-3 49 17 10 32 21 32 25 0 4 11 12 26 19 34 15 33 36-2 64-38 30-98 29-133-4zm89-17l25-21-32-26c-50-43-67-50-75-32-8 22 3 64 24 84 21 21 28 21 58-5zM3215 5358c-18-7-44-60-44-91 0-37 44-84 94-101 39-13 46-12 71 7 38 28 40 40 8 54-36 17-39 16-32-8 4-11 2-23-4-26-6-4-11-2-11 5 0 7-8 9-21 5-38-12-22 14 34 58 65 52 68 57 44 84-14 15-31 20-72 20-29-1-59-4-67-7zm88-29c20-14 19-16-16-52-20-21-42-37-50-37-19 0-17 68 3 88 20 20 37 21 63 1zM3413 5357c0-5 5-13 11-19 7-7 10-57 8-134l-4-122 28 0c25 0 27 3 28 49 1 54 7 65 25 47 20-20 48-14 81 17 45 41 48 104 7 144-22 22-34 25-105 25-44 0-79-3-79-7zm147-40c29-35 10-119-27-119-39 0-61 69-36 116 13 24 44 26 63 3zM3675 5357c0-5 8-16 17-24 14-12 16-28 11-91l-5-76 29 0c34 0 46 9 32 26-5 6-11 47-13 90l-3 78-34 4c-19 1-34-2-34-7zM3833 5349c0-7 3-16 8-19 5-3 8-41 7-85-1-80-1-80 25-77 25 3 26 6 24 66-2 76 7 92 47 88 30-4 30-5 36-77l5-74 34-3c32-3 46 10 24 24-6 4-11 32-11 62 0 44-5 62-24 82-22 23-34 27-100 27-57 0-75-3-75-14zM1087 5072c-3-5-1-13 5-16 15-10 14-234-2-239-7-2-9-10-4-16 4-8 35-13 79-13 56 0 78 5 107 24 46 31 54 81 18 119-20 22-22 30-13 55 13 35-2 74-34 87-29 11-149 11-156-1zm135-28c20-7 22-37 4-54-7-7-25-13-42-13-26 0-29 4-29 37 0 32 3 37 25 37 14 0 33-3 42-7zm19-116c22-20 25-65 6-91-7-9-30-18-50-20l-37-3-3 66-3 66 34 0c18 0 42-8 53-18zM1876 5074c-2-4-8-24-12-43-5-22-15-38-28-41-26-7-25-20 2-27 18-4 21-14 21-72 0-38 5-73 12-80 19-19 55-15 77 9 24 27 12 40-15 16-20-18-21-17-26 17-4 29-3 72 3 106 0 4 8 8 17 8 23 0 19 17-5 24-17 4-21 14-21 42 0 35-14 59-25 41zM3141 5046c-38-44-48-77-40-128 18-114 148-158 222-75 26 29 28 35 13 38-10 2-33-9-50-24-39-32-38-32-80-7-38 24-51 64-40 127 9 53 29 74 72 74 41 0 77-25 82-56 6-43 24-19 24 32l0 50-85 3-85 3-33-37zM2016 5062c0-6 5-14 12-18 12-7 6-182-8-232-6-22-3-24 32-24 36 0 49 13 27 26-13 8-14 69-1 104 12 31 45 51 68 42 12-4 17-26 19-86 3-75 5-81 28-84 13-2 31-1 40 3 15 5 15 8 0 25-12 12-17 36-16 71 1 29-5 63-13 76-13 22-21 24-70 19l-55-5 0 46c0 45-1 47-31 47-18 0-32-5-32-10zM2648 5038c2-16 10-24 24-24 32 0 28 41-3 45-21 3-24 0-21-21zM3967 5000c-41-10-71-55-71-105 0-84 116-141 176-86 13 12 23 26 23 31 0 16-19 23-27 11-12-21-57-32-79-21-11 6-20 15-20 20 0 4 28 24 63 44 34 20 63 43 63 52 0 40-68 69-128 54zm65-38c10-12 6-21-23-47-47-43-66-42-57 1 12 58 51 80 80 46zM3629 4989l-40-7 30-22c17-12 46-51 65-87 45-84 61-83 106 5 20 39 43 77 51 85 18 18 14 23-20 27-19 2-24-2-22-15 3-20-30-84-48-90-14-5-58 75-47 86 7 7-18 28-29 25-3 0-23-4-46-7zM1401 4962c-59-60-7-174 79-174 32 0 85 29 85 48 0 17-17 20-27 4-12-20-59-32-74-20-21 18-8 36 49 67 52 29 60 44 41 80-9 16-23 21-69 21-48 0-63-5-84-26zm109-8c19-19 16-27-27-55-64-44-78-35-50 31 16 39 51 50 77 24z" transform="matrix(.02286 0 0 -.02286 -3.604 124.87)"/>
	<path d="M1617 4977c0-6 5-10 11-10 13 0 9-130-5-161-7-15-3-18 24-18l33 0 0 61c0 76 22 103 76 93 45-9 70 6 51 29-17 21-60 21-98 1-25-13-29-13-29 0 0 10-11 16-31 16-18 0-32-5-32-11zM2295 4971c-32-32-11-75 54-109 28-14 31-37 7-47-21-8-56 11-56 31 0 9-6 16-12 16-6 0-9-15-8-35 3-30 8-34 39-37 51-5 83 5 96 30 15 27-6 63-52 90-32 19-41 39-23 50 5 4 22-4 38-16 32-26 42-21 33 17-6 23-12 27-53 27-28 0-53-7-63-17zM2625 4983c0-4 8-19 17-33 14-20 16-40 11-89-5-50-4-62 8-62 8 0 22-3 32-7 15-6 16 5 14 92l-3 98-40 4c-21 1-39 0-39-3zM2751 4977c0-6 7-10 17-10 14 0 16-12 12-71-2-39-6-78-8-87-4-11 4-17 29-19l34-3-6 61c-8 77 7 121 40 117 22-3 24-11 29-88 5-81 6-84 33-87l27-3-5 82c-7 118-7 119-113 119-52 0-89-5-89-11zM3444 4922c-18-36-45-78-59-93-30-31-21-46 21-35 16 4 28 15 30 29 2 20 9 23 60 23 52 0 58-2 64-26 4-21 12-27 36-27 41 0 43 16 8 61-16 21-45 60-64 86-20 26-42 48-50 48-8 0-29-30-46-66zm74-34c0-3-15-5-32-5-35 0-37 2-20 33l11 21 20-22c11-11 21-24 21-27zM4410 4725c-30-30-22-46 27-53 37-4 38-6 15-12-20-6-23-11-13-20 19-19 68 17 64 46-3 19-10 23-38 22-28-2-33 1-23 12 20 24-9 28-32 5zM4728 4739c-20-8-35-42-28-61 4-10 18-22 32-27 26-10 34-31 11-31-8 0-19 6-26 12-17 18-30 1-17-20 22-35 99-25 99 13 0 8-16 28-34 46-31 31-32 33-10 33 25 0 29 10 10 29-14 14-17 14-37 6zM4822 4665c3-73 21-98 27-37 2 19 8 34 13 34 6 0 10 7 10 16 0 8-5 16-10 16-6 0-11 9-11 21 0 11-7 21-16 21-14 0-16-13-13-71zM4310 4683c-18-20-18-23-2-58 11-23 25-36 38-36 10 0 25-8 33-16 7-9 19-16 27-16 24 0 17 28-12 46-14 10-26 25-26 34 0 10-6 14-15 11-21-8-29 4-15 21 21 26-5 39-28 14zM5042 4688c-44-31-21-95 32-87 16 2 23 9 20 22-1 11 3 26 10 35 10 12 9 18-7 30-26 19-27 19-55 0zM4916 4677c-42-29-19-88 35-88 34 0 43 19 14 30-17 7-19 10-7 11 22 1 33 31 18 49-16 19-31 18-60-2zM5158 4686c-22-4-23-10-23-73 0-50 3-67 13-64 7 2 14 14 16 26 2 15 11 21 31 21 24 0 55 26 55 45 0 29-49 53-92 45zm50-50c0-9-4-16-10-16-13 0-23 16-14 25 12 12 24 7 24-9zM4228 4592c-22-22 15-98 48-98 6 0 20-8 30-17 18-16 41-12 41 7 0 5-13 15-29 23-17 8-29 22-29 34 0 14-6 20-18 18-13-2-18 4-18 19 0 21-12 27-25 14zM4686 4550c-20-8-16-21 8-28 17-4 21-14 21-59 0-74 25-67 29 8 3 45 6 55 23 55 11 0 23 4 26 10 4 6-6 11-23 11-16 0-39 2-50 4-12 3-27 2-34-1zM5376 4532c0-13-3-46-7-73-5-40-3-49 10-49 9 0 18 6 21 13 3 10 11 8 27-7 12-11 23-15 24-10 0 5 1 30 2 55 2 43 1 45-25 40-25-5-27-3-23 25 4 23 1 31-12 31-11 0-17-9-17-25zM4953 4508c-24-7-23-42 3-58 27-17 28-34 1-19-27 14-38-4-16-25 18-19 26-20 51-11 24 10 21 58-4 64-25 7-29 25-5 25 9 0 15 5 13 12-5 15-18 18-43 12zM4811 4460c3-45 3-45 48-48l45-3 0 49c0 34-4 47-14 44-7-3-13-11-14-19-1-9-2-21-3-28 0-8-8-13-17-13-10 0-15 10-15 31 0 22-6 32-17 32-13 0-15-10-13-45zM5044 4488c-4-9 4-28 18-44 14-16 18-23 10-16-20 18-42 17-42-2 0-18 34-30 63-21 25 8 26 29 2 53-13 13-14 20-5 23 23 8 14 24-14 24-14 0-29-8-32-17zM5143 4479c-15-34-5-56 28-65 50-12 77 14 64 64-5 22-13 27-43 27-29 0-39-6-49-26zm71-17c12-20-13-36-32-21-9 8-16 18-16 23 0 13 39 11 48-2zM5273 4492c-7-7-12-23-12-35 0-30 19-47 55-47 35 0 34 24-1 30-32 4-29 33 3 33 17 0 27 6 27 16 0 19-53 21-72 3zM4163 4473c4-6 11-10 17-10 5 0 10 4 10 10 0 6-8 11-17 11-9 0-13-5-10-11zM4194 4451c-3-6-5-12-3-13 2-2 17-13 34-26 53-40 70-20 20 24-33 29-41 31-51 15zM4095 4397c0-17 104-94 117-86 17 10 9 21-42 60-53 41-75 48-75 26zM4701 4372c-17-17-5-48 24-65 17-10 31-21 31-25 1-14-25-23-29-10-6 19-36 14-32-5 10-51 93-40 93 12 0 18-8 30-26 38-34 16-34 30 1 30 23 0 26 2 15 16-14 16-65 21-77 9zM4841 4310c0-53 3-68 15-68 13 0 16 15 16 68 0 54-3 69-16 69-12 0-15-15-15-69zM4913 4309c-14-38-3-66 30-74 36-9 59 8 64 44 6 57-74 82-94 30zm62-23c2-15-2-23-12-23-21 0-32 18-24 38 9 22 32 12 36-15zM4030 4308c-29-33-31-61-8-91 42-53 126-27 126 39 0 31-21 38-28 9-8-29-44-48-63-33-19 16-19 51 1 59 20 7 21 35 2 35-8 0-22-8-30-18zM5048 4261c-4-76-1-92 19-92 10 0 15 12 15 35 0 31 3 35 24 31 13-3 33 2 44 11 17 12 19 20 10 45-9 26-16 30-59 33l-49 3-4-66zm87 22c0-4-6-11-12-15-14-9-35 11-26 25 7 12 38 4 38-10zM5197 4304c-9-17-9-29-1-48 10-21 18-25 49-23 20 2 36 8 34 14-1 6-9 9-18 8-10-2-7 5 9 18 33 29 22 53-25 53-26 0-40-6-48-22zM3864 4100c0-5 21-24 47-42 26-17 47-35 47-39 0-4 8-8 16-8 23 0 20 29-5 44-12 8-21 23-21 35 0 18-7 21-42 21-23 0-42-5-42-11zM3818 4067c-22-23 16-98 50-98 8 0 20-7 28-16 7-8 19-15 27-15 26 0 15 25-18 44-20 11-30 25-28 37 2 13-3 17-17 15-15-3-17 1-12 18 7 22-13 31-30 15zM3709 3914c-7-7-13-25-13-42 0-53 69-96 115-72 33 18 30 87-4 110-31 20-81 22-98 4zm75-25c19-7 23-52 6-62-17-10-62 24-62 48 0 21 23 27 56 14zM3617 3797c-32-50 10-111 77-111 37 0 55 17 55 54 0 50-59 62-92 20-11-15-13-14-13 6 0 12 7 25 15 28 23 9 20 28-5 28-11 0-28-11-37-25zm100-58c0-20-24-37-35-25-8 8 12 45 25 45 5 0 10-9 10-20zM983 3607c-3-9-13-16-22-16-9 0-16-4-16-9 0-12 62-19 119-14 51 4 46 27-7 32-21 1-38 7-38 13 0 16-29 11-36-6zM947 3536c-36-36 10-71 95-71 47 0 61 4 61 16 0 11-12 16-37 16-23 0-40 6-48 18-8 13-13 15-17 5-8-20-24-15-24 8 0 24-11 27-30 8zM956 3361c-17-31-13-52 11-64 28-15 39-5 22 21-10 17-10 21 3 21 8 0 19-6 23-14 11-18 49-38 71-38 13 0 17 11 17 47 0 35-5 47-16 47-10 0-16-10-16-26 0-15-5-26-12-26-6 0-21 11-32 26-25 31-56 34-71 6zM2685 3311c-21-26-39-51-39-56 0-18 64-56 75-45 7 8 3 16-12 27-33 23-21 53 17 43 27-7 28-5 20 23-7 29-6 30 13 12 22-20 45-24 45-8 0 12-52 53-68 52-6 0-29-22-51-48zM2210 3339c-34-4-83-17-107-30-25-12-79-30-121-39-206-43-345-113-353-177-11-96 33-111 249-85 83 10 165 22 184 28 18 5 54 9 80 9 26 0 87 10 135 21 48 12 98 21 111 21 13 0 35 12 48 26 23 24 24 30 13 62-7 19-13 43-13 54 0 25-49 88-77 99-42 15-85 19-149 11zm124-35c48-21 72-52 82-108 12-61-7-88-60-88-19 0-47-5-64-12-29-11-176-34-334-51-46-5-107-14-136-20-60-11-148-4-162 14-14 17-1 80 19 87 9 4 29 15 43 26 44 32 181 78 287 97 21 4 62 17 89 30 87 40 178 49 236 25zM3668 3323c-28-19-49-78-40-113 9-34 67-63 105-54 15 4 50 26 77 48 27 23 55 46 62 52 17 13 17 54 0 70-19 19-176 17-204-3zm191-26c0-26-123-117-152-113-38 4-59 51-40 89 12 27 19 30 92 35 95 7 100 7 100-11zM3948 3325c-44-15-63-55-44-96 18-39 38-43 122-21 41 11 102 20 136 20 97 1 110 47 27 92-42 22-181 26-241 5zm254-38c31-29 15-46-37-38-28 4-72-1-122-14-88-22-116-16-116 24 0 47 44 60 177 52 56-3 83-10 98-24zM5078 3303c-51-28-55-38-25-66 28-27 135-35 174-15 40 22 26 46-50 81-30 14-56 25-57 24-1 0-20-11-42-24zm95-22c20-8 35-21 33-28-6-17-112-18-126 0-13 14-12 15 18 32 27 15 30 15 75-4zM4354 3280c-55-55-31-87 63-85 49 2 69-2 85-17 25-22 64-20 79 5 17 26-27 80-71 88-20 4-38 14-41 22-10 26-84 18-115-13zm98-4c0-5 19-15 42-21 29-8 47-20 55-37 17-38 3-43-45-16-35 19-51 22-93 16-62-8-76 7-42 43 23 25 83 36 83 15zM969 3259c-8-3-13-13-13-21 0-12 14-15 70-12 58 2 72 6 75 21 3 16-5 18-58 18-34-1-67-4-74-6zM2762 3227c-17-21-32-42-32-47 0-18 24-8 44 18 15 19 25 24 33 16 7-8 5-17-7-30-10-11-17-29-17-39 0-17 4-15 31 10 38 37 40 71 6 93-24 16-26 15-58-21zM4794 3249c-28-28-21-83 16-114 18-15 38-27 46-27 8 0 24-12 35-26 37-47 68-31 79 41 6 38 3 43-49 91-58 55-97 65-127 35zm108-47c43-39 45-43 38-84-6-35-9-40-19-26-7 9-34 27-59 40-38 18-48 30-51 53-8 71 24 78 91 17zM2895 3110c-28-29-37-54-20-54 5 0 18 9 29 21 14 16 27 20 48 15 35-8 41 11 12 33-27 20-38 18-69-15zM3837 3116c-3-8-4-45-2-82l3-68 40-3c61-5 84 21 75 82-11 72-21 84-69 84-24 0-44-6-47-13zm77-32c-7-19-39-22-39-3 0 10 8 17 21 17 13 0 20-6 18-14zm13-65c0-10-10-16-26-16-17 0-26 6-26 16 0 10 9 16 26 16 16 0 26-6 26-16zM4498 3114c-3-8-3-20 1-26 4-7-7-11-29-11-42 0-60-16-60-55 0-34 25-50 78-50l38 0 0 72c0 69-14 105-28 70zm-6-82c4-22-26-37-42-21-16 16-1 47 20 43 10-2 20-12 22-22zM4326 3050c0-53 3-68 16-68 12 0 16 15 16 68 0 54-4 69-16 69-13 0-16-15-16-69zM5192 3079c-39-42-65-105-54-133 24-62 145-27 191 55 14 26 26 53 26 60 0 16-76 58-106 58-12 0-37-18-57-40zm96-14c22-21 23-25 9-52-16-31-102-79-120-68-21 13-11 54 23 98 38 50 54 54 88 22zM2993 3080c0-4 8-17 18-29 16-19 16-20 0-8-29 23-65 12-69-21-2-21 4-33 25-46 32-22 53-13 78 30 14 25 13 29-10 54-24 26-42 35-42 20zm10-73c0-18-23-15-29 5-2 6 3 12 12 12 10 0 17-7 17-17zM4610 3078c-54-15-31-106 26-106 13 0 30 7 38 17 13 16 11 17-15 12-36-7-38 10-2 23 14 5 26 14 26 19 0 10-35 45-43 43-2-1-16-4-30-8zm31-33c-21-13-34-13-26 0 3 6 14 10 24 10 15 0 16-1 2-10zM4704 3062c0-6 3-29 7-51 6-40 25-45 25-7 0 14 12 26 37 37 21 9 35 19 31 23-13 13-100 11-100-2zM2754 3040c-24-13-54-26-67-30-27-7-17-28 14-28 21 0 21-2-8-31-35-37-27-57 9-23 22 20 26 21 32 7 10-26 25-18 33 18 4 19 16 46 26 61 42 61 35 65-39 26zM3998 3039c-18-40 0-62 50-62 50 0 68 23 47 62-20 39-79 38-97 0zm70-26c-8-13-33-13-41 1-12 19 5 32 27 20 11-6 18-16 14-21zM4158 3036c0-55 9-64 59-64l46 0 0 47c0 35-4 47-16 47-10 0-15-10-15-31 0-43-39-46-44-4-5 40-30 45-30 5zM1444 3037c-17-12-37-64-27-70 4-3 11-20 15-38 4-20 12-31 19-28 16 5 19 80 5 99-7 10-3 14 14 14 13 0 21 5 18 13-5 15-30 21-44 10zM1509 3018c-2-14-1-28 3-31 4-2 11-19 14-36 9-43 28-40 28 4 0 20 5 39 11 43 8 5 4 14-10 27-28 27-40 25-46-7zM2436 3016c0-43 27-128 40-128 11 0 13 12 7 55-3 30-9 63-12 73-6 24-35 24-35 0zM3063 2981c-16-18-28-37-28-42 0-16 16-11 36 12 20 21 48 28 48 11 0-5-10-21-23-37-28-36-17-48 17-17 39 37 43 61 14 84-31 27-31 27-64-11zM1285 2988c-9-24 5-41 23-26 22 18 32 3 13-19-23-26-33-63-19-71 15-9 74 4 74 16 0 6-12 10-27 10l-27 0 23 30c30 42 23 69-20 73-23 2-36-2-40-13zM2507 2990c-9-23 4-39 30-39 14 0 25-6 25-12 0-6-11-9-24-8-15 3-23-2-23-12 0-20 43-27 63-10 23 19 19 39-13 58-16 9-21 14-11 11 12-4 19 0 19 10 0 19-59 21-66 2zM1235 2985c-12-21 5-118 21-118 9 0 14 11 14 34-1 43-24 101-35 84zM2805 2945c-30-33-35-58-14-57 16 0 63 70 55 82-5 9-18 2-41-25zM2276 2950c-28-16-22-29 10-24l29 4-29-12c-22-9-28-18-28-42 0-29 2-30 47-30l47 0 0 41c0 31-6 45-23 58-27 19-29 19-53 5zm50-63c3-5-1-13-11-17-20-7-31 1-21 17 9 14 23 14 32 0zM2379 2927c13-65 42-69 30-4-4 23-13 38-22 38-12 0-14-8-8-34zM1971 2933c-4-4-5-19-1-34 24-118 46-154 46-74 0 23 5 42 11 42 5 0 10 4 10 10 0 6-7 11-16 11-9 0-21 11-26 26-11 28-14 30-24 19zM2151 2922c-45-11-24-66 25-66 10 0 19-4 19-10 0-5-18-7-40-3-36 5-38 4-25-12 18-21 68-23 84-3 17 21 4 48-28 56l-27 7 25 9c21 8 23 11 10 19-8 6-18 10-20 9-3 0-14-3-23-6zM2858 2913c-41-29-19-101 27-84 17 7 17 8 0 21-10 7-18 21-18 31 0 22 27 22 35 1 6-17 28-12 28 5 0 11-30 43-41 43-4 0-18-8-31-17zM3134 2897c-16-30-16-34 1-52 19-21 57-28 57-11 0 5-7 12-16 15-20 8-20 49 0 49 8 0 18-5 21-10 11-18 27-12 27 9 0 11-8 23-17 26-35 14-57 6-73-26zM4013 2904c-4-6-7-40-7-74l0-63 48-3c62-4 82 15 65 62-7 17-10 38-7 45 3 7-1 18-9 24-20 16-81 22-90 9zm61-27c0-6-7-10-16-10-8 0-15 4-15 10 0 6 7 11 15 11 9 0 16-5 16-11zm10-58c11-12 10-17-4-22-21-8-43 10-33 27 10 15 22 14 37-5zM4578 2839c0-49 4-68 13-64 7 2 15 15 19 29 8 37 27 36 37-2 15-50 36-51 36-2 0 55-12 71-46 62-24-6-27-3-27 20 0 17-6 27-16 27-13 0-16-15-16-70zM2953 2853c-19-19-34-43-34-54 0-18 4-17 32 10 17 16 31 36 31 44 0 7 7 14 16 14 8 0 16 4 16 10 0 20-27 9-61-24zM4176 2866c-28-17-23-69 9-90 21-14 31-15 53-5 30 13 25 33-7 25-29-8-25 12 6 27 31 14 33 28 6 43-25 14-43 13-67 0zm45-31c-21-13-34-13-26 0 3 6 14 10 24 10 15 0 16-1 2-10zM4329 2870c-27-11-13-27 18-21 18 4 32 2 32-4 0-5-12-10-26-10-27 0-54-34-43-53 4-5 30-10 59-10l52 0-6 39c-10 55-42 77-86 59zm50-66c0-6-8-11-16-11-9 0-16 5-16 11 0 5 7 10 16 10 8 0 16-5 16-10zM1861 2860c-19-8-16-25 5-26 11 0 13-3 6-6-18-7-17-51 1-66 10-8 26-9 50-3 31 8 35 13 34 43-1 18-8 41-15 49-12 15-54 19-81 9zm65-55c3-6-1-12-9-15-15-6-27 0-27 15 0 12 29 11 36 0zM2596 2854c-17-17-16-29 2-29 9 0 21 9 27 21 9 16 8 21-3 21-7 0-19-6-26-13zM4457 2841c-17-26-17-29 1-49 13-14 29-20 51-18 41 4 41 23 0 30-45 7-41 37 4 33 46-3 40 23-6 27-26 3-37-2-50-23zM1577 2847c-12-8-12-19-2-68 8-32 17-63 21-70 10-17 90 5 98 27 4 8-4 38-17 65-19 41-29 50-55 52-17 2-38-1-45-6zm61-22c0-15-19-24-33-16-8 5-7 10 3 17 19 12 30 11 30-1zm21-53c14-9 13-13-5-26-26-20-33-20-41 1-12 32 14 46 46 25zM3216 2835c-8-11-13-27-13-35 0-19 34-49 55-49 22 0 24 20 2 28-26 10-17 27 11 20 19-5 28-2 33 10 16 42-64 66-88 26zM1732 2824c-17-33-8-65 23-83 26-14 30-14 50 4 27 24 28 60 3 83-26 24-62 22-76-4zm61-34c-1-12-9-24-16-26-16-5-28 23-20 45 9 23 40 6 36-19zM2523 2834c-13-5-24-16-24-25 0-17 31-37 57-37 24 0 20 16-7 30l-24 13 24-5c26-5 31 6 10 23-8 6-22 7-36 1zM1433 2780c16-101 19-114 30-110 7 2 11 21 9 42-2 23 1 39 8 39 6 0 11 5 11 11 0 5-7 10-15 10-8 0-17 12-21 26-11 46-30 31-22-18zM2428 2807c-22-9-15-45 11-56l23-9-23-1c-13 0-24-7-24-15 0-20 64-29 84-12 9 7 25 16 35 20 16 5 17 10 7 22-15 18-42 21-42 5 0-6-8-5-21 3-11 7-20 20-18 28 3 16-12 23-32 15zM1333 2771c-11-28-11-40 1-75 16-45 38-51 33-8-2 15 4 31 15 39 18 13 18 15-4 20-29 8-30 25-2 32 29 8 26 25-4 25-19 0-29-10-39-33zM2995 2791c-28-27-9-92 26-92 19 0 17 21-4 36-19 14-11 37 13 37 9 0 18-7 22-16 8-22 25-20 25 3 0 26-21 45-48 45-12 0-27-6-34-13zM2331 2777c-7-8-17-13-22-9-6 3-24 2-41-1-32-7-41-32-25-73 9-25 25-20 25 8 0 46 48 69 54 25 3-18 11-23 34-23 42 0 57 27 34 62-20 30-40 34-59 11zm40-44c-10-13-13-13-21 2-14 23 0 41 19 26 11-10 12-16 2-28zM1200 2769c-6-7-14-36-17-64-6-41-3-56 10-71 35-38 99-17 99 33 0 17-5 33-11 37-6 3-10 18-10 32 0 37-50 60-71 33zm50-27c0-12-28-23-36-15-13 13-6 24 15 24 11 0 21-4 21-9zm15-75c0-9-10-17-23-19-19-3-24 2-24 19 0 17 5 22 24 19 13-2 23-10 23-19zM3093 2739c-36-43-48-72-28-72 15 0 85 82 85 100 0 26-18 18-57-28zM3346 2738c-22-58-22-60 5-53 15 4 20 2 16-5-11-17 10-26 32-14 10 5 27 13 37 16 10 3 19 13 19 22 0 13-6 15-23 10-19-6-21-4-16 11 6 14 3 17-14 13-16-5-20-1-18 16 4 40-21 29-38-16zM2164 2744c-29-20-28-52 2-71 27-18 71-11 71 11 0 10-10 14-28 12-34-3-47 22-16 31 13 3 23 9 23 14 0 16-30 18-52 3zM2042 2730c-3-6-3-15 1-21 3-6 1-18-6-26-9-11-9-20-1-36 10-17 17-19 43-12 48 14 55 21 48 52-11 44-67 72-85 43zm53-52c3-6-1-11-10-11-9 0-16 5-16 11 0 5 4 10 9 10 6 0 13-5 17-10zM3452 2673c-22-25-39-50-39-57 0-25 22-10 54 35 19 26 38 48 43 48 5 0 6 4 2 10-10 16-18 12-60-36zM1806 2672c-16-19 3-47 32-47 11 0 22-5 25-10 4-6-13-9-41-7-35 2-55 10-78 32-35 34-49 30-62-18-6-19-14-42-18-52-5-13-2-18 9-18 8 0 18 7 21 15 4 11 21 16 54 16 26 0 48 5 48 11 0 6 10 3 23-5 28-18 67-12 76 12 8 21-13 45-38 45-11 0-19 5-19 11 0 5 9 10 21 10 11 0 21 5 21 11 0 16-59 12-74-6zM3474 2638c-40-43-43-50-25-53 12-3 26 4 35 18 8 12 23 22 34 22 18 0 35 37 25 54-10 17-23 9-69-41zM1624 2639c-4-4-7-16-7-26 0-24-14-25-31-4-14 17-53 22-53 8 0-16 72-78 82-72 6 4 18 28 27 54 12 37 13 47 2 47-7 0-16-3-20-7zM2157 2591c9-64 22-96 31-71 3 9 7 25 9 37 4 27 21 25 34-4 14-30 27-29 27 2 0 31-36 64-59 55-11-4-19 1-22 15-3 12-11 21-17 21-6 0-8-20-3-55zM2343 2587c-48-52-64-77-49-77 9 0 121 119 121 128 0 20-23 4-72-51zM2086 2618c-10-10-9-34 4-81 13-47 32-39 37 16 2 33-27 79-41 65zM1441 2607c-18-3-23-12-23-34 0-67 25-85 36-27 8 45 33 49 42 6 10-46 42-44 33 1-11 57-26 66-88 54zM1156 2573c-30-30-28-68 6-94 33-26 54-28 86-5 30 21 15 43-18 26-30-16-41-14-54 10-15 28 3 52 39 52 34 0 26 25-10 30-17 2-36-5-49-19zM1287 2573c-4-5-2-12 3-15 4-3 6-19 4-37-5-36 20-49 72-37 30 6 32 9 26 39-3 17-11 38-18 46-13 16-78 19-87 4zm78-58c0-9-9-16-21-16-21 0-27 11-14 25 13 12 35 7 35-9zM2033 2552c-6-32-38-46-38-18 0 20-28 42-36 29-7-12 12-66 27-75 6-4 26-4 44 0 35 7 45 26 34 70-9 34-23 32-31-6zM1788 2549c-6-7-13-22-17-33-7-19-8-19-32 2-30 29-38 29-38-2 0-49 13-90 29-90 11 0 14 7 10 26-5 27 7 35 20 14 5-9 11-7 20 6 13 17 14 16 21-4 12-41 26-22 19 28-7 57-17 73-32 53zM1854 2539c-21-31-21-43 3-65 39-35 86-15 86 37 0 50-61 68-89 28zm57-24c10-13 10-17-5-23-20-7-43 11-32 27 9 16 22 14 37-4zM981 2507c-5-6-3-14 4-16 7-2 9-16 5-36-4-20-1-35 7-40 14-8 95 8 95 20 0 13-16 29-35 36-15 5-16 11-7 28 10 19 8 21-25 21-20 0-40-6-44-13zm59-60c0-6-8-11-17-11-9 0-13 5-10 11 4 5 11 10 17 10 5 0 10-5 10-10zM3383 2502c-8-3-18-17-24-31-14-37 5-66 41-66 37 0 55 17 55 54 0 23-7 33-27 40-15 6-28 10-29 10-1-1-8-4-16-7zm40-45c0-6-7-10-16-10-8 0-15 4-15 10 0 6 7 11 15 11 9 0 16-5 16-11zM3483 2429c-3-5-9-27-13-48-7-38-6-39 23-39 46 0 77 11 77 27 0 9-11 15-30 15-23 0-29 4-29 22 1 23-19 38-28 23zM3871 2364c-10-10-17-25-17-33 0-8 7-23 17-33 16-18 16-19-2-19-10 0-25 8-32 18-10 14-17 15-26 6-9-9-8-18 6-39 32-48 73-46 101 7 8 15 6 25-8 40-19 22-6 28 15 7 10-9 15-9 25 0 10 10 7 19-12 39-30 32-44 33-67 7zM3562 2325c-13-9-23-27-23-40 0-28 29-59 55-59 21 0 25 31 5 33-7 0 1 4 17 8 39 8 45 25 18 53-26 26-41 27-72 5zM3992 2271c-13-3-28-16-34-30-5-14-14-25-19-25-16 0-24-35-12-47 9-8 18-4 35 16 25 30 55 45 83 42 25-3 24 27-2 41-11 6-22 10-23 9-2-1-15-3-28-6zM3638 2236c-22-23-27-34-18-43 9-9 18-8 38 5 15 10 34 14 43 11 9-3 24-3 34 1 15 6 13 10-13 32-40 33-48 32-84-6zM1976 2202c-30-30-54-64-54-73 0-24 19-24 28 0 4 10 27 40 52 66 25 25 45 50 45 55 1 17-19 5-71-48zM4035 2180c-25-25-45-51-45-57 0-18 37-15 52 3 7 8 23 16 35 18 19 3 23 10 23 39 0 20-4 38-10 39-6 2-31-17-55-42zM3798 2142c-38-40-43-63-13-63 16 0 53 52 49 71-1 7 5 13 14 13 9 0 16 5 16 11 0 21-28 8-66-32zM3855 2093c-24-26-41-52-37-57 9-15 54-11 60 6 4 9 16 16 28 16 18 0 21 7 21 42 0 56-19 55-72-7zM1787 2011c-58-61-80-100-57-100 5 0 34 26 64 58 30 32 59 58 65 58 5 0 10 11 10 26 0 14-4 26-9 26-5 0-38-31-73-68zM2987 1925c-27-27-15-58 34-86 25-13 45-29 45-34 0-22-34-22-56 0-39 36-56-3-17-41 42-43 115-15 115 44 0 29-24 55-60 66-39 11-28 28 13 21 40-8 47 4 20 31-21 21-72 21-94-1zM619 1905c-20-24 6-68 56-91 41-20 51-44 21-52-26-7-45 1-45 19 0 8-9 15-21 15-14 0-21-7-21-21 0-27 36-63 63-63 35 0 74 23 80 49 9 36-1 52-48 76-23 12-42 26-42 32 0 17 20 22 41 11 18-10 23-8 28 5 4 10 1 22-8 27-24 15-89 11-104-7zM1634 1846c-35-40-51-78-29-70 15 7 86 90 86 102 0 23-20 12-57-32zM3166 1856c-38-55-2-119 65-111 41 5 47 40 6 40l-29 1 29 21c36 27 36 49 2 62-41 16-55 13-73-13zm41-36c-14-11-21-11-24-3-5 15 20 32 34 23 5-3 1-12-10-20zM3329 1870c-12-8-12-13-2-26 9-10 9-17 2-22-6-4-11-21-11-37 0-35 24-46 85-40 35 3 36 4 35 50-1 34-7 51-25 65-26 21-60 25-84 10zm73-81c0-17-38-20-48-3-9 15 15 31 34 23 8-3 14-12 14-20zM814 1825c-9-13-16-34-16-47 0-59 106-93 114-36 3 21 0 24-19 19-27-7-28 9 0 24 26 14 26 38 0 52-32 17-61 13-79-12zm44-26c-10-10-20-15-24-11-10 10 5 29 25 29 16 0 16-2-1-18zM990 1841c-8-3-13-12-13-19 0-11 10-13 39-10l39 5-36-13c-31-11-38-20-41-48-2-28 1-34 23-40 14-3 39-5 56-3 27 3 30 8 33 49 5 69-40 104-100 79zm65-77c9-14-21-25-42-17-21 8-10 28 16 28 11 0 23-5 26-11zM1509 1685c-53-74-56-78-37-78 19 0 112 113 113 139 1 26-34-2-76-61zM1376 1500c-43-64-47-80-18-69 19 8 91 114 84 125-11 18-24 6-66-56zM1192 1238c-65-95-66-97-57-104 8-6 117 131 128 160 3 10 2 20-3 24-5 3-36-33-68-80zM1386 1175c-18-34-5-55 29-47 26 6 27 5 10-8-24-20-23-28 6-28 51 0 69 56 23 74-14 5-26 14-26 20 0 20-30 12-42-11zM1288 1180c-25-26 7-102 53-127 37-20 57-12 36 16-7 10-15 26-19 36-3 10-15 19-27 19-18 0-20 4-15 31 6 30-9 43-28 25zM1219 1090c-7-17-5-32 7-50 20-32 67-73 84-74 20 0 16 26-7 47-11 10-18 25-15 33 4 10-2 15-17 15-17 0-22 5-20 22 5 32-20 37-32 7zM1021 997c-53-76-60-119-12-62 33 37 83 110 83 120 0 3-6 6-14 6-7 0-33-29-57-64zM1161 1019c-8-12 12-25 26-16 11 7 4 26-11 26-5 0-12-4-15-10zM1187 977c0-6 13-26 30-45 25-27 34-32 44-21 11 10 8 19-17 44-30 32-57 42-57 22zM1103 953c0-16 76-92 93-92 23 0 11 28-28 66-41 40-66 49-65 26zM1036 890c-29-22-34-76-8-101 44-44 133-12 125 44-4 29-40 38-40 9 0-26-24-46-46-38-21 8-22 56-1 64 19 7 21 35 2 35-8 0-22-6-32-13zM913 853c0-4-26-36-57-71-57-62-67-78-49-78 15 0 128 125 128 142 0 15-21 22-22 7zM894 749c-20-36 48-137 74-111 9 10 8 17-6 32-10 11-15 27-11 37 5 13 1 18-17 18-19 0-22 2-12 12 17 17 16 30-3 30-8 0-19-9-25-18zM835 644c-45-45 20-115 68-72 25 23 27 50 5 73-22 21-51 21-73-1zm56-38c2-12-4-18-19-18-15 0-21 7-21 22 0 27 34 24 40-4zM669 596c-61-56-71-71-47-71 14 0 124 105 124 118 0 17-19 5-77-47zM658 474c-10-10-17-26-17-35 0-22 33-50 59-50 29 0 60 36 51 59-7 18-8 18-22-1-14-19-15-19-15 13 0 39-27 46-56 14zM447 386c-46-42-81-83-78-90 2-8 42 23 98 76 52 49 88 89 79 90-9 0-53-34-99-76zM547 372l-25-26 30-31c16-18 36-32 43-31 19 0 18 25-2 42-18 15-21 42-3 42 7 0 21-8 31-18 11-10 26-14 37-9 17 6 16 10-10 33-38 32-69 32-101-2zM447 337c-8-13 12-25 26-17 11 8 4 27-11 27-5 0-12-5-15-10zM483 295c0-5 15-23 34-38 28-23 35-26 37-13 5 22-29 61-52 61-11 0-19-5-19-10zM383 252c-3-6 13-31 36-55l42-44 27 25c14 14 27 31 27 39 0 18-6 18-36-2-22-14-25-13-47 16-24 33-38 39-49 21zM235 187c-63-54-77-70-77-85-1-14 33 9 97 66 56 51 72 74 51 74-5 0-37-25-71-55z" transform="matrix(.02286 0 0 -.02286 -3.604 124.87)"/>
</svg>
