<?xml version="1.0" encoding="utf-8"?>
<svg xmlns="http://www.w3.org/2000/svg" version="1" viewBox="0 0 122 122">
	<title>Plan of the sleeping berths in the cave.</title>
	<path d="m55.443 0.00868c-0.89154 0.13716-1.4402 0.73152-1.4402 1.6231 0 0.59436 0.20574 0.96012 0.93726 1.6231 0.52578 0.4572 1.1659 0.96012 1.4402 1.0973 1.0973 0.59436 0.82296 2.1717-0.38862 2.1717-0.5715 0-1.5773-0.8001-1.8059-1.4402s-0.48006-0.02286-0.32004 0.8001c0.1143 0.6858 0.27432 0.82296 1.2116 1.0744 2.2174 0.59436 3.5662-0.3429 3.0404-2.1031-0.27432-0.86868-0.75438-1.3945-2.3089-2.4689-0.66294-0.4572-0.84582-1.5316-0.29718-1.7602 0.52578-0.18288 1.5545 0.32004 1.7374 0.84582 0.06858 0.27432 0.25146 0.50292 0.36576 0.50292 0.32004 0 0.29718-1.3716-0.02286-1.5545-0.4572-0.29718-1.5545-0.50292-2.1488-0.41148zm-9.0068 0.64008c-0.32004 0.32004-0.59436 0.77724-0.59436 1.0287s-0.13716 0.5715-0.29718 0.73152c-0.2286 0.25146-0.2286 0.3429 0.02286 0.50292s0.32004 0.66294 0.2286 2.1031l-0.1143 1.8974 0.61722-0.09144c0.61722-0.09144 0.61722-0.09144 0.54864-1.9888l-0.09144-1.9202 0.64008 0.16002c0.54864 0.13716 0.64008 0.09144 0.5715-0.27432-0.04572-0.29718-0.32004-0.48006-0.70866-0.52578-0.52578-0.06858-0.61722-0.18288-0.50292-0.6858 0.13716-0.73152 0.64008-0.98298 1.143-0.5715 0.29718 0.25146 0.43434 0.25146 0.66294 0.02286 0.20574-0.2286 0.18288-0.36576-0.18288-0.64008-0.6858-0.50292-1.2802-0.41148-1.9431 0.25146zm13.327-0.41148c0 0.1143 0.09144 0.29718 0.2286 0.43434 0.27432 0.27432 0.41148 5.4178 0.16002 5.8293-0.1143 0.18288 0.09144 0.27432 0.6858 0.27432 0.84582 0 1.0516-0.18288 0.61722-0.61722-0.13716-0.13716-0.27432-1.5316-0.29718-3.109l-0.06858-2.8804-0.66294-0.06858c-0.36576-0.04572-0.66294 0.02286-0.66294 0.13716zm-43.365 3.2918v3.2461h0.61722c0.61722 0 0.61722-0.02286 0.54864-1.3945l-0.09144-1.3945h1.2573c1.0287 0 1.303-0.09144 1.6916-0.59436 0.61722-0.8001 0.5715-1.4859-0.16002-2.3546-0.59436-0.6858-0.73152-0.75438-2.2403-0.75438h-1.6002zm2.8804-2.3089c0.5715 0.50292 0.43434 1.6688-0.25146 2.126-0.4572 0.32004-0.5715 0.29718-1.0058-0.16002-0.50292-0.48006-0.64008-1.5088-0.36576-2.286 0.18288-0.43434 0.9144-0.29718 1.6231 0.32004zm2.6518-0.54864c0.09144 0.20574 0.16002 1.6688 0.16002 3.2461v2.8575h1.1887v-2.4917c0-3.3604-0.13716-4.0005-0.89154-4.0005-0.4572 0-0.5715 0.1143-0.4572 0.38862zm91.646 0.89154c-0.6858 0.6858-1.2344 1.3945-1.2344 1.5545s-0.52578 0.86868-1.143 1.5545c-0.64008 0.70866-1.3716 1.6002-1.6231 1.9888-0.27432 0.38862-1.0744 1.303-1.8059 2.0574-1.303 1.3487-1.6231 1.7145-4.2748 5.3492-2.5146 3.429-9.0297 11.841-10.653 13.762-0.64008 0.73152-1.7374 2.4917-2.4689 3.9319-1.1887 2.3089-1.5545 2.7889-3.429 4.5263-1.1659 1.0516-2.446 2.1717-2.8346 2.4689-1.3487 1.0058-4.892 4.1148-4.892 4.2748 0 0.09144-0.48006 0.4572-1.0287 0.84582-0.5715 0.36576-2.1031 1.6688-3.429 2.9261-2.3774 2.2174-2.4689 2.2631-4.9378 3.0632-1.3716 0.4572-2.8575 0.93726-3.3147 1.0973s-1.3487 0.27432-2.0117 0.29718c-1.1201 0-1.2802-0.06858-1.9888-0.89154-0.43434-0.50292-0.96012-1.303-1.1659-1.7831-0.2286-0.48006-0.64008-1.3716-0.96012-1.966-0.29718-0.59436-0.8001-1.8288-1.0973-2.7661-1.1659-3.749-1.9888-5.2121-3.5204-6.4008-0.98298-0.73152-1.5088-1.3716-1.8974-2.2403-0.29718-0.66294-0.70866-1.3487-0.9144-1.5316s-0.38862-0.4572-0.38862-0.64008c0-0.84582-0.9144-1.8288-2.3089-2.5146-1.0744-0.52578-1.8517-1.1201-2.7661-2.2174-0.70866-0.82296-1.4859-1.6916-1.7145-1.966-0.2286-0.25146-0.41148-0.54864-0.41148-0.64008 0-0.32004-1.2344-1.4402-1.8517-1.6688-1.2802-0.48006-2.286 0.09144-4.3891 2.5375-1.0744 1.2573-2.0574 2.286-2.1717 2.286-0.29718 0-2.9032 2.9718-4.4348 5.0521-0.38862 0.52578-1.2116 1.4859-1.8288 2.126-0.59436 0.64008-1.1659 1.463-1.2573 1.8517-0.2286 0.84582-0.8001 2.0803-3.5204 7.6581-1.1659 2.3774-2.1946 4.5949-2.286 4.9149s-0.29718 0.8001-0.4572 1.0287c-0.2286 0.3429-0.3429-1.1887-0.50292-7.681-0.32004-11.864-0.29718-11.956 0.20574-11.887 0.2286 0.04572 0.41148 0 0.41148-0.1143 0-0.36576-1.0744-2.9489-1.2344-2.9489-0.18288 0-1.3945 2.5603-1.4173 2.9261 0 0.13716 0.20574 0.20574 0.4572 0.13716 0.43434-0.1143 0.48006 0.09144 0.61722 3.9776 0.06858 2.2631 0.20574 7.2466 0.27432 11.087l0.13716 6.9494-0.61722 0.93726c-1.5545 2.2631-3.109 5.9207-3.749 8.7782-0.16002 0.73152-0.50292 1.966-0.77724 2.7432-0.38862 1.1887-0.43434 1.7374-0.29718 3.2461 0.25146 2.4689 0.25146 4.6406 0.02286 6.5608-0.16002 1.1887-0.13716 1.7145 0.09144 1.966 0.18288 0.20574 0.38862 0.36576 0.48006 0.36576 0.18288 0.02286 1.463-2.6289 1.463-2.9718 0-0.09144 0.29718-0.61722 0.6858-1.1659 0.61722-0.9144 2.1031-1.8745 3.9776-2.5832 0.27432-0.09144 0.77724-0.29718 1.1659-0.43434 0.36576-0.16002 1.0744-0.27432 1.5773-0.27432s1.303-0.16002 1.7831-0.36576c1.0058-0.41148 2.9489-0.4572 3.8862-0.1143 0.36576 0.13716 1.4859 0.29718 2.4917 0.36576s2.7661 0.25146 3.9091 0.38862c1.8059 0.2286 2.3089 0.20574 3.589-0.13716 0.82296-0.2286 1.7602-0.64008 2.1031-0.86868 0.3429-0.25146 1.0058-0.52578 1.463-0.61722l0.82296-0.18288-0.89154 1.0516c-1.3945 1.6231-0.73152 1.6688 0.8001 0.04572 1.0744-1.143 1.5545-1.4859 2.286-1.6002 0.52578-0.09144 1.7602-0.36576 2.7432-0.61722 1.2116-0.29718 2.5603-0.43434 4.0919-0.41148 1.9888 0.02286 2.5375-0.06858 4.5034-0.77724 2.1946-0.77724 2.286-0.77724 5.1664-0.64008 9.7612 0.50292 15.225 1.2344 17.305 2.3089 0.52578 0.27432 1.143 0.48006 1.3945 0.48006 0.61722 0 0.52578 0.29718-0.41148 1.2116-0.4572 0.4572-0.84582 0.96012-0.84582 1.1201 0 0.64008 0.64008 0.27432 1.6916-1.0058 1.1201-1.3945 1.0744-1.3716 2.9947-0.84582 0.52578 0.13716 2.4232 0.36576 4.2062 0.50292 2.9718 0.2286 4.9835 0.66294 5.6464 1.1887 0.29718 0.25146 1.5088 0.43434 4.0005 0.5715 1.8288 0.1143 2.9947 0.43434 9.6698 2.7203 3.8176 1.2802 3.7948 1.2802 4.0462 1.0287 0.38862-0.38862-0.0229-0.61722-2.8575-1.5545-1.4402-0.48006-2.7432-0.98298-2.8575-1.0973-0.13716-0.13716-0.43434-0.2286-0.6858-0.2286s-1.5773-0.38862-2.9718-0.84582c-2.0574-0.66294-2.9261-0.84582-4.5034-0.84582-1.1201 0-2.3317-0.16002-2.9032-0.36576-2.4232-0.93726-3.9776-1.2344-7.4295-1.4402-1.0516-0.06858-2.0803-0.18288-2.286-0.25146s-1.2802-0.2286-2.4232-0.32004c-1.2344-0.13716-2.446-0.41148-2.9947-0.6858-0.52578-0.25146-1.6002-0.59436-2.3774-0.75438-2.1717-0.4572-2.0574-0.36576-1.7374-1.2116 0.2286-0.59436 0.2286-0.77724-0.04572-0.93726-0.18288-0.13716-0.25146-0.38862-0.16002-0.70866 0.09144-0.27432 0.06858-0.52578-0.04572-0.52578-0.32004 0.02286-2.2174 2.0345-2.2174 2.4003 0 0.25146-0.29718 0.27432-1.5088 0.13716-0.82296-0.1143-2.0803-0.25146-2.8118-0.3429-1.0287-0.1143-1.3259-0.25146-1.3945-0.59436-0.06858-0.29718 0-0.38862 0.18288-0.27432 0.20574 0.1143 0.27432 0 0.20574-0.38862-0.1143-0.84582-1.0287-0.77724-1.0516 0.09144 0 0.3429-0.09144 0.73152-0.18288 0.82296s-0.16002-0.02286-0.16002-0.25146c0-0.20574-0.1143-0.38862-0.25146-0.38862-0.27432 0-0.93726-0.59436-0.93726-0.82296 0-0.06858 0.27432-0.13716 0.59436-0.13716 0.50292 0 0.61722-0.09144 0.54864-0.54864-0.06858-0.43434-0.2286-0.52578-0.89154-0.52578-1.0287 0-1.4402 0.54864-1.0287 1.4173 0.16002 0.36576 0.48006 0.61722 0.75438 0.61722 0.32004 0 0.50292 0.16002 0.50292 0.43434 0 0.41148-0.13716 0.43434-1.5088 0.2286-2.5603-0.36576-6.0579-0.06858-7.8638 0.66294-1.3259 0.54864-2.0117 0.66294-4.412 0.75438-1.5773 0.04572-3.2918 0.20574-3.8405 0.3429s-1.7374 0.41148-2.6746 0.59436c-2.4689 0.48006-4.0462 0.93726-4.7092 1.3945-0.3429 0.20574-1.1887 0.5715-1.8974 0.77724-1.1659 0.3429-1.7374 0.3429-5.0292 0.09144-2.0574-0.16002-4.0005-0.38862-4.3205-0.48006-1.3716-0.48006-2.7203-0.52578-4.2748-0.16002-0.89154 0.20574-2.1946 0.48006-2.9032 0.64008-1.6231 0.32004-5.0063 1.8974-5.6921 2.6746-0.29718 0.29718-0.73152 1.0058-0.98298 1.5316s-0.64008 1.3259-0.86868 1.7831l-0.41148 0.84582 0.16002-1.5545c0.20574-1.8974 0.18288-3.6347-0.04572-5.9665-0.13716-1.4402-0.06858-2.0574 0.36576-3.4747 0.50292-1.6916 0.64008-2.1717 1.2344-4.5949 0.32004-1.2573 2.6975-6.2408 3.109-6.4922 0.13716-0.09144 0.2286 0.43434 0.2286 1.2802 0 1.3945-0.02286 1.4173-0.59436 1.303-0.73152-0.13716-0.75438 0.02286-0.13716 0.89154 0.27432 0.36576 0.59436 0.96012 0.73152 1.303 0.20574 0.5715 0.16002 0.66294-0.29718 0.84582-0.70866 0.27432-0.86868 0.1143-0.32004-0.29718 0.25146-0.18288 0.36576-0.4572 0.27432-0.61722-0.1143-0.18288-0.36576-0.1143-0.86868 0.27432-0.36576 0.29718-0.98298 0.75438-1.3487 1.0287l-0.6858 0.4572 0.84582 0.16002c0.4572 0.09144 1.1887 0.25146 1.6231 0.3429 0.64008 0.13716 0.77724 0.09144 0.77724-0.20574 0-0.2286-0.18288-0.41148-0.41148-0.41148-0.20574 0-0.3429-0.04572-0.27432-0.1143 0.1143-0.1143 1.2573-0.36576 6.9266-1.5545 1.1201-0.25146 3.6119-0.77724 5.5321-1.1887 1.8974-0.41148 4.0691-0.84582 4.8006-0.98298 0.70866-0.13716 1.966-0.41148 2.7432-0.59436 2.5375-0.5715 10.264-2.3089 11.864-2.6518 0.84582-0.18288 1.7602-0.38862 2.0345-0.48006 0.48006-0.1143 0.48006-0.1143 0.09144 0.20574-0.48006 0.38862-0.5715 0.89154-0.16002 0.89154 0.13716 0 0.96012-0.4572 1.8059-1.0287l1.5545-1.0058-0.9144-0.16002c-3.1775-0.52578-3.1775-0.52578-3.1775-0.1143 0 0.25146 0.20574 0.38862 0.61722 0.38862 0.36576 0 0.59436 0.06858 0.52578 0.13716-0.1143 0.09144-4.3663 1.1201-8.3439 1.9888-0.59436 0.13716-2.0574 0.4572-3.2461 0.73152-1.9888 0.4572-11.567 2.5146-15.248 3.269-0.86868 0.18288-2.5375 0.54864-3.7262 0.8001s-2.2403 0.41148-2.3546 0.3429c-0.27432-0.16002 0.04572-1.0287 0.70866-1.8974 0.29718-0.41148 0.48006-0.82296 0.41148-0.89154-0.29718-0.29718-0.8001-0.16002-0.8001 0.20574 0 0.18288-0.1143 0.3429-0.2286 0.3429-0.43434 0-0.29718-4.5491 0.13716-5.395 0.20574-0.38862 0.59436-1.2573 0.84582-1.9202 0.64008-1.6231 2.8118-5.8979 3.2004-6.3551 0.18288-0.20574 0.66294-1.2802 1.1201-2.4003 0.43434-1.1201 0.98298-2.4003 1.2116-2.8346 0.25146-0.43434 0.43434-0.9144 0.43434-1.0973 0-0.16002 0.16002-0.50292 0.36576-0.75438 0.20574-0.29718 0.06858 0.3429-0.3429 1.5545-1.4859 4.4806-1.6916 5.2121-1.6916 6.1265-0.06858 6.9723-0.04572 7.3152 0.5715 7.9324 0.4572 0.4572 0.84582 0.59436 1.6688 0.59436 0.93726 0 1.1887-0.13716 2.1717-1.0744 0.61722-0.59436 1.2344-1.3716 1.3716-1.7374 0.38862-0.93726 0.6858-2.9489 0.84582-5.555l0.13716-2.2631 0.89154 1.0058c1.143 1.2344 1.9202 1.303 2.9032 0.25146 0.36576-0.41148 0.84582-1.3259 1.0516-2.0345 0.2286-0.73152 0.43434-1.3259 0.48006-1.3259s0.48006 0.38862 0.98298 0.84582c0.82296 0.75438 0.86868 0.84582 0.4572 1.0058-1.0973 0.38862-1.7602 1.0973-2.1488 2.2631s-0.38862 1.2802 0.02286 2.1717c0.61722 1.3945 1.3716 1.8974 2.8346 1.8745 2.1031 0 3.4976-1.2802 3.4976-3.2004 0.02286-1.1659-0.66294-2.2403-1.7831-2.7889l-0.93726-0.4572 0.86868-0.36576c0.52578-0.2286 0.98298-0.64008 1.1887-1.0973 0.52578-1.2116 0.6858-0.98298 1.0287 1.7374 0.09144 0.70866 0.38862 1.4173 0.75438 1.8517 0.5715 0.6858 0.73152 0.73152 2.2403 0.73152 1.303 0 1.6916-0.09144 2.0574-0.48006 0.61722-0.6858 0.82296-0.38862 0.84582 1.2802 0 1.8059 0.29718 3.2233 0.8001 3.7033 0.38862 0.41148 2.5146 0.66294 2.9261 0.36576 0.36576-0.29718 1.7831-2.8804 1.7831-3.3147 0-0.20574 0.09144-0.54864 0.2286-0.77724 0.1143-0.2286 0.32004-0.8001 0.4572-1.2573 0.16002-0.59436 0.2286-0.6858 0.25146-0.32004 0.02286 0.64008 2.1488 4.5949 2.9947 5.6236 0.6858 0.82296 0.64008 1.1201-0.43434 2.126-0.61722 0.5715-0.82296 1.2116-0.38862 1.2116 0.13716 0 0.38862-0.20574 0.54864-0.48006s0.54864-0.48006 0.84582-0.48006c0.38862 0 0.54864-0.1143 0.48006-0.41148-0.04572-0.36576 0.20574-0.4572 1.8517-0.5715 1.303-0.09144 2.7432-0.41148 4.4577-1.0058 1.3716-0.48006 3.0404-0.93726 3.7033-1.0058 0.66294-0.09144 1.9888-0.43434 2.9489-0.75438 2.9718-0.98298 6.1951-1.143 23.454-1.0973 13.167 0.02286 19.02 0.18288 20.78 0.61722 1.7831 0.43434 2.4003 0.48006 2.4003 0.16002 0-0.25146-1.8974-0.89154-3.2461-1.0744-1.0744-0.16002-6.5151-0.43434-7.0866-0.36576-0.20574 0.02286-2.2403 0-4.5491-0.04572-9.4183-0.18288-25.443 0.09144-28.986 0.52578-1.2573 0.13716-2.9718 0.52578-3.8176 0.84582s-1.5316 0.50292-1.5088 0.41148c0-0.1143 0.59436-0.6858 1.3259-1.2802 0.73152-0.5715 1.6688-1.3945 2.1031-1.8059 0.41148-0.41148 1.1201-1.0058 1.6002-1.303 0.4572-0.32004 1.3716-1.1201 2.0345-1.7831 1.2344-1.2802 4.0005-3.6576 5.4178-4.6863 1.9202-1.3716 4.1148-3.9548 5.1435-6.0808 1.143-2.3089 1.9888-3.5204 5.5093-7.9096 3.2918-4.1148 4.6177-5.8064 5.555-7.1095 0.52578-0.77724 1.5316-2.1031 2.2174-2.9489 1.4402-1.7602 1.4173-1.7374 2.1946-2.8575 0.32004-0.4572 1.3259-1.6459 2.2174-2.6289 3.1775-3.5433 3.749-4.2062 4.2748-5.1664 0.27432-0.52578 0.93726-1.3716 1.463-1.9202 0.50292-0.52578 0.93726-1.0287 0.93726-1.143 0-0.38862-0.4572-0.1143-1.6459 1.0973zm-69.769 23.363c0.4572 0.3429 0.4572 0.36576-0.1143 0.2286-0.3429-0.06858-0.98298-0.13716-1.4402-0.13716-0.64008 0-0.75438-0.06858-0.48006-0.25146 0.52578-0.3429 1.5316-0.27432 2.0345 0.16002zm0.32004 1.2344c1.2116 1.0058 1.7831 3.5662 1.6459 7.3609-0.06858 1.6002-0.20574 3.1775-0.3429 3.4976s-0.20574 1.143-0.13716 1.8288c0.18288 1.966-0.6858 3.2233-2.2631 3.2004-1.3259 0-2.606-2.3317-2.4003-4.3663 0.06858-0.75438 0-1.6002-0.20574-2.1031-0.16002-0.4572-0.36576-2.0803-0.41148-3.6119-0.16002-3.4519 0.29718-5.6007 1.2573-6.1036 0.98298-0.54864 1.9888-0.43434 2.8575 0.29718zm-4.5263 1.6002c-0.13716 0.36576-0.2286 0.96012-0.2286 1.3487 0 0.70866-0.32004 0.93726-0.61722 0.4572-0.06858-0.1143-0.41148-0.2286-0.75438-0.2286-0.59436 0-0.5715-0.04572 0.52578-1.1887 0.64008-0.66294 1.2116-1.1659 1.2573-1.1201s-0.04572 0.36576-0.18288 0.73152zm6.9952 0.43434c0.29718 0.41148 0.84582 1.0973 1.1887 1.4859l0.64008 0.73152-0.9144 0.66294-0.93726 0.64008-0.13716-0.89154c-0.06858-0.48006-0.27432-1.463-0.4572-2.1488-0.16002-0.6858-0.2286-1.2573-0.13716-1.2573s0.43434 0.3429 0.75438 0.77724zm-7.7953 2.1488c0.50292 0.4572 0.5715 0.73152 0.5715 2.4917 0 1.0973 0.1143 2.286 0.25146 2.6746 0.13716 0.36576 0.29718 1.5773 0.32004 2.6975 0.04572 1.6231-0.04572 2.4003-0.50292 3.7262-0.6858 2.0117-1.2344 2.6518-2.0574 2.446-0.64008-0.16002-1.6916-1.5773-1.9431-2.6289-0.09144-0.36576-0.2286-2.286-0.32004-4.252-0.1143-3.0632-0.06858-3.8176 0.29718-5.0521 0.75438-2.4689 2.1031-3.3147 3.3833-2.1031zm10.538 0.98298c1.966 1.143 2.7432 3.7262 2.6746 8.9383-0.06858 4.0691-0.50292 4.9149-2.5375 4.9149-0.89154 0-1.2573-0.1143-1.6459-0.54864-0.50292-0.54864-1.0973-2.2631-0.89154-2.5832 0.04572-0.1143-0.02286-0.50292-0.16002-0.86868-0.16002-0.36576-0.29718-2.0345-0.32004-3.6805-0.06858-3.5433 0.2286-4.9378 1.3259-5.8522 0.82296-0.70866 0.86868-0.70866 1.5545-0.32004zm1.966 0.4572c0.36576 0.3429 0.38862 0.66294 0.06858 0.66294-0.13716 0-0.3429-0.20574-0.48006-0.48006-0.29718-0.52578-0.02286-0.64008 0.41148-0.18288zm-16.711 1.4173c-0.16002 0.43434-0.27432 1.143-0.27432 1.5773 0 0.82296 0 0.82296-0.89154 0.66294-0.50292-0.09144-0.93726-0.18288-0.96012-0.20574-0.04572-0.02286 0.4572-0.70866 1.0744-1.5316 0.61722-0.8001 1.1659-1.4173 1.2116-1.3716 0.06858 0.06858-0.02286 0.4572-0.16002 0.86868zm18.448 2.1717c0 0.64008 1.143 2.0117 2.3546 2.8346 0.70866 0.48006 1.2802 1.0744 1.3716 1.4173 0.2286 0.93726-0.04572 0.86868-0.70866-0.18288-0.3429-0.54864-0.77724-0.98298-0.93726-0.98298-0.18288 0-0.52578-0.2286-0.77724-0.50292-0.32004-0.3429-0.64008-0.4572-1.0973-0.36576-0.61722 0.1143-0.64008 0.06858-0.77724-1.0058-0.06858-0.61722-0.18288-1.5088-0.27432-1.966l-0.18288-0.84582 0.52578 0.64008c0.27432 0.36576 0.50292 0.77724 0.50292 0.96012zm-19.157 1.1201c0.32004 0.29718 0.4572 0.96012 0.54864 2.6289 0.06858 1.2344 0.16002 2.3089 0.20574 2.4003 0.18288 0.29718-0.29718 5.1435-0.70866 7.3838-0.38862 2.0345-0.4572 2.2174-1.5316 3.2918-1.2802 1.2802-2.0803 1.463-2.8575 0.64008-0.6858-0.73152-0.82296-1.6459-0.50292-3.269 0.20574-1.0516 0.20574-1.6688 0.02286-2.3774-0.38862-1.3716-0.32004-2.1031 0.29718-4.0005 0.32004-0.96012 0.86868-2.6975 1.2344-3.8862 0.96012-3.1775 1.9888-4.0462 3.2918-2.8118zm20.117 2.0803c0.16002 0.20574 0.41148 0.36576 0.5715 0.36576 0.41148 0 2.5375 2.5375 2.9489 3.5433 1.0058 2.3774-0.93726 7.7267-2.7889 7.7267-0.36576 0-0.82296-0.18288-1.0516-0.43434-0.54864-0.59436-0.93726-3.6119-0.96012-7.2466-0.02286-3.6805 0.41148-5.0063 1.2802-3.9548zm-9.1897 5.7379c0.29718 0.36576 0.54864 0.75438 0.54864 0.89154 0 0.1143-0.59436 0.20574-1.3259 0.20574-1.303 0-1.303 0.02286-1.303 0.73152 0 0.86868 0.13716 0.89154 0.70866 0.18288l0.43434-0.54864 0.27432 0.6858c0.18288 0.50292 0.38862 0.66294 0.70866 0.5715 0.77724-0.20574 0.09144 0.93726-0.82296 1.3716-1.4402 0.6858-2.6518 0.36576-3.4519-0.89154-0.50292-0.84582-0.6858-2.1031-0.29718-2.1031 0.13716 0 0.20574 0.3429 0.18288 0.77724-0.02286 0.41148 0.1143 0.8001 0.27432 0.84582 0.18288 0.06858 0.29718-0.09144 0.29718-0.38862 0-0.25146 0.1143-0.54864 0.2286-0.61722 0.13716-0.06858 0.16002-0.29718 0.09144-0.50292-0.09144-0.20574 0.02286-0.3429 0.27432-0.3429 0.20574 0 0.32004-0.1143 0.25146-0.25146-0.09144-0.1143-0.43434-0.2286-0.8001-0.2286l-0.64008-0.02286 0.70866-0.61722c0.59436-0.52578 0.84582-0.59436 1.8974-0.50292 0.9144 0.09144 1.3259 0.27432 1.7602 0.75438zm0.4572 2.2403c-0.25146 0.25146-0.4572-0.1143-0.25146-0.43434 0.16002-0.25146 0.20574-0.25146 0.29718 0 0.04572 0.16002 0.02286 0.36576-0.04572 0.43434zm32.576 19.431c0.25146 0.25146-0.3429 0.8001-0.86868 0.8001-0.48006 0-0.48006-0.02286-0.04572-0.48006 0.4572-0.50292 0.66294-0.5715 0.9144-0.32004z" stroke-width=".02286"/>
	<path d="m42.002 46.14c0 0.38862 0.1143 0.70866 0.25146 0.70866 0.1143 0 0.2286-0.32004 0.2286-0.70866s-0.1143-0.73152-0.2286-0.73152c-0.13716 0-0.25146 0.3429-0.25146 0.73152zm39.045-45.446c-0.32004 0.32004-0.16002 0.59436 0.32004 0.52578 0.27432-0.04572 0.50292-0.18288 0.50292-0.32004 0-0.29718-0.5715-0.4572-0.82296-0.20574zm11.201 0.98298c-0.06858 0.2286-0.4572 0.5715-0.86868 0.77724-0.64008 0.29718-0.77724 0.52578-0.84582 1.2344s0.04572 0.96012 0.5715 1.3716c0.61722 0.48006 0.64008 0.54864 0.25146 0.96012-0.50292 0.54864-0.29718 0.75438 0.82296 0.75438 1.2344 0 1.5773 0.48006 0.93726 1.2802-0.43434 0.54864-0.5715 0.59436-1.0287 0.36576-0.27432-0.16002-0.64008-0.4572-0.8001-0.66294-0.2286-0.32004-0.3429-0.32004-0.59436-0.09144-0.48006 0.48006 0.48006 1.2802 1.6916 1.4402 0.82296 0.1143 1.0973 0.04572 1.6002-0.41148 0.32004-0.32004 0.59436-0.73152 0.59436-0.93726 0-0.66294-0.73152-1.4402-1.5316-1.6688l-0.75438-0.20574 0.86868-0.36576c1.463-0.64008 1.7831-1.6459 0.8001-2.6746-0.32004-0.36576-0.70866-0.84582-0.84582-1.1201-0.29718-0.5715-0.70866-0.61722-0.86868-0.04572zm0.06858 1.3716c-0.16002 0.41148 0.2286 0.73152 0.4572 0.36576 0.27432-0.4572 0.59436-0.2286 0.59436 0.4572 0 0.86868-0.59436 1.4173-1.1659 1.0744-0.66294-0.43434-0.6858-2.2631-0.02286-2.2631 0.16002 0 0.2286 0.16002 0.13716 0.36576zm-66.66-0.36576c-0.48006 0.38862-0.50292 0.48006-0.16002 0.48006 0.20574 0 0.4572-0.09144 0.54864-0.2286 0.2286-0.38862 0.98298-0.27432 1.5773 0.2286l0.5715 0.48006h-0.98298c-1.2116 0.02286-1.966 0.5715-2.1488 1.6002-0.2286 1.1887 0.32004 1.5316 2.4232 1.5316h1.7831l-0.13716-1.143c-0.27432-2.5146-0.3429-2.6746-1.0516-3.0632-0.93726-0.48006-1.7602-0.4572-2.4232 0.1143zm2.446 1.966c0.41148 0.8001-0.06858 1.6459-0.96012 1.6459-0.84582 0-1.3487-0.70866-1.1201-1.5773 0.1143-0.48006 0.29718-0.59436 0.98298-0.59436 0.59436 0 0.89154 0.16002 1.0973 0.52578zm2.5603-2.2631c-0.3429 0.09144-0.36576 0.18288-0.16002 0.59436 0.16002 0.32004 0.2286 1.1659 0.16002 2.1717-0.1143 1.5545-0.09144 1.6459 0.36576 1.5773 0.41148-0.06858 0.48006-0.27432 0.54864-1.6002 0.09144-1.6002 0.36576-2.1946 1.0744-2.1946 0.73152 0 1.1887 0.93726 1.1887 2.446 0 1.303 0.04572 1.3945 0.54864 1.3945 0.54864 0 0.54864-0.02286 0.38862-1.7145-0.25146-2.2174-0.64008-2.6975-2.1946-2.5375-0.61722 0.04572-1.2116 0.02286-1.303-0.06858-0.1143-0.09144-0.38862-0.1143-0.61722-0.06858zm9.9898 0.64008c-0.89154 0.89154-1.0058 1.4859-0.4572 2.5375 1.1659 2.2631 3.8633 1.7602 4.1377-0.77724 0.1143-1.0287 0.06858-1.1887-0.64008-1.8517-1.0744-0.98298-1.9888-0.96012-3.0404 0.09144zm2.5375 0.36576c0.59436 1.1201 0 3.1318-0.93726 3.1318-0.77724 0-1.5316-2.2403-1.0287-3.0175 0.43434-0.66294 1.6459-0.73152 1.966-0.1143zm20.574-0.59436c-0.6858 0.61722-1.0744 2.1717-0.70866 2.7661 0.13716 0.20574 0.59436 0.61722 1.0287 0.9144 0.61722 0.41148 0.98298 0.50292 1.6688 0.38862 0.9144-0.16002 1.6459-0.6858 1.3716-0.96012-0.09144-0.1143-0.29718-0.04572-0.4572 0.1143-0.16002 0.13716-0.64008 0.27432-1.0744 0.27432-1.0058 0-1.0516-0.54864-0.06858-1.1201 0.38862-0.2286 0.73152-0.48006 0.73152-0.5715s0.25146-0.27432 0.59436-0.43434c0.77724-0.3429 0.75438-0.82296-0.04572-1.463-0.86868-0.6858-2.2403-0.66294-3.0404 0.09144zm2.0345 0.38862 0.5715 0.48006-0.73152 0.59436c-1.143 0.98298-1.5316 1.143-1.7145 0.73152-0.18288-0.50292 0.06858-1.463 0.54864-1.9202 0.48006-0.48006 0.64008-0.48006 1.3259 0.1143zm4.0919-0.8001c-0.41148 0.16002-1.0058 1.3716-1.0058 2.0803 0 0.84582 1.0058 1.9202 2.1488 2.3089 0.89154 0.29718 1.0516 0.27432 1.6231-0.16002 0.86868-0.64008 0.9144-0.9144 0.18288-1.2344-0.82296-0.38862-0.89154-0.36576-0.73152 0.18288 0.09144 0.25146 0.04572 0.52578-0.09144 0.59436-0.13716 0.09144-0.25146 0.04572-0.25146-0.1143s-0.18288-0.20574-0.48006-0.1143c-0.86868 0.27432-0.50292-0.32004 0.77724-1.3259 1.4859-1.1887 1.5545-1.303 1.0058-1.9202-0.32004-0.3429-0.70866-0.4572-1.6459-0.4572-0.66294 0.02286-1.3487 0.09144-1.5316 0.16002zm2.0117 0.66294c0.4572 0.32004 0.43434 0.36576-0.36576 1.1887-0.4572 0.48006-0.96012 0.84582-1.143 0.84582-0.43434 0-0.38862-1.5545 0.06858-2.0117s0.84582-0.48006 1.4402-0.02286zm2.5146-0.64008c0 0.1143 0.1143 0.29718 0.25146 0.43434 0.16002 0.16002 0.2286 1.303 0.18288 3.0632l-0.09144 2.7889h0.64008c0.5715 0 0.61722-0.06858 0.64008-1.1201 0.02286-1.2344 0.16002-1.4859 0.5715-1.0744 0.4572 0.4572 1.0973 0.32004 1.8517-0.38862 1.0287-0.93726 1.0973-2.3774 0.16002-3.2918-0.50292-0.50292-0.77724-0.5715-2.4003-0.5715-1.0058 0-1.8059 0.06858-1.8059 0.16002zm3.3604 0.9144c0.66294 0.8001 0.2286 2.7203-0.61722 2.7203-0.89154 0-1.3945-1.5773-0.82296-2.6518 0.29718-0.54864 1.0058-0.59436 1.4402-0.06858zm2.6289-0.9144c0 0.1143 0.18288 0.36576 0.38862 0.54864 0.32004 0.27432 0.36576 0.64008 0.25146 2.0803l-0.1143 1.7374h0.66294c0.77724 0 1.0516-0.20574 0.73152-0.59436-0.1143-0.13716-0.25146-1.0744-0.29718-2.0574l-0.06858-1.7831-0.77724-0.09144c-0.43434-0.02286-0.77724 0.04572-0.77724 0.16002zm3.6119 0.18288c0 0.16002 0.06858 0.36576 0.18288 0.43434s0.18288 0.93726 0.16002 1.9431c-0.02286 1.8288-0.02286 1.8288 0.5715 1.7602 0.5715-0.06858 0.59436-0.13716 0.54864-1.5088-0.04572-1.7374 0.16002-2.1031 1.0744-2.0117 0.6858 0.09144 0.6858 0.1143 0.82296 1.7602l0.1143 1.6916 0.77724 0.06858c0.73152 0.06858 1.0516-0.2286 0.54864-0.54864-0.13716-0.09144-0.25146-0.73152-0.25146-1.4173 0-1.0058-0.1143-1.4173-0.54864-1.8745-0.50292-0.52578-0.77724-0.61722-2.286-0.61722-1.303 0-1.7145 0.06858-1.7145 0.32004zm-62.774 6.3322c-0.06858 0.1143-0.02286 0.29718 0.1143 0.36576 0.3429 0.2286 0.32004 5.3492-0.04572 5.4635-0.16002 0.04572-0.20574 0.2286-0.09144 0.36576 0.09144 0.18288 0.8001 0.29718 1.8059 0.29718 1.2802 0 1.7831-0.1143 2.446-0.54864 1.0516-0.70866 1.2344-1.8517 0.41148-2.7203-0.4572-0.50292-0.50292-0.6858-0.29718-1.2573 0.29718-0.8001-0.04572-1.6916-0.77724-1.9888-0.66294-0.25146-3.4061-0.25146-3.5662 0.02286zm3.0861 0.64008c0.4572 0.16002 0.50292 0.84582 0.09144 1.2344-0.16002 0.16002-0.5715 0.29718-0.96012 0.29718-0.59436 0-0.66294-0.09144-0.66294-0.84582 0-0.73152 0.06858-0.84582 0.5715-0.84582 0.32004 0 0.75438 0.06858 0.96012 0.16002zm0.43434 2.6518c0.50292 0.4572 0.5715 1.4859 0.13716 2.0803-0.16002 0.20574-0.6858 0.41148-1.143 0.4572l-0.84582 0.06858-0.13716-3.0175h0.77724c0.41148 0 0.96012 0.18288 1.2116 0.41148zm14.516-3.3376c-0.04572 0.09144-0.18288 0.54864-0.27432 0.98298-0.1143 0.50292-0.3429 0.86868-0.64008 0.93726-0.59436 0.16002-0.5715 0.4572 0.04572 0.61722 0.41148 0.09144 0.48006 0.32004 0.48006 1.6459 0 0.86868 0.1143 1.6688 0.27432 1.8288 0.43434 0.43434 1.2573 0.3429 1.7602-0.20574 0.54864-0.61722 0.27432-0.9144-0.3429-0.36576-0.4572 0.41148-0.48006 0.38862-0.59436-0.38862-0.09144-0.66294-0.06858-1.6459 0.06858-2.4232 0-0.09144 0.18288-0.18288 0.38862-0.18288 0.52578 0 0.43434-0.38862-0.1143-0.54864-0.38862-0.09144-0.48006-0.32004-0.48006-0.96012 0-0.8001-0.32004-1.3487-0.5715-0.93726zm28.918 0.64008c-0.86868 1.0058-1.0973 1.7602-0.9144 2.9261 0.41148 2.606 3.3833 3.6119 5.0749 1.7145 0.59436-0.66294 0.64008-0.8001 0.29718-0.86868-0.2286-0.04572-0.75438 0.20574-1.143 0.54864-0.89154 0.73152-0.86868 0.73152-1.8288 0.16002-0.86868-0.54864-1.1659-1.463-0.9144-2.9032 0.20574-1.2116 0.66294-1.6916 1.6459-1.6916 0.93726 0 1.7602 0.5715 1.8745 1.2802 0.13716 0.98298 0.54864 0.43434 0.54864-0.73152v-1.143l-3.8862-0.13716zm-25.718-0.36576c0 0.13716 0.1143 0.32004 0.27432 0.41148 0.27432 0.16002 0.13716 4.1605-0.18288 5.3035-0.13716 0.50292-0.06858 0.54864 0.73152 0.54864 0.82296 0 1.1201-0.29718 0.61722-0.59436-0.29718-0.18288-0.32004-1.5773-0.02286-2.3774 0.27432-0.70866 1.0287-1.1659 1.5545-0.96012 0.27432 0.09144 0.38862 0.59436 0.43434 1.966 0.06858 1.7145 0.1143 1.8517 0.64008 1.9202 0.29718 0.04572 0.70866 0.02286 0.9144-0.06858 0.3429-0.1143 0.3429-0.18288 0-0.5715-0.27432-0.27432-0.38862-0.82296-0.36576-1.6231 0.02286-0.66294-0.1143-1.4402-0.29718-1.7374-0.29718-0.50292-0.48006-0.54864-1.6002-0.43434l-1.2573 0.1143v-1.0516c0-1.0287-0.02286-1.0744-0.70866-1.0744-0.41148 0-0.73152 0.1143-0.73152 0.2286zm14.448 0.54864c0.04572 0.36576 0.2286 0.54864 0.54864 0.54864 0.73152 0 0.64008-0.93726-0.06858-1.0287-0.48006-0.06858-0.54864 0-0.48006 0.48006zm30.152 0.86868c-0.93726 0.2286-1.6231 1.2573-1.6231 2.4003 0 1.9202 2.6518 3.2233 4.0234 1.966 0.29718-0.27432 0.52578-0.59436 0.52578-0.70866 0-0.36576-0.43434-0.52578-0.61722-0.25146-0.27432 0.48006-1.303 0.73152-1.8059 0.48006-0.25146-0.13716-0.4572-0.3429-0.4572-0.4572 0-0.09144 0.64008-0.54864 1.4402-1.0058 0.77724-0.4572 1.4402-0.98298 1.4402-1.1887 0-0.9144-1.5545-1.5773-2.9261-1.2344zm1.4859 0.86868c0.2286 0.27432 0.13716 0.48006-0.52578 1.0744-1.0744 0.98298-1.5088 0.96012-1.303-0.02286 0.27432-1.3259 1.1659-1.8288 1.8288-1.0516zm-9.2126-0.61722-0.9144 0.16002 0.6858 0.50292c0.38862 0.27432 1.0516 1.1659 1.4859 1.9888 1.0287 1.9202 1.3945 1.8974 2.4232-0.1143 0.4572-0.89154 0.98298-1.7602 1.1659-1.9431 0.41148-0.41148 0.32004-0.52578-0.4572-0.61722-0.43434-0.04572-0.54864 0.04572-0.50292 0.3429 0.06858 0.4572-0.6858 1.9202-1.0973 2.0574-0.32004 0.1143-1.3259-1.7145-1.0744-1.966 0.16002-0.16002-0.41148-0.64008-0.66294-0.5715-0.06858 0-0.52578 0.09144-1.0516 0.16002zm-50.932 0.61722c-1.3487 1.3716-0.16002 3.9776 1.8059 3.9776 0.73152 0 1.9431-0.66294 1.9431-1.0973 0-0.38862-0.38862-0.4572-0.61722-0.09144-0.27432 0.4572-1.3487 0.73152-1.6916 0.4572-0.48006-0.41148-0.18288-0.82296 1.1201-1.5316 1.1887-0.66294 1.3716-1.0058 0.93726-1.8288-0.20574-0.36576-0.52578-0.48006-1.5773-0.48006-1.0973 0-1.4402 0.1143-1.9202 0.59436zm2.4917 0.18288c0.43434 0.43434 0.36576 0.61722-0.61722 1.2573-1.463 1.0058-1.7831 0.8001-1.143-0.70866 0.36576-0.89154 1.1659-1.143 1.7602-0.54864z" stroke-width=".02286"/>
	<path d="m33.361 11.096c0 0.13716 0.1143 0.2286 0.25146 0.2286 0.29718 0 0.20574 2.9718-0.1143 3.6805-0.16002 0.3429-0.06858 0.41148 0.54864 0.41148h0.75438v-1.3945c0-1.7374 0.50292-2.3546 1.7374-2.126 1.0287 0.20574 1.6002-0.13716 1.1659-0.66294-0.38862-0.48006-1.3716-0.48006-2.2403-0.02286-0.5715 0.29718-0.66294 0.29718-0.66294 0 0-0.2286-0.25146-0.36576-0.70866-0.36576-0.41148 0-0.73152 0.1143-0.73152 0.25146zm15.499 0.13716c-0.73152 0.73152-0.25146 1.7145 1.2344 2.4917 0.64008 0.32004 0.70866 0.84582 0.16002 1.0744-0.48006 0.18288-1.2802-0.25146-1.2802-0.70866 0-0.20574-0.13716-0.36576-0.27432-0.36576s-0.20574 0.3429-0.18288 0.8001c0.06858 0.6858 0.18288 0.77724 0.89154 0.84582 1.1659 0.1143 1.8974-0.1143 2.1946-0.6858 0.3429-0.61722-0.13716-1.4402-1.1887-2.0574-0.73152-0.43434-0.93726-0.89154-0.52578-1.143 0.1143-0.09144 0.50292 0.09144 0.86868 0.36576 0.73152 0.59436 0.96012 0.48006 0.75438-0.38862-0.13716-0.52578-0.27432-0.61722-1.2116-0.61722-0.64008 0-1.2116 0.16002-1.4402 0.38862zm7.5438-0.27432c0 0.09144 0.18288 0.43434 0.38862 0.75438 0.32004 0.4572 0.36576 0.9144 0.25146 2.0345-0.1143 1.143-0.09144 1.4173 0.18288 1.4173 0.18288 0 0.50292 0.06858 0.73152 0.16002 0.3429 0.13716 0.36576-0.1143 0.32004-2.1031l-0.06858-2.2403-0.9144-0.09144c-0.48006-0.02286-0.89154 0-0.89154 0.06858zm2.8804 0.13716c0 0.13716 0.16002 0.2286 0.38862 0.2286 0.32004 0 0.36576 0.27432 0.27432 1.6231-0.04572 0.89154-0.13716 1.7831-0.18288 1.9888-0.09144 0.25146 0.09144 0.38862 0.66294 0.43434l0.77724 0.06858-0.13716-1.3945c-0.18288-1.7602 0.16002-2.7661 0.9144-2.6746 0.50292 0.06858 0.54864 0.25146 0.66294 2.0117 0.1143 1.8517 0.13716 1.9202 0.75438 1.9888l0.61722 0.06858-0.1143-1.8745c-0.16002-2.6975-0.16002-2.7203-2.5832-2.7203-1.1887 0-2.0345 0.1143-2.0345 0.25146zm15.842 1.2573c-0.41148 0.82296-1.0287 1.7831-1.3487 2.126-0.6858 0.70866-0.48006 1.0516 0.48006 0.8001 0.36576-0.09144 0.64008-0.3429 0.6858-0.66294 0.04572-0.4572 0.20574-0.52578 1.3716-0.52578 1.1887 0 1.3259 0.04572 1.463 0.59436 0.09144 0.48006 0.27432 0.61722 0.82296 0.61722 0.93726 0 0.98298-0.36576 0.18288-1.3945-0.36576-0.48006-1.0287-1.3716-1.463-1.966-0.4572-0.59436-0.96012-1.0973-1.143-1.0973s-0.66294 0.6858-1.0516 1.5088zm1.6916 0.77724c0 0.06858-0.3429 0.1143-0.73152 0.1143-0.8001 0-0.84582-0.04572-0.4572-0.75438l0.25146-0.48006 0.4572 0.50292c0.25146 0.25146 0.48006 0.54864 0.48006 0.61722zm20.391 3.7262c-0.6858 0.6858-0.50292 1.0516 0.61722 1.2116 0.84582 0.09144 0.86868 0.13716 0.3429 0.27432-0.4572 0.13716-0.52578 0.25146-0.29718 0.4572 0.43434 0.43434 1.5545-0.38862 1.463-1.0516-0.06858-0.43434-0.2286-0.52578-0.86868-0.50292-0.64008 0.04572-0.75438-0.02286-0.52578-0.27432 0.4572-0.54864-0.20574-0.64008-0.73152-0.1143zm7.2695-0.32004c-0.4572 0.18288-0.8001 0.96012-0.64008 1.3945 0.0914 0.2286 0.41148 0.50292 0.73152 0.61722 0.59436 0.2286 0.77724 0.70866 0.25146 0.70866-0.18288 0-0.43434-0.13716-0.59436-0.27432-0.38862-0.41148-0.6858-0.02286-0.38862 0.4572 0.50292 0.8001 2.2631 0.5715 2.2631-0.29718 0-0.18288-0.36576-0.64008-0.77724-1.0516-0.70866-0.70866-0.73152-0.75438-0.2286-0.75438 0.5715 0 0.66294-0.2286 0.2286-0.66294-0.32004-0.32004-0.38862-0.32004-0.84582-0.13716zm2.1488 1.6916c0.0686 1.6688 0.48006 2.2403 0.61722 0.84582 0.0457-0.43434 0.18288-0.77724 0.29718-0.77724 0.13716 0 0.2286-0.16002 0.2286-0.36576 0-0.18288-0.1143-0.36576-0.2286-0.36576-0.13716 0-0.25146-0.20574-0.25146-0.48006 0-0.25146-0.16002-0.48006-0.36576-0.48006-0.32004 0-0.36576 0.29718-0.29718 1.6231zm-11.704-0.41148c-0.41148 0.4572-0.41148 0.52578-0.04572 1.3259 0.25146 0.52578 0.5715 0.82296 0.86868 0.82296 0.2286 0 0.5715 0.18288 0.75438 0.36576 0.16002 0.20574 0.43434 0.36576 0.61722 0.36576 0.54864 0 0.38862-0.64008-0.27432-1.0516-0.32004-0.2286-0.59436-0.5715-0.59436-0.77724 0-0.2286-0.13716-0.32004-0.3429-0.25146-0.48006 0.18288-0.66294-0.09144-0.3429-0.48006 0.48006-0.59436-0.1143-0.89154-0.64008-0.32004zm16.734-0.1143c-1.0058 0.70866-0.48006 2.1717 0.73152 1.9888 0.36576-0.04572 0.52578-0.20574 0.4572-0.50292-0.0229-0.25146 0.0686-0.59436 0.2286-0.8001 0.2286-0.27432 0.20574-0.41148-0.16002-0.6858-0.59436-0.43434-0.61722-0.43434-1.2573 0zm-2.8804 0.25146c-0.96012 0.66294-0.43434 2.0117 0.8001 2.0117 0.77724 0 0.98298-0.43434 0.32004-0.6858-0.38862-0.16002-0.43434-0.2286-0.16002-0.25146 0.50292-0.02286 0.75438-0.70866 0.41148-1.1201-0.36576-0.43434-0.70866-0.41148-1.3716 0.04572zm5.5321-0.20574c-0.50292 0.09144-0.52578 0.2286-0.52578 1.6688 0 1.143 0.0686 1.5316 0.29718 1.463 0.16002-0.04572 0.32004-0.32004 0.36576-0.59436 0.0457-0.3429 0.25146-0.48006 0.70866-0.48006 0.54864 0 1.2573-0.59436 1.2573-1.0287 0-0.66294-1.1201-1.2116-2.1031-1.0287zm1.143 1.143c0 0.20574-0.0914 0.36576-0.2286 0.36576-0.29718 0-0.52578-0.36576-0.32004-0.5715 0.27432-0.27432 0.54864-0.16002 0.54864 0.20574zm-22.403 1.0058c-0.50292 0.50292 0.3429 2.2403 1.0973 2.2403 0.13716 0 0.4572 0.18288 0.6858 0.38862 0.41148 0.36576 0.93726 0.27432 0.93726-0.16002 0-0.1143-0.29718-0.3429-0.66294-0.52578-0.38862-0.18288-0.66294-0.50292-0.66294-0.77724 0-0.32004-0.13716-0.4572-0.41148-0.41148-0.29718 0.04572-0.41148-0.09144-0.41148-0.43434 0-0.48006-0.27432-0.61722-0.5715-0.32004zm10.47 0.96012c-0.4572 0.18288-0.36576 0.48006 0.18288 0.64008 0.38862 0.09144 0.48006 0.32004 0.48006 1.3487 0 1.6916 0.5715 1.5316 0.66294-0.18288 0.0686-1.0287 0.13716-1.2573 0.52578-1.2573 0.25146 0 0.52578-0.09144 0.59436-0.2286 0.0914-0.13716-0.13716-0.25146-0.52578-0.25146-0.36576 0-0.89154-0.04572-1.143-0.09144-0.27432-0.06858-0.61722-0.04572-0.77724 0.02286zm15.773 0.41148c0 0.29718-0.0686 1.0516-0.16002 1.6688-0.1143 0.9144-0.0686 1.1201 0.2286 1.1201 0.20574 0 0.41148-0.13716 0.48006-0.29718 0.0686-0.2286 0.25146-0.18288 0.61722 0.16002 0.27432 0.25146 0.52578 0.3429 0.54864 0.2286 0-0.1143 0.0229-0.6858 0.0457-1.2573 0.0457-0.98298 0.0229-1.0287-0.5715-0.9144-0.5715 0.1143-0.61722 0.06858-0.52578-0.5715 0.0914-0.52578 0.0229-0.70866-0.27432-0.70866-0.25146 0-0.38862 0.20574-0.38862 0.5715zm-9.6698 0.54864c-0.54864 0.16002-0.52578 0.96012 0.0686 1.3259 0.61722 0.38862 0.64008 0.77724 0.0229 0.43434-0.61722-0.32004-0.86868 0.09144-0.36576 0.5715 0.41148 0.43434 0.59436 0.4572 1.1659 0.25146 0.54864-0.2286 0.48006-1.3259-0.0914-1.463-0.5715-0.16002-0.66294-0.5715-0.1143-0.5715 0.20574 0 0.3429-0.1143 0.29718-0.27432-0.1143-0.3429-0.41148-0.41148-0.98298-0.27432zm-3.2461 1.0973c0.0686 1.0287 0.0686 1.0287 1.0973 1.0973l1.0287 0.06858v-1.1201c0-0.77724-0.0914-1.0744-0.32004-1.0058-0.16002 0.06858-0.29718 0.25146-0.32004 0.43434-0.0229 0.20574-0.0457 0.48006-0.0686 0.64008 0 0.18288-0.18288 0.29718-0.38862 0.29718-0.2286 0-0.3429-0.2286-0.3429-0.70866 0-0.50292-0.13716-0.73152-0.38862-0.73152-0.29718 0-0.3429 0.2286-0.29718 1.0287zm5.3264-0.64008c-0.0914 0.20574 0.0914 0.64008 0.41148 1.0058 0.32004 0.36576 0.41148 0.52578 0.2286 0.36576-0.4572-0.41148-0.96012-0.38862-0.96012 0.04572 0 0.41148 0.77724 0.6858 1.4402 0.48006 0.5715-0.18288 0.59436-0.66294 0.0457-1.2116-0.29718-0.29718-0.32004-0.4572-0.1143-0.52578 0.52578-0.18288 0.32004-0.54864-0.32004-0.54864-0.32004 0-0.66294 0.18288-0.73152 0.38862zm2.2631 0.20574c-0.3429 0.77724-0.1143 1.2802 0.64008 1.4859 1.143 0.27432 1.7602-0.32004 1.463-1.463-0.1143-0.50292-0.29718-0.61722-0.98298-0.61722-0.66294 0-0.89154 0.13716-1.1201 0.59436zm1.6231 0.38862c0.27432 0.4572-0.29718 0.82296-0.73152 0.48006-0.20574-0.18288-0.36576-0.41148-0.36576-0.52578 0-0.29718 0.89154-0.25146 1.0973 0.04572zm1.3487-0.6858c-0.16002 0.16002-0.27432 0.52578-0.27432 0.8001 0 0.6858 0.43434 1.0744 1.2573 1.0744 0.8001 0 0.77724-0.54864-0.0229-0.6858-0.73152-0.09144-0.66294-0.75438 0.0686-0.75438 0.38862 0 0.61722-0.13716 0.61722-0.36576 0-0.43434-1.2116-0.48006-1.6459-0.06858zm-25.375 0.43434c0.09144 0.13716 0.25146 0.2286 0.38862 0.2286 0.1143 0 0.2286-0.09144 0.2286-0.2286s-0.18288-0.25146-0.38862-0.25146-0.29718 0.1143-0.2286 0.25146zm0.70866 0.50292c-0.06858 0.13716-0.1143 0.27432-0.06858 0.29718 0.04572 0.04572 0.38862 0.29718 0.77724 0.59436 1.2116 0.9144 1.6002 0.4572 0.4572-0.54864-0.75438-0.66294-0.93726-0.70866-1.1659-0.3429zm-2.2631 1.2344c0 0.38862 2.3774 2.1488 2.6746 1.966 0.38862-0.2286 0.20574-0.48006-0.96012-1.3716-1.2116-0.93726-1.7145-1.0973-1.7145-0.59436zm13.853 0.5715c-0.38862 0.38862-0.1143 1.0973 0.54864 1.4859 0.38862 0.2286 0.70866 0.48006 0.70866 0.5715 0.0229 0.32004-0.5715 0.52578-0.66294 0.2286-0.13716-0.43434-0.82296-0.32004-0.73152 0.1143 0.2286 1.1659 2.126 0.9144 2.126-0.27432 0-0.41148-0.18288-0.6858-0.59436-0.86868-0.77724-0.36576-0.77724-0.6858 0.0229-0.6858 0.52578 0 0.59436-0.04572 0.3429-0.36576-0.32004-0.36576-1.4859-0.48006-1.7602-0.20574zm3.2004 1.4173c0 1.2116 0.0686 1.5545 0.3429 1.5545 0.29718 0 0.36576-0.3429 0.36576-1.5545 0-1.2344-0.0686-1.5773-0.36576-1.5773-0.27432 0-0.3429 0.3429-0.3429 1.5773zm1.6459 0.02286c-0.32004 0.86868-0.0686 1.5088 0.6858 1.6916 0.82296 0.20574 1.3487-0.18288 1.463-1.0058 0.13716-1.303-1.6916-1.8745-2.1488-0.6858zm1.4173 0.52578c0.0457 0.3429-0.0457 0.52578-0.27432 0.52578-0.48006 0-0.73152-0.41148-0.54864-0.86868 0.20574-0.50292 0.73152-0.27432 0.82296 0.3429zm-21.603-0.50292c-0.66294 0.75438-0.70866 1.3945-0.18288 2.0803 0.96012 1.2116 2.8804 0.61722 2.8804-0.89154 0-0.70866-0.48006-0.86868-0.64008-0.20574-0.18288 0.66294-1.0058 1.0973-1.4402 0.75438-0.43434-0.36576-0.43434-1.1659 0.02286-1.3487 0.4572-0.16002 0.48006-0.8001 0.04572-0.8001-0.18288 0-0.50292 0.18288-0.6858 0.41148zm23.271 1.0744c-0.0914 1.7374-0.0229 2.1031 0.43434 2.1031 0.2286 0 0.3429-0.27432 0.3429-0.8001 0-0.70866 0.0686-0.8001 0.54864-0.70866 0.29718 0.06858 0.75438-0.04572 1.0058-0.25146 0.38862-0.27432 0.43434-0.4572 0.2286-1.0287-0.20574-0.59436-0.36576-0.6858-1.3487-0.75438l-1.1201-0.06858zm1.9888-0.50292c0 0.09144-0.13716 0.25146-0.27432 0.3429-0.32004 0.20574-0.8001-0.25146-0.59436-0.5715 0.16002-0.27432 0.86868-0.09144 0.86868 0.2286zm1.4173-0.48006c-0.20574 0.38862-0.20574 0.66294-0.0229 1.0973 0.2286 0.48006 0.41148 0.5715 1.1201 0.52578 0.4572-0.04572 0.82296-0.18288 0.77724-0.32004-0.0229-0.13716-0.20574-0.20574-0.41148-0.18288-0.2286 0.04572-0.16002-0.1143 0.20574-0.41148 0.75438-0.66294 0.50292-1.2116-0.5715-1.2116-0.59436 0-0.9144 0.13716-1.0973 0.50292zm-30.472 4.6634c0 0.1143 0.48006 0.54864 1.0744 0.96012 0.59436 0.38862 1.0744 0.8001 1.0744 0.89154s0.18288 0.18288 0.36576 0.18288c0.52578 0 0.4572-0.66294-0.1143-1.0058-0.27432-0.18288-0.48006-0.52578-0.48006-0.8001 0-0.41148-0.16002-0.48006-0.96012-0.48006-0.52578 0-0.96012 0.1143-0.96012 0.25146zm-1.0516 0.75438c-0.50292 0.52578 0.36576 2.2403 1.143 2.2403 0.18288 0 0.4572 0.16002 0.64008 0.36576 0.16002 0.18288 0.43434 0.3429 0.61722 0.3429 0.59436 0 0.3429-0.5715-0.41148-1.0058-0.4572-0.25146-0.6858-0.5715-0.64008-0.84582 0.04572-0.29718-0.06858-0.38862-0.38862-0.3429-0.3429 0.06858-0.38862-0.02286-0.27432-0.41148 0.16002-0.50292-0.29718-0.70866-0.6858-0.3429zm-2.4917 3.4976c-0.16002 0.16002-0.29718 0.5715-0.29718 0.96012 0 1.2116 1.5773 2.1946 2.6289 1.6459 0.75438-0.41148 0.6858-1.9888-0.09144-2.5146-0.70866-0.4572-1.8517-0.50292-2.2403-0.09144zm1.7145 0.5715c0.43434 0.16002 0.52578 1.1887 0.13716 1.4173s-1.4173-0.54864-1.4173-1.0973c0-0.48006 0.52578-0.61722 1.2802-0.32004zm-3.8176 2.1031c-0.73152 1.143 0.2286 2.5375 1.7602 2.5375 0.84582 0 1.2573-0.38862 1.2573-1.2344 0-1.143-1.3487-1.4173-2.1031-0.4572-0.25146 0.3429-0.29718 0.32004-0.29718-0.13716 0-0.27432 0.16002-0.5715 0.3429-0.64008 0.52578-0.20574 0.4572-0.64008-0.1143-0.64008-0.25146 0-0.64008 0.25146-0.84582 0.5715zm2.286 1.3259c0 0.4572-0.54864 0.84582-0.8001 0.5715-0.18288-0.18288 0.27432-1.0287 0.5715-1.0287 0.1143 0 0.2286 0.20574 0.2286 0.4572zm-62.499 3.0175c-0.06858 0.20574-0.29718 0.36576-0.50292 0.36576s-0.36576 0.09144-0.36576 0.20574c0 0.27432 1.4173 0.43434 2.7203 0.32004 1.1659-0.09144 1.0516-0.61722-0.16002-0.73152-0.48006-0.02286-0.86868-0.16002-0.86868-0.29718 0-0.36576-0.66294-0.25146-0.82296 0.13716zm-0.82296 1.6231c-0.82296 0.82296 0.2286 1.6231 2.1717 1.6231 1.0744 0 1.3945-0.09144 1.3945-0.36576 0-0.25146-0.27432-0.36576-0.84582-0.36576-0.52578 0-0.9144-0.13716-1.0973-0.41148-0.18288-0.29718-0.29718-0.3429-0.38862-0.1143-0.18288 0.4572-0.54864 0.3429-0.54864-0.18288 0-0.54864-0.25146-0.61722-0.6858-0.18288zm0.20574 4.0005c-0.38862 0.70866-0.29718 1.1887 0.25146 1.463 0.64008 0.3429 0.89154 0.1143 0.50292-0.48006-0.2286-0.38862-0.2286-0.48006 0.06858-0.48006 0.18288 0 0.43434 0.13716 0.52578 0.32004 0.25146 0.41148 1.1201 0.86868 1.6231 0.86868 0.29718 0 0.38862-0.25146 0.38862-1.0744 0-0.8001-0.1143-1.0744-0.36576-1.0744-0.2286 0-0.36576 0.2286-0.36576 0.59436 0 0.3429-0.1143 0.59436-0.27432 0.59436-0.13716 0-0.48006-0.25146-0.73152-0.59436-0.5715-0.70866-1.2802-0.77724-1.6231-0.13716zm39.525 1.143c-0.48006 0.59436-0.89154 1.1659-0.89154 1.2802 0 0.41148 1.463 1.2802 1.7145 1.0287 0.16002-0.18288 0.06858-0.36576-0.27432-0.61722-0.75438-0.52578-0.48006-1.2116 0.38862-0.98298 0.61722 0.16002 0.64008 0.1143 0.4572-0.52578-0.16002-0.66294-0.13716-0.6858 0.29718-0.27432 0.50292 0.4572 1.0287 0.54864 1.0287 0.18288 0-0.27432-1.1887-1.2116-1.5545-1.1887-0.13716 0-0.66294 0.50292-1.1659 1.0973zm-10.858-0.64008c-0.77724 0.09144-1.8974 0.38862-2.446 0.6858-0.5715 0.27432-1.8059 0.6858-2.7661 0.89154-4.7092 0.98298-7.8867 2.5832-8.0696 4.0462-0.25146 2.1946 0.75438 2.5375 5.6921 1.9431 1.8974-0.2286 3.7719-0.50292 4.2062-0.64008 0.41148-0.1143 1.2344-0.20574 1.8288-0.20574s1.9888-0.2286 3.0861-0.48006c1.0973-0.27432 2.2403-0.48006 2.5375-0.48006s0.8001-0.27432 1.0973-0.59436c0.52578-0.54864 0.54864-0.6858 0.29718-1.4173-0.16002-0.43434-0.29718-0.98298-0.29718-1.2344 0-0.5715-1.1201-2.0117-1.7602-2.2631-0.96012-0.3429-1.9431-0.43434-3.4061-0.25146zm2.8346 0.8001c1.0973 0.48006 1.6459 1.1887 1.8745 2.4689 0.27432 1.3945-0.16002 2.0117-1.3716 2.0117-0.43434 0-1.0744 0.1143-1.463 0.27432-0.66294 0.25146-4.0234 0.77724-7.6352 1.1659-1.0516 0.1143-2.446 0.32004-3.109 0.4572-1.3716 0.25146-3.3833 0.09144-3.7033-0.32004-0.32004-0.38862-0.02286-1.8288 0.43434-1.9888 0.20574-0.09144 0.66294-0.3429 0.98298-0.59436 1.0058-0.73152 4.1377-1.7831 6.5608-2.2174 0.48006-0.09144 1.4173-0.38862 2.0345-0.6858 1.9888-0.9144 4.0691-1.1201 5.395-0.5715zm30.495-0.43434c-0.64008 0.43434-1.1201 1.7831-0.9144 2.5832 0.20574 0.77724 1.5316 1.4402 2.4003 1.2344 0.3429-0.09144 1.143-0.59436 1.7602-1.0973 0.61722-0.52578 1.2573-1.0516 1.4173-1.1887 0.38862-0.29718 0.38862-1.2344 0-1.6002-0.43434-0.43434-4.0234-0.38862-4.6634 0.06858zm4.3663 0.59436c0 0.59436-2.8118 2.6746-3.4747 2.5832-0.86868-0.09144-1.3487-1.1659-0.9144-2.0345 0.27432-0.61722 0.43434-0.6858 2.1031-0.8001 2.1717-0.16002 2.286-0.16002 2.286 0.25146zm2.0345-0.64008c-1.0058 0.3429-1.4402 1.2573-1.0058 2.1946 0.41148 0.89154 0.86868 0.98298 2.7889 0.48006 0.93726-0.25146 2.3317-0.4572 3.109-0.4572 2.2174-0.02286 2.5146-1.0744 0.61722-2.1031-0.96012-0.50292-4.1377-0.59436-5.5093-0.1143zm5.8064 0.86868c0.70866 0.66294 0.3429 1.0516-0.84582 0.86868-0.64008-0.09144-1.6459 0.02286-2.7889 0.32004-2.0117 0.50292-2.6518 0.36576-2.6518-0.54864 0-1.0744 1.0058-1.3716 4.0462-1.1887 1.2802 0.06858 1.8974 0.2286 2.2403 0.54864zm20.025-0.36576c-1.1659 0.64008-1.2573 0.86868-0.5715 1.5088 0.64008 0.61722 3.0861 0.8001 3.9776 0.3429 0.9144-0.50292 0.59436-1.0516-1.143-1.8517-0.6858-0.32004-1.2802-0.5715-1.303-0.54864-0.0229 0-0.4572 0.25146-0.96012 0.54864zm2.1717 0.50292c0.4572 0.18288 0.8001 0.48006 0.75438 0.64008-0.13716 0.38862-2.5603 0.41148-2.8804 0-0.29718-0.32004-0.27432-0.3429 0.41148-0.73152 0.61722-0.3429 0.6858-0.3429 1.7145 0.09144zm-18.722 0.02286c-1.2573 1.2573-0.70866 1.9888 1.4402 1.9431 1.1201-0.04572 1.5773 0.04572 1.9431 0.38862 0.5715 0.50292 1.463 0.4572 1.8059-0.1143 0.38862-0.59436-0.61722-1.8288-1.6231-2.0117-0.4572-0.09144-0.86868-0.32004-0.93726-0.50292-0.2286-0.59436-1.9202-0.41148-2.6289 0.29718zm2.2403 0.09144c0 0.1143 0.43434 0.3429 0.96012 0.48006 0.66294 0.18288 1.0744 0.4572 1.2573 0.84582 0.38862 0.86868 0.0686 0.98298-1.0287 0.36576-0.8001-0.43434-1.1659-0.50292-2.126-0.36576-1.4173 0.18288-1.7374-0.16002-0.96012-0.98298 0.52578-0.5715 1.8974-0.82296 1.8974-0.3429zm-79.621 0.38862c-0.18288 0.06858-0.29718 0.29718-0.29718 0.48006 0 0.27432 0.32004 0.3429 1.6002 0.27432 1.3259-0.04572 1.6459-0.13716 1.7145-0.48006 0.06858-0.36576-0.1143-0.41148-1.3259-0.41148-0.77724 0.02286-1.5316 0.09144-1.6916 0.13716zm40.988 0.73152c-0.38862 0.48006-0.73152 0.96012-0.73152 1.0744 0 0.41148 0.54864 0.18288 1.0058-0.41148 0.3429-0.43434 0.5715-0.54864 0.75438-0.36576 0.16002 0.18288 0.1143 0.38862-0.16002 0.6858-0.2286 0.25146-0.38862 0.66294-0.38862 0.89154 0 0.38862 0.09144 0.3429 0.70866-0.2286 0.86868-0.84582 0.9144-1.6231 0.13716-2.126-0.54864-0.36576-0.59436-0.3429-1.3259 0.48006zm46.452-0.50292c-0.64008 0.64008-0.48006 1.8974 0.36576 2.606 0.41148 0.3429 0.86868 0.61722 1.0516 0.61722s0.54864 0.27432 0.8001 0.59436c0.84582 1.0744 1.5545 0.70866 1.8059-0.93726 0.13716-0.86868 0.0686-0.98298-1.1201-2.0803-1.3259-1.2573-2.2174-1.4859-2.9032-0.8001zm2.4689 1.0744c0.98298 0.89154 1.0287 0.98298 0.86868 1.9202-0.13716 0.8001-0.20574 0.9144-0.43434 0.59436-0.16002-0.20574-0.77724-0.61722-1.3487-0.9144-0.86868-0.41148-1.0973-0.6858-1.1659-1.2116-0.18288-1.6231 0.54864-1.7831 2.0803-0.38862zm-45.88 2.1031c-0.64008 0.66294-0.84582 1.2344-0.4572 1.2344 0.1143 0 0.41148-0.20574 0.66294-0.48006 0.32004-0.36576 0.61722-0.4572 1.0973-0.3429 0.8001 0.18288 0.93726-0.25146 0.27432-0.75438-0.61722-0.4572-0.86868-0.41148-1.5773 0.3429zm21.534-0.13716c-0.06858 0.18288-0.09144 1.0287-0.04572 1.8745l0.06858 1.5545 0.9144 0.06858c1.3945 0.1143 1.9202-0.48006 1.7145-1.8745-0.25146-1.6459-0.48006-1.9202-1.5773-1.9202-0.54864 0-1.0058 0.13716-1.0744 0.29718zm1.7602 0.73152c-0.16002 0.43434-0.89154 0.50292-0.89154 0.06858 0-0.2286 0.18288-0.38862 0.48006-0.38862s0.4572 0.13716 0.41148 0.32004zm0.29718 1.4859c0 0.2286-0.2286 0.36576-0.59436 0.36576-0.38862 0-0.59436-0.13716-0.59436-0.36576s0.20574-0.36576 0.59436-0.36576c0.36576 0 0.59436 0.13716 0.59436 0.36576zm13.053-2.1717c-0.06858 0.18288-0.06858 0.4572 0.02286 0.59436 0.09144 0.16002-0.16002 0.25146-0.66294 0.25146-0.96012 0-1.3716 0.36576-1.3716 1.2573 0 0.77724 0.5715 1.143 1.7831 1.143h0.86868v-1.6459c0-1.5773-0.32004-2.4003-0.64008-1.6002zm-0.13716 1.8745c0.09144 0.50292-0.59436 0.84582-0.96012 0.48006s-0.02286-1.0744 0.4572-0.98298c0.2286 0.04572 0.4572 0.27432 0.50292 0.50292zm-3.7948-0.41148c0 1.2116 0.06858 1.5545 0.36576 1.5545 0.27432 0 0.36576-0.3429 0.36576-1.5545 0-1.2344-0.09144-1.5773-0.36576-1.5773-0.29718 0-0.36576 0.3429-0.36576 1.5773zm19.797-0.66294c-0.89154 0.96012-1.4859 2.4003-1.2344 3.0404 0.54864 1.4173 3.3147 0.61722 4.3663-1.2573 0.32004-0.59436 0.59436-1.2116 0.59436-1.3716 0-0.36576-1.7374-1.3259-2.4232-1.3259-0.27432 0-0.84582 0.41148-1.303 0.9144zm2.1946 0.32004c0.50292 0.48006 0.52578 0.5715 0.20574 1.1887-0.36576 0.70866-2.3317 1.8059-2.7432 1.5545-0.48006-0.29718-0.25146-1.2344 0.52578-2.2403 0.86868-1.143 1.2344-1.2344 2.0117-0.50292zm-52.464-0.3429c0 0.09144 0.18288 0.38862 0.41148 0.66294 0.36576 0.43434 0.36576 0.4572 0 0.18288-0.66294-0.52578-1.4859-0.27432-1.5773 0.48006-0.04572 0.48006 0.09144 0.75438 0.5715 1.0516 0.73152 0.50292 1.2116 0.29718 1.7831-0.6858 0.32004-0.5715 0.29718-0.66294-0.2286-1.2344-0.54864-0.59436-0.96012-0.8001-0.96012-0.4572zm0.2286 1.6688c0 0.41148-0.52578 0.3429-0.66294-0.1143-0.04572-0.13716 0.06858-0.27432 0.27432-0.27432 0.2286 0 0.38862 0.16002 0.38862 0.38862zm36.736-1.6231c-1.2344 0.3429-0.70866 2.4232 0.59436 2.4232 0.29718 0 0.6858-0.16002 0.86868-0.38862 0.29718-0.36576 0.25146-0.38862-0.3429-0.27432-0.82296 0.16002-0.86868-0.2286-0.0457-0.52578 0.32004-0.1143 0.59436-0.32004 0.59436-0.43434 0-0.2286-0.8001-1.0287-0.98298-0.98298-0.0457 0.02286-0.36576 0.09144-0.6858 0.18288zm0.70866 0.75438c-0.48006 0.29718-0.77724 0.29718-0.59436 0 0.0686-0.13716 0.32004-0.2286 0.54864-0.2286 0.3429 0 0.36576 0.02286 0.0457 0.2286zm1.4402-0.38862c0 0.13716 0.0686 0.66294 0.16002 1.1659 0.13716 0.9144 0.5715 1.0287 0.5715 0.16002 0-0.32004 0.27432-0.59436 0.84582-0.84582 0.48006-0.20574 0.8001-0.43434 0.70866-0.52578-0.29718-0.29718-2.286-0.25146-2.286 0.04572zm-44.577 0.50292c-0.54864 0.29718-1.2344 0.59436-1.5316 0.6858-0.61722 0.16002-0.38862 0.64008 0.32004 0.64008 0.48006 0 0.48006 0.04572-0.18288 0.70866-0.8001 0.84582-0.61722 1.303 0.20574 0.52578 0.50292-0.4572 0.59436-0.48006 0.73152-0.16002 0.2286 0.59436 0.5715 0.41148 0.75438-0.41148 0.09144-0.43434 0.36576-1.0516 0.59436-1.3945 0.96012-1.3945 0.8001-1.4859-0.89154-0.59436zm28.438 0.02286c-0.41148 0.9144 0 1.4173 1.143 1.4173s1.5545-0.52578 1.0744-1.4173c-0.4572-0.89154-1.8059-0.86868-2.2174 0zm1.6002 0.59436c-0.18288 0.29718-0.75438 0.29718-0.93726-0.02286-0.27432-0.43434 0.1143-0.73152 0.61722-0.4572 0.25146 0.13716 0.41148 0.36576 0.32004 0.48006zm2.0574-0.52578c0 1.2573 0.20574 1.463 1.3487 1.463h1.0516v-1.0744c0-0.8001-0.09144-1.0744-0.36576-1.0744-0.2286 0-0.3429 0.2286-0.3429 0.70866 0 0.98298-0.89154 1.0516-1.0058 0.09144-0.1143-0.9144-0.6858-1.0287-0.6858-0.1143zm-62.042-0.02286c-0.38862 0.27432-0.84582 1.463-0.61722 1.6002 0.09144 0.06858 0.25146 0.4572 0.3429 0.86868 0.09144 0.4572 0.27432 0.70866 0.43434 0.64008 0.36576-0.1143 0.43434-1.8288 0.1143-2.2631-0.16002-0.2286-0.06858-0.32004 0.32004-0.32004 0.29718 0 0.48006-0.1143 0.41148-0.29718-0.1143-0.3429-0.6858-0.48006-1.0058-0.2286zm1.4859 0.43434c-0.04572 0.32004-0.02286 0.64008 0.06858 0.70866 0.09144 0.04572 0.25146 0.43434 0.32004 0.82296 0.20574 0.98298 0.64008 0.9144 0.64008-0.09144 0-0.4572 0.1143-0.89154 0.25146-0.98298 0.18288-0.1143 0.09144-0.32004-0.2286-0.61722-0.64008-0.61722-0.9144-0.5715-1.0516 0.16002zm21.191 0.04572c0 0.98298 0.61722 2.9261 0.9144 2.9261 0.25146 0 0.29718-0.27432 0.16002-1.2573-0.06858-0.6858-0.20574-1.4402-0.27432-1.6688-0.13716-0.54864-0.8001-0.54864-0.8001 0zm14.333 0.8001c-0.36576 0.41148-0.64008 0.84582-0.64008 0.96012 0 0.36576 0.36576 0.25146 0.82296-0.27432 0.4572-0.48006 1.0973-0.64008 1.0973-0.25146 0 0.1143-0.2286 0.48006-0.52578 0.84582-0.64008 0.82296-0.38862 1.0973 0.38862 0.38862 0.89154-0.84582 0.98298-1.3945 0.32004-1.9202-0.70866-0.61722-0.70866-0.61722-1.463 0.25146zm-40.645-0.16002c-0.20574 0.54864 0.1143 0.93726 0.52578 0.59436 0.50292-0.41148 0.73152-0.06858 0.29718 0.43434-0.52578 0.59436-0.75438 1.4402-0.43434 1.6231 0.3429 0.20574 1.6916-0.09144 1.6916-0.36576 0-0.13716-0.27432-0.2286-0.61722-0.2286h-0.61722l0.52578-0.6858c0.6858-0.96012 0.52578-1.5773-0.4572-1.6688-0.52578-0.04572-0.82296 0.04572-0.9144 0.29718zm27.935-0.04572c-0.20574 0.52578 0.09144 0.89154 0.6858 0.89154 0.32004 0 0.5715 0.13716 0.5715 0.27432s-0.25146 0.20574-0.54864 0.18288c-0.3429-0.06858-0.52578 0.04572-0.52578 0.27432 0 0.4572 0.98298 0.61722 1.4402 0.2286 0.52578-0.43434 0.43434-0.89154-0.29718-1.3259-0.36576-0.20574-0.48006-0.32004-0.25146-0.25146 0.27432 0.09144 0.43434 0 0.43434-0.2286 0-0.43434-1.3487-0.48006-1.5088-0.04572zm-29.078 0.1143c-0.27432 0.48006 0.1143 2.6975 0.48006 2.6975 0.20574 0 0.32004-0.25146 0.32004-0.77724-0.02286-0.98298-0.54864-2.3089-0.8001-1.9202zm35.89 0.9144c-0.6858 0.75438-0.8001 1.3259-0.32004 1.303 0.36576 0 1.4402-1.6002 1.2573-1.8745-0.1143-0.20574-0.41148-0.04572-0.93726 0.5715zm-12.093-0.1143c-0.64008 0.36576-0.50292 0.66294 0.2286 0.54864l0.66294-0.09144-0.66294 0.27432c-0.50292 0.20574-0.64008 0.41148-0.64008 0.96012 0 0.66294 0.04572 0.6858 1.0744 0.6858h1.0744v-0.93726c0-0.70866-0.13716-1.0287-0.52578-1.3259-0.61722-0.43434-0.66294-0.43434-1.2116-0.1143zm1.143 1.4402c0.06858 0.1143-0.02286 0.29718-0.25146 0.38862-0.4572 0.16002-0.70866-0.02286-0.48006-0.38862 0.20574-0.32004 0.52578-0.32004 0.73152 0zm1.2116-0.9144c0.29718 1.4859 0.96012 1.5773 0.6858 0.09144-0.09144-0.52578-0.29718-0.86868-0.50292-0.86868-0.27432 0-0.32004 0.18288-0.18288 0.77724zm-9.3269-0.13716c-0.09144 0.09144-0.1143 0.43434-0.02286 0.77724 0.54864 2.6975 1.0516 3.5204 1.0516 1.6916 0-0.52578 0.1143-0.96012 0.25146-0.96012 0.1143 0 0.2286-0.09144 0.2286-0.2286s-0.16002-0.25146-0.36576-0.25146-0.48006-0.25146-0.59436-0.59436c-0.25146-0.64008-0.32004-0.6858-0.54864-0.43434zm4.1148 0.25146c-1.0287 0.25146-0.54864 1.5088 0.5715 1.5088 0.2286 0 0.43434 0.09144 0.43434 0.2286 0 0.1143-0.41148 0.16002-0.9144 0.06858-0.82296-0.1143-0.86868-0.09144-0.5715 0.27432 0.41148 0.48006 1.5545 0.52578 1.9202 0.06858 0.38862-0.48006 0.09144-1.0973-0.64008-1.2802l-0.61722-0.16002 0.5715-0.20574c0.48006-0.18288 0.52578-0.25146 0.2286-0.43434-0.18288-0.13716-0.41148-0.2286-0.4572-0.20574-0.06858 0-0.32004 0.06858-0.52578 0.13716zm16.162 0.20574c-0.93726 0.66294-0.43434 2.3089 0.61722 1.9202 0.38862-0.16002 0.38862-0.18288 0-0.48006-0.2286-0.16002-0.41148-0.48006-0.41148-0.70866 0-0.50292 0.61722-0.50292 0.8001-0.02286 0.13716 0.38862 0.64008 0.27432 0.64008-0.1143 0-0.25146-0.6858-0.98298-0.93726-0.98298-0.09144 0-0.41148 0.18288-0.70866 0.38862zm6.3094 0.36576c-0.36576 0.6858-0.36576 0.77724 0.02286 1.1887 0.43434 0.48006 1.303 0.64008 1.303 0.25146 0-0.1143-0.16002-0.27432-0.36576-0.3429-0.4572-0.18288-0.4572-1.1201 0-1.1201 0.18288 0 0.41148 0.1143 0.48006 0.2286 0.25146 0.41148 0.61722 0.27432 0.61722-0.20574 0-0.25146-0.18288-0.52578-0.38862-0.59436-0.8001-0.32004-1.303-0.13716-1.6688 0.59436zm20.094-0.16002c-0.09144 0.13716-0.16002 0.9144-0.16002 1.6916v1.4402l1.0973 0.06858c1.4173 0.09144 1.8745-0.3429 1.4859-1.4173-0.16002-0.38862-0.2286-0.86868-0.16002-1.0287s-0.02286-0.41148-0.20574-0.54864c-0.4572-0.36576-1.8517-0.50292-2.0574-0.20574zm1.3945 0.61722c0 0.13716-0.16002 0.2286-0.36576 0.2286-0.18288 0-0.3429-0.09144-0.3429-0.2286s0.16002-0.25146 0.3429-0.25146c0.20574 0 0.36576 0.1143 0.36576 0.25146zm0.2286 1.3259c0.25146 0.27432 0.2286 0.38862-0.09144 0.50292-0.48006 0.18288-0.98298-0.2286-0.75438-0.61722 0.2286-0.3429 0.50292-0.32004 0.84582 0.1143zm11.293-0.4572c0 1.1201 0.0914 1.5545 0.29718 1.463 0.16002-0.04572 0.3429-0.3429 0.43434-0.66294 0.18288-0.84582 0.61722-0.82296 0.84582 0.04572 0.3429 1.143 0.82296 1.1659 0.82296 0.04572 0-1.2573-0.27432-1.6231-1.0516-1.4173-0.54864 0.13716-0.61722 0.06858-0.61722-0.4572 0-0.38862-0.13716-0.61722-0.36576-0.61722-0.29718 0-0.36576 0.3429-0.36576 1.6002zm-37.148-0.32004c-0.43434 0.43434-0.77724 0.98298-0.77724 1.2344 0 0.41148 0.09144 0.38862 0.73152-0.2286 0.38862-0.36576 0.70866-0.82296 0.70866-1.0058 0-0.16002 0.16002-0.32004 0.36576-0.32004 0.18288 0 0.36576-0.09144 0.36576-0.2286 0-0.4572-0.61722-0.20574-1.3945 0.54864zm27.958-0.29718c-0.64008 0.38862-0.52578 1.5773 0.20574 2.0574 0.48006 0.32004 0.70866 0.3429 1.2116 0.1143 0.6858-0.29718 0.5715-0.75438-0.16002-0.5715-0.66294 0.18288-0.5715-0.27432 0.13716-0.61722 0.70866-0.32004 0.75438-0.64008 0.13716-0.98298-0.5715-0.32004-0.98298-0.29718-1.5316 0zm1.0287 0.70866c-0.48006 0.29718-0.77724 0.29718-0.59436 0 0.06858-0.13716 0.32004-0.2286 0.54864-0.2286 0.3429 0 0.36576 0.02286 0.04572 0.2286zm2.4689-0.8001c-0.61722 0.25146-0.29718 0.61722 0.41148 0.48006 0.41148-0.09144 0.73152-0.04572 0.73152 0.09144 0 0.1143-0.27432 0.2286-0.59436 0.2286-0.61722 0-1.2344 0.77724-0.98298 1.2116 0.09144 0.1143 0.6858 0.2286 1.3487 0.2286h1.1887l-0.13716-0.89154c-0.2286-1.2573-0.96012-1.7602-1.966-1.3487zm1.143 1.5088c0 0.13716-0.18288 0.25146-0.36576 0.25146-0.20574 0-0.36576-0.1143-0.36576-0.25146 0-0.1143 0.16002-0.2286 0.36576-0.2286 0.18288 0 0.36576 0.1143 0.36576 0.2286zm-57.561-1.2802c-0.43434 0.18288-0.36576 0.5715 0.1143 0.59436 0.25146 0 0.29718 0.06858 0.13716 0.13716-0.41148 0.16002-0.38862 1.1659 0.02286 1.5088 0.2286 0.18288 0.59436 0.20574 1.143 0.06858 0.70866-0.18288 0.8001-0.29718 0.77724-0.98298-0.02286-0.41148-0.18288-0.93726-0.3429-1.1201-0.27432-0.3429-1.2344-0.43434-1.8517-0.20574zm1.4859 1.2573c0.06858 0.13716-0.02286 0.27432-0.20574 0.3429-0.3429 0.13716-0.61722 0-0.61722-0.3429 0-0.27432 0.66294-0.25146 0.82296 0zm15.316-1.1201c-0.38862 0.38862-0.36576 0.66294 0.04572 0.66294 0.20574 0 0.48006-0.20574 0.61722-0.48006 0.20574-0.36576 0.18288-0.48006-0.06858-0.48006-0.16002 0-0.43434 0.13716-0.59436 0.29718zm42.542 0.29718c-0.38862 0.59436-0.38862 0.66294 0.02286 1.1201 0.29718 0.32004 0.66294 0.4572 1.1659 0.41148 0.93726-0.09144 0.93726-0.52578 0-0.6858-1.0287-0.16002-0.93726-0.84582 0.09144-0.75438 1.0516 0.06858 0.9144-0.52578-0.13716-0.61722-0.59436-0.06858-0.84582 0.04572-1.143 0.52578zm-65.837-0.13716c-0.27432 0.18288-0.27432 0.43434-0.04572 1.5545 0.18288 0.73152 0.38862 1.4402 0.48006 1.6002 0.2286 0.38862 2.0574-0.1143 2.2403-0.61722 0.09144-0.18288-0.09144-0.86868-0.38862-1.4859-0.43434-0.93726-0.66294-1.143-1.2573-1.1887-0.38862-0.04572-0.86868 0.02286-1.0287 0.13716zm1.3945 0.50292c0 0.3429-0.43434 0.54864-0.75438 0.36576-0.18288-0.1143-0.16002-0.2286 0.06858-0.38862 0.43434-0.27432 0.6858-0.25146 0.6858 0.02286zm0.48006 1.2116c0.32004 0.20574 0.29718 0.29718-0.1143 0.59436-0.59436 0.4572-0.75438 0.4572-0.93726-0.02286-0.27432-0.73152 0.32004-1.0516 1.0516-0.5715zm35.593-1.4402c-0.18288 0.25146-0.29718 0.61722-0.29718 0.8001 0 0.43434 0.77724 1.1201 1.2573 1.1201 0.50292 0 0.54864-0.4572 0.04572-0.64008-0.59436-0.2286-0.38862-0.61722 0.25146-0.4572 0.43434 0.1143 0.64008 0.04572 0.75438-0.2286 0.36576-0.96012-1.463-1.5088-2.0117-0.59436zm-33.924 0.25146c-0.38862 0.75438-0.18288 1.4859 0.52578 1.8974 0.59436 0.32004 0.6858 0.32004 1.143-0.09144 0.61722-0.54864 0.64008-1.3716 0.06858-1.8974-0.59436-0.54864-1.4173-0.50292-1.7374 0.09144zm1.3945 0.77724c-0.02286 0.27432-0.20574 0.54864-0.36576 0.59436-0.36576 0.1143-0.64008-0.52578-0.4572-1.0287 0.20574-0.52578 0.9144-0.13716 0.82296 0.43434zm16.688-1.0058c-0.29718 0.1143-0.54864 0.36576-0.54864 0.5715 0 0.38862 0.70866 0.84582 1.303 0.84582 0.54864 0 0.4572-0.36576-0.16002-0.6858l-0.54864-0.29718 0.54864 0.1143c0.59436 0.1143 0.70866-0.13716 0.2286-0.52578-0.18288-0.13716-0.50292-0.16002-0.82296-0.02286zm-24.917 1.2344c0.36576 2.3089 0.43434 2.606 0.6858 2.5146 0.16002-0.04572 0.25146-0.48006 0.20574-0.96012-0.04572-0.52578 0.02286-0.89154 0.18288-0.89154 0.13716 0 0.25146-0.1143 0.25146-0.25146 0-0.1143-0.16002-0.2286-0.3429-0.2286s-0.38862-0.27432-0.48006-0.59436c-0.25146-1.0516-0.6858-0.70866-0.50292 0.41148zm22.746-0.61722c-0.50292 0.20574-0.3429 1.0287 0.25146 1.2802l0.52578 0.20574-0.52578 0.02286c-0.29718 0-0.54864 0.16002-0.54864 0.3429 0 0.4572 1.463 0.66294 1.9202 0.27432 0.20574-0.16002 0.5715-0.36576 0.8001-0.4572 0.36576-0.1143 0.38862-0.2286 0.16002-0.50292-0.3429-0.41148-0.96012-0.48006-0.96012-0.1143 0 0.13716-0.18288 0.1143-0.48006-0.06858-0.25146-0.16002-0.4572-0.4572-0.41148-0.64008 0.06858-0.36576-0.27432-0.52578-0.73152-0.3429zm-25.032 0.82296c-0.25146 0.64008-0.25146 0.9144 0.02286 1.7145 0.36576 1.0287 0.86868 1.1659 0.75438 0.18288-0.04572-0.3429 0.09144-0.70866 0.3429-0.89154 0.41148-0.29718 0.41148-0.3429-0.09144-0.4572-0.66294-0.18288-0.6858-0.5715-0.04572-0.73152 0.66294-0.18288 0.59436-0.5715-0.09144-0.5715-0.43434 0-0.66294 0.2286-0.89154 0.75438zm37.993-0.4572c-0.64008 0.61722-0.20574 2.1031 0.59436 2.1031 0.43434 0 0.38862-0.48006-0.09144-0.82296-0.43434-0.32004-0.25146-0.84582 0.29718-0.84582 0.20574 0 0.41148 0.16002 0.50292 0.36576 0.18288 0.50292 0.5715 0.4572 0.5715-0.06858 0-0.59436-0.48006-1.0287-1.0973-1.0287-0.27432 0-0.61722 0.13716-0.77724 0.29718zm-15.179 0.32004c-0.16002 0.18288-0.38862 0.29718-0.50292 0.20574-0.13716-0.06858-0.54864-0.04572-0.93726 0.02286-0.73152 0.16002-0.93726 0.73152-0.5715 1.6688 0.20574 0.5715 0.5715 0.4572 0.5715-0.18288 0-1.0516 1.0973-1.5773 1.2344-0.5715 0.06858 0.41148 0.25146 0.52578 0.77724 0.52578 0.96012 0 1.303-0.61722 0.77724-1.4173-0.4572-0.6858-0.9144-0.77724-1.3487-0.25146zm0.9144 1.0058c-0.2286 0.29718-0.29718 0.29718-0.48006-0.04572-0.32004-0.52578 0-0.93726 0.43434-0.59436 0.25146 0.2286 0.27432 0.36576 0.04572 0.64008zm-26.769-0.82296c-0.13716 0.16002-0.32004 0.82296-0.38862 1.463-0.13716 0.93726-0.06858 1.2802 0.2286 1.6231 0.8001 0.86868 2.2631 0.38862 2.2631-0.75438 0-0.38862-0.1143-0.75438-0.25146-0.84582-0.13716-0.06858-0.2286-0.41148-0.2286-0.73152 0-0.84582-1.143-1.3716-1.6231-0.75438zm1.143 0.61722c0 0.27432-0.64008 0.52578-0.82296 0.3429-0.29718-0.29718-0.13716-0.54864 0.3429-0.54864 0.25146 0 0.48006 0.09144 0.48006 0.20574zm0.3429 1.7145c0 0.20574-0.2286 0.38862-0.52578 0.43434-0.43434 0.06858-0.54864-0.04572-0.54864-0.43434s0.1143-0.50292 0.54864-0.43434c0.29718 0.04572 0.52578 0.2286 0.52578 0.43434zm41.788-1.6459c-0.82296 0.98298-1.0973 1.6459-0.64008 1.6459 0.3429 0 1.9431-1.8745 1.9431-2.286 0-0.59436-0.41148-0.41148-1.303 0.64008zm5.7836 0.02286c-0.50292 1.3259-0.50292 1.3716 0.1143 1.2116 0.3429-0.09144 0.4572-0.04572 0.36576 0.1143-0.25146 0.38862 0.2286 0.59436 0.73152 0.32004 0.2286-0.1143 0.61722-0.29718 0.84582-0.36576s0.43434-0.29718 0.43434-0.50292c0-0.29718-0.13716-0.3429-0.52578-0.2286-0.43434 0.13716-0.48006 0.09144-0.36576-0.25146 0.13716-0.32004 0.06858-0.38862-0.32004-0.29718-0.36576 0.1143-0.4572 0.02286-0.41148-0.36576 0.09144-0.9144-0.48006-0.66294-0.86868 0.36576zm-27.021-0.13716c-0.66294 0.4572-0.64008 1.1887 0.04572 1.6231 0.61722 0.41148 1.6231 0.25146 1.6231-0.25146 0-0.2286-0.2286-0.32004-0.64008-0.27432-0.77724 0.06858-1.0744-0.50292-0.36576-0.70866 0.29718-0.06858 0.52578-0.20574 0.52578-0.32004 0-0.36576-0.6858-0.41148-1.1887-0.06858zm-2.7889 0.32004c-0.06858 0.13716-0.06858 0.3429 0.02286 0.48006 0.06858 0.13716 0.02286 0.41148-0.13716 0.59436-0.20574 0.25146-0.20574 0.4572-0.02286 0.82296 0.2286 0.38862 0.38862 0.43434 0.98298 0.27432 1.0973-0.32004 1.2573-0.48006 1.0973-1.1887-0.25146-1.0058-1.5316-1.6459-1.9431-0.98298zm1.2116 1.1887c0.06858 0.13716-0.02286 0.25146-0.2286 0.25146s-0.36576-0.1143-0.36576-0.25146c0-0.1143 0.09144-0.2286 0.20574-0.2286 0.13716 0 0.29718 0.1143 0.38862 0.2286zm31.021 0.1143c-0.50292 0.5715-0.89154 1.143-0.89154 1.303 0 0.5715 0.50292 0.2286 1.2344-0.8001 0.43434-0.59436 0.86868-1.0973 0.98298-1.0973s0.13716-0.09144 0.04572-0.2286c-0.2286-0.36576-0.41148-0.27432-1.3716 0.82296zm-37.628 0.02286c-0.36576 0.43434 0.06858 1.0744 0.73152 1.0744 0.25146 0 0.50292 0.1143 0.5715 0.2286 0.09144 0.13716-0.29718 0.20574-0.93726 0.16002-0.8001-0.04572-1.2573-0.2286-1.7831-0.73152-0.8001-0.77724-1.1201-0.6858-1.4173 0.41148-0.13716 0.43434-0.32004 0.96012-0.41148 1.1887-0.1143 0.29718-0.04572 0.41148 0.20574 0.41148 0.18288 0 0.41148-0.16002 0.48006-0.3429 0.09144-0.25146 0.48006-0.36576 1.2344-0.36576 0.59436 0 1.0973-0.1143 1.0973-0.25146s0.2286-0.06858 0.52578 0.1143c0.64008 0.41148 1.5316 0.27432 1.7374-0.27432 0.18288-0.48006-0.29718-1.0287-0.86868-1.0287-0.25146 0-0.43434-0.1143-0.43434-0.25146 0-0.1143 0.20574-0.2286 0.48006-0.2286 0.25146 0 0.48006-0.1143 0.48006-0.25146 0-0.36576-1.3487-0.27432-1.6916 0.13716zm38.13 0.77724c-0.9144 0.98298-0.98298 1.143-0.5715 1.2116 0.27432 0.06858 0.59436-0.09144 0.8001-0.41148 0.18288-0.27432 0.52578-0.50292 0.77724-0.50292 0.41148 0 0.8001-0.84582 0.5715-1.2344s-0.52578-0.20574-1.5773 0.93726zm-42.291-0.02286c-0.09144 0.09144-0.16002 0.36576-0.16002 0.59436 0 0.54864-0.32004 0.5715-0.70866 0.09144-0.32004-0.38862-1.2116-0.50292-1.2116-0.18288 0 0.36576 1.6459 1.7831 1.8745 1.6459 0.13716-0.09144 0.41148-0.64008 0.61722-1.2344 0.27432-0.84582 0.29718-1.0744 0.04572-1.0744-0.16002 0-0.36576 0.06858-0.4572 0.16002zm12.184 1.0973c0.20574 1.463 0.50292 2.1946 0.70866 1.6231 0.06858-0.20574 0.16002-0.5715 0.20574-0.84582 0.09144-0.61722 0.48006-0.5715 0.77724 0.09144 0.32004 0.6858 0.61722 0.66294 0.61722-0.04572s-0.82296-1.463-1.3487-1.2573c-0.25146 0.09144-0.43434-0.02286-0.50292-0.3429-0.06858-0.27432-0.25146-0.48006-0.38862-0.48006s-0.18288 0.4572-0.06858 1.2573zm4.252 0.09144c-1.0973 1.1887-1.463 1.7602-1.1201 1.7602 0.20574 0 2.7661-2.7203 2.7661-2.9261 0-0.4572-0.52578-0.09144-1.6459 1.1659zm-5.875-0.70866c-0.2286 0.2286-0.20574 0.77724 0.09144 1.8517s0.73152 0.89154 0.84582-0.36576c0.04572-0.75438-0.61722-1.8059-0.93726-1.4859zm-14.745 0.25146c-0.41148 0.06858-0.52578 0.27432-0.52578 0.77724 0 1.5316 0.5715 1.9431 0.82296 0.61722 0.18288-1.0287 0.75438-1.1201 0.96012-0.13716 0.2286 1.0516 0.96012 1.0058 0.75438-0.02286-0.25146-1.303-0.59436-1.5088-2.0117-1.2344zm-6.5151 0.77724c-0.6858 0.6858-0.64008 1.5545 0.13716 2.1488 0.75438 0.59436 1.2344 0.64008 1.966 0.1143 0.6858-0.48006 0.3429-0.98298-0.41148-0.59436-0.6858 0.36576-0.93726 0.32004-1.2344-0.2286-0.3429-0.64008 0.06858-1.1887 0.89154-1.1887 0.77724 0 0.59436-0.5715-0.2286-0.6858-0.38862-0.04572-0.82296 0.1143-1.1201 0.43434zm2.9947 0c-0.09144 0.1143-0.04572 0.27432 0.06858 0.3429 0.09144 0.06858 0.13716 0.43434 0.09144 0.84582-0.1143 0.82296 0.4572 1.1201 1.6459 0.84582 0.6858-0.13716 0.73152-0.20574 0.59436-0.89154-0.06858-0.38862-0.25146-0.86868-0.41148-1.0516-0.29718-0.36576-1.7831-0.43434-1.9888-0.09144zm1.7831 1.3259c0 0.20574-0.20574 0.36576-0.48006 0.36576-0.48006 0-0.61722-0.25146-0.32004-0.5715 0.29718-0.27432 0.8001-0.16002 0.8001 0.20574zm15.27-0.84582c-0.13716 0.73152-0.86868 1.0516-0.86868 0.41148 0-0.4572-0.64008-0.96012-0.82296-0.66294-0.16002 0.27432 0.27432 1.5088 0.61722 1.7145 0.13716 0.09144 0.59436 0.09144 1.0058 0 0.8001-0.16002 1.0287-0.59436 0.77724-1.6002-0.20574-0.77724-0.52578-0.73152-0.70866 0.13716zm-5.6007 0.06858c-0.13716 0.16002-0.29718 0.50292-0.38862 0.75438-0.16002 0.43434-0.18288 0.43434-0.73152-0.04572-0.6858-0.66294-0.86868-0.66294-0.86868 0.04572 0 1.1201 0.29718 2.0574 0.66294 2.0574 0.25146 0 0.32004-0.16002 0.2286-0.59436-0.1143-0.61722 0.16002-0.8001 0.4572-0.32004 0.1143 0.20574 0.25146 0.16002 0.4572-0.13716 0.29718-0.38862 0.32004-0.36576 0.48006 0.09144 0.27432 0.93726 0.59436 0.50292 0.43434-0.64008-0.16002-1.303-0.38862-1.6688-0.73152-1.2116zm1.5088 0.2286c-0.48006 0.70866-0.48006 0.98298 0.06858 1.4859 0.89154 0.8001 1.966 0.3429 1.966-0.84582 0-1.143-1.3945-1.5545-2.0345-0.64008zm1.303 0.54864c0.2286 0.29718 0.2286 0.38862-0.1143 0.52578-0.4572 0.16002-0.98298-0.25146-0.73152-0.61722 0.20574-0.36576 0.50292-0.32004 0.84582 0.09144zm-21.26 0.18288c-0.1143 0.13716-0.06858 0.32004 0.09144 0.36576s0.20574 0.36576 0.1143 0.82296-0.02286 0.8001 0.16002 0.9144c0.32004 0.18288 2.1717-0.18288 2.1717-0.4572 0-0.29718-0.36576-0.66294-0.8001-0.82296-0.3429-0.1143-0.36576-0.25146-0.16002-0.64008 0.2286-0.43434 0.18288-0.48006-0.5715-0.48006-0.4572 0-0.9144 0.13716-1.0058 0.29718zm1.3487 1.3716c0 0.13716-0.18288 0.25146-0.38862 0.25146s-0.29718-0.1143-0.2286-0.25146c0.09144-0.1143 0.25146-0.2286 0.38862-0.2286 0.1143 0 0.2286 0.1143 0.2286 0.2286zm53.561-1.2573c-0.18288 0.06858-0.41148 0.38862-0.54864 0.70866-0.32004 0.84582 0.1143 1.5088 0.93726 1.5088 0.84582 0 1.2573-0.38862 1.2573-1.2344 0-0.52578-0.16002-0.75438-0.61722-0.9144-0.3429-0.13716-0.64008-0.2286-0.66294-0.2286-0.02286 0.02286-0.18288 0.09144-0.36576 0.16002zm0.9144 1.0287c0 0.13716-0.16002 0.2286-0.36576 0.2286-0.18288 0-0.3429-0.09144-0.3429-0.2286s0.16002-0.25146 0.3429-0.25146c0.20574 0 0.36576 0.1143 0.36576 0.25146zm1.3716 0.64008c-0.06858 0.1143-0.20574 0.61722-0.29718 1.0973-0.16002 0.86868-0.13716 0.89154 0.52578 0.89154 1.0516 0 1.7602-0.25146 1.7602-0.61722 0-0.20574-0.25146-0.3429-0.6858-0.3429-0.52578 0-0.66294-0.09144-0.66294-0.50292 0.02286-0.52578-0.43434-0.86868-0.64008-0.52578zm8.8697 1.4859c-0.2286 0.2286-0.38862 0.5715-0.38862 0.75438s0.16002 0.52578 0.38862 0.75438c0.36576 0.41148 0.36576 0.43434-0.04572 0.43434-0.2286 0-0.5715-0.18288-0.73152-0.41148-0.2286-0.32004-0.38862-0.3429-0.59436-0.13716s-0.18288 0.41148 0.13716 0.89154c0.73152 1.0973 1.6688 1.0516 2.3089-0.16002 0.18288-0.3429 0.13716-0.5715-0.18288-0.9144-0.43434-0.50292-0.13716-0.64008 0.3429-0.16002 0.2286 0.20574 0.3429 0.20574 0.5715 0 0.2286-0.2286 0.16002-0.43434-0.27432-0.89154-0.6858-0.73152-1.0058-0.75438-1.5316-0.16002zm-7.0637 0.89154c-0.29718 0.20574-0.52578 0.61722-0.52578 0.9144 0 0.64008 0.66294 1.3487 1.2573 1.3487 0.48006 0 0.5715-0.70866 0.1143-0.75438-0.16002 0 0.02286-0.09144 0.38862-0.18288 0.89154-0.18288 1.0287-0.5715 0.41148-1.2116-0.59436-0.59436-0.93726-0.61722-1.6459-0.1143zm9.8298 1.2344c-0.29718 0.06858-0.64008 0.36576-0.77724 0.6858-0.1143 0.32004-0.32004 0.5715-0.43434 0.5715-0.36576 0-0.54864 0.8001-0.27432 1.0744 0.20574 0.18288 0.41148 0.09144 0.8001-0.36576 0.5715-0.6858 1.2573-1.0287 1.8974-0.96012 0.5715 0.06858 0.54864-0.61722-0.04572-0.93726-0.25146-0.13716-0.50292-0.2286-0.52578-0.20574-0.04572 0.02286-0.3429 0.06858-0.64008 0.13716zm-8.0924 0.8001c-0.50292 0.52578-0.61722 0.77724-0.41148 0.98298s0.41148 0.18288 0.86868-0.1143c0.3429-0.2286 0.77724-0.32004 0.98298-0.25146s0.54864 0.06858 0.77724-0.02286c0.3429-0.13716 0.29718-0.2286-0.29718-0.73152-0.9144-0.75438-1.0973-0.73152-1.9202 0.13716zm-37.993 0.77724c-0.6858 0.6858-1.2344 1.463-1.2344 1.6688 0 0.54864 0.43434 0.54864 0.64008 0 0.09144-0.2286 0.61722-0.9144 1.1887-1.5088 0.5715-0.5715 1.0287-1.143 1.0287-1.2573 0.02286-0.38862-0.43434-0.1143-1.6231 1.0973zm47.069 0.50292c-0.5715 0.5715-1.0287 1.1659-1.0287 1.303 0 0.41148 0.84582 0.3429 1.1887-0.06858 0.16002-0.18288 0.52578-0.36576 0.8001-0.41148 0.43434-0.06858 0.52578-0.2286 0.52578-0.89154 0-0.4572-0.09144-0.86868-0.2286-0.89154-0.13716-0.04572-0.70866 0.38862-1.2573 0.96012zm-5.4178 0.86868c-0.86868 0.9144-0.98298 1.4402-0.29718 1.4402 0.36576 0 1.2116-1.1887 1.1201-1.6231-0.02286-0.16002 0.1143-0.29718 0.32004-0.29718s0.36576-0.1143 0.36576-0.25146c0-0.48006-0.64008-0.18288-1.5088 0.73152zm1.303 1.1201c-0.54864 0.59436-0.93726 1.1887-0.84582 1.303 0.20574 0.3429 1.2344 0.25146 1.3716-0.13716 0.09144-0.20574 0.36576-0.36576 0.64008-0.36576 0.41148 0 0.48006-0.16002 0.48006-0.96012 0-1.2802-0.43434-1.2573-1.6459 0.16002zm-47.274 1.8745c-1.3259 1.3945-1.8288 2.286-1.303 2.286 0.1143 0 0.77724-0.59436 1.463-1.3259s1.3487-1.3259 1.4859-1.3259c0.1143 0 0.2286-0.25146 0.2286-0.59436 0-0.32004-0.09144-0.59436-0.20574-0.59436s-0.86868 0.70866-1.6688 1.5545zm27.432 1.966c-0.61722 0.61722-0.3429 1.3259 0.77724 1.966 0.5715 0.29718 1.0287 0.66294 1.0287 0.77724 0 0.50292-0.77724 0.50292-1.2802 0-0.89154-0.82296-1.2802 0.06858-0.38862 0.93726 0.96012 0.98298 2.6289 0.3429 2.6289-1.0058 0-0.66294-0.54864-1.2573-1.3716-1.5088-0.89154-0.25146-0.64008-0.64008 0.29718-0.48006 0.9144 0.18288 1.0744-0.09144 0.4572-0.70866-0.48006-0.48006-1.6459-0.48006-2.1488 0.02286zm-54.132 0.4572c-0.4572 0.54864 0.13716 1.5545 1.2802 2.0803 0.93726 0.4572 1.1659 1.0058 0.48006 1.1887-0.59436 0.16002-1.0287-0.02286-1.0287-0.43434 0-0.18288-0.20574-0.3429-0.48006-0.3429-0.32004 0-0.48006 0.16002-0.48006 0.48006 0 0.61722 0.82296 1.4402 1.4402 1.4402 0.8001 0 1.6916-0.52578 1.8288-1.1201 0.20574-0.82296-0.02286-1.1887-1.0973-1.7374-0.52578-0.27432-0.96012-0.59436-0.96012-0.73152 0-0.38862 0.4572-0.50292 0.93726-0.25146 0.41148 0.2286 0.52578 0.18288 0.64008-0.1143 0.09144-0.2286 0.02286-0.50292-0.18288-0.61722-0.54864-0.3429-2.0345-0.25146-2.3774 0.16002zm23.203 1.3487c-0.8001 0.9144-1.1659 1.7831-0.66294 1.6002 0.3429-0.16002 1.966-2.0574 1.966-2.3317 0-0.52578-0.4572-0.27432-1.303 0.73152zm35.022-0.2286c-0.86868 1.2573-0.04572 2.7203 1.4859 2.5375 0.93726-0.1143 1.0744-0.9144 0.13716-0.9144l-0.66294-0.02286 0.66294-0.48006c0.82296-0.61722 0.82296-1.1201 0.04572-1.4173-0.93726-0.36576-1.2573-0.29718-1.6688 0.29718zm0.93726 0.82296c-0.32004 0.25146-0.48006 0.25146-0.54864 0.06858-0.1143-0.3429 0.4572-0.73152 0.77724-0.52578 0.1143 0.06858 0.02286 0.27432-0.2286 0.4572zm2.7889-1.143c-0.27432 0.18288-0.27432 0.29718-0.04572 0.59436 0.20574 0.2286 0.20574 0.38862 0.04572 0.50292-0.13716 0.09144-0.25146 0.48006-0.25146 0.84582 0 0.8001 0.54864 1.0516 1.9431 0.9144 0.8001-0.06858 0.82296-0.09144 0.8001-1.143-0.02286-0.77724-0.16002-1.1659-0.5715-1.4859-0.59436-0.48006-1.3716-0.5715-1.9202-0.2286zm1.6688 1.8517c0 0.38862-0.86868 0.4572-1.0973 0.06858-0.20574-0.3429 0.3429-0.70866 0.77724-0.52578 0.18288 0.06858 0.32004 0.27432 0.32004 0.4572zm-59.162-0.82296c-0.20574 0.29718-0.36576 0.77724-0.36576 1.0744 0 1.3487 2.4232 2.126 2.606 0.82296 0.06858-0.48006 0-0.54864-0.43434-0.43434-0.61722 0.16002-0.64008-0.20574 0-0.54864 0.59436-0.32004 0.59436-0.86868 0-1.1887-0.73152-0.38862-1.3945-0.29718-1.8059 0.27432zm1.0058 0.59436c-0.2286 0.2286-0.4572 0.3429-0.54864 0.25146-0.2286-0.2286 0.1143-0.66294 0.5715-0.66294 0.36576 0 0.36576 0.04572-0.02286 0.41148zm3.0175-0.96012c-0.18288 0.06858-0.29718 0.27432-0.29718 0.43434 0 0.25146 0.2286 0.29718 0.89154 0.2286l0.89154-0.1143-0.82296 0.29718c-0.70866 0.25146-0.86868 0.4572-0.93726 1.0973-0.04572 0.64008 0.02286 0.77724 0.52578 0.9144 0.32004 0.06858 0.89154 0.1143 1.2802 0.06858 0.61722-0.06858 0.6858-0.18288 0.75438-1.1201 0.1143-1.5773-0.9144-2.3774-2.286-1.8059zm1.4859 1.7602c0.20574 0.32004-0.48006 0.5715-0.96012 0.38862s-0.2286-0.64008 0.36576-0.64008c0.25146 0 0.52578 0.1143 0.59436 0.25146zm10.378 1.8059c-1.2116 1.6916-1.2802 1.7831-0.84582 1.7831s2.5603-2.5832 2.5832-3.1775-0.77724 0.04572-1.7374 1.3945zm-3.0404 4.2291c-0.98298 1.463-1.0744 1.8288-0.41148 1.5773 0.43434-0.18288 2.0803-2.606 1.9202-2.8575-0.25146-0.41148-0.54864-0.13716-1.5088 1.2802zm-4.2062 5.9893c-1.4859 2.1717-1.5088 2.2174-1.303 2.3774 0.18288 0.13716 2.6746-2.9947 2.9261-3.6576 0.06858-0.2286 0.04572-0.4572-0.06858-0.54864-0.1143-0.06858-0.82296 0.75438-1.5545 1.8288zm4.4348 1.4402c-0.41148 0.77724-0.1143 1.2573 0.66294 1.0744 0.59436-0.13716 0.61722-0.1143 0.2286 0.18288-0.54864 0.4572-0.52578 0.64008 0.13716 0.64008 1.1659 0 1.5773-1.2802 0.52578-1.6916-0.32004-0.1143-0.59436-0.32004-0.59436-0.4572 0-0.4572-0.6858-0.27432-0.96012 0.25146zm-2.2403-0.1143c-0.5715 0.59436 0.16002 2.3317 1.2116 2.9032 0.84582 0.4572 1.303 0.27432 0.82296-0.36576-0.16002-0.2286-0.3429-0.59436-0.43434-0.82296-0.06858-0.2286-0.3429-0.43434-0.61722-0.43434-0.41148 0-0.4572-0.09144-0.3429-0.70866 0.13716-0.6858-0.20574-0.98298-0.64008-0.5715zm-1.5773 2.0574c-0.16002 0.38862-0.1143 0.73152 0.16002 1.143 0.4572 0.73152 1.5316 1.6688 1.9202 1.6916 0.4572 0 0.36576-0.59436-0.16002-1.0744-0.25146-0.2286-0.41148-0.5715-0.3429-0.75438 0.09144-0.2286-0.04572-0.3429-0.38862-0.3429-0.38862 0-0.50292-0.1143-0.4572-0.50292 0.1143-0.73152-0.4572-0.84582-0.73152-0.16002zm-4.5263 2.126c-1.2116 1.7374-1.3716 2.7203-0.27432 1.4173 0.75438-0.84582 1.8974-2.5146 1.8974-2.7432 0-0.0686-0.13716-0.13716-0.32004-0.13716-0.16002 0-0.75438 0.66294-1.303 1.463zm3.2004-0.50292c-0.18288 0.27432 0.27432 0.5715 0.59436 0.36576 0.25146-0.16002 0.09144-0.59436-0.25146-0.59436-0.1143 0-0.27432 0.0914-0.3429 0.2286zm0.59436 0.96012c0 0.13716 0.29718 0.59436 0.6858 1.0287 0.5715 0.61722 0.77724 0.73152 1.0058 0.48006 0.25146-0.2286 0.18288-0.43434-0.38862-1.0058-0.6858-0.73152-1.303-0.96012-1.303-0.50292zm-1.9202 0.54864c0 0.36576 1.7374 2.1031 2.126 2.1031 0.52578 0 0.25146-0.64008-0.64008-1.5088-0.93726-0.9144-1.5088-1.1201-1.4859-0.59436zm-1.5316 1.4402c-0.66294 0.50292-0.77724 1.7374-0.18288 2.3089 1.0058 1.0058 3.0404 0.27432 2.8575-1.0058-0.09144-0.66294-0.9144-0.86868-0.9144-0.20574 0 0.59436-0.54864 1.0516-1.0516 0.86868-0.48006-0.18288-0.50292-1.2802-0.02286-1.463 0.43434-0.16002 0.48006-0.8001 0.04572-0.8001-0.18288 0-0.50292 0.13716-0.73152 0.29718zm-2.8118 0.84582c0 0.0914-0.59436 0.82296-1.303 1.6231-1.303 1.4173-1.5316 1.7831-1.1201 1.7831 0.3429 0 2.9261-2.8575 2.9261-3.2461 0-0.3429-0.48006-0.50292-0.50292-0.16002zm-0.43434 2.3774c-0.4572 0.82296 1.0973 3.1318 1.6916 2.5375 0.20574-0.2286 0.18288-0.38862-0.13716-0.73152-0.2286-0.25146-0.3429-0.61722-0.25146-0.84582 0.1143-0.29718 0.02286-0.41148-0.38862-0.41148-0.43434 0-0.50292-0.0457-0.27432-0.27432 0.38862-0.38862 0.36576-0.6858-0.06858-0.6858-0.18288 0-0.43434 0.20574-0.5715 0.41148zm-1.3487 2.4003c-1.0287 1.0287 0.4572 2.6289 1.5545 1.6459 0.5715-0.52578 0.61722-1.143 0.1143-1.6688-0.50292-0.48006-1.1659-0.48006-1.6688 0.0229zm1.2802 0.86868c0.04572 0.27432-0.09144 0.41148-0.43434 0.41148s-0.48006-0.16002-0.48006-0.50292c0-0.61722 0.77724-0.54864 0.9144 0.0914zm-5.0749 0.2286c-1.3945 1.2802-1.6231 1.6231-1.0744 1.6231 0.32004 0 2.8346-2.4003 2.8346-2.6975 0-0.38862-0.43434-0.1143-1.7602 1.0744zm-0.25146 2.7889c-0.2286 0.2286-0.38862 0.59436-0.38862 0.8001 0 0.50292 0.75438 1.143 1.3487 1.143 0.66294 0 1.3716-0.82296 1.1659-1.3487-0.16002-0.41148-0.18288-0.41148-0.50292 0.0229-0.32004 0.43434-0.3429 0.43434-0.3429-0.29718 0-0.89154-0.61722-1.0516-1.2802-0.32004zm-4.8235 2.0117c-1.0516 0.96012-1.8517 1.8974-1.7831 2.0574 0.04572 0.18288 0.96012-0.52578 2.2403-1.7374 1.1887-1.1201 2.0117-2.0345 1.8059-2.0574-0.20574 0-1.2116 0.77724-2.2631 1.7374zm2.286 0.32004-0.5715 0.59436 0.6858 0.70866c0.36576 0.41148 0.82296 0.73152 0.98298 0.70866 0.43434 0 0.41148-0.5715-0.04572-0.96012-0.41148-0.3429-0.48006-0.96012-0.06858-0.96012 0.16002 0 0.48006 0.18288 0.70866 0.41148 0.25146 0.2286 0.59436 0.32004 0.84582 0.20574 0.38862-0.13716 0.36576-0.2286-0.2286-0.75438-0.86868-0.73152-1.5773-0.73152-2.3089 0.0457zm-2.286 0.8001c-0.18288 0.29718 0.27432 0.5715 0.59436 0.38862 0.25146-0.18288 0.09144-0.61722-0.25146-0.61722-0.1143 0-0.27432 0.1143-0.3429 0.2286zm0.82296 0.96012c0 0.1143 0.3429 0.52578 0.77724 0.86868 0.64008 0.52578 0.8001 0.59436 0.84582 0.29718 0.1143-0.50292-0.66294-1.3945-1.1887-1.3945-0.25146 0-0.43434 0.1143-0.43434 0.2286zm-2.286 0.98298c-0.06858 0.13716 0.29718 0.70866 0.82296 1.2573l0.96012 1.0058 0.61722-0.5715c0.32004-0.32004 0.61722-0.70866 0.61722-0.89154 0-0.41148-0.13716-0.41148-0.82296 0.0457-0.50292 0.32004-0.5715 0.29718-1.0744-0.36576-0.54864-0.75438-0.86868-0.89154-1.1201-0.48006zm-3.3833 1.4859c-1.4402 1.2344-1.7602 1.6002-1.7602 1.9431-0.02286 0.32004 0.75438-0.20574 2.2174-1.5088 1.2802-1.1659 1.6459-1.6916 1.1659-1.6916-0.1143 0-0.84582 0.5715-1.6231 1.2573z" stroke-width=".02286"/>
</svg>
