<?xml version="1.0" encoding="utf-8"?>
<svg xmlns="http://www.w3.org/2000/svg" version="1" viewBox="0 0 800 801">
	<title>Plan of the sleeping berths in the cave.</title>
	<path d="m362.28 0.14284c-5.8263 0.89636-9.4119 4.7806-9.4119 10.607 0 3.8842 1.3445 6.2745 6.1251 10.607 3.436 2.9879 7.6193 6.2745 9.4119 7.171 7.171 3.8842 5.3782 14.192-2.5397 14.192-3.7348 0-10.308-5.2288-11.802-9.4119-1.4939-4.1831-3.1373-0.14939-2.0915 5.2288 0.74697 4.4818 1.7927 5.3782 7.918 7.0213 14.491 3.8842 23.306-2.2409 19.869-13.744-1.7927-5.6769-4.93-9.1132-15.089-16.135-4.3324-2.9879-5.5275-10.009-1.9421-11.503 3.436-1.1951 10.159 2.0915 11.354 5.5275 0.44818 1.7927 1.6433 3.2866 2.3903 3.2866 2.0915 0 1.9421-8.9636-0.14939-10.159-2.9879-1.9421-10.159-3.2866-14.043-2.6891zm-58.861 4.183c-2.0915 2.0915-3.8842 5.0794-3.8842 6.7227 0 1.6433-0.89635 3.7348-1.9421 4.7806-1.4939 1.6433-1.4939 2.2409 0.14939 3.2866s2.0915 4.3324 1.4939 13.744l-0.74697 12.4 4.0336-0.59757c4.0336-0.59757 4.0336-0.59757 3.5854-12.997l-0.59757-12.549 4.183 1.0458c3.5854 0.89636 4.183 0.59757 3.7348-1.7927-0.29878-1.9421-2.0915-3.1372-4.6312-3.436-3.436-0.44818-4.0336-1.1951-3.2866-4.4818 0.89636-4.7806 4.183-6.4239 7.4696-3.7348 1.9421 1.6433 2.8385 1.6433 4.3324 0.14939 1.3445-1.4939 1.1951-2.3903-1.1951-4.183-4.4818-3.2866-8.3663-2.6891-12.698 1.6433zm87.094-2.6891c0 0.74696 0.59757 1.9421 1.4939 2.8385 1.7927 1.7927 2.6891 35.406 1.0458 38.095-0.74696 1.1951 0.59757 1.7927 4.4818 1.7927 5.5275 0 6.8723-1.1951 4.0336-4.0336-0.89636-0.89635-1.7927-10.009-1.9421-20.318l-0.44818-18.824-4.3324-0.44818c-2.3903-0.29879-4.3324 0.14939-4.3324 0.89636zm-283.4 21.512v21.214h4.0336c4.0336 0 4.0336-0.14939 3.5854-9.1132l-0.59758-9.1132h8.2166c6.7227 0 8.5153-0.59757 11.055-3.8842 4.0336-5.2288 3.7348-9.7105-1.0458-15.388-3.8842-4.4818-4.7806-4.93-14.641-4.93h-10.458zm18.824-15.089c3.7348 3.2867 2.8385 10.906-1.6433 13.894-2.9878 2.0915-3.7348 1.9421-6.573-1.0458-3.2866-3.1372-4.183-9.8602-2.3903-14.939 1.1951-2.8385 5.9757-1.9421 10.607 2.0915zm17.33-3.5854c0.59758 1.3445 1.0458 10.906 1.0458 21.214v18.674h7.7683v-16.284c0-21.961-0.89635-26.144-5.8263-26.144-2.9879 0-3.7348 0.74697-2.9879 2.5397zm598.92 5.8263c-4.4818 4.4818-8.067 9.1132-8.067 10.159 0 1.0456-3.436 5.6769-7.4696 10.159-4.183 4.6312-8.9636 10.458-10.607 12.997-1.7927 2.5397-7.0213 8.5153-11.802 13.445-8.5153 8.8139-10.607 11.204-27.936 34.958-16.433 22.409-59.01 77.382-69.619 89.936-4.183 4.7806-11.354 16.284-16.135 25.695-7.7683 15.089-10.159 18.226-22.409 29.58-7.6193 6.8723-15.985 14.192-18.524 16.135-8.8139 6.573-31.97 26.891-31.97 27.936 0 0.59758-3.1372 2.9879-6.7227 5.5275-3.7348 2.3903-13.744 10.906-22.409 19.122-15.537 14.491-16.135 14.79-32.269 20.018-8.9636 2.9879-18.674 6.1251-21.662 7.171s-8.8139 1.7927-13.147 1.9421c-7.32 0-8.3663-0.44818-12.997-5.8263-2.8385-3.2866-6.2745-8.5153-7.6193-11.653-1.4939-3.1372-4.183-8.9636-6.2745-12.848-1.9421-3.8842-5.2288-11.951-7.171-18.077-7.6193-24.5-12.997-34.062-23.006-41.83-6.4239-4.7806-9.8602-8.9636-12.4-14.641-1.9421-4.3324-4.6312-8.8139-5.9757-10.009-1.3445-1.1953-2.5397-2.9879-2.5397-4.183 0-5.5275-5.9757-11.951-15.089-16.433-7.0213-3.436-12.101-7.32-18.077-14.491-4.6312-5.3781-9.7105-11.055-11.204-12.848-1.4939-1.6433-2.6891-3.5854-2.6891-4.183 0-2.0915-8.067-9.4119-12.101-10.906-8.3663-3.1372-14.939 0.59757-28.683 16.583-7.0213 8.2166-13.445 14.939-14.192 14.939-1.9421 0-18.973 19.421-28.982 33.016-2.5397 3.436-7.918 9.7105-11.951 13.894-3.8842 4.183-7.6193 9.5609-8.2166 12.101-1.4939 5.5275-5.2288 13.595-23.006 50.047-7.6193 15.537-14.342 30.028-14.939 32.119s-1.9421 5.2288-2.9879 6.7227c-1.4939 2.2409-2.2409-7.7683-3.2866-50.196-2.0915-77.533-1.9421-78.134 1.3445-77.683 1.4939 0.29879 2.6891 0 2.6891-0.74696 0-2.3903-7.0213-19.271-8.067-19.271-1.1951 0-9.1132 16.732-9.2622 19.122 0 0.89635 1.3445 1.3445 2.9879 0.89635 2.8385-0.74696 3.1372 0.59758 4.0336 25.994 0.44818 14.79 1.3445 47.357 1.7927 72.455l0.89636 45.415-4.0336 6.1251c-10.159 14.79-20.318 38.692-24.5 57.367-1.0458 4.7806-3.2866 12.848-5.0794 17.927-2.5397 7.7683-2.8385 11.354-1.9421 21.214 1.6433 16.135 1.6433 30.327 0.14939 42.876-1.0458 7.7683-0.89635 11.204 0.59757 12.848 1.1952 1.3445 2.5397 2.3903 3.1373 2.3903 1.1951 0.1494 9.5609-17.18 9.5609-19.421 0-0.59758 1.9421-4.0336 4.4818-7.6193 4.0336-5.9757 13.744-12.25 25.994-16.882 1.7927-0.59757 5.0794-1.9421 7.6193-2.8385 2.3903-1.0458 7.0213-1.7927 10.308-1.7927s8.5153-1.0458 11.653-2.3903c6.573-2.6891 19.271-2.9879 25.397-0.74696 2.3903 0.89635 9.7105 1.9421 16.284 2.3903 6.573 0.44818 18.077 1.6433 25.546 2.5397 11.802 1.4939 15.089 1.3445 23.455-0.89636 5.3781-1.4939 11.503-4.183 13.744-5.6769 2.2409-1.6433 6.573-3.436 9.5609-4.0336l5.3781-1.1952-5.8263 6.8723c-9.1132 10.607-4.7806 10.906 5.2288 0.29878 7.0213-7.4696 10.159-9.7105 14.939-10.458 3.436-0.59757 11.503-2.3903 17.927-4.0336 7.918-1.9421 16.732-2.8385 26.741-2.6891 12.997 0.14939 16.583-0.44818 29.43-5.0794 14.342-5.0794 14.939-5.0794 33.763-4.183 63.791 3.2866 99.497 8.067 113.09 15.089 3.436 1.7927 7.4696 3.1372 9.1132 3.1372 4.0336 0 3.436 1.9421-2.6891 7.918-2.9879 2.9879-5.5275 6.2745-5.5275 7.32 0 4.183 4.183 1.7927 11.055-6.573 7.32-9.1132 7.0213-8.9636 19.571-5.5275 3.436 0.89635 15.836 2.3903 27.488 3.2866 19.421 1.4939 32.568 4.3324 36.9 7.7683 1.9421 1.6433 9.8602 2.8385 26.144 3.7348 11.951 0.74697 19.571 2.8385 63.193 17.778 24.948 8.3663 24.799 8.3663 26.442 6.7227 2.5397-2.5397-0.14966-4.0336-18.674-10.159-9.4119-3.1372-17.927-6.4239-18.674-7.171-0.89636-0.89636-2.8385-1.4939-4.4818-1.4939s-10.308-2.5397-19.421-5.5275c-13.445-4.3324-19.122-5.5275-29.43-5.5275-7.32 0-15.238-1.0458-18.973-2.3903-15.836-6.1251-25.994-8.067-48.553-9.4119-6.8723-0.44818-13.595-1.1952-14.939-1.6433-1.3443-0.44817-8.3663-1.4939-15.836-2.0915-8.067-0.89635-15.985-2.6891-19.571-4.4818-3.436-1.6433-10.458-3.8842-15.537-4.93-14.192-2.9878-13.445-2.3903-11.354-7.918 1.4939-3.8842 1.4939-5.0794-0.29878-6.1251-1.1952-0.89636-1.6433-2.5397-1.0458-4.6312 0.59757-1.7927 0.44817-3.436-0.29879-3.436-2.0915 0.1494-14.491 13.296-14.491 15.686 0 1.6433-1.9421 1.7927-9.8602 0.89636-5.3782-0.74697-13.595-1.6433-18.375-2.2409-6.7227-0.74696-8.6649-1.6433-9.1132-3.8842-0.44818-1.9421 0-2.5397 1.1951-1.7927 1.3445 0.74697 1.7927 0 1.3445-2.5397-0.74697-5.5275-6.7227-5.0794-6.8723 0.59757 0 2.2409-0.59757 4.7806-1.1951 5.3782s-1.0458-0.14939-1.0458-1.6433c0-1.3445-0.74697-2.5397-1.6433-2.5397-1.7927 0-6.1251-3.8842-6.1251-5.3782 0-0.44818 1.7927-0.89635 3.8842-0.89635 3.2866 0 4.0336-0.59758 3.5854-3.5854-0.44818-2.8385-1.4939-3.436-5.8263-3.436-6.7227 0-9.4119 3.5854-6.7227 9.2622 1.0458 2.3903 3.1372 4.0336 4.93 4.0336 2.0915 0 3.2866 1.0458 3.2866 2.8385 0 2.6891-0.89636 2.8385-9.8602 1.4939-16.732-2.3903-39.589-0.44818-51.391 4.3324-8.6649 3.5854-13.147 4.3324-28.833 4.93-10.308 0.29878-21.512 1.3445-25.098 2.2409s-11.354 2.6891-17.479 3.8842c-16.135 3.1372-26.442 6.1251-30.775 9.1132-2.2409 1.3445-7.7683 3.7348-12.4 5.0794-7.6193 2.2409-11.354 2.2409-32.866 0.59758-13.445-1.0458-26.144-2.5397-28.235-3.1373-8.9636-3.1372-17.778-3.436-27.936-1.0458-5.8263 1.3445-14.342 3.1373-18.973 4.183-10.607 2.0915-32.717 12.4-37.199 17.479-1.9421 1.9421-4.7806 6.573-6.4239 10.009s-4.183 8.6649-5.6769 11.653l-2.6891 5.5275 1.0458-10.159c1.3445-12.4 1.1952-23.753-0.29878-38.992-0.89636-9.4119-0.44818-13.445 2.3903-22.708 3.2866-11.055 4.183-14.192 8.067-30.028 2.0915-8.2166 17.628-40.784 20.318-42.427 0.89636-0.59757 1.4939 2.8385 1.4939 8.3663 0 9.1132-0.1494 9.2622-3.8842 8.5153-4.7806-0.89636-4.93 0.14939-0.89636 5.8263 1.7927 2.3903 3.8842 6.2745 4.7806 8.5153 1.3445 3.7348 1.0458 4.3324-1.9421 5.5275-4.6312 1.7927-5.6769 0.74697-2.0915-1.9421 1.6433-1.1952 2.3903-2.9879 1.7927-4.0336-0.74696-1.1952-2.3903-0.74697-5.6769 1.7927-2.3903 1.9421-6.4239 4.93-8.8139 6.7227l-4.4818 2.9879 5.5275 1.0458c2.9879 0.59757 7.7683 1.6433 10.607 2.2409 4.183 0.89635 5.0794 0.59757 5.0794-1.3445 0-1.4939-1.1951-2.6891-2.6891-2.6891-1.3445 0-2.2409-0.29879-1.7927-0.74697 0.74697-0.74696 8.2166-2.3903 45.266-10.159 7.32-1.6433 23.604-5.0794 36.153-7.7683 12.4-2.6891 26.592-5.5275 31.373-6.4239 4.6312-0.89636 12.848-2.6891 17.927-3.8842 16.583-3.7348 67.076-15.089 77.533-17.33 5.5275-1.1951 11.503-2.5397 13.296-3.1372 3.1373-0.74696 3.1373-0.74696 0.59758 1.3445-3.1373 2.5397-3.7348 5.8263-1.0458 5.8263 0.89635 0 6.2745-2.9879 11.802-6.7227l10.159-6.573-5.9757-1.0458c-20.765-3.436-20.765-3.436-20.765-0.74697 0 1.6433 1.3445 2.5397 4.0336 2.5397 2.3903 0 3.8842 0.44818 3.436 0.89636-0.74697 0.59757-28.534 7.32-54.528 12.997-3.8842 0.89636-13.445 2.9879-21.214 4.7806-12.997 2.9879-75.592 16.433-99.648 21.363-5.6769 1.1951-16.583 3.5854-24.351 5.2288-7.7683 1.6433-14.641 2.6891-15.388 2.2409-1.7927-1.0458 0.29879-6.7227 4.6312-12.4 1.9421-2.6891 3.1373-5.3781 2.6891-5.8263-1.9421-1.9421-5.2288-1.0458-5.2288 1.3445 0 1.1951-0.74697 2.2409-1.4939 2.2409-2.8385 0-1.9421-29.729 0.89635-35.257 1.3445-2.5397 3.8842-8.2166 5.5275-12.549 4.183-10.607 18.375-38.544 20.915-41.531 1.1951-1.3445 4.3324-8.3663 7.32-15.686 2.8385-7.32 6.4239-15.686 7.918-18.524 1.6433-2.8385 2.8385-5.9757 2.8385-7.171 0-1.0458 1.0458-3.2866 2.3903-4.93 1.3445-1.9421 0.44817 2.2409-2.2409 10.159-9.7105 29.281-11.055 34.062-11.055 40.037-0.44818 45.565-0.29879 47.806 3.7348 51.839 2.9879 2.9878 5.5275 3.8842 10.906 3.8842 6.1251 0 7.7683-0.89636 14.192-7.0213 4.0336-3.8842 8.067-8.9636 8.9636-11.354 2.5397-6.1251 4.4818-19.271 5.5275-36.303l0.89636-14.79 5.8263 6.573c7.4696 8.067 12.549 8.5153 18.973 1.6433 2.3903-2.6891 5.5275-8.6649 6.8723-13.296 1.4939-4.7806 2.8385-8.6649 3.1372-8.6649 0.29879 0 3.1372 2.5397 6.4239 5.5275 5.3781 4.93 5.6769 5.5275 2.9878 6.573-7.171 2.5397-11.503 7.171-14.043 14.79-2.5396 7.6186-2.5397 8.3663 0.1494 14.192 4.0336 9.1132 8.9636 12.4 18.524 12.25 13.744 0 22.857-8.3663 22.857-20.915 0.14939-7.6193-4.3324-14.641-11.653-18.226l-6.1251-2.9878 5.6769-2.3903c3.436-1.4939 6.4239-4.183 7.7683-7.171 3.436-7.918 4.4818-6.4239 6.7227 11.354 0.59757 4.6312 2.5397 9.2622 4.93 12.101 3.7348 4.4818 4.7806 4.7806 14.641 4.7806 8.5153 0 11.055-0.59757 13.445-3.1372 4.0336-4.4818 5.3781-2.5397 5.5275 8.3663 0 11.802 1.9421 21.065 5.2288 24.202 2.5397 2.6891 16.433 4.3324 19.122 2.3903 2.3903-1.9421 11.653-18.824 11.653-21.662 0-1.3445 0.59757-3.5854 1.4939-5.0794 0.74696-1.4939 2.0915-5.2288 2.9879-8.2166 1.0458-3.8842 1.4939-4.4818 1.6433-2.0915 0.14939 4.183 14.043 30.028 19.571 36.751 4.4818 5.3781 4.183 7.32-2.8385 13.894-4.0336 3.7348-5.3781 7.918-2.5397 7.918 0.89636 0 2.5397-1.3445 3.5854-3.1372 1.0458-1.7927 3.5854-3.1372 5.5275-3.1372 2.5397 0 3.5854-0.74696 3.1372-2.6891-0.29878-2.3903 1.3445-2.9879 12.101-3.7348 8.5153-0.59758 17.927-2.6891 29.132-6.573 8.9636-3.1372 19.869-6.1251 24.202-6.573 4.3324-0.59757 12.997-2.8385 19.271-4.93 19.421-6.4239 40.486-7.4696 153.27-7.171 86.048 0.14939 124.3 1.1951 135.8 4.0336 11.653 2.8385 15.686 3.1372 15.686 1.0458 0-1.6433-12.4-5.8263-21.214-7.0213-7.0213-1.0458-42.577-2.8385-46.312-2.3903-1.3445 0.1494-14.641 0-29.729-0.29878-61.55-1.1952-166.27 0.59757-189.43 3.436-8.2166 0.89636-19.421 3.436-24.948 5.5275s-10.009 3.2866-9.8602 2.6891c0-0.74696 3.8842-4.4818 8.6649-8.3663 4.7806-3.7348 10.906-9.1132 13.744-11.802 2.6891-2.6891 7.32-6.573 10.458-8.5153 2.9878-2.0915 8.9636-7.32 13.296-11.653 8.067-8.3663 26.144-23.903 35.406-30.626 12.549-8.9636 26.891-25.845 33.613-39.739 7.4696-15.089 12.997-23.006 36.004-51.69 21.512-26.891 30.177-37.946 36.303-46.461 3.436-5.0794 10.009-13.744 14.491-19.271 9.4119-11.503 9.2622-11.354 14.342-18.674 2.0915-2.9878 8.6649-10.756 14.491-17.18 20.765-23.156 24.5-27.488 27.936-33.763 1.7927-3.436 6.1251-8.9636 9.5609-12.549 3.2866-3.436 6.1251-6.7227 6.1251-7.4697 0-2.5397-2.9879-0.74696-10.756 7.171zm-455.95 152.68c2.9879 2.2409 2.9879 2.3903-0.74697 1.4939-2.2409-0.44818-6.4239-0.89636-9.4119-0.89636-4.183 0-4.93-0.44818-3.1372-1.6433 3.436-2.2409 10.009-1.7927 13.296 1.0458zm2.0915 8.067c7.918 6.573 11.653 23.306 10.756 48.104-0.44818 10.458-1.3445 20.765-2.2409 22.857-0.89635 2.0919-1.3445 7.4696-0.89635 11.951 1.1951 12.848-4.4818 21.065-14.79 20.915-8.6649 0-17.031-15.238-15.686-28.534 0.44817-4.93 0-10.458-1.3445-13.744-1.0458-2.9879-2.3903-13.595-2.6891-23.604-1.0458-22.559 1.9421-36.601 8.2166-39.888 6.4239-3.5854 12.997-2.8385 18.674 1.9421zm-29.58 10.458c-0.89635 2.3903-1.4939 6.2745-1.4939 8.8139 0 4.6312-2.0915 6.1251-4.0336 2.9879-0.44818-0.74697-2.6891-1.4939-4.93-1.4939-3.8842 0-3.7348-0.29879 3.436-7.7683 4.183-4.3324 7.918-7.6193 8.2166-7.32 0.29865 0.29931-0.29879 2.3903-1.1952 4.7806zm45.714 2.8385c1.9421 2.6891 5.5275 7.171 7.7683 9.7105l4.183 4.7806-5.9757 4.3324-6.1251 4.183-0.89636-5.8263c-0.44818-3.1372-1.7927-9.5609-2.9878-14.043-1.0458-4.4818-1.4939-8.2166-0.89636-8.2166s2.8385 2.2409 4.93 5.0794zm-50.943 14.043c3.2866 2.9878 3.7348 4.7806 3.7348 16.284 0 7.171 0.74697 14.939 1.6433 17.479 0.89635 2.3903 1.9421 10.308 2.0915 17.628 0.29878 10.607-0.29879 15.686-3.2866 24.351-4.4818 13.147-8.067 17.33-13.445 15.985-4.183-1.0458-11.055-10.308-12.698-17.18-0.59757-2.3903-1.4939-14.939-2.0915-27.787-0.74696-20.018-0.44818-24.948 1.9421-33.016 4.93-16.135 13.744-21.662 22.11-13.744zm68.867 6.4239c12.848 7.4696 17.927 24.351 17.479 58.413-0.44818 26.592-3.2866 32.119-16.583 32.119-5.8263 0-8.2166-0.74697-10.756-3.5854-3.2866-3.5854-7.171-14.79-5.8263-16.882 0.29878-0.74696-0.14939-3.2866-1.0458-5.6769-1.0458-2.3903-1.9421-13.296-2.0915-24.053-0.44818-23.156 1.4939-32.269 8.6649-38.245 5.3781-4.6312 5.6769-4.6312 10.159-2.0915zm12.848 2.9879c2.3903 2.2409 2.5397 4.3324 0.44818 4.3324-0.89636 0-2.2409-1.3445-3.1373-3.1372-1.9421-3.436-0.14939-4.183 2.6891-1.1951zm-109.21 9.2622c-1.0458 2.8385-1.7927 7.4696-1.7927 10.308 0 5.3781 0 5.3781-5.8263 4.3324-3.2866-0.59757-6.1251-1.1951-6.2745-1.3445-0.29879-0.1494 2.9878-4.6312 7.0213-10.009 4.0336-5.2288 7.6193-9.2622 7.918-8.9636 0.44818 0.44818-0.1494 2.9879-1.0458 5.6769zm120.56 14.192c0 4.183 7.4696 13.147 15.388 18.524 4.6312 3.1372 8.3663 7.0213 8.9636 9.2622 1.4939 6.1251-0.29879 5.6769-4.6312-1.1951-2.2409-3.5854-5.0794-6.4239-6.1251-6.4239-1.1951 0-3.436-1.4939-5.0794-3.2866-2.0915-2.2409-4.183-2.9879-7.171-2.3903-4.0336 0.74696-4.183 0.44818-5.0794-6.573-0.44818-4.0336-1.1951-9.8602-1.7927-12.848l-1.1952-5.5275 3.436 4.183c1.7927 2.3903 3.2866 5.0794 3.2866 6.2745zm-125.19 7.32c2.0915 1.9421 2.9879 6.2745 3.5854 17.18 0.44818 8.067 1.0458 15.089 1.3445 15.686 1.1951 1.9421-1.9421 33.613-4.6312 48.254-2.5397 13.296-2.9879 14.491-10.009 21.512-8.3663 8.3663-13.595 9.5609-18.674 4.183-4.4818-4.7806-5.3781-10.756-3.2866-21.363 1.3445-6.8723 1.3445-10.906 0.14939-15.537-2.5397-8.9636-2.0915-13.744 1.9421-26.144 2.0915-6.2745 5.6769-17.628 8.067-25.397 6.2745-20.765 12.997-26.442 21.512-18.375zm131.47 13.595c1.0458 1.3445 2.6891 2.3903 3.7348 2.3903 2.6891 0 16.583 16.583 19.271 23.156 6.573 15.537-6.1251 50.495-18.226 50.495-2.3903 0-5.3782-1.1952-6.8723-2.8385-3.5854-3.8842-6.1251-23.604-6.2745-47.357-0.14939-24.053 2.6891-32.717 8.3663-25.845zm-60.056 37.498c1.9421 2.3903 3.5854 4.93 3.5854 5.8263 0 0.74697-3.8842 1.3445-8.6649 1.3445-8.5153 0-8.5153 0.14939-8.5153 4.7806 0 5.6769 0.89636 5.8263 4.6312 1.1951l2.8385-3.5854 1.7927 4.4818c1.1951 3.2866 2.5397 4.3324 4.6312 3.7348 5.0794-1.3445 0.59757 6.1251-5.3781 8.9636-9.4119 4.4818-17.33 2.3903-22.559-5.8263-3.2866-5.5275-4.4818-13.744-1.9421-13.744 0.89636 0 1.3445 2.2409 1.1951 5.0794-0.14939 2.6891 0.74697 5.2288 1.7927 5.5275 1.1951 0.44818 1.9421-0.59757 1.9421-2.5397 0-1.6433 0.74697-3.5854 1.4939-4.0336 0.89636-0.44818 1.0458-1.9421 0.59757-3.2866-0.59757-1.3445 0.1494-2.2409 1.7927-2.2409 1.3445 0 2.0915-0.74697 1.6433-1.6433-0.59757-0.74697-2.8385-1.4939-5.2288-1.4939l-4.183-0.14939 4.6312-4.0336c3.8842-3.436 5.5275-3.8842 12.4-3.2866 5.9757 0.59757 8.6649 1.7927 11.503 4.93zm2.9878 14.641c-1.6433 1.6433-2.9878-0.74696-1.6433-2.8385 1.0458-1.6433 1.3445-1.6433 1.9421 0 0.29879 1.0458 0.14939 2.3903-0.29879 2.8385zm212.89 126.98c1.6433 1.6433-2.2409 5.2288-5.6769 5.2288-3.1372 0-3.1372-0.1494-0.29879-3.1372 2.9879-3.2866 4.3324-3.7348 5.9757-2.0915z" stroke-width=".14939"/>
	<path d="m274.44 301.62c0 2.5397 0.74696 4.6312 1.6433 4.6312 0.74696 0 1.4939-2.0915 1.4939-4.6312s-0.74697-4.7806-1.4939-4.7806c-0.89636 0-1.6433 2.2409-1.6433 4.7806zm255.16-297c-2.0915 2.0915-1.0458 3.8842 2.0915 3.436 1.7927-0.29879 3.2866-1.1951 3.2866-2.0915 0-1.9421-3.7348-2.9879-5.3782-1.3445zm73.2 6.4239c-0.44818 1.4939-2.9879 3.7348-5.6769 5.0794-4.183 1.9421-5.0794 3.436-5.5275 8.067s0.29878 6.2745 3.7348 8.9636c4.0336 3.1372 4.183 3.5854 1.6433 6.2745-3.2866 3.5854-1.9421 4.93 5.3782 4.93 8.067 0 10.308 3.1372 6.1251 8.3663-2.8385 3.5854-3.7348 3.8842-6.7227 2.3903-1.7927-1.0458-4.183-2.9878-5.2288-4.3324-1.4939-2.0915-2.2409-2.0915-3.8842-0.59757-3.1372 3.1372 3.1372 8.3663 11.055 9.4119 5.3782 0.74697 7.171 0.29879 10.458-2.6891 2.0915-2.0915 3.8842-4.7806 3.8842-6.1251 0-4.3324-4.7806-9.4119-10.009-10.906l-4.93-1.3445 5.6769-2.3903c9.5609-4.183 11.653-10.756 5.2288-17.479-2.0915-2.3903-4.6312-5.5275-5.5275-7.32-1.9421-3.7348-4.6312-4.0336-5.6769-0.29878zm0.44817 8.9636c-1.0458 2.6891 1.4939 4.7806 2.9879 2.3903 1.7927-2.9879 3.8842-1.4939 3.8842 2.9879 0 5.6769-3.8842 9.2622-7.6193 7.0213-4.3324-2.8385-4.4818-14.79-0.14939-14.79 1.0458 0 1.4939 1.0458 0.89635 2.3903zm-435.63-2.3903c-3.1372 2.5397-3.2866 3.1373-1.0458 3.1373 1.3445 0 2.9879-0.59758 3.5854-1.4939 1.4939-2.5397 6.4239-1.7927 10.308 1.4939l3.7348 3.1372h-6.4239c-7.918 0.14939-12.848 3.7348-14.043 10.458-1.4939 7.7683 2.0915 10.009 15.836 10.009h11.653l-0.89636-7.4696c-1.7927-16.433-2.2409-17.479-6.8723-20.018-6.1251-3.1372-11.503-2.9879-15.836 0.74697zm15.985 12.848c2.6891 5.2288-0.44818 10.756-6.2745 10.756-5.5275 0-8.8139-4.6312-7.32-10.308 0.74696-3.1373 1.9421-3.8842 6.4239-3.8842 3.8842 0 5.8263 1.0458 7.171 3.436zm16.732-14.79c-2.2409 0.59757-2.3903 1.1951-1.0458 3.8842 1.0458 2.0915 1.4939 7.6193 1.0458 14.192-0.74696 10.159-0.59757 10.756 2.3903 10.308 2.6891-0.44818 3.1372-1.7927 3.5854-10.458 0.59757-10.458 2.3903-14.342 7.0213-14.342 4.7806 0 7.7683 6.1251 7.7683 15.985 0 8.5153 0.29878 9.1132 3.5854 9.1132 3.5854 0 3.5854-0.1494 2.5397-11.204-1.6433-14.491-4.183-17.628-14.342-16.583-4.0336 0.29879-7.918 0.1494-8.5153-0.44818-0.74696-0.59757-2.5397-0.74696-4.0336-0.44817zm65.285 4.183c-5.8263 5.8263-6.573 9.7105-2.9879 16.583 7.6193 14.79 25.247 11.503 27.04-5.0794 0.74696-6.7227 0.44817-7.7683-4.183-12.101-7.0213-6.4239-12.997-6.2745-19.869 0.59757zm16.583 2.3903c3.8842 7.32 0 20.467-6.1251 20.467-5.0794 0-10.009-14.641-6.7227-19.72 2.8385-4.3324 10.756-4.7806 12.848-0.74696zm134.45-3.8842c-4.4818 4.0336-7.0213 14.192-4.6312 18.077 0.89635 1.3445 3.8842 4.0336 6.7227 5.9757 4.0336 2.6891 6.4239 3.2866 10.906 2.5397 5.9757-1.0458 10.756-4.4818 8.9636-6.2745-0.59758-0.74697-1.9421-0.29879-2.9879 0.74696-1.0458 0.89636-4.183 1.7927-7.0213 1.7927-6.573 0-6.8723-3.5854-0.44818-7.32 2.5397-1.4939 4.7806-3.1372 4.7806-3.7348 0-0.59757 1.6433-1.7927 3.8842-2.8385 5.0794-2.2409 4.93-5.3782-0.29878-9.5609-5.6769-4.4818-14.641-4.3324-19.869 0.59758zm13.296 2.5397 3.7348 3.1372-4.7806 3.8842c-7.4696 6.4239-10.009 7.4696-11.204 4.7806-1.1952-3.2866 0.44817-9.5609 3.5854-12.549 3.1372-3.1372 4.183-3.1372 8.6649 0.74696zm26.741-5.2288c-2.6891 1.0458-6.573 8.9636-6.573 13.595 0 5.5275 6.573 12.549 14.043 15.089 5.8263 1.9421 6.8723 1.7927 10.607-1.0458 5.6769-4.183 5.9757-5.9757 1.1952-8.067-5.3782-2.5397-5.8263-2.3903-4.7806 1.1952 0.59758 1.6433 0.29879 3.436-0.59757 3.8842-0.89636 0.59758-1.6433 0.29879-1.6433-0.74696s-1.1951-1.3445-3.1372-0.74697c-5.6769 1.7927-3.2866-2.0915 5.0794-8.6649 9.7105-7.7683 10.159-8.5153 6.573-12.549-2.0915-2.2409-4.6312-2.9879-10.756-2.9879-4.3324 0.1494-8.8139 0.59758-10.009 1.0458zm13.147 4.3324c2.9878 2.0915 2.8385 2.3903-2.3903 7.7683-2.9879 3.1373-6.2745 5.5275-7.4696 5.5275-2.8385 0-2.5397-10.159 0.44818-13.147 2.9879-2.9879 5.5275-3.1373 9.4119-0.1494zm16.433-4.183c0 0.74697 0.74696 1.9421 1.6433 2.8385 1.0458 1.0458 1.4939 8.5153 1.1951 20.018l-0.59757 18.226h4.183c3.7348 0 4.0336-0.44818 4.183-7.32 0.1494-8.067 1.0458-9.7105 3.7348-7.0213 2.9878 2.9879 7.171 2.0915 12.101-2.5397 6.7227-6.1251 7.171-15.537 1.0458-21.512-3.2866-3.2866-5.0794-3.7348-15.686-3.7348-6.573 0-11.802 0.44818-11.802 1.0458zm21.961 5.9757c4.3324 5.2288 1.4939 17.777-4.0336 17.777-5.8263 0-9.1132-10.308-5.3781-17.33 1.9421-3.5854 6.573-3.8842 9.4119-0.44817zm17.18-5.9757c0 0.74697 1.1951 2.3903 2.5397 3.5854 2.0915 1.7927 2.3903 4.183 1.6433 13.595l-0.74697 11.354h4.3324c5.0794 0 6.8723-1.3445 4.7806-3.8842-0.74696-0.89636-1.6433-7.0213-1.9421-13.445l-0.44817-11.653-5.0794-0.59758c-2.8385-0.14939-5.0794 0.29879-5.0794 1.0458zm23.604 1.1952c0 1.0458 0.44818 2.3903 1.1951 2.8385 0.74697 0.44818 1.1951 6.1251 1.0458 12.698-0.14939 11.951-0.14939 11.951 3.7348 11.503 3.7348-0.44818 3.8842-0.89636 3.5854-9.8602-0.29878-11.354 1.0458-13.744 7.0213-13.147 4.4818 0.59757 4.4818 0.74697 5.3781 11.503l0.74697 11.055 5.0794 0.44818c4.7806 0.44818 6.8723-1.4939 3.5854-3.5854-0.89636-0.59757-1.6433-4.7806-1.6433-9.2622 0-6.573-0.74697-9.2622-3.5854-12.25-3.2866-3.436-5.0794-4.0336-14.939-4.0336-8.5153 0-11.204 0.44818-11.204 2.0915zm-410.24 41.382c-0.44818 0.74696-0.14939 1.9421 0.74696 2.3903 2.2409 1.4939 2.0915 34.958-0.29878 35.705-1.0458 0.29879-1.3445 1.4939-0.59757 2.3903 0.59757 1.1951 5.2288 1.9421 11.802 1.9421 8.3663 0 11.653-0.74696 15.985-3.5854 6.8723-4.6312 8.067-12.101 2.6891-17.777-2.9879-3.2866-3.2866-4.4818-1.9421-8.2166 1.9421-5.2288-0.29879-11.055-5.0794-12.997-4.3324-1.6433-22.259-1.6433-23.306 0.14939zm20.168 4.183c2.9879 1.0458 3.2866 5.5275 0.59757 8.067-1.0458 1.0458-3.7348 1.9421-6.2745 1.9421-3.8842 0-4.3324-0.59758-4.3324-5.5275 0-4.7806 0.44817-5.5275 3.7348-5.5275 2.0915 0 4.93 0.44818 6.2745 1.0458zm2.8385 17.33c3.2866 2.9879 3.7348 9.7105 0.89635 13.595-1.0458 1.3445-4.4818 2.6891-7.4696 2.9878l-5.5275 0.44818-0.89636-19.72h5.0794c2.6891 0 6.2745 1.1951 7.918 2.6891zm94.864-21.812c-0.29878 0.59758-1.1951 3.5854-1.7927 6.4239-0.74697 3.2866-2.2409 5.6769-4.183 6.1251-3.8842 1.0458-3.7348 2.9879 0.29878 4.0336 2.6891 0.59757 3.1372 2.0915 3.1372 10.756 0 5.6769 0.74697 10.906 1.7927 11.951 2.8385 2.8385 8.2166 2.2409 11.503-1.3445 3.5854-4.0336 1.7927-5.9757-2.2409-2.3903-2.9879 2.6891-3.1372 2.5397-3.8842-2.5397-0.59757-4.3324-0.44818-10.756 0.44818-15.836 0-0.59757 1.1951-1.1952 2.5397-1.1952 3.436 0 2.8385-2.5397-0.74696-3.5854-2.5397-0.59757-3.1373-2.0915-3.1373-6.2745 0-5.2288-2.0915-8.8139-3.7348-6.1251zm188.98 4.183c-5.6769 6.573-7.171 11.503-5.9757 19.122 2.6891 17.031 22.11 23.604 33.165 11.204 3.8842-4.3324 4.183-5.2288 1.9421-5.6769-1.4939-0.29879-4.93 1.3445-7.4696 3.5854-5.8263 4.7806-5.6769 4.7806-11.951 1.0458-5.6769-3.5854-7.6193-9.5609-5.9757-18.973 1.3445-7.918 4.3324-11.055 10.756-11.055 6.1251 0 11.503 3.7348 12.25 8.3663 0.89636 6.4239 3.5854 2.8385 3.5854-4.7806v-7.4696l-25.397-0.89636zm-168.07-2.3903c0 0.89636 0.74696 2.0915 1.7927 2.6891 1.7927 1.0458 0.89636 27.189-1.1951 34.659-0.89636 3.2866-0.44818 3.5854 4.7806 3.5854 5.3781 0 7.32-1.9421 4.0336-3.8842-1.9421-1.1951-2.0915-10.308-0.14939-15.537 1.7927-4.6312 6.7227-7.6193 10.159-6.2745 1.7927 0.59757 2.5397 3.8842 2.8385 12.848 0.44818 11.204 0.74696 12.101 4.183 12.549 1.9421 0.29879 4.6312 0.14939 5.9757-0.44818 2.2409-0.74696 2.2409-1.1951 0-3.7348-1.7927-1.7927-2.5397-5.3782-2.3903-10.607 0.14939-4.3324-0.74696-9.4119-1.9421-11.354-1.9421-3.2866-3.1372-3.5854-10.458-2.8385l-8.2166 0.74697v-6.8723c0-6.7227-0.14939-7.0213-4.6312-7.0213-2.6891 0-4.7806 0.74696-4.7806 1.4939zm94.419 3.5854c0.29879 2.3903 1.4939 3.5854 3.5854 3.5854 4.7806 0 4.183-6.1251-0.44818-6.7227-3.1372-0.44818-3.5854 0-3.1372 3.1372zm197.05 5.6769c-6.1251 1.4939-10.607 8.2166-10.607 15.686 0 12.549 17.33 21.065 26.293 12.848 1.9421-1.7927 3.436-3.8842 3.436-4.6312 0-2.3903-2.8385-3.436-4.0336-1.6433-1.7927 3.1373-8.5153 4.7806-11.802 3.1373-1.6433-0.89636-2.9878-2.2409-2.9878-2.9879 0-0.59757 4.183-3.5854 9.4119-6.573 5.0794-2.9879 9.4119-6.4239 9.4119-7.7683 0-5.9757-10.159-10.308-19.122-8.067zm9.7105 5.6769c1.4939 1.7927 0.89636 3.1372-3.436 7.0213-7.0213 6.4239-9.8602 6.2745-8.5153-0.1494 1.7927-8.6649 7.6193-11.951 11.951-6.8723zm-60.205-4.0336-5.9757 1.0458 4.4818 3.2866c2.5397 1.7927 6.8723 7.6193 9.7105 12.997 6.7227 12.549 9.1132 12.4 15.836-0.74697 2.9879-5.8263 6.4239-11.503 7.6193-12.698 2.6891-2.6891 2.0915-3.436-2.9878-4.0336-2.8385-0.29879-3.5854 0.29878-3.2866 2.2409 0.44818 2.9879-4.4818 12.549-7.171 13.445-2.0915 0.74697-8.6649-11.204-7.0213-12.848 1.0458-1.0458-2.6891-4.183-4.3324-3.7348-0.44818 0-3.436 0.59757-6.8723 1.0458zm-332.85 4.0336c-8.8139 8.9636-1.0458 25.994 11.802 25.994 4.7806 0 12.698-4.3324 12.698-7.171 0-2.5397-2.5397-2.9878-4.0336-0.59757-1.7927 2.9879-8.8139 4.7806-11.055 2.9879-3.1372-2.6891-1.1951-5.3781 7.32-10.009 7.7683-4.3324 8.9636-6.573 6.1251-11.951-1.3445-2.3903-3.436-3.1372-10.308-3.1372-7.171 0-9.4119 0.74697-12.549 3.8842zm16.284 1.1951c2.8385 2.8385 2.3903 4.0336-4.0336 8.2166-9.5609 6.573-11.653 5.2288-7.4696-4.6312 2.3903-5.8263 7.6193-7.4696 11.503-3.5854z" stroke-width=".14939"/>
	<path d="m217.97 72.6c0 0.89636 0.74696 1.4939 1.6433 1.4939 1.9421 0 1.3445 19.421-0.74696 24.053-1.0458 2.2409-0.44818 2.6891 3.5854 2.6891h4.93v-9.1132c0-11.354 3.2866-15.388 11.354-13.894 6.7227 1.3445 10.458-0.89636 7.6193-4.3324-2.5397-3.1373-8.9636-3.1373-14.641-0.1494-3.7348 1.9421-4.3324 1.9421-4.3324 0 0-1.4939-1.6433-2.3903-4.6312-2.3903-2.6891 0-4.7806 0.74696-4.7806 1.6433zm101.29 0.89636c-4.7806 4.7806-1.6433 11.204 8.067 16.284 4.183 2.0915 4.6312 5.5275 1.0458 7.0213-3.1372 1.1951-8.3663-1.6433-8.3663-4.6312 0-1.3445-0.89636-2.3903-1.7927-2.3903-0.89636 0-1.3445 2.2409-1.1952 5.2288 0.44818 4.4818 1.1952 5.0794 5.8263 5.5275 7.6193 0.74697 12.4-0.74696 14.342-4.4818 2.2409-4.0336-0.89636-9.4119-7.7683-13.445-4.7806-2.8385-6.1251-5.8263-3.436-7.4696 0.74697-0.59758 3.2866 0.59757 5.6769 2.3903 4.7806 3.8842 6.2745 3.1372 4.93-2.5397-0.89636-3.436-1.7927-4.0336-7.918-4.0336-4.183 0-7.918 1.0458-9.4119 2.5397zm49.3-1.7927c0 0.59757 1.1951 2.8385 2.5397 4.93 2.0915 2.9879 2.3903 5.9757 1.6433 13.296-0.74696 7.4696-0.59757 9.2622 1.1951 9.2622 1.1952 0 3.2866 0.44818 4.7806 1.0457 2.2409 0.89636 2.3903-0.74696 2.0915-13.744l-0.44818-14.641-5.9757-0.59757c-3.1372-0.14939-5.8263 0-5.8263 0.44818zm18.824 0.89636c0 0.89636 1.0458 1.4939 2.5397 1.4939 2.0915 0 2.3903 1.7927 1.7927 10.607-0.29878 5.8263-0.89636 11.653-1.1951 12.997-0.59757 1.6433 0.59757 2.5397 4.3324 2.8385l5.0794 0.44818-0.89636-9.1132c-1.1951-11.503 1.0458-18.077 5.9757-17.479 3.2866 0.44818 3.5854 1.6433 4.3324 13.147 0.74696 12.101 0.89635 12.549 4.93 12.997l4.0336 0.44818-0.74697-12.25c-1.0458-17.628-1.0458-17.777-16.882-17.777-7.7683 0-13.296 0.74696-13.296 1.6433zm103.53 8.2166c-2.6891 5.3781-6.7227 11.653-8.8139 13.894-4.4818 4.6312-3.1372 6.8723 3.1372 5.2288 2.3903-0.59757 4.183-2.2409 4.4818-4.3324 0.29878-2.9879 1.3445-3.436 8.9636-3.436 7.7683 0 8.6649 0.29879 9.5609 3.8842 0.59757 3.1372 1.7927 4.0336 5.3781 4.0336 6.1251 0 6.4239-2.3903 1.1951-9.1132-2.3903-3.1373-6.7227-8.9636-9.5609-12.848-2.9879-3.8842-6.2745-7.171-7.4696-7.171-1.1951 0-4.3324 4.4818-6.8723 9.8602zm11.055 5.0794c0 0.44818-2.2409 0.74696-4.7806 0.74696-5.2288 0-5.5275-0.29878-2.9879-4.93l1.6433-3.1372 2.9879 3.2866c1.6433 1.6433 3.1372 3.5854 3.1372 4.0336zm133.26 24.351c-4.4818 4.4818-3.2866 6.8723 4.0336 7.918 5.5275 0.59757 5.6769 0.89635 2.2409 1.7927-2.9878 0.89636-3.436 1.6433-1.9421 2.9879 2.8385 2.8385 10.159-2.5397 9.5609-6.8723-0.44818-2.8385-1.4939-3.436-5.6769-3.2866-4.183 0.29879-4.93-0.14939-3.436-1.7927 2.9879-3.5854-1.3445-4.183-4.7806-0.74697zm47.507-2.0915c-2.9879 1.1952-5.2288 6.2745-4.183 9.1132 0.59731 1.4939 2.6891 3.2866 4.7806 4.0336 3.8842 1.4939 5.0794 4.6312 1.6433 4.6312-1.1951 0-2.8385-0.89636-3.8842-1.7927-2.5397-2.6891-4.4818-0.14939-2.5397 2.9879 3.2866 5.2288 14.79 3.7348 14.79-1.9421 0-1.1951-2.3903-4.183-5.0794-6.8723-4.6312-4.6312-4.7806-4.93-1.4939-4.93 3.7348 0 4.3324-1.4939 1.4939-4.3324-2.0915-2.0915-2.5397-2.0915-5.5275-0.89636zm14.043 11.055c0.44831 10.906 3.1372 14.641 4.0336 5.5275 0.29865-2.8385 1.1951-5.0794 1.9421-5.0794 0.89635 0 1.4939-1.0458 1.4939-2.3903 0-1.1952-0.74696-2.3903-1.4939-2.3903-0.89636 0-1.6433-1.3445-1.6433-3.1372 0-1.6433-1.0458-3.1372-2.3903-3.1372-2.0915 0-2.3903 1.9421-1.9421 10.607zm-76.487-2.6891c-2.6891 2.9879-2.6891 3.436-0.29878 8.6649 1.6433 3.436 3.7348 5.3782 5.6769 5.3782 1.4939 0 3.7348 1.1951 4.93 2.3903 1.0458 1.3445 2.8385 2.3903 4.0336 2.3903 3.5854 0 2.5397-4.183-1.7927-6.8723-2.0915-1.4939-3.8842-3.7348-3.8842-5.0794 0-1.4939-0.89636-2.0915-2.2409-1.6433-3.1372 1.1952-4.3324-0.59757-2.2409-3.1372 3.1372-3.8842-0.74696-5.8263-4.183-2.0915zm109.36-0.74696c-6.573 4.6312-3.1372 14.192 4.7806 12.997 2.3903-0.29878 3.436-1.3445 2.9879-3.2866-0.14966-1.6433 0.44831-3.8842 1.4939-5.2288 1.4939-1.7927 1.3445-2.6891-1.0458-4.4818-3.8842-2.8385-4.0336-2.8385-8.2166 0zm-18.824 1.6433c-6.2745 4.3324-2.8385 13.147 5.2288 13.147 5.0794 0 6.4239-2.8385 2.0915-4.4818-2.5397-1.0458-2.8385-1.4939-1.0458-1.6433 3.2866-0.14939 4.93-4.6312 2.6891-7.32-2.3903-2.8385-4.6312-2.6891-8.9636 0.29878zm36.153-1.3445c-3.2866 0.59758-3.436 1.4939-3.436 10.906 0 7.4696 0.4483 10.009 1.9421 9.5609 1.0458-0.29878 2.0915-2.0915 2.3903-3.8842 0.29865-2.2409 1.6433-3.1372 4.6312-3.1372 3.5854 0 8.2166-3.8842 8.2166-6.7227 0-4.3324-7.32-7.918-13.744-6.7227zm7.4696 7.4696c0 1.3445-0.59731 2.3903-1.4939 2.3903-1.9421 0-3.436-2.3903-2.0915-3.7348 1.7927-1.7927 3.5854-1.0458 3.5854 1.3445zm-146.41 6.573c-3.2866 3.2866 2.2409 14.641 7.171 14.641 0.89636 0 2.9879 1.1952 4.4818 2.5397 2.6891 2.3903 6.1251 1.7927 6.1251-1.0458 0-0.74696-1.9421-2.2409-4.3324-3.436-2.5397-1.1951-4.3324-3.2866-4.3324-5.0794 0-2.0915-0.89636-2.9879-2.6891-2.6891-1.9421 0.29879-2.6891-0.59757-2.6891-2.8385 0-3.1372-1.7927-4.0336-3.7348-2.0915zm68.423 6.2745c-2.9879 1.1951-2.3903 3.1372 1.1951 4.183 2.5397 0.59757 3.1372 2.0915 3.1372 8.8139 0 11.055 3.7348 10.009 4.3324-1.1951 0.44831-6.7227 0.89635-8.2166 3.436-8.2166 1.6433 0 3.436-0.59757 3.8842-1.4939 0.59731-0.89636-0.89636-1.6433-3.436-1.6433-2.3903 0-5.8263-0.29879-7.4696-0.59758-1.7927-0.44817-4.0336-0.29878-5.0794 0.1494zm103.08 2.6891c0 1.9421-0.44831 6.8723-1.0458 10.906-0.74697 5.9757-0.44831 7.32 1.4939 7.32 1.3445 0 2.6891-0.89635 3.1372-1.9421 0.44831-1.4939 1.6433-1.1952 4.0336 1.0458 1.7927 1.6433 3.436 2.2409 3.5854 1.4939 0-0.74697 0.14965-4.4818 0.29865-8.2166 0.29866-6.4239 0.14966-6.7227-3.7348-5.9757-3.7348 0.74696-4.0336 0.44818-3.436-3.7348 0.59731-3.436 0.14966-4.6312-1.7927-4.6312-1.6433 0-2.5397 1.3445-2.5397 3.7348zm-63.193 3.5854c-3.5854 1.0458-3.436 6.2745 0.44831 8.6649 4.0336 2.5397 4.183 5.0794 0.14965 2.8385-4.0336-2.0915-5.6769 0.59757-2.3903 3.7348 2.6891 2.8385 3.8842 2.9879 7.6193 1.6433 3.5854-1.4939 3.1372-8.6649-0.59731-9.5609-3.7348-1.0458-4.3324-3.7348-0.74697-3.7348 1.3445 0 2.2409-0.74696 1.9421-1.7927-0.74697-2.2409-2.6891-2.6891-6.4239-1.7927zm-21.214 7.171c0.44831 6.7227 0.44831 6.7227 7.171 7.171l6.7227 0.44818v-7.32c0-5.0794-0.59731-7.0213-2.0915-6.573-1.0458 0.44818-1.9421 1.6433-2.0915 2.8385-0.14966 1.3445-0.29866 3.1372-0.44831 4.183 0 1.1951-1.1952 1.9421-2.5397 1.9421-1.4939 0-2.2409-1.4939-2.2409-4.6312 0-3.2866-0.89635-4.7806-2.5397-4.7806-1.9421 0-2.2409 1.4939-1.9421 6.7227zm34.809-4.183c-0.59731 1.3445 0.59732 4.183 2.6891 6.573 2.0915 2.3903 2.6891 3.436 1.4939 2.3903-2.9879-2.6891-6.2745-2.5397-6.2745 0.29879 0 2.6891 5.0794 4.4818 9.4119 3.1372 3.7348-1.1951 3.8842-4.3324 0.29865-7.918-1.9421-1.9421-2.0915-2.9878-0.74696-3.436 3.436-1.1952 2.0915-3.5854-2.0915-3.5854-2.0915 0-4.3324 1.1951-4.7806 2.5397zm14.79 1.3445c-2.2409 5.0794-0.74696 8.3663 4.183 9.7105 7.4696 1.7927 11.503-2.0915 9.5609-9.5609-0.74697-3.2866-1.9421-4.0336-6.4239-4.0336-4.3324 0-5.8263 0.89636-7.32 3.8842zm10.607 2.5397c1.7927 2.9879-1.9421 5.3782-4.7806 3.1373-1.3445-1.1952-2.3903-2.6891-2.3903-3.436 0-1.9421 5.8263-1.6433 7.171 0.29878zm8.8139-4.4818c-1.0458 1.0458-1.7927 3.436-1.7927 5.2288 0 4.4818 2.8385 7.0213 8.2166 7.0213 5.2288 0 5.0794-3.5854-0.14965-4.4818-4.7806-0.59757-4.3324-4.93 0.44831-4.93 2.5397 0 4.0336-0.89636 4.0336-2.3903 0-2.8385-7.918-3.1373-10.756-0.44818zm-165.83 2.8385c0.59757 0.89636 1.6433 1.4939 2.5397 1.4939 0.74696 0 1.4939-0.59757 1.4939-1.4939 0-0.89635-1.1952-1.6433-2.5397-1.6433-1.3445 0-1.9421 0.74697-1.4939 1.6433zm4.6312 3.2866c-0.44818 0.89635-0.74697 1.7927-0.44818 1.9421 0.29879 0.29879 2.5397 1.9421 5.0794 3.8842 7.918 5.9757 10.458 2.9879 2.9879-3.5854-4.93-4.3324-6.1251-4.6312-7.6193-2.2409zm-14.79 8.067c0 2.5397 15.537 14.043 17.479 12.848 2.5397-1.4939 1.3445-3.1372-6.2745-8.9636-7.918-6.1251-11.204-7.171-11.204-3.8842zm90.531 3.7348c-2.5397 2.5397-0.74697 7.171 3.5854 9.7105 2.5397 1.4939 4.6312 3.1373 4.6312 3.7348 0.14965 2.0915-3.7348 3.436-4.3324 1.4939-0.89635-2.8385-5.3781-2.0915-4.7806 0.74696 1.4939 7.6193 13.894 5.9757 13.894-1.7927 0-2.6891-1.1951-4.4818-3.8842-5.6769-5.0794-2.3903-5.0794-4.4818 0.14965-4.4818 3.436 0 3.8842-0.29879 2.2409-2.3903-2.0915-2.3903-9.7105-3.1372-11.503-1.3445zm20.915 9.2622c0 7.918 0.44831 10.159 2.2409 10.159 1.9421 0 2.3903-2.2409 2.3903-10.159 0-8.067-0.44831-10.308-2.3903-10.308-1.7927 0-2.2409 2.2409-2.2409 10.308zm10.756 0.1494c-2.0915 5.6769-0.44831 9.8602 4.4818 11.055 5.3782 1.3445 8.8139-1.1951 9.5609-6.573 0.89635-8.5153-11.055-12.25-14.043-4.4818zm9.2622 3.436c0.29866 2.2409-0.29865 3.436-1.7927 3.436-3.1372 0-4.7806-2.6891-3.5854-5.6769 1.3445-3.2866 4.7806-1.7927 5.3781 2.2409zm-141.18-3.2866c-4.3324 4.93-4.6312 9.1132-1.1952 13.595 6.2745 7.918 18.824 4.0336 18.824-5.8263 0-4.6312-3.1372-5.6769-4.183-1.3445-1.1952 4.3324-6.573 7.171-9.4119 4.93-2.8385-2.3903-2.8385-7.6193 0.1494-8.8139 2.9879-1.0458 3.1372-5.2288 0.29878-5.2288-1.1951 0-3.2866 1.1951-4.4818 2.6891zm152.08 7.0213c-0.59731 11.354-0.14966 13.744 2.8385 13.744 1.4939 0 2.2409-1.7927 2.2409-5.2288 0-4.6312 0.44831-5.2288 3.5854-4.6312 1.9421 0.44818 4.93-0.29878 6.573-1.6433 2.5397-1.7927 2.8385-2.9879 1.4939-6.7227-1.3445-3.8842-2.3903-4.4818-8.8139-4.93l-7.32-0.44818zm12.997-3.2866c0 0.59757-0.89636 1.6433-1.7927 2.2409-2.0915 1.3445-5.2288-1.6433-3.8842-3.7348 1.0458-1.7927 5.6769-0.59757 5.6769 1.4939zm9.2622-3.1372c-1.3445 2.5397-1.3445 4.3324-0.14965 7.171 1.4939 3.1372 2.6891 3.7348 7.32 3.436 2.9878-0.29879 5.3781-1.1951 5.0794-2.0915-0.14966-0.89636-1.3445-1.3445-2.6891-1.1952-1.4939 0.29879-1.0458-0.74696 1.3445-2.6891 4.93-4.3324 3.2866-7.918-3.7348-7.918-3.8842 0-5.9757 0.89635-7.171 3.2866zm-199.14 30.476c0 0.74697 3.1372 3.5854 7.0213 6.2745 3.8842 2.5397 7.0213 5.2288 7.0213 5.8263s1.1951 1.1951 2.3903 1.1951c3.436 0 2.9878-4.3324-0.74697-6.573-1.7927-1.1952-3.1372-3.436-3.1372-5.2288 0-2.6891-1.0458-3.1372-6.2745-3.1372-3.436 0-6.2745 0.74697-6.2745 1.6433zm-6.8723 4.93c-3.2866 3.436 2.3903 14.641 7.4696 14.641 1.1951 0 2.9879 1.0458 4.183 2.3903 1.0458 1.1951 2.8385 2.2409 4.0336 2.2409 3.8842 0 2.2409-3.7348-2.6891-6.573-2.9879-1.6433-4.4818-3.7348-4.183-5.5275 0.29879-1.9421-0.44817-2.5397-2.5397-2.2409-2.2409 0.44818-2.5397-0.1494-1.7927-2.6891 1.0458-3.2866-1.9421-4.6312-4.4818-2.2409zm-16.284 22.857c-1.0458 1.0458-1.9421 3.7348-1.9421 6.2745 0 7.918 10.308 14.342 17.18 10.756 4.93-2.6891 4.4818-12.997-0.59757-16.433-4.6312-2.9879-12.101-3.2866-14.641-0.59758zm11.204 3.7348c2.8385 1.0458 3.436 7.7683 0.89635 9.2622s-9.2622-3.5854-9.2622-7.171c0-3.1372 3.436-4.0336 8.3663-2.0915zm-24.948 13.744c-4.7806 7.4696 1.4939 16.583 11.503 16.583 5.5275 0 8.2166-2.5397 8.2166-8.067 0-7.4696-8.8139-9.2622-13.744-2.9879-1.6433 2.2409-1.9421 2.0915-1.9421-0.89636 0-1.7927 1.0458-3.7348 2.2409-4.183 3.436-1.3445 2.9879-4.183-0.74696-4.183-1.6433 0-4.183 1.6433-5.5275 3.7348zm14.939 8.6649c0 2.9879-3.5854 5.5275-5.2288 3.7348-1.1951-1.1951 1.7927-6.7227 3.7348-6.7227 0.74697 0 1.4939 1.3445 1.4939 2.9879zm-408.44 19.72c-0.44818 1.3445-1.9421 2.3903-3.2866 2.3903-1.3445 0-2.3903 0.59757-2.3903 1.3445 0 1.7927 9.2622 2.8385 17.778 2.0915 7.6193-0.59757 6.8723-4.0336-1.0458-4.7806-3.1372-0.14939-5.6769-1.0458-5.6769-1.9421 0-2.3903-4.3324-1.6433-5.3781 0.89636zm-5.3781 10.607c-5.3782 5.3781 1.4939 10.607 14.192 10.607 7.0213 0 9.1132-0.59758 9.1132-2.3903 0-1.6433-1.7927-2.3903-5.5275-2.3903-3.436 0-5.9757-0.89635-7.171-2.6891-1.1951-1.9421-1.9421-2.2409-2.5397-0.74696-1.1951 2.9878-3.5854 2.2409-3.5854-1.1952 0-3.5854-1.6433-4.0336-4.4818-1.1951zm1.3445 26.144c-2.5397 4.6312-1.9421 7.7683 1.6433 9.5609 4.183 2.2409 5.8263 0.74697 3.2866-3.1372-1.4939-2.5397-1.4939-3.1372 0.44818-3.1372 1.1951 0 2.8385 0.89636 3.436 2.0915 1.6433 2.6891 7.32 5.6769 10.607 5.6769 1.9421 0 2.5397-1.6433 2.5397-7.0213 0-5.2288-0.74696-7.0213-2.3903-7.0213-1.4939 0-2.3903 1.4939-2.3903 3.8842 0 2.2409-0.74697 3.8842-1.7927 3.8842-0.89635 0-3.1372-1.6433-4.7806-3.8842-3.7348-4.6312-8.3663-5.0794-10.607-0.89636zm258.3 7.4696c-3.1372 3.8842-5.8263 7.6193-5.8263 8.3663 0 2.6891 9.5609 8.3663 11.204 6.7227 1.0458-1.1951 0.44818-2.3903-1.7927-4.0336-4.93-3.436-3.1372-7.918 2.5397-6.4239 4.0336 1.0458 4.183 0.74697 2.9879-3.436-1.0458-4.3324-0.89636-4.4818 1.9421-1.7927 3.2866 2.9879 6.7227 3.5854 6.7227 1.1952 0-1.7927-7.7683-7.918-10.159-7.7683-0.89636 0-4.3324 3.2866-7.6193 7.171zm-70.958-4.183c-5.0794 0.59757-12.4 2.5397-15.985 4.4818-3.7348 1.7927-11.802 4.4818-18.077 5.8263-30.775 6.4239-51.541 16.882-52.736 26.442-1.6433 14.342 4.93 16.583 37.199 12.698 12.4-1.4939 24.65-3.2866 27.488-4.183 2.6891-0.74696 8.067-1.3445 11.951-1.3445s12.997-1.4939 20.168-3.1373c7.171-1.7927 14.641-3.1372 16.583-3.1372 1.9422 0 5.2288-1.7927 7.171-3.8842 3.436-3.5854 3.5854-4.4818 1.9421-9.2622-1.0458-2.8385-1.9421-6.4239-1.9421-8.067 0-3.7348-7.32-13.147-11.503-14.79-6.2745-2.2409-12.698-2.8385-22.259-1.6433zm18.524 5.2288c7.171 3.1372 10.756 7.7683 12.25 16.135 1.7927 9.1132-1.0458 13.147-8.9636 13.147-2.8385 0-7.0213 0.74697-9.5609 1.7927-4.3324 1.6433-26.293 5.0794-49.897 7.6193-6.8723 0.74696-15.985 2.0915-20.318 2.9879-8.9636 1.6433-22.11 0.59757-24.202-2.0915-2.0915-2.5397-0.14939-11.951 2.8385-12.997 1.3445-0.59757 4.3324-2.2409 6.4239-3.8842 6.573-4.7806 27.04-11.653 42.876-14.491 3.1372-0.59757 9.2622-2.5397 13.296-4.4818 12.997-5.9757 26.592-7.32 35.257-3.7348zm199.29-2.8385c-4.183 2.8385-7.32 11.653-5.9757 16.882 1.3445 5.0794 10.009 9.4119 15.686 8.067 2.2409-0.59757 7.4696-3.8842 11.503-7.171 4.0336-3.436 8.2166-6.8723 9.2622-7.7683 2.5397-1.9421 2.5397-8.067 0-10.458-2.8385-2.8385-26.293-2.5397-30.476 0.44818zm28.534 3.8842c0 3.8842-18.375 17.479-22.708 16.882-5.6769-0.59757-8.8139-7.6193-5.9757-13.296 1.7927-4.0336 2.8385-4.4818 13.744-5.2288 14.192-1.0458 14.939-1.0458 14.939 1.6433zm13.296-4.183c-6.573 2.2409-9.4119 8.2166-6.573 14.342 2.6891 5.8263 5.6769 6.4239 18.226 3.1372 6.1251-1.6433 15.238-2.9878 20.318-2.9878 14.491-0.1494 16.433-7.0213 4.0336-13.744-6.2745-3.2866-27.04-3.8842-36.004-0.74697zm37.946 5.6769c4.6312 4.3324 2.2409 6.8723-5.5275 5.6769-4.183-0.59757-10.756 0.1494-18.226 2.0915-13.147 3.2866-17.33 2.3903-17.33-3.5854 0-7.0213 6.573-8.9636 26.442-7.7683 8.3663 0.44818 12.4 1.4939 14.641 3.5854zm130.87-2.3903c-7.6193 4.183-8.2166 5.6769-3.7348 9.8602 4.183 4.0336 20.168 5.2288 25.994 2.2409 5.9757-3.2866 3.8842-6.8723-7.4696-12.101-4.4818-2.0915-8.3663-3.7348-8.5153-3.5854-0.14965 0-2.9878 1.6433-6.2745 3.5854zm14.192 3.2866c2.9879 1.1951 5.2288 3.1372 4.93 4.183-0.89635 2.5397-16.732 2.6891-18.824 0-1.9421-2.0915-1.7927-2.2409 2.6891-4.7806 4.0336-2.2409 4.4818-2.2409 11.204 0.59757zm-122.35 0.14939c-8.2166 8.2166-4.6312 12.997 9.4119 12.698 7.32-0.29879 10.308 0.29879 12.698 2.5397 3.7348 3.2866 9.5609 2.9879 11.802-0.74696 2.5397-3.8842-4.0336-11.951-10.607-13.147-2.9879-0.59757-5.6769-2.0915-6.1251-3.2866-1.4939-3.8842-12.549-2.6891-17.18 1.9421zm14.641 0.59757c0 0.74697 2.8385 2.2409 6.2745 3.1373 4.3324 1.1951 7.0213 2.9878 8.2166 5.5275 2.5397 5.6769 0.44831 6.4239-6.7227 2.3903-5.2288-2.8385-7.6193-3.2866-13.894-2.3903-9.2622 1.1952-11.354-1.0458-6.2745-6.4239 3.436-3.7348 12.4-5.3782 12.4-2.2409zm-520.33 2.5397c-1.1951 0.44818-1.9421 1.9421-1.9421 3.1373 0 1.7927 2.0915 2.2409 10.458 1.7927 8.6649-0.29879 10.756-0.89636 11.204-3.1372 0.44817-2.3903-0.74697-2.6891-8.6649-2.6891-5.0794 0.14939-10.009 0.59757-11.055 0.89635zm267.86 4.7806c-2.5397 3.1372-4.7806 6.2745-4.7806 7.0213 0 2.6891 3.5854 1.1952 6.573-2.6891 2.2409-2.8385 3.7348-3.5854 4.93-2.3903 1.0458 1.1952 0.74696 2.5397-1.0458 4.4818-1.4939 1.6433-2.5397 4.3324-2.5397 5.8263 0 2.5397 0.59757 2.2409 4.6312-1.4939 5.6769-5.5275 5.9757-10.607 0.89636-13.894-3.5854-2.3903-3.8842-2.2409-8.6649 3.1372zm303.57-3.2866c-4.183 4.183-3.1372 12.4 2.3903 17.031 2.6891 2.2409 5.6769 4.0336 6.8723 4.0336 1.1954 0 3.5854 1.7927 5.2288 3.8842 5.5275 7.0213 10.159 4.6312 11.802-6.1251 0.89636-5.6769 0.44831-6.4239-7.32-13.595-8.6649-8.2166-14.491-9.7105-18.973-5.2288zm16.135 7.0213c6.4239 5.8263 6.7227 6.4239 5.6769 12.549-0.89636 5.2288-1.3445 5.9757-2.8385 3.8842-1.0458-1.3445-5.0794-4.0336-8.8139-5.9757-5.6769-2.6891-7.171-4.4818-7.6193-7.918-1.1951-10.607 3.5854-11.653 13.595-2.5397zm-299.83 13.744c-4.183 4.3324-5.5275 8.067-2.9878 8.067 0.74696 0 2.6891-1.3445 4.3324-3.1372 2.0915-2.3903 4.0336-2.9879 7.171-2.2409 5.2288 1.1951 6.1251-1.6433 1.7927-4.93-4.0336-2.9879-5.6769-2.6891-10.308 2.2409zm140.73-0.89636c-0.44817 1.1951-0.59757 6.7227-0.29878 12.25l0.44818 10.159 5.9757 0.44818c9.1132 0.74697 12.549-3.1372 11.204-12.25-1.6433-10.756-3.1372-12.549-10.308-12.549-3.5854 0-6.573 0.89636-7.0213 1.9421zm11.503 4.7806c-1.0458 2.8385-5.8263 3.2866-5.8263 0.44818 0-1.4939 1.1952-2.5397 3.1373-2.5397 1.9421 0 2.9878 0.89636 2.6891 2.0915zm1.9421 9.7105c0 1.4939-1.4939 2.3903-3.8842 2.3903-2.5397 0-3.8842-0.89636-3.8842-2.3903s1.3445-2.3903 3.8842-2.3903c2.3903 0 3.8842 0.89636 3.8842 2.3903zm85.303-14.192c-0.44817 1.1952-0.44817 2.9879 0.1494 3.8842 0.59757 1.0458-1.0458 1.6433-4.3324 1.6433-6.2745 0-8.9636 2.3903-8.9636 8.2166 0 5.0794 3.7348 7.4696 11.653 7.4696h5.6769v-10.756c0-10.308-2.0915-15.686-4.183-10.458zm-0.89635 12.25c0.59757 3.2866-3.8842 5.5275-6.2745 3.1372-2.3903-2.3903-0.14939-7.0213 2.9879-6.4239 1.4939 0.29878 2.9879 1.7927 3.2866 3.2866zm-24.799-2.6891c0 7.918 0.44818 10.159 2.3903 10.159 1.7927 0 2.3903-2.2409 2.3903-10.159 0-8.067-0.59758-10.308-2.3903-10.308-1.9421 0-2.3903 2.2409-2.3903 10.308zm129.38-4.3324c-5.8263 6.2745-9.7105 15.686-8.067 19.869 3.5854 9.2622 21.662 4.0336 28.534-8.2166 2.0915-3.8842 3.8842-7.918 3.8842-8.9636 0-2.3903-11.354-8.6649-15.836-8.6649-1.7927 0-5.5275 2.6891-8.5153 5.9757zm14.342 2.0915c3.2866 3.1372 3.436 3.7348 1.3445 7.7683-2.3903 4.6312-15.238 11.802-17.927 10.159-3.1372-1.9421-1.6433-8.067 3.436-14.641 5.6769-7.4696 8.067-8.067 13.147-3.2866zm-342.86-2.2409c0 0.59757 1.1951 2.5397 2.6891 4.3324 2.3903 2.8385 2.3903 2.9878 0 1.1951-4.3324-3.436-9.7105-1.7927-10.308 3.1372-0.29878 3.1372 0.59757 4.93 3.7348 6.8723 4.7806 3.2866 7.918 1.9421 11.653-4.4818 2.0915-3.7348 1.9421-4.3324-1.4939-8.067-3.5854-3.8842-6.2745-5.2288-6.2745-2.9878zm1.4939 10.906c0 2.6891-3.436 2.2409-4.3324-0.74697-0.29878-0.89636 0.44818-1.7927 1.7927-1.7927 1.4939 0 2.5397 1.0458 2.5397 2.5397zm240.07-10.607c-8.067 2.2409-4.6312 15.836 3.8842 15.836 1.9421 0 4.4818-1.0458 5.6769-2.5397 1.9421-2.3903 1.6433-2.5397-2.2409-1.7927-5.3782 1.0458-5.6769-1.4939-0.29866-3.436 2.0915-0.74697 3.8842-2.0915 3.8842-2.8385 0-1.4939-5.2288-6.7227-6.4239-6.4239-0.29865 0.14939-2.3903 0.59757-4.4818 1.1951zm4.6312 4.93c-3.1372 1.9421-5.0794 1.9421-3.8842 0 0.44831-0.89635 2.0915-1.4939 3.5854-1.4939 2.2409 0 2.3903 0.1494 0.29866 1.4939zm9.4119-2.5397c0 0.89636 0.44831 4.3324 1.0458 7.6193 0.89636 5.9757 3.7348 6.7227 3.7348 1.0458 0-2.0915 1.7927-3.8842 5.5275-5.5275 3.1372-1.3445 5.2288-2.8385 4.6312-3.436-1.9421-1.9421-14.939-1.6433-14.939 0.29879zm-291.32 3.2866c-3.5854 1.9421-8.067 3.8842-10.009 4.4818-4.0336 1.0458-2.5397 4.183 2.0915 4.183 3.1372 0 3.1372 0.29878-1.1951 4.6312-5.2288 5.5275-4.0336 8.5153 1.3445 3.436 3.2866-2.9878 3.8842-3.1372 4.7806-1.0458 1.4939 3.8842 3.7348 2.6891 4.93-2.6891 0.59757-2.8385 2.3903-6.8723 3.8842-9.1132 6.2745-9.1132 5.2288-9.7105-5.8263-3.8842zm185.85 0.14939c-2.6891 5.9757 0 9.2622 7.4696 9.2622 7.4696 0 10.159-3.436 7.0213-9.2622-2.9878-5.8263-11.802-5.6769-14.491 0zm10.458 3.8842c-1.1952 1.9421-4.93 1.9421-6.1251-0.1494-1.7927-2.8385 0.74696-4.7806 4.0336-2.9878 1.6433 0.89635 2.6891 2.3903 2.0915 3.1372zm13.445-3.436c0 8.2166 1.3445 9.5609 8.8139 9.5609h6.8723v-7.0213c0-5.2288-0.59757-7.0213-2.3903-7.0213-1.4939 0-2.2409 1.4939-2.2409 4.6312 0 6.4239-5.8263 6.8723-6.573 0.59757-0.74697-5.9757-4.4818-6.7227-4.4818-0.74696zm-405.45-0.14939c-2.5397 1.7927-5.5275 9.5609-4.0336 10.458 0.59757 0.44818 1.6433 2.9879 2.2409 5.6769 0.59758 2.9879 1.7927 4.6312 2.8385 4.183 2.3903-0.74696 2.8385-11.951 0.74696-14.79-1.0458-1.4939-0.44817-2.0915 2.0915-2.0915 1.9421 0 3.1372-0.74696 2.6891-1.9421-0.74697-2.2409-4.4818-3.1372-6.573-1.4939zm9.7105 2.8385c-0.29879 2.0915-0.14939 4.183 0.44818 4.6312 0.59757 0.29879 1.6433 2.8385 2.0915 5.3782 1.3445 6.4239 4.183 5.9757 4.183-0.59757 0-2.9879 0.74696-5.8263 1.6433-6.4239 1.1951-0.74696 0.59757-2.0915-1.4939-4.0336-4.183-4.0336-5.9757-3.7348-6.8723 1.0458zm138.49 0.29879c0 6.4239 4.0336 19.122 5.9757 19.122 1.6433 0 1.9421-1.7927 1.0458-8.2166-0.44818-4.4818-1.3445-9.4119-1.7927-10.906-0.89636-3.5854-5.2288-3.5854-5.2288 0zm93.668 5.2288c-2.3903 2.6891-4.183 5.5275-4.183 6.2745 0 2.3903 2.3903 1.6433 5.3782-1.7927 2.9879-3.1372 7.171-4.183 7.171-1.6433 0 0.74697-1.4939 3.1373-3.436 5.5275-4.183 5.3782-2.5397 7.171 2.5397 2.5397 5.8263-5.5275 6.4239-9.1132 2.0915-12.549-4.6312-4.0336-4.6312-4.0336-9.5609 1.6433zm-265.62-1.0458c-1.3445 3.5854 0.74697 6.1251 3.436 3.8842 3.2866-2.6891 4.7806-0.44817 1.9421 2.8385-3.436 3.8842-4.93 9.4119-2.8385 10.607 2.2409 1.3445 11.055-0.59757 11.055-2.3903 0-0.89636-1.7927-1.4939-4.0336-1.4939h-4.0336l3.436-4.4818c4.4818-6.2745 3.436-10.308-2.9879-10.906-3.436-0.29878-5.3781 0.29879-5.9757 1.9421zm182.56-0.29879c-1.3445 3.436 0.59758 5.8263 4.4818 5.8263 2.0915 0 3.7348 0.89635 3.7348 1.7927s-1.6433 1.3445-3.5854 1.1951c-2.2409-0.44817-3.436 0.29879-3.436 1.7927 0 2.9879 6.4239 4.0336 9.4119 1.4939 3.436-2.8385 2.8385-5.8263-1.9421-8.6649-2.3903-1.3445-3.1372-2.0915-1.6433-1.6433 1.7927 0.59757 2.8385 0 2.8385-1.4939 0-2.8385-8.8139-3.1372-9.8602-0.29879zm-190.03 0.74697c-1.7927 3.1372 0.74696 17.628 3.1372 17.628 1.3445 0 2.0915-1.6433 2.0915-5.0794-0.14939-6.4239-3.5854-15.089-5.2288-12.549zm234.55 5.9757c-4.4818 4.93-5.2288 8.6649-2.0915 8.5153 2.3903 0 9.4119-10.458 8.2166-12.25-0.74696-1.3445-2.6891-0.29878-6.1251 3.7348zm-79.029-0.74696c-4.183 2.3903-3.2866 4.3324 1.4939 3.5854l4.3324-0.59757-4.3324 1.7927c-3.2866 1.3445-4.183 2.6891-4.183 6.2745 0 4.3324 0.29878 4.4818 7.0213 4.4818h7.0213v-6.1251c0-4.6312-0.89636-6.7227-3.436-8.6649-4.0336-2.8385-4.3324-2.8385-7.918-0.74696zm7.4696 9.4119c0.44817 0.74697-0.1494 1.9421-1.6433 2.5397-2.9878 1.0458-4.6312-0.14939-3.1372-2.5397 1.3445-2.0915 3.436-2.0915 4.7806 0zm7.918-5.9757c1.9421 9.7105 6.2745 10.308 4.4818 0.59757-0.59757-3.436-1.9421-5.6769-3.2866-5.6769-1.7927 0-2.0915 1.1951-1.1951 5.0794zm-60.952-0.89636c-0.59757 0.59757-0.74696 2.8385-0.14939 5.0794 3.5854 17.628 6.8723 23.006 6.8723 11.055 0-3.436 0.74696-6.2745 1.6433-6.2745 0.74696 0 1.4939-0.59757 1.4939-1.4939s-1.0458-1.6433-2.3903-1.6433-3.1372-1.6433-3.8842-3.8842c-1.6433-4.183-2.0915-4.4818-3.5854-2.8385zm26.891 1.6433c-6.7227 1.6433-3.5854 9.8602 3.7348 9.8602 1.4939 0 2.8385 0.59757 2.8385 1.4939 0 0.74697-2.6891 1.0458-5.9757 0.44818-5.3782-0.74696-5.6769-0.59757-3.7348 1.7927 2.6891 3.1372 10.159 3.436 12.549 0.44818 2.5397-3.1372 0.59757-7.171-4.183-8.3663l-4.0336-1.0458 3.7348-1.3445c3.1372-1.1952 3.436-1.6433 1.4939-2.8385-1.1951-0.89636-2.6891-1.4939-2.9879-1.3445-0.44818 0-2.0915 0.44818-3.436 0.89636zm105.62 1.3445c-6.1251 4.3324-2.8385 15.089 4.0336 12.549 2.5397-1.0458 2.5397-1.1951 0-3.1372-1.4939-1.0458-2.6891-3.1372-2.6891-4.6312 0-3.2866 4.0336-3.2866 5.2288-0.14939 0.89636 2.5397 4.183 1.7927 4.183-0.74697 0-1.6433-4.4818-6.4239-6.1251-6.4239-0.59757 0-2.6891 1.1951-4.6312 2.5397zm41.233 2.3903c-2.3903 4.4818-2.3903 5.0794 0.14939 7.7683 2.8385 3.1373 8.5153 4.183 8.5153 1.6433 0-0.74697-1.0458-1.7927-2.3903-2.2409-2.9878-1.1951-2.9878-7.32 0-7.32 1.1952 0 2.6891 0.74697 3.1372 1.4939 1.6433 2.6891 4.0336 1.7927 4.0336-1.3445 0-1.6433-1.1951-3.436-2.5397-3.8842-5.2288-2.0915-8.5153-0.89636-10.906 3.8842zm131.32-1.0458c-0.59757 0.89636-1.0458 5.9757-1.0458 11.055v9.4119l7.171 0.44818c9.2622 0.59757 12.25-2.2409 9.7105-9.2622-1.0458-2.5397-1.4939-5.6769-1.0458-6.7227s-0.14939-2.6891-1.3445-3.5854c-2.9879-2.3903-12.101-3.2866-13.445-1.3445zm9.1132 4.0336c0 0.89636-1.0458 1.4939-2.3903 1.4939-1.1951 0-2.2409-0.59757-2.2409-1.4939 0-0.89635 1.0458-1.6433 2.2409-1.6433 1.3445 0 2.3903 0.74697 2.3903 1.6433zm1.4939 8.6649c1.6433 1.7927 1.4939 2.5397-0.59757 3.2866-3.1373 1.1951-6.4239-1.4939-4.93-4.0336 1.4939-2.2409 3.2866-2.0915 5.5275 0.74696zm73.801-2.9879c0 7.32 0.59731 10.159 1.9421 9.5609 1.0458-0.29879 2.2409-2.2409 2.8385-4.3324 1.1952-5.5275 4.0336-5.3781 5.5275 0.29879 2.2409 7.4696 5.3781 7.6193 5.3781 0.29879 0-8.2166-1.7927-10.607-6.8723-9.2622-3.5854 0.89635-4.0336 0.44817-4.0336-2.9879 0-2.5397-0.89636-4.0336-2.3903-4.0336-1.9421 0-2.3903 2.2409-2.3903 10.458zm-242.77-2.0915c-2.8385 2.8385-5.0794 6.4239-5.0794 8.067 0 2.6891 0.59757 2.5397 4.7806-1.4939 2.5397-2.3903 4.6312-5.3782 4.6312-6.573 0-1.0458 1.0458-2.0915 2.3903-2.0915 1.1951 0 2.3903-0.59757 2.3903-1.4939 0-2.9878-4.0336-1.3445-9.1132 3.5854zm182.71-1.9421c-4.183 2.5397-3.436 10.308 1.3445 13.445 3.1372 2.0915 4.6312 2.2409 7.918 0.74696 4.4818-1.9421 3.7348-4.93-1.0458-3.7348-4.3324 1.1951-3.7348-1.7927 0.89636-4.0336 4.6312-2.0915 4.93-4.183 0.89636-6.4239-3.7348-2.0915-6.4239-1.9421-10.009 0zm6.7227 4.6312c-3.1372 1.9421-5.0794 1.9421-3.8842 0 0.44817-0.89636 2.0915-1.4939 3.5854-1.4939 2.2409 0 2.3903 0.14939 0.29878 1.4939zm16.135-5.2288c-4.0336 1.6433-1.9421 4.0336 2.6891 3.1372 2.6891-0.59757 4.7806-0.29878 4.7806 0.59758 0 0.74696-1.7927 1.4939-3.8842 1.4939-4.0336 0-8.067 5.0794-6.4239 7.918 0.59757 0.74696 4.4818 1.4939 8.8139 1.4939h7.7683l-0.89636-5.8263c-1.4939-8.2166-6.2745-11.503-12.848-8.8139zm7.4696 9.8602c0 0.89635-1.1951 1.6433-2.3903 1.6433-1.3445 0-2.3903-0.74697-2.3903-1.6433 0-0.74697 1.0458-1.4939 2.3903-1.4939 1.1951 0 2.3903 0.74696 2.3903 1.4939zm-376.17-8.3663c-2.8385 1.1952-2.3903 3.7348 0.74697 3.8842 1.6433 0 1.9421 0.44818 0.89635 0.89636-2.6891 1.0458-2.5397 7.6193 0.1494 9.8602 1.4939 1.1951 3.8842 1.3445 7.4696 0.44818 4.6312-1.1952 5.2288-1.9421 5.0794-6.4239-0.14939-2.6891-1.1951-6.1251-2.2409-7.32-1.7927-2.2409-8.067-2.8385-12.101-1.3445zm9.7105 8.2166c0.44818 0.89636-0.14939 1.7927-1.3445 2.2409-2.2409 0.89635-4.0336 0-4.0336-2.2409 0-1.7927 4.3324-1.6433 5.3781 0zm100.09-7.32c-2.5397 2.5397-2.3903 4.3324 0.29879 4.3324 1.3445 0 3.1372-1.3445 4.0336-3.1373 1.3445-2.3903 1.1951-3.1372-0.44818-3.1372-1.0458 0-2.8385 0.89636-3.8842 1.9421zm278.02 1.9421c-2.5397 3.8842-2.5397 4.3324 0.14939 7.32 1.9421 2.0915 4.3324 2.9879 7.6193 2.6891 6.1251-0.59757 6.1251-3.436 0-4.4818-6.7227-1.0458-6.1251-5.5275 0.59758-4.93 6.8723 0.44818 5.9757-3.436-0.89636-4.0336-3.8842-0.44818-5.5275 0.29879-7.4696 3.436zm-430.25-0.89636c-1.7927 1.1952-1.7927 2.8385-0.29878 10.159 1.1951 4.7806 2.5397 9.4119 3.1372 10.458 1.4939 2.5397 13.445-0.74696 14.641-4.0336 0.59757-1.1952-0.59757-5.6769-2.5397-9.7105-2.8385-6.1251-4.3324-7.4696-8.2166-7.7683-2.5397-0.29879-5.6769 0.14939-6.7227 0.89635zm9.1132 3.2866c0 2.2409-2.8385 3.5854-4.93 2.3903-1.1951-0.74696-1.0458-1.4939 0.44818-2.5397 2.8385-1.7927 4.4818-1.6433 4.4818 0.1494zm3.1372 7.918c2.0915 1.3445 1.9421 1.9421-0.74696 3.8842-3.8842 2.9878-4.93 2.9878-6.1251-0.1494-1.7927-4.7806 2.0915-6.8723 6.8723-3.7348zm232.6-9.4119c-1.1952 1.6433-1.9421 4.0336-1.9421 5.2288 0 2.8385 5.0794 7.32 8.2166 7.32 3.2866 0 3.5854-2.9879 0.29879-4.183-3.8842-1.4939-2.5397-4.0336 1.6433-2.9879 2.8385 0.74696 4.183 0.29879 4.93-1.4939 2.3903-6.2745-9.5609-9.8602-13.147-3.8842zm-221.7 1.6433c-2.5397 4.93-1.1951 9.7105 3.436 12.4 3.8842 2.0915 4.4818 2.0915 7.4696-0.59757 4.0336-3.5854 4.183-8.9636 0.44818-12.4-3.8842-3.5854-9.2622-3.2866-11.354 0.59757zm9.1132 5.0794c-0.14939 1.7927-1.3445 3.5854-2.3903 3.8842-2.3903 0.74697-4.183-3.436-2.9879-6.7227 1.3445-3.436 5.9757-0.89636 5.3781 2.8385zm109.06-6.573c-1.9421 0.74697-3.5854 2.3903-3.5854 3.7348 0 2.5397 4.6312 5.5275 8.5153 5.5275 3.5854 0 2.9879-2.3903-1.0458-4.4818l-3.5854-1.9421 3.5854 0.74696c3.8842 0.74697 4.6312-0.89636 1.4939-3.436-1.1952-0.89635-3.2866-1.0458-5.3782-0.14939zm-162.84 8.067c2.3903 15.089 2.8385 17.031 4.4818 16.433 1.0458-0.29879 1.6433-3.1372 1.3445-6.2745-0.29879-3.436 0.14939-5.8263 1.1951-5.8263 0.89636 0 1.6433-0.74696 1.6433-1.6433 0-0.74697-1.0458-1.4939-2.2409-1.4939s-2.5397-1.7927-3.1372-3.8842c-1.6433-6.8723-4.4818-4.6312-3.2866 2.6891zm148.65-4.0336c-3.2866 1.3445-2.2409 6.7227 1.6433 8.3663l3.436 1.3445-3.436 0.14939c-1.9421 0-3.5854 1.0458-3.5854 2.2409 0 2.9878 9.5609 4.3324 12.549 1.7927 1.3445-1.0458 3.7348-2.3903 5.2288-2.9879 2.3903-0.74696 2.5397-1.4939 1.0458-3.2866-2.2409-2.6891-6.2745-3.1372-6.2745-0.74697 0 0.89636-1.1952 0.74697-3.1372-0.44818-1.6433-1.0458-2.9879-2.9878-2.6891-4.183 0.44818-2.3903-1.7927-3.436-4.7806-2.2409zm-163.59 5.3781c-1.6433 4.183-1.6433 5.9757 0.1494 11.204 2.3903 6.7227 5.6769 7.6193 4.93 1.1951-0.29878-2.2409 0.59757-4.6312 2.2409-5.8263 2.6891-1.9421 2.6891-2.2409-0.59757-2.9879-4.3324-1.1951-4.4818-3.7348-0.29879-4.7806 4.3324-1.1951 3.8842-3.7348-0.59757-3.7348-2.8385 0-4.3324 1.4939-5.8263 4.93zm248.29-2.9879c-4.183 4.0336-1.3445 13.744 3.8842 13.744 2.8385 0 2.5397-3.1372-0.59757-5.3781-2.8385-2.0915-1.6433-5.5275 1.9421-5.5275 1.3445 0 2.6891 1.0458 3.2866 2.3903 1.1952 3.2866 3.7348 2.9878 3.7348-0.44818 0-3.8842-3.1372-6.7227-7.171-6.7227-1.7927 0-4.0336 0.89635-5.0794 1.9421zm-99.197 2.0915c-1.0458 1.1951-2.5397 1.9421-3.2866 1.3445-0.89636-0.44818-3.5854-0.29878-6.1251 0.14939-4.7806 1.0458-6.1251 4.7806-3.7348 10.906 1.3445 3.7348 3.7348 2.9879 3.7348-1.1952 0-6.8723 7.171-10.308 8.067-3.7348 0.44818 2.6891 1.6433 3.436 5.0794 3.436 6.2745 0 8.5153-4.0336 5.0794-9.2622-2.9879-4.4818-5.9757-5.0794-8.8139-1.6433zm5.9757 6.573c-1.4939 1.9421-1.9421 1.9421-3.1373-0.29878-2.0915-3.436 0-6.1251 2.8385-3.8842 1.6433 1.4939 1.7927 2.3903 0.29879 4.183zm-174.94-5.3781c-0.89636 1.0458-2.0915 5.3781-2.5397 9.5609-0.89636 6.1251-0.44818 8.3663 1.4939 10.607 5.2288 5.6769 14.79 2.5397 14.79-4.93 0-2.5397-0.74697-4.93-1.6433-5.5275-0.89635-0.44818-1.4939-2.6891-1.4939-4.7806 0-5.5275-7.4696-8.9636-10.607-4.93zm7.4696 4.0336c0 1.7927-4.183 3.436-5.3782 2.2409-1.9421-1.9421-0.89636-3.5854 2.2409-3.5854 1.6433 0 3.1373 0.59757 3.1373 1.3445zm2.2409 11.204c0 1.3445-1.4939 2.5397-3.436 2.8385-2.8385 0.44818-3.5854-0.29879-3.5854-2.8385s0.74697-3.2866 3.5854-2.8385c1.9421 0.29878 3.436 1.4939 3.436 2.8385zm273.09-10.756c-5.3781 6.4239-7.171 10.756-4.183 10.756 2.2409 0 12.698-12.25 12.698-14.939 0-3.8842-2.6891-2.6891-8.5153 4.183zm37.797 0.14939c-3.2866 8.6649-3.2866 8.9636 0.74696 7.918 2.2409-0.59757 2.9879-0.29878 2.3903 0.74697-1.6433 2.5397 1.4939 3.8842 4.7806 2.0915 1.4939-0.74697 4.0336-1.9421 5.5275-2.3903s2.8385-1.9421 2.8385-3.2866c0-1.9421-0.89635-2.2409-3.436-1.4939-2.8385 0.89636-3.1372 0.59757-2.3903-1.6433 0.89636-2.0915 0.44818-2.5397-2.0915-1.9421-2.3903 0.74696-2.9879 0.14939-2.6891-2.3903 0.59757-5.9757-3.1372-4.3324-5.6769 2.3903zm-176.59-0.89636c-4.3324 2.9879-4.183 7.7683 0.29878 10.607 4.0336 2.6891 10.607 1.6433 10.607-1.6433 0-1.4939-1.4939-2.0915-4.183-1.7927-5.0794 0.44818-7.0213-3.2866-2.3903-4.6312 1.9421-0.44818 3.436-1.3445 3.436-2.0915 0-2.3903-4.4818-2.6891-7.7683-0.44818zm-18.226 2.0915c-0.44818 0.89636-0.44818 2.2409 0.1494 3.1372 0.44817 0.89636 0.14939 2.6891-0.89636 3.8842-1.3445 1.6433-1.3445 2.9879-0.14939 5.3781 1.4939 2.5397 2.5397 2.8385 6.4239 1.7927 7.171-2.0915 8.2166-3.1372 7.171-7.7683-1.6433-6.573-10.009-10.756-12.698-6.4239zm7.918 7.7683c0.44818 0.89636-0.1494 1.6433-1.4939 1.6433-1.3445 0-2.3903-0.74696-2.3903-1.6433 0-0.74696 0.59757-1.4939 1.3445-1.4939 0.89636 0 1.9421 0.74697 2.5397 1.4939zm202.73 0.74697c-3.2866 3.7348-5.8263 7.4696-5.8263 8.5153 0 3.7348 3.2866 1.4939 8.067-5.2288 2.8385-3.8842 5.6769-7.171 6.4239-7.171 0.74696 0 0.89635-0.59757 0.29878-1.4939-1.4939-2.3903-2.6891-1.7927-8.9636 5.3781zm-245.9 0.14939c-2.3903 2.8385 0.44818 7.0213 4.7806 7.0213 1.6433 0 3.2866 0.74696 3.7348 1.4939 0.59757 0.89636-1.9421 1.3445-6.1251 1.0458-5.2288-0.29878-8.2166-1.4939-11.653-4.7806-5.2288-5.0794-7.32-4.4818-9.2622 2.6891-0.89636 2.8385-2.0915 6.2745-2.6891 7.7683-0.74697 1.9421-0.29879 2.6891 1.3445 2.6891 1.1951 0 2.6891-1.0458 3.1372-2.2409 0.59757-1.6433 3.1372-2.3903 8.067-2.3903 3.8842 0 7.171-0.74697 7.171-1.6433 0-0.89635 1.4939-0.44817 3.436 0.74697 4.183 2.6891 10.009 1.7927 11.354-1.7927 1.1951-3.1372-1.9421-6.7227-5.6769-6.7227-1.6433 0-2.8385-0.74696-2.8385-1.6433 0-0.74696 1.3445-1.4939 3.1372-1.4939 1.6433 0 3.1372-0.74696 3.1372-1.6433 0-2.3903-8.8139-1.7927-11.055 0.89636zm249.18 5.0794c-5.9757 6.4239-6.4239 7.4696-3.7348 7.918 1.7927 0.44818 3.8842-0.59757 5.2288-2.6891 1.1951-1.7927 3.436-3.2866 5.0794-3.2866 2.6891 0 5.2288-5.5275 3.7348-8.067s-3.436-1.3445-10.308 6.1251zm-276.38-0.14939c-0.59757 0.59757-1.0458 2.3903-1.0458 3.8842 0 3.5854-2.0915 3.7348-4.6312 0.59757-2.0915-2.5397-7.918-3.2866-7.918-1.1951 0 2.3903 10.756 11.653 12.25 10.756 0.89636-0.59757 2.6891-4.183 4.0336-8.067 1.7927-5.5275 1.9421-7.0213 0.29879-7.0213-1.0458 0-2.3903 0.44818-2.9879 1.0458zm79.624 7.171c1.3445 9.5609 3.2866 14.342 4.6312 10.607 0.44818-1.3445 1.0458-3.7348 1.3445-5.5275 0.59757-4.0336 3.1372-3.7348 5.0794 0.59757 2.0915 4.4818 4.0336 4.3324 4.0336-0.29879s-5.3782-9.5609-8.8139-8.2166c-1.6433 0.59757-2.8385-0.14939-3.2866-2.2409-0.44818-1.7927-1.6433-3.1372-2.5397-3.1372s-1.1951 2.9879-0.44818 8.2166zm27.787 0.59757c-7.171 7.7683-9.5609 11.503-7.32 11.503 1.3445 0 18.077-17.777 18.077-19.122 0-2.9879-3.436-0.59757-10.756 7.6193zm-38.394-4.6312c-1.4939 1.4939-1.3445 5.0794 0.59757 12.101 1.9421 7.0217 4.7806 5.8263 5.5275-2.3903 0.29878-4.93-4.0336-11.802-6.1251-9.7105zm-96.36 1.6433c-2.6891 0.44818-3.436 1.7927-3.436 5.0794 0 10.009 3.7348 12.698 5.3782 4.0336 1.1951-6.7227 4.93-7.32 6.2745-0.89636 1.4939 6.8723 6.2745 6.573 4.93-0.14939-1.6433-8.5153-3.8842-9.8602-13.147-8.067zm-42.577 5.0794c-4.4818 4.4818-4.183 10.159 0.89636 14.043 4.93 3.8842 8.067 4.183 12.848 0.74696 4.4818-3.1372 2.2409-6.4239-2.6891-3.8842-4.4818 2.3903-6.1251 2.0915-8.067-1.4939-2.2409-4.183 0.44818-7.7683 5.8263-7.7683 5.0794 0 3.8842-3.7348-1.4939-4.4818-2.5397-0.29878-5.3781 0.74697-7.32 2.8385zm19.571 0c-0.59757 0.74696-0.29878 1.7927 0.44818 2.2409 0.59757 0.44818 0.89636 2.8385 0.59757 5.5275-0.74696 5.3782 2.9879 7.32 10.756 5.5275 4.4818-0.89636 4.7806-1.3445 3.8842-5.8263-0.44818-2.5397-1.6433-5.6769-2.6891-6.8723-1.9421-2.3903-11.653-2.8385-12.997-0.59757zm11.653 8.6649c0 1.3445-1.3445 2.3903-3.1372 2.3903-3.1372 0-4.0336-1.6433-2.0915-3.7348 1.9421-1.7927 5.2288-1.0458 5.2288 1.3445zm99.791-5.5275c-0.89636 4.7806-5.6769 6.8723-5.6769 2.6891 0-2.9879-4.183-6.2745-5.3782-4.3324-1.0458 1.7927 1.7927 9.8602 4.0336 11.204 0.89636 0.59757 3.8842 0.59757 6.573 0 5.2288-1.0458 6.7227-3.8842 5.0794-10.458-1.3445-5.0794-3.436-4.7806-4.6312 0.89636zm-36.601 0.44818c-0.89636 1.0458-1.9421 3.2866-2.5397 4.93-1.0458 2.8385-1.1952 2.8385-4.7806-0.29879-4.4818-4.3324-5.6769-4.3324-5.6769 0.29879 0 7.32 1.9421 13.445 4.3324 13.445 1.6433 0 2.0915-1.0458 1.4939-3.8842-0.74696-4.0336 1.0458-5.2288 2.9879-2.0915 0.74697 1.3445 1.6433 1.0458 2.9879-0.89636 1.9421-2.5397 2.0915-2.3903 3.1372 0.59757 1.7927 6.1251 3.8842 3.2866 2.8385-4.183-1.0458-8.5153-2.5397-10.906-4.7806-7.918zm9.8602 1.4939c-3.1372 4.6312-3.1372 6.4239 0.44818 9.7105 5.8263 5.2288 12.848 2.2409 12.848-5.5275 0-7.4696-9.1132-10.159-13.296-4.183zm8.5153 3.5854c1.4939 1.9421 1.4939 2.5397-0.74696 3.436-2.9879 1.0458-6.4239-1.6433-4.7806-4.0336 1.3445-2.3903 3.2866-2.0915 5.5275 0.59757zm-138.94 1.1952c-0.74696 0.89635-0.44818 2.0915 0.59757 2.3903 1.0458 0.29879 1.3445 2.3903 0.74697 5.3782-0.59758 2.9879-0.1494 5.2288 1.0458 5.9757 2.0915 1.1952 14.192-1.1951 14.192-2.9878 0-1.9421-2.3903-4.3324-5.2288-5.3782-2.2409-0.74696-2.3903-1.6433-1.0458-4.183 1.4939-2.8385 1.1951-3.1372-3.7348-3.1372-2.9879 0-5.9757 0.89636-6.573 1.9421zm8.8139 8.9636c0 0.89636-1.1951 1.6433-2.5397 1.6433s-1.9421-0.74696-1.4939-1.6433c0.59757-0.74696 1.6433-1.4939 2.5397-1.4939 0.74697 0 1.4939 0.74697 1.4939 1.4939zm350.03-8.2166c-1.1951 0.44818-2.6891 2.5397-3.5854 4.6312-2.0915 5.5275 0.74697 9.8602 6.1251 9.8602 5.5275 0 8.2166-2.5397 8.2166-8.067 0-3.436-1.0458-4.93-4.0336-5.9757-2.2409-0.89636-4.183-1.4939-4.3324-1.4939-0.14939 0.1494-1.1951 0.59757-2.3903 1.0458zm5.9757 6.7227c0 0.89636-1.0458 1.4939-2.3903 1.4939-1.1951 0-2.2409-0.59757-2.2409-1.4939s1.0458-1.6433 2.2409-1.6433c1.3445 0 2.3903 0.74696 2.3903 1.6433zm8.9636 4.183c-0.44818 0.74697-1.3445 4.0336-1.9421 7.171-1.0458 5.6769-0.89636 5.8263 3.436 5.8263 6.8723 0 11.503-1.6433 11.503-4.0336 0-1.3445-1.6433-2.2409-4.4818-2.2409-3.436 0-4.3324-0.59757-4.3324-3.2866 0.1494-3.436-2.8385-5.6769-4.183-3.436zm57.965 9.7105c-1.4939 1.4939-2.5397 3.7348-2.5397 4.93 0 1.1951 1.0458 3.436 2.5397 4.93 2.3903 2.6891 2.3903 2.8385-0.29878 2.8385-1.4939 0-3.7348-1.1951-4.7806-2.6891-1.4939-2.0915-2.5397-2.2409-3.8842-0.89636-1.3445 1.3445-1.1952 2.6891 0.89635 5.8263 4.7806 7.171 10.906 6.8723 15.089-1.0458 1.1951-2.2409 0.89636-3.7348-1.1951-5.9757-2.8385-3.2866-0.89636-4.183 2.2409-1.0458 1.4939 1.3445 2.2409 1.3445 3.7348 0 1.4939-1.4939 1.0458-2.8385-1.7927-5.8263-4.4818-4.7806-6.573-4.93-10.009-1.0458zm-46.162 5.8263c-1.9421 1.3445-3.436 4.0336-3.436 5.9757 0 4.183 4.3324 8.8139 8.2166 8.8139 3.1372 0 3.7348-4.6312 0.74696-4.93-1.0458 0 0.1494-0.59758 2.5397-1.1952 5.8263-1.1951 6.7227-3.7348 2.6891-7.918-3.8842-3.8842-6.1251-4.0336-10.756-0.74697zm64.239 8.067c-1.9421 0.44818-4.183 2.3903-5.0794 4.4818-0.74697 2.0915-2.0915 3.7348-2.8385 3.7348-2.3903 0-3.5854 5.2288-1.7927 7.0213 1.3445 1.1951 2.6891 0.59757 5.2288-2.3903 3.7348-4.4818 8.2166-6.7227 12.4-6.2745 3.7348 0.44818 3.5854-4.0336-0.29879-6.1251-1.6433-0.89636-3.2866-1.4939-3.436-1.3445-0.29879 0.1494-2.2409 0.44818-4.183 0.89636zm-52.885 5.2288c-3.2866 3.436-4.0336 5.0794-2.6891 6.4239 1.3445 1.3445 2.6891 1.1951 5.6769-0.74697 2.2409-1.4939 5.0794-2.0915 6.4239-1.6433s3.5854 0.44818 5.0794-0.14939c2.2409-0.89636 1.9421-1.4939-1.9421-4.7806-5.9757-4.93-7.171-4.7806-12.549 0.89636zm-248.29 5.0794c-4.4818 4.4818-8.067 9.5609-8.067 10.906 0 3.5854 2.8385 3.5854 4.183 0 0.59757-1.4939 4.0336-5.9757 7.7683-9.8602 3.7348-3.7348 6.7227-7.4696 6.7227-8.2166 0.14939-2.5397-2.8385-0.74696-10.607 7.171zm307.6 3.2866c-3.7348 3.7348-6.7227 7.6193-6.7227 8.5153 0 2.6891 5.5275 2.2409 7.7683-0.44818 1.0458-1.1951 3.436-2.3903 5.2288-2.6891 2.8385-0.44818 3.436-1.4939 3.436-5.8263 0-2.9879-0.59757-5.6769-1.4939-5.8263-0.89636-0.29878-4.6312 2.5397-8.2166 6.2745zm-35.406 5.6769c-5.6769 5.9757-6.4239 9.4119-1.9421 9.4119 2.3903 0 7.918-7.7683 7.32-10.607-0.1494-1.0458 0.74696-1.9421 2.0915-1.9421 1.3445 0 2.3903-0.74696 2.3903-1.6433 0-3.1372-4.183-1.1951-9.8602 4.7806zm8.5153 7.32c-3.5854 3.8842-6.1251 7.7683-5.5275 8.5153 1.3445 2.2409 8.067 1.6433 8.9636-0.89636 0.59757-1.3445 2.3903-2.3903 4.183-2.3903 2.6891 0 3.1372-1.0458 3.1372-6.2745 0-8.3663-2.8385-8.2166-10.756 1.0458zm-308.94 12.25c-8.6649 9.1132-11.951 14.939-8.5153 14.939 0.74696 0 5.0794-3.8842 9.5609-8.6649 4.4815-4.7807 8.8139-8.6649 9.7105-8.6649 0.74696 0 1.4939-1.6433 1.4939-3.8842 0-2.0915-0.59757-3.8842-1.3445-3.8842-0.74697 0-5.6769 4.6312-10.906 10.159zm179.27 12.848c-4.0336 4.0336-2.2409 8.6649 5.0794 12.848 3.7348 1.9421 6.7227 4.3324 6.7227 5.0794 0 3.2866-5.0794 3.2866-8.3663 0-5.8263-5.3782-8.3663 0.44817-2.5397 6.1251 6.2745 6.4239 17.18 2.2409 17.18-6.573 0-4.3324-3.5854-8.2166-8.9636-9.8602-5.8263-1.6433-4.183-4.183 1.9421-3.1373 5.9757 1.1952 7.0213-0.59757 2.9879-4.6312-3.1372-3.1372-10.756-3.1372-14.043 0.1494zm-353.76 2.9878c-2.9878 3.5854 0.89636 10.159 8.3663 13.595 6.1251 2.9879 7.6193 6.573 3.1372 7.7683-3.8842 1.0458-6.7227-0.14939-6.7227-2.8385 0-1.1952-1.3445-2.2409-3.1372-2.2409-2.0915 0-3.1372 1.0458-3.1372 3.1372 0 4.0336 5.3781 9.4119 9.4119 9.4119 5.2288 0 11.055-3.436 11.951-7.32 1.3445-5.3782-0.14939-7.7683-7.171-11.354-3.436-1.7927-6.2745-3.8842-6.2745-4.7806 0-2.5397 2.9879-3.2866 6.1251-1.6433 2.6891 1.4939 3.436 1.1951 4.183-0.74697 0.59757-1.4939 0.14939-3.2866-1.1951-4.0336-3.5854-2.2409-13.296-1.6433-15.537 1.0458zm151.63 8.8139c-5.2288 5.9757-7.6193 11.653-4.3324 10.458 2.2409-1.0458 12.848-13.445 12.848-15.238 0-3.436-2.9879-1.7927-8.5153 4.7806zm228.87-1.4939c-5.6769 8.2166-0.29879 17.777 9.7105 16.583 6.1251-0.74697 7.0213-5.9757 0.89636-5.9757l-4.3324-0.14939 4.3324-3.1372c5.3781-4.0336 5.3781-7.32 0.29878-9.2622-6.1251-2.3903-8.2166-1.9421-10.906 1.9421zm6.1251 5.3781c-2.0915 1.6433-3.1372 1.6433-3.5854 0.44818-0.74697-2.2409 2.9879-4.7806 5.0794-3.436 0.74696 0.44818 0.14939 1.7927-1.4939 2.9879zm18.226-7.4696c-1.7927 1.1952-1.7927 1.9421-0.29878 3.8842 1.3445 1.4939 1.3445 2.5397 0.29878 3.2866-0.89635 0.59758-1.6433 3.1372-1.6433 5.5275 0 5.2288 3.5854 6.8723 12.698 5.9757 5.2288-0.44818 5.3781-0.59757 5.2288-7.4696-0.14939-5.0794-1.0458-7.6193-3.7348-9.7105-3.8842-3.1372-8.9636-3.7348-12.549-1.4939zm10.906 12.101c0 2.5397-5.6769 2.9879-7.171 0.44818-1.3445-2.2409 2.2409-4.6312 5.0794-3.436 1.1952 0.44818 2.0915 1.7927 2.0915 2.9879zm-386.63-5.3781c-1.3445 1.9421-2.3903 5.0794-2.3903 7.0213 0 8.8139 15.836 13.894 17.031 5.3782 0.44818-3.1372 0-3.5854-2.8385-2.8385-4.0336 1.0458-4.183-1.3445 0-3.5854 3.8842-2.0915 3.8842-5.6769 0-7.7683-4.7806-2.5397-9.1132-1.9421-11.802 1.7927zm6.573 3.8842c-1.4939 1.4939-2.9879 2.2409-3.5854 1.6433-1.4939-1.4939 0.74696-4.3324 3.7348-4.3324 2.3903 0 2.3903 0.29879-0.14939 2.6891zm19.72-6.2745c-1.1951 0.44818-1.9421 1.7927-1.9421 2.8385 0 1.6433 1.4939 1.9421 5.8263 1.4939l5.8263-0.74696-5.3782 1.9421c-4.6312 1.6433-5.6769 2.9879-6.1251 7.171-0.29878 4.183 0.1494 5.0794 3.436 5.9757 2.0915 0.44818 5.8263 0.74697 8.3663 0.44818 4.0336-0.44818 4.4818-1.1951 4.93-7.32 0.74697-10.308-5.9757-15.537-14.939-11.802zm9.7105 11.503c1.3445 2.0915-3.1372 3.7348-6.2745 2.5397-3.1372-1.1951-1.4939-4.183 2.3903-4.183 1.6433 0 3.436 0.74697 3.8842 1.6433zm67.822 11.802c-7.918 11.055-8.3663 11.653-5.5275 11.653 2.8387 0 16.732-16.882 16.882-20.765 0.14966-3.8838-5.0794 0.29878-11.354 9.1132zm-19.869 27.638c-6.4239 9.5609-7.0213 11.951-2.6891 10.308 2.8385-1.1951 13.595-17.031 12.549-18.674-1.6433-2.6891-3.5854-0.89636-9.8602 8.3663zm-27.488 39.141c-9.7105 14.192-9.8602 14.491-8.5153 15.537 1.1951 0.89636 17.479-19.571 19.122-23.903 0.44818-1.4939 0.29879-2.9879-0.44818-3.5854-0.74696-0.44818-5.3781 4.93-10.159 11.951zm28.982 9.4119c-2.6891 5.0794-0.74696 8.2166 4.3324 7.0213 3.8842-0.89636 4.0336-0.74696 1.4939 1.1951-3.5854 2.9879-3.436 4.183 0.89636 4.183 7.6193 0 10.308-8.3663 3.436-11.055-2.0915-0.74696-3.8842-2.0915-3.8842-2.9879 0-2.9879-4.4818-1.7927-6.2745 1.6433zm-14.641-0.74696c-3.7348 3.8842 1.0458 15.238 7.918 18.973 5.5275 2.9879 8.5153 1.7927 5.3782-2.3903-1.0458-1.4939-2.2409-3.8842-2.8385-5.3781-0.44818-1.4939-2.2409-2.8385-4.0336-2.8385-2.6891 0-2.9879-0.59757-2.2409-4.6312 0.89636-4.4818-1.3445-6.4239-4.183-3.7348zm-10.308 13.445c-1.0458 2.5397-0.74696 4.7806 1.0458 7.4696 2.9879 4.7806 10.009 10.906 12.549 11.055 2.9879 0 2.3903-3.8842-1.0458-7.0213-1.6433-1.4939-2.6891-3.7348-2.2409-4.93 0.59757-1.4939-0.29879-2.2409-2.5397-2.2409-2.5397 0-3.2866-0.74696-2.9879-3.2866 0.74697-4.7806-2.9879-5.5275-4.7806-1.0458zm-29.58 13.894c-7.918 11.354-8.9636 17.778-1.7927 9.2622 4.93-5.5275 12.4-16.433 12.4-17.927 0-0.44831-0.89636-0.89635-2.0915-0.89635-1.0458 0-4.93 4.3324-8.5153 9.5609zm20.915-3.2866c-1.1951 1.7927 1.7927 3.7348 3.8842 2.3903 1.6433-1.0458 0.59757-3.8842-1.6433-3.8842-0.74696 0-1.7927 0.59731-2.2409 1.4939zm3.8842 6.2745c0 0.89636 1.9421 3.8842 4.4818 6.7227 3.7348 4.0336 5.0794 4.7806 6.573 3.1372 1.6433-1.4939 1.1951-2.8385-2.5397-6.573-4.4818-4.7806-8.5153-6.2745-8.5153-3.2866zm-12.549 3.5854c0 2.3903 11.354 13.744 13.894 13.744 3.436 0 1.6433-4.183-4.183-9.8602-6.1251-5.9757-9.8602-7.32-9.7105-3.8842zm-10.009 9.4119c-4.3324 3.2866-5.0794 11.354-1.1951 15.089 6.573 6.573 19.869 1.7927 18.674-6.573-0.59757-4.3324-5.9757-5.6769-5.9757-1.3445 0 3.8842-3.5854 6.8723-6.8723 5.6769-3.1372-1.1952-3.2866-8.3663-0.14939-9.5609 2.8385-1.0458 3.1372-5.2288 0.29878-5.2288-1.1951 0-3.2866 0.89636-4.7806 1.9421zm-18.375 5.5275c0 0.59731-3.8842 5.3782-8.5153 10.607-8.5153 9.2622-10.009 11.653-7.32 11.653 2.2409 0 19.122-18.674 19.122-21.214 0-2.2409-3.1372-3.2866-3.2866-1.0458zm-2.8385 15.537c-2.9879 5.3782 7.171 20.467 11.055 16.583 1.3445-1.4939 1.1951-2.5397-0.89636-4.7806-1.4939-1.6433-2.2409-4.0336-1.6433-5.5275 0.74696-1.9421 0.14939-2.6891-2.5397-2.6891-2.8385 0-3.2866-0.29865-1.7927-1.7927 2.5397-2.5397 2.3903-4.4818-0.44818-4.4818-1.1952 0-2.8385 1.3445-3.7348 2.6891zm-8.8139 15.686c-6.7227 6.7227 2.9878 17.18 10.159 10.756 3.7348-3.436 4.0336-7.4696 0.74697-10.906-3.2866-3.1372-7.6193-3.1372-10.906 0.14966zm8.3663 5.6769c0.29879 1.7927-0.59757 2.6891-2.8385 2.6891-2.2409 0-3.1372-1.0458-3.1372-3.2866 0-4.0336 5.0794-3.5854 5.9757 0.59731zm-33.165 1.4939c-9.1132 8.3663-10.607 10.607-7.0213 10.607 2.0915 0 18.524-15.686 18.524-17.628 0-2.5397-2.8385-0.74696-11.503 7.0213zm-1.6433 18.226c-1.4939 1.4939-2.5397 3.8842-2.5397 5.2288 0 3.2866 4.93 7.4696 8.8139 7.4696 4.3324 0 8.9636-5.3782 7.6193-8.8139-1.0458-2.6891-1.1951-2.6891-3.2866 0.14965-2.0915 2.8385-2.2409 2.8385-2.2409-1.9421 0-5.8263-4.0336-6.8723-8.3663-2.0915zm-31.522 13.147c-6.8723 6.2745-12.101 12.4-11.653 13.445 0.29879 1.1951 6.2745-3.436 14.641-11.354 7.7683-7.32 13.147-13.296 11.802-13.445-1.3445 0-7.918 5.0794-14.79 11.354zm14.939 2.0915-3.7348 3.8842 4.4818 4.6312c2.3903 2.6891 5.3782 4.7806 6.4239 4.6312 2.8385 0 2.6891-3.7348-0.29879-6.2745-2.6891-2.2409-3.1372-6.2745-0.44818-6.2745 1.0458 0 3.1373 1.1951 4.6312 2.6891 1.6433 1.4939 3.8842 2.0915 5.5275 1.3445 2.5397-0.89636 2.3903-1.4939-1.4939-4.93-5.6769-4.7806-10.308-4.7806-15.089 0.29866zm-14.939 5.2288c-1.1951 1.9421 1.7927 3.7348 3.8842 2.5397 1.6433-1.1951 0.59758-4.0336-1.6433-4.0336-0.74696 0-1.7927 0.74697-2.2409 1.4939zm5.3781 6.2745c0 0.74697 2.2409 3.436 5.0794 5.6769 4.183 3.436 5.2288 3.8842 5.5275 1.9421 0.74696-3.2866-4.3324-9.1132-7.7683-9.1132-1.6433 0-2.8385 0.74697-2.8385 1.4939zm-14.939 6.4239c-0.44818 0.89636 1.9421 4.6312 5.3782 8.2166l6.2745 6.573 4.0336-3.7348c2.0915-2.0915 4.0336-4.6312 4.0336-5.8263 0-2.6891-0.89636-2.6891-5.3782 0.29865-3.2866 2.0915-3.7348 1.9421-7.0213-2.3903-3.5854-4.93-5.6769-5.8263-7.32-3.1372zm-22.11 9.7105c-9.4119 8.067-11.503 10.458-11.503 12.698-0.14939 2.0915 4.93-1.3445 14.491-9.8602 8.3663-7.6193 10.756-11.055 7.6193-11.055-0.74697 0-5.5275 3.7348-10.607 8.2166z" stroke-width=".14939"/>
</svg>
